<?xml version="1.0" encoding="UTF-8"?>
<svg id="Layer_2" data-name="Layer 2" xmlns="http://www.w3.org/2000/svg" viewBox="0 0 171.8 41.42">
  <defs>
    <style>
      .cls-1 {
        fill: #231f20;
      }

      .cls-2 {
        fill: #2e3192;
      }
    </style>
  </defs>
  <g id="Layer_1-2" data-name="Layer 1">
    <g>
      <path class="cls-1" d="M155.66,41.42v-6.15h.9v.48c.08-.2.18-.35.32-.45.14-.1.31-.15.51-.15.4,0,.67.18.84.53.16.35.24.98.24,1.87s-.08,1.57-.24,1.92c-.16.35-.43.53-.82.53-.19,0-.35-.04-.49-.13-.13-.09-.24-.21-.32-.39v1.94h-.95ZM156.58,37.38c0,.75.03,1.22.1,1.42.07.2.2.3.39.3.17,0,.28-.09.34-.26.06-.17.09-.6.09-1.28s-.03-1.08-.09-1.26c-.06-.18-.18-.27-.34-.27-.19,0-.32.08-.39.25-.07.16-.1.53-.1,1.11ZM152.66,41.39v-.8s.04,0,.06,0c.02,0,.05,0,.09,0,.13,0,.23-.02.29-.07.06-.05.09-.13.09-.24,0-.03,0-.08-.01-.12,0-.05-.02-.09-.03-.14l-1.05-4.75h1l.56,3.32.55-3.32h.96l-1.06,5.04c-.1.44-.22.73-.38.88-.16.15-.41.22-.75.22-.05,0-.1,0-.16,0-.06,0-.11-.01-.17-.02ZM148.43,37.73h1.01v.39c0,.38.04.63.13.77.08.14.23.21.43.21s.38-.06.49-.18c.11-.12.17-.3.17-.54,0-.18-.04-.34-.12-.47-.08-.13-.25-.3-.51-.51l-.52-.41c-.45-.35-.73-.64-.86-.87-.12-.23-.18-.51-.18-.86,0-.51.14-.92.41-1.21.27-.29.65-.44,1.12-.44.51,0,.89.15,1.16.47.27.31.4.75.4,1.34,0,.06,0,.1,0,.13,0,.03,0,.06,0,.08h-.96v-.16c0-.33-.05-.57-.14-.71-.1-.14-.26-.21-.48-.21-.16,0-.29.05-.38.16-.09.11-.14.26-.14.45,0,.26.21.54.62.86h.01s.56.43.56.43c.4.3.67.58.81.84.14.26.21.6.21,1.01,0,.56-.14.99-.42,1.29-.28.3-.69.45-1.21.45s-.95-.16-1.22-.48c-.27-.32-.4-.8-.4-1.46,0-.07,0-.18.01-.34v-.02ZM143.67,41.39v-.8s.04,0,.06,0c.02,0,.05,0,.09,0,.13,0,.23-.02.29-.07.06-.05.09-.13.09-.24,0-.03,0-.08-.01-.12,0-.05-.02-.09-.03-.14l-1.05-4.75h1l.56,3.32.55-3.32h.96l-1.06,5.04c-.1.44-.22.73-.38.88-.16.15-.41.22-.75.22-.05,0-.11,0-.16,0-.06,0-.11-.01-.17-.02ZM140.89,39.88v-4.6h.91v.75c.13-.31.27-.53.42-.67.15-.13.33-.2.54-.2v1.3s-.07,0-.11-.01c-.04,0-.08,0-.13,0-.2,0-.36.07-.48.2-.12.14-.18.32-.18.55v2.7h-.96ZM136.68,39.88v-6.13h1.63c.33,0,.6.03.79.1.2.06.36.17.48.31.19.21.33.47.41.79.08.32.12.82.12,1.49,0,.87-.03,1.48-.08,1.84-.05.36-.15.66-.28.92-.12.25-.3.43-.52.53-.22.1-.61.15-1.16.15h-1.39ZM137.67,38.97h.45c.23,0,.39-.02.48-.06.09-.04.17-.1.22-.19.09-.16.16-.38.2-.65.04-.28.06-.72.06-1.33s-.02-1.03-.07-1.3c-.05-.27-.13-.48-.24-.61-.06-.07-.14-.12-.23-.15-.09-.03-.24-.04-.44-.04h-.44v4.33ZM133.18,39.88v-.84h.64v.84h-.64ZM129.61,40.3h.56c.01.19.07.33.19.42.11.09.27.14.48.14.28,0,.48-.1.6-.31.12-.21.19-.54.19-.99,0-.01,0-.05,0-.1,0-.05,0-.1,0-.14-.08.21-.2.36-.35.47-.15.1-.34.16-.55.16-.41,0-.72-.21-.92-.62-.2-.41-.31-1.04-.31-1.88,0-.75.11-1.31.32-1.69.21-.38.53-.57.96-.57.21,0,.4.06.55.17.15.11.26.27.32.47v-.53h.55v4.37c0,.56-.12,1-.36,1.3-.24.31-.58.46-1.02.46-.35,0-.63-.1-.86-.31-.22-.21-.33-.47-.33-.79v-.03ZM130.09,37.6c0,.64.06,1.1.18,1.38.12.28.31.42.58.42s.48-.14.6-.42c.12-.28.18-.76.18-1.43,0-.63-.06-1.09-.19-1.37-.13-.28-.33-.43-.61-.43-.26,0-.45.14-.57.43-.12.29-.18.76-.18,1.43ZM124.2,39.88v-4.58h.53v.55c.11-.22.26-.38.44-.49.18-.11.39-.17.63-.17.23,0,.42.06.57.17.15.11.25.28.31.5.12-.22.27-.39.44-.5.17-.11.38-.17.62-.17.33,0,.58.1.76.29.17.19.26.47.26.83v3.56h-.59v-3.16c0-.37-.04-.62-.13-.75-.08-.13-.23-.2-.45-.2-.24,0-.44.09-.59.26-.15.17-.23.4-.23.67v3.19h-.59v-3.19c0-.34-.05-.58-.14-.72-.09-.14-.24-.21-.45-.21-.25,0-.45.08-.6.25-.16.17-.23.38-.23.64v3.22h-.56ZM118.67,38.26h.59s0,.05,0,.05c0,.35.07.61.21.8.14.19.34.28.6.28.29,0,.5-.13.65-.38.15-.26.22-.63.22-1.11s-.07-.85-.22-1.09c-.15-.24-.37-.36-.67-.36-.19,0-.36.05-.49.15-.13.1-.23.24-.28.42l-.51-.05.3-3.15h2.3v.62h-1.83l-.19,1.82c.05-.13.16-.24.31-.32.16-.08.34-.12.54-.12.42,0,.76.18,1.01.53.25.35.37.84.37,1.46,0,.69-.13,1.23-.39,1.61-.26.38-.63.57-1.11.57s-.8-.15-1.04-.45c-.24-.3-.36-.73-.37-1.29ZM117.13,39.88v-.84h.64v.84h-.64ZM114.22,36.57c-.26-.08-.45-.23-.58-.44-.13-.21-.19-.5-.19-.85,0-.49.12-.88.35-1.16.23-.28.55-.42.96-.42s.71.14.95.41c.23.27.35.64.35,1.11,0,.35-.07.64-.2.86-.13.22-.32.37-.58.45.32.08.55.25.7.5.15.25.23.6.23,1.04,0,.61-.13,1.08-.38,1.42-.26.33-.62.5-1.08.5s-.8-.17-1.07-.5c-.27-.33-.4-.77-.4-1.33,0-.45.08-.81.25-1.09.17-.28.4-.45.7-.51ZM113.9,38.05c0,.45.07.78.22,1.01.14.23.36.34.64.34.26,0,.46-.11.61-.33.15-.22.22-.53.22-.91,0-.44-.07-.77-.21-.98-.14-.21-.36-.32-.65-.32-.26,0-.47.1-.61.31-.14.21-.21.5-.21.88ZM114.74,34.29c-.23,0-.4.09-.52.26-.12.17-.18.43-.18.76,0,.29.06.53.19.7.13.18.29.26.51.26.24,0,.42-.09.54-.26.13-.17.19-.42.19-.74s-.07-.55-.19-.72c-.13-.18-.31-.26-.54-.26ZM109.7,39.88s0-.06,0-.09c0-.03,0-.08,0-.14,0-.4.08-.78.23-1.13.16-.35.39-.69.72-1.01.06-.06.15-.15.27-.27.37-.37.61-.63.73-.78.1-.13.17-.28.22-.45.04-.17.07-.37.07-.6,0-.35-.07-.62-.21-.81-.14-.19-.34-.28-.59-.28s-.46.1-.59.31c-.13.21-.2.53-.2.95,0,0,0,.02,0,.07,0,.05,0,.09,0,.14h-.59s0-.06,0-.11c0-.05,0-.09,0-.11,0-.59.12-1.05.37-1.38.24-.32.59-.48,1.04-.48s.79.15,1.03.44c.25.29.37.7.37,1.23,0,.27-.02.5-.07.71-.05.2-.13.39-.23.57-.11.19-.34.45-.71.78-.09.08-.16.15-.21.19-.37.34-.63.64-.78.89-.15.25-.23.5-.24.74h2.29v.63h-2.89ZM107.12,39.88h-.53v-.58c-.05.2-.16.36-.32.48-.16.12-.35.18-.56.18-.42,0-.74-.22-.96-.65-.22-.43-.33-1.06-.33-1.88,0-.71.11-1.27.33-1.66.22-.39.53-.59.93-.59.21,0,.4.05.57.16.16.11.27.25.31.42v-2.02h.57v6.13ZM106.58,37.55c0-.67-.06-1.13-.17-1.4-.12-.26-.31-.39-.6-.39-.27,0-.46.14-.59.43-.13.28-.19.72-.19,1.32,0,.66.06,1.14.18,1.44.12.3.31.45.58.45.28,0,.48-.14.61-.42.12-.28.19-.75.19-1.42ZM103.08,39.88v-4.58h.59v4.58h-.59ZM103.08,34.58v-.83h.59v.83h-.59ZM101.72,38.26h.56c0,.55-.11.98-.34,1.28-.23.3-.55.45-.96.45-.45,0-.79-.2-1-.6-.22-.4-.33-1.02-.33-1.85s.11-1.39.34-1.79c.23-.39.57-.59,1.03-.59.38,0,.68.13.9.39.22.26.33.62.33,1.07v.1h-.56c-.01-.32-.07-.57-.18-.73-.11-.17-.27-.25-.47-.25-.28,0-.48.14-.59.42-.12.28-.18.75-.18,1.42s.06,1.15.18,1.43c.12.28.32.42.6.42.21,0,.38-.1.49-.3.11-.2.18-.49.18-.87ZM95.45,39.88l1.48-6.13h.77l1.51,6.13h-.62l-.41-1.77h-1.72l-.4,1.77h-.62ZM96.6,37.49h1.45l-.72-3.21-.72,3.21ZM92.61,38.26h.56c0,.55-.11.98-.34,1.28-.23.3-.55.45-.96.45-.45,0-.79-.2-1-.6-.22-.4-.33-1.02-.33-1.85s.11-1.39.34-1.79c.23-.39.57-.59,1.03-.59.38,0,.68.13.9.39.22.26.33.62.33,1.07v.1h-.56c-.01-.32-.07-.57-.18-.73-.11-.17-.27-.25-.47-.25-.28,0-.48.14-.59.42-.12.28-.18.75-.18,1.42s.06,1.15.18,1.43c.12.28.32.42.6.42.21,0,.37-.1.49-.3.11-.2.18-.49.18-.87ZM89.2,39.88v-4.58h.59v4.58h-.59ZM89.2,34.58v-.83h.59v.83h-.59ZM85.8,39.88v-4.58h.53v.57c.1-.22.23-.39.4-.5.17-.11.38-.17.62-.17.36,0,.61.1.76.31.15.2.23.56.23,1.05v3.32h-.57v-3.37c0-.25-.05-.43-.14-.56-.09-.12-.24-.18-.43-.18-.25,0-.46.09-.61.27-.15.18-.22.42-.22.73v3.1h-.57ZM85.22,39.88c-.07.01-.13.02-.19.03-.05,0-.1.01-.15.01-.16,0-.29-.06-.38-.17-.09-.11-.14-.28-.15-.49-.09.23-.21.41-.38.54-.17.12-.36.19-.59.19-.29,0-.52-.11-.69-.33-.16-.22-.25-.53-.25-.94s.08-.7.23-.9c.15-.21.48-.41.99-.6h0c.41-.16.62-.34.62-.55v-.42c0-.19-.05-.32-.14-.41-.1-.09-.25-.13-.46-.13s-.35.06-.45.18c-.1.12-.15.3-.15.55v.08h-.54c0-.47.11-.81.3-1.02.19-.21.49-.32.91-.32.39,0,.67.1.85.3.18.2.27.51.27.94v2.68c0,.12.02.21.06.26.04.05.1.08.18.08.02,0,.04,0,.08-.01,0,0,0,0,.01,0v.49ZM84.32,37.41c-.09.11-.29.23-.59.35-.03.01-.04.02-.06.02-.26.1-.44.22-.52.35-.08.13-.12.32-.12.58,0,.23.04.4.14.53.09.12.22.19.38.19.24,0,.42-.1.56-.3.14-.2.21-.47.21-.81v-.91ZM80.27,39.88l-1.1-4.58h.62l.8,3.59.83-3.59h.59l-1.13,4.58h-.62ZM78.06,39.88v-.59c-.08.23-.21.41-.38.53-.17.12-.38.19-.63.19-.34,0-.59-.09-.74-.28-.16-.19-.23-.49-.23-.9v-3.52h.59v3.54c0,.19.04.34.13.44.08.1.2.15.35.15.27,0,.49-.1.64-.29.15-.19.23-.46.23-.8v-3.04h.58v4.58h-.53ZM75.5,39.88c-.07.01-.13.02-.19.03-.05,0-.1.01-.15.01-.16,0-.29-.06-.38-.17-.09-.11-.14-.28-.15-.49-.09.23-.21.41-.38.54-.17.12-.36.19-.59.19-.29,0-.52-.11-.69-.33-.16-.22-.25-.53-.25-.94s.08-.7.23-.9c.15-.21.48-.41.99-.6h0c.42-.16.62-.34.62-.55v-.42c0-.19-.05-.32-.14-.41-.1-.09-.25-.13-.46-.13s-.35.06-.45.18c-.1.12-.15.3-.15.55v.08h-.54c0-.47.11-.81.3-1.02.19-.21.49-.32.91-.32.39,0,.67.1.85.3.18.2.27.51.27.94v2.68c0,.12.02.21.06.26.04.05.1.08.18.08.02,0,.04,0,.08-.01,0,0,0,0,.01,0v.49ZM74.61,37.41c-.09.11-.29.23-.59.35-.03.01-.04.02-.06.02-.26.1-.44.22-.52.35-.08.13-.12.32-.12.58,0,.23.04.4.14.53.09.12.22.19.38.19.24,0,.42-.1.56-.3.14-.2.21-.47.21-.81v-.91ZM71.44,39.88v-6.13h.56v6.13h-.56ZM69.98,37.63h.6c0,.78-.15,1.37-.43,1.78-.28.41-.68.61-1.21.61-.56,0-.98-.26-1.25-.78-.27-.52-.4-1.33-.4-2.41s.13-1.96.4-2.46c.27-.51.7-.76,1.3-.76.5,0,.88.16,1.15.49.27.32.4.79.4,1.38v.08h-.59c0-.42-.09-.75-.26-.99-.18-.24-.41-.36-.71-.36-.37,0-.64.2-.8.61-.16.4-.24,1.08-.24,2.01s.08,1.57.25,1.96c.17.39.44.58.83.58.31,0,.55-.14.71-.43.17-.29.25-.69.25-1.22v-.1ZM62.36,35.02v2.15h1.87v.55h-1.87v2.15h-.5v-2.15h-1.87v-.55h1.87v-2.15h.5ZM56.06,39.88v-.84h.64v.84h-.64ZM52.49,40.3h.56c.01.19.07.33.19.42.11.09.27.14.48.14.28,0,.48-.1.6-.31.12-.21.19-.54.19-.99,0-.01,0-.05,0-.1,0-.05,0-.1,0-.14-.08.21-.2.36-.35.47-.15.1-.34.16-.55.16-.41,0-.72-.21-.92-.62-.2-.41-.31-1.04-.31-1.88,0-.75.11-1.31.32-1.69.21-.38.53-.57.96-.57.21,0,.4.06.55.17.15.11.26.27.32.47v-.53h.55v4.37c0,.56-.12,1-.36,1.3-.24.31-.58.46-1.02.46-.35,0-.63-.1-.86-.31-.22-.21-.33-.47-.33-.79v-.03ZM52.97,37.6c0,.64.06,1.1.18,1.38.12.28.31.42.58.42s.48-.14.6-.42c.12-.28.18-.76.18-1.43,0-.63-.06-1.09-.19-1.37-.13-.28-.33-.43-.61-.43-.26,0-.45.14-.57.43-.12.29-.18.76-.18,1.43ZM47.07,39.88v-4.58h.53v.55c.11-.22.26-.38.44-.49.18-.11.39-.17.63-.17.23,0,.42.06.57.17.15.11.25.28.31.5.12-.22.27-.39.44-.5.17-.11.38-.17.62-.17.33,0,.58.1.76.29.17.19.26.47.26.83v3.56h-.59v-3.16c0-.37-.04-.62-.13-.75-.08-.13-.23-.2-.45-.2-.24,0-.44.09-.59.26-.15.17-.23.4-.23.67v3.19h-.59v-3.19c0-.34-.05-.58-.14-.72-.09-.14-.24-.21-.45-.21-.25,0-.45.08-.6.25-.16.17-.23.38-.23.64v3.22h-.56ZM41.57,36.84c0-1.15.11-1.96.34-2.42.23-.47.6-.7,1.13-.7.27,0,.49.07.68.2.19.13.35.33.49.61.1.21.18.5.23.85.05.36.07.85.07,1.48,0,1.14-.11,1.95-.34,2.43-.22.48-.59.72-1.11.72s-.92-.23-1.15-.7c-.23-.47-.34-1.29-.34-2.45ZM42.2,36.83c0,.99.06,1.67.19,2.03.13.36.35.54.66.54s.53-.16.65-.49c.12-.33.18-1.02.18-2.07,0-.98-.06-1.65-.19-2-.12-.35-.34-.53-.65-.53s-.53.17-.66.5c-.12.34-.18,1.01-.18,2.01ZM37.96,36.84c0-1.15.11-1.96.34-2.42.23-.47.6-.7,1.13-.7.27,0,.49.07.68.2.19.13.35.33.49.61.1.21.18.5.23.85.05.36.07.85.07,1.48,0,1.14-.11,1.95-.34,2.43-.22.48-.59.72-1.11.72s-.92-.23-1.15-.7c-.23-.47-.34-1.29-.34-2.45ZM38.59,36.83c0,.99.06,1.67.19,2.03.13.36.35.54.66.54s.53-.16.65-.49c.12-.33.18-1.02.18-2.07,0-.98-.06-1.65-.19-2-.12-.35-.34-.53-.65-.53s-.53.17-.66.5c-.12.34-.18,1.01-.18,2.01ZM34.38,39.88s0-.06,0-.09c0-.03,0-.08,0-.14,0-.4.08-.78.23-1.13.16-.35.39-.69.72-1.01.06-.06.15-.15.27-.27.37-.37.61-.63.73-.78.1-.13.17-.28.22-.45.04-.17.07-.37.07-.6,0-.35-.07-.62-.21-.81-.14-.19-.34-.28-.59-.28s-.46.1-.59.31c-.13.21-.2.53-.2.95,0,0,0,.02,0,.07,0,.05,0,.09,0,.14h-.59s0-.06,0-.11c0-.05,0-.09,0-.11,0-.59.12-1.05.37-1.38.24-.32.59-.48,1.04-.48s.79.15,1.03.44c.25.29.37.7.37,1.23,0,.27-.02.5-.07.71-.05.2-.13.39-.23.57-.11.19-.34.45-.71.78-.09.08-.16.15-.21.19-.37.34-.63.64-.78.89-.15.25-.23.5-.24.74h2.29v.63h-2.89ZM29.29,41.34v-.58c.06.03.12.05.18.06.06.01.12.02.18.02.17,0,.3-.06.4-.19.1-.13.2-.37.29-.74l-1.2-4.62h.62l.87,3.69.9-3.69h.58l-1.25,4.78c-.13.52-.28.87-.46,1.06-.17.19-.42.28-.73.28-.05,0-.1,0-.17-.02-.07-.01-.13-.03-.21-.05ZM26.03,39.88l1.16-2.37-1.08-2.21h.65l.79,1.65.79-1.65h.64l-1.08,2.16,1.18,2.42h-.67l-.87-1.86-.86,1.86h-.65ZM23.53,37.59c0,.68.06,1.17.19,1.45.13.28.34.42.63.42s.5-.14.63-.43c.13-.29.19-.76.19-1.44s-.06-1.16-.19-1.44c-.13-.28-.33-.42-.63-.42s-.51.14-.63.42c-.13.28-.19.76-.19,1.44ZM22.92,37.59c0-.82.12-1.43.35-1.83.24-.4.59-.59,1.08-.59s.85.2,1.08.59c.23.39.35,1,.35,1.83s-.12,1.44-.35,1.83c-.23.39-.59.58-1.08.58s-.86-.19-1.09-.58c-.23-.39-.34-1-.34-1.83ZM17.64,39.88v-4.58h.53v.55c.11-.22.26-.38.44-.49.18-.11.39-.17.63-.17.23,0,.42.06.57.17.15.11.25.28.31.5.12-.22.27-.39.44-.5.17-.11.38-.17.62-.17.33,0,.58.1.76.29.17.19.26.47.26.83v3.56h-.59v-3.16c0-.37-.04-.62-.13-.75-.08-.13-.23-.2-.45-.2-.24,0-.44.09-.59.26-.15.17-.23.4-.23.67v3.19h-.59v-3.19c0-.34-.05-.58-.14-.72-.09-.14-.24-.21-.45-.21-.25,0-.45.08-.6.25-.16.17-.23.38-.23.64v3.22h-.56ZM13.33,39.88l1.48-6.13h.77l1.51,6.13h-.62l-.41-1.77h-1.73l-.4,1.77h-.62ZM14.48,37.49h1.45l-.72-3.21-.72,3.21Z"/>
      <path class="cls-2" d="M149.15,29.66c.48-5.35.74-10.75.78-16.21l-1.32.03-.89.02-3.04.12.15-5.05v-.91c2.46.02,5.38.03,8.78.03h3.22l3.31-.02,1.74-.02-.11,2.66c-.03.69-.05,1.35-.06,1.96,0,.61-.01,1.07-.01,1.35l-3.22-.15-.72-.02h-1.28c-.32,4.24-.52,9.64-.6,16.21-1.69-.03-2.76-.05-3.21-.05-.4,0-1.57.02-3.52.05M123.7,29.66c.31-4.69.52-8.66.64-11.93.11-3.26.17-6.05.17-8.37v-1.68c1.62.02,2.82.03,3.59.03.6,0,1.68-.01,3.25-.03-.23,3.19-.36,5.72-.4,7.58h5.35c.04-.97.08-2.06.1-3.26.03-1.2.04-2.05.04-2.54,0-.41-.01-1-.03-1.78l3.64.03c.34,0,1.41-.01,3.21-.03l-.53,10.58c-.08,1.62-.13,3.11-.15,4.45-.03,1.35-.04,2.7-.04,4.06v2.88s-3.31-.05-3.31-.05c-.45,0-1.64.02-3.58.05.21-2.36.35-5.16.41-8.4h-5.38l-.2,8.4-3.55-.05c-.41,0-1.49.02-3.25.05ZM113.61,16.65c1.04.03,2.1.05,3.19.05,2.13,0,3.69-.02,4.66-.05l-.14,2.17c-.03.47-.08,1.36-.14,2.67l-.24,5.3c-.02.47-.04,1.31-.08,2.51-.98.21-1.77.36-2.38.44-.61.08-1.39.16-2.35.24-.96.07-1.75.11-2.35.11-1.19,0-2.35-.1-3.47-.31-1.12-.21-2.13-.58-3.02-1.1-.89-.52-1.63-1.24-2.21-2.15-.59-.91-1.04-1.98-1.36-3.23-.32-1.25-.48-2.54-.48-3.87,0-1.73.27-3.38.83-4.95.55-1.57,1.34-2.92,2.36-4.04,1.02-1.12,2.17-1.93,3.46-2.43,1.29-.5,2.81-.76,4.57-.76,1.88,0,3.97.29,6.27.86,0,1.88.07,3.98.2,6.29-.76-.32-1.38-.56-1.87-.71-.49-.15-1.04-.29-1.67-.38-.63-.1-1.21-.15-1.75-.15-.77,0-1.51.13-2.21.38-.7.26-1.32.68-1.86,1.25-.54.57-.95,1.29-1.25,2.15-.3.86-.44,1.82-.44,2.87,0,.94.13,1.76.4,2.45.26.69.67,1.21,1.21,1.55.54.35,1.15.52,1.84.52.47,0,1-.08,1.6-.23l.1-1.85c-.38-.03-.76-.05-1.14-.05l-.46-.02c.11-2.35.17-4.2.19-5.54ZM93.92,29.66l.37-6.86c.11-1.92.2-4.02.28-6.31.08-2.29.11-4.44.11-6.47,0-.35-.01-1.13-.03-2.33l1.85.02c.68.01,1.25.02,1.73.02.21,0,1.3-.01,3.27-.03-.16,2.55-.29,4.97-.39,7.24-.12,2.88-.2,5.36-.25,7.45-.04,2.09-.06,4.52-.06,7.29l-3.11-.05c-.57,0-1.83.02-3.76.05ZM77.51,29.66c.16-1.87.28-3.37.35-4.49.08-1.13.15-2.63.22-4.51.07-1.88.14-3.98.19-6.3.06-2.32.08-4.04.08-5.16,0-.31,0-.82-.01-1.52,2.71.02,5.22.03,7.53.03l4.24-.02,2.53-.02-.14,2.95c-.05,1.01-.08,1.99-.1,2.95l-1.5-.05-1.06-.02c-.27-.01-1.15-.02-2.64-.02-.28,0-1.08.02-2.39.05l-.08,2.21c1.2.03,2.35.05,3.46.05.53,0,1.42-.02,2.67-.05l-.1,2.5c-.03.77-.05,1.86-.06,3.27-1.31-.05-2.18-.08-2.59-.08-.99,0-2.2.03-3.62.08l-.13,5.47v2s0,.66,0,.66l-3.28-.05-3.57.05ZM67.87,29.66l.37-6.86c.11-1.92.2-4.02.28-6.31.08-2.29.11-4.44.11-6.47,0-.35-.01-1.13-.03-2.33l1.85.02c.68.01,1.25.02,1.73.02.21,0,1.3-.01,3.27-.03-.16,2.55-.29,4.97-.39,7.24-.12,2.88-.2,5.36-.25,7.45-.04,2.09-.06,4.52-.06,7.29l-3.11-.05c-.57,0-1.83.02-3.76.05ZM47.09,29.66c1-1.65,2.17-3.66,3.5-6.02,1.34-2.36,2.4-4.3,3.18-5.83l-2.32-5.17-1.71-3.56c-.08-.15-.29-.62-.66-1.4,1.33.02,2.67.03,4.03.03,1.06,0,2.23-.01,3.49-.03l.85,2.33c.25.66.54,1.49.86,2.47.24-.62.46-1.16.67-1.66l1.34-3.14c1.08.02,2.25.03,3.49.03.79,0,1.96-.01,3.5-.03l-3.69,6.68-2.13,4.04c1.5,3.42,3.27,7.17,5.31,11.25-1.64-.03-2.83-.05-3.59-.05-1.33,0-2.66.02-3.99.05l-1.07-2.83c-.29-.76-.66-1.79-1.11-3.09l-.27.66c-.06.15-.14.32-.23.52-.08.19-.21.46-.38.81l-1.92,3.94c-1.51-.03-2.68-.05-3.51-.05-.91,0-2.14.02-3.66.05ZM37.42,13.19c-.76,0-1.47.26-2.11.78-.65.52-1.15,1.24-1.49,2.15-.34.91-.52,1.87-.52,2.85s.16,1.8.47,2.57c.31.77.78,1.38,1.4,1.84.62.46,1.27.68,1.96.68.74,0,1.43-.26,2.07-.78.63-.52,1.13-1.24,1.48-2.15.35-.91.53-1.85.53-2.78s-.16-1.78-.49-2.6c-.33-.81-.78-1.43-1.36-1.88-.58-.45-1.23-.68-1.95-.68ZM37.63,7.26c1.41,0,2.76.24,4.06.72,1.3.48,2.42,1.24,3.37,2.26.95,1.03,1.65,2.2,2.11,3.52.46,1.32.69,2.83.69,4.51,0,1.79-.26,3.43-.77,4.91-.51,1.49-1.26,2.77-2.26,3.84-.99,1.07-2.17,1.85-3.54,2.34-1.36.49-2.78.73-4.25.73s-2.81-.23-4.13-.7c-1.32-.47-2.47-1.22-3.45-2.28-.98-1.05-1.7-2.21-2.14-3.5-.44-1.28-.66-2.79-.66-4.52,0-1.84.26-3.5.79-4.97.52-1.47,1.29-2.71,2.31-3.73,1.01-1.02,2.19-1.8,3.52-2.33,1.34-.53,2.78-.8,4.34-.8ZM2.6,29.66l.33-3.56.76-10.99.38-7.42c1.64.02,3.11.03,4.4.03,1.09,0,2.43-.01,4.02-.03.21,1.87.44,3.75.68,5.63.25,1.89.47,3.93.67,6.1l.5-2.78,1.9-8.95c1.31.02,2.79.03,4.44.03,1.21,0,2.58-.01,4.11-.03l-.29,7.36-.24,11.13c0,.46-.01.86-.01,1.19,0,.65,0,1.42.01,2.3-1.36-.03-2.28-.05-2.78-.05-.76,0-1.71.02-2.85.05.08-1.16.17-3.27.28-6.34.11-3.07.16-5.11.16-6.12,0-.43,0-1.03-.03-1.79l-1.81,8.6-1.24,5.65c-1.34-.03-2.23-.05-2.67-.05-.57,0-1.52.02-2.86.05-.31-2.61-.66-5.23-1.03-7.87-.37-2.64-.64-4.77-.81-6.38l-.18,2.26c-.03.53-.07,1.18-.12,1.93-.04.75-.11,2.16-.19,4.25l-.14,3.73c0,.41-.02,1.1-.03,2.08-1.43-.03-2.32-.05-2.66-.05-.49,0-1.39.02-2.71.05Z"/>
      <path class="cls-1" d="M164.2,7.55V3.09h-1.62v-.59h3.88v.59h-1.62v4.46h-.65ZM167.12,7.55V2.5h.97l1.16,3.58c.11.33.18.58.24.75.05-.18.14-.46.26-.81l1.18-3.51h.87v5.05h-.62V3.32l-1.43,4.23h-.58l-1.42-4.31v4.31h-.62Z"/>
      <path class="cls-1" d="M1.19,5.81h-.42l1.22-1.92L.79,1.98h.34c.22,0,.4-.08.53-.22.15-.13.22-.31.22-.53,0-.12-.03-.25-.07-.37-.05-.12-.11-.21-.19-.29-.05-.06-.13-.11-.24-.14-.1-.03-.27-.05-.52-.05H.34v3.45h-.34V0h.95c.21,0,.37.02.51.05.11.03.23.09.34.17.15.11.26.25.33.42.08.16.12.35.12.56,0,.3-.08.56-.24.77-.16.21-.36.32-.61.36l.81,1.22.97-1.58h.41l-1.19,1.9,1.22,1.92h-.43l-.98-1.61-1.01,1.61Z"/>
    </g>
  </g>
</svg>