<?xml version="1.0" encoding="UTF-8"?>
<svg id="Layer_2" data-name="Layer 2" xmlns="http://www.w3.org/2000/svg" viewBox="0 0 165.18 41.14">
  <defs>
    <style>
      .cls-1 {
        fill: #3953a4;
      }

      .cls-2 {
        fill: #cb8932;
      }
    </style>
  </defs>
  <g id="Layer_1-2" data-name="Layer 1">
    <g>
      <path class="cls-1" d="M13.7,36.03l-2.04-3.36v5.8h-1.18v-8.01h1.14l2.46,4.08,2.46-4.08h1.14v8.01h-1.18v-5.8l-2.04,3.36h-.76ZM22.91,32.55h1.18v5.93h-1.18v-.69c-.39.48-.99.82-1.6.82-1.29,0-2.18-.99-2.18-2.47v-3.6h1.18v3.53c0,.8.5,1.36,1.23,1.36.54,0,1.09-.47,1.37-.95v-3.94ZM25.59,30.12h1.18v8.35h-1.18v-8.35ZM29.84,36.51c0,.66.25.96.95.96.14,0,.36-.01.47-.02v1.12c-.11.02-.36.05-.57.05-1.4,0-2.03-.64-2.03-2.1v-2.83h-.89v-1.15h.89v-1.6l1.18-.11v1.72h1.35v1.15h-1.35v2.82ZM32.91,30.12c.41,0,.73.36.73.81s-.32.81-.73.81-.73-.36-.73-.81.32-.81.73-.81ZM32.32,32.55h1.18v5.92h-1.18v-5.92ZM37.61,38.47h-1.22l-2.02-5.92h1.22l1.41,4.24,1.41-4.24h1.22l-2.02,5.92ZM41.09,30.12c.41,0,.73.36.73.81s-.32.81-.73.81-.73-.36-.73-.81.32-.81.73-.81ZM40.5,32.55h1.18v5.92h-1.18v-5.92ZM44.75,36.51c0,.66.25.96.95.96.14,0,.36-.01.47-.02v1.12c-.11.02-.36.05-.57.05-1.4,0-2.03-.64-2.03-2.1v-2.83h-.89v-1.15h.89v-1.6l1.18-.11v1.72h1.35v1.15h-1.35v2.82ZM51.33,33.19v-.64h1.18v5.93h-1.18v-.64c-.48.53-1.1.78-1.78.78-1.59,0-2.74-1.42-2.74-3.1s1.15-3.1,2.74-3.1c.68,0,1.3.25,1.78.78ZM51.33,36.38v-1.73c-.28-.64-.88-1.08-1.57-1.08-.98,0-1.75.85-1.75,1.94s.76,1.94,1.75,1.94c.69,0,1.29-.42,1.57-1.07ZM55.14,32.55v.69c.35-.46.91-.82,1.51-.82.8,0,1.43.4,1.79,1.07.4-.64,1.11-1.07,1.83-1.07,1.26,0,2.11,1.01,2.11,2.45v3.61h-1.18v-3.54c0-.78-.43-1.35-1.11-1.35-.53,0-1.02.46-1.34,1.01.01.09.01.18.01.27v3.61h-1.18v-3.54c0-.78-.43-1.35-1.11-1.35-.53,0-1.01.46-1.33.99v3.91h-1.18v-5.92h1.18ZM64.36,30.12c.41,0,.73.36.73.81s-.32.81-.73.81-.73-.36-.73-.81.32-.81.73-.81ZM63.77,32.55h1.18v5.92h-1.18v-5.92ZM67.62,38.47h-1.18v-5.92h1.18v.69c.39-.48.99-.82,1.6-.82,1.29,0,2.18.99,2.18,2.47v3.59h-1.18v-3.52c0-.8-.5-1.37-1.23-1.37-.54,0-1.09.48-1.37.96v3.93ZM73.05,36.76c.33.42.83.73,1.38.73s.92-.27.92-.71c0-.41-.25-.66-1.02-.84-1.2-.26-1.75-.88-1.75-1.87s.72-1.67,1.88-1.67c.74,0,1.41.34,1.85.8l-.63.88c-.37-.33-.7-.56-1.13-.56-.45,0-.8.22-.8.57s.29.66.95.81c1.26.29,1.82.88,1.82,1.89s-.74,1.81-2.02,1.81c-.88,0-1.66-.38-2.13-.99l.66-.87ZM85.66,30.46l1.56,6.02,1.42-6.02h1.28l-2.06,8.01h-1.2l-1.6-6.15-1.6,6.15h-1.2l-2.06-8.01h1.28l1.42,6.02,1.56-6.02h1.2ZM91.49,30.12c.41,0,.73.36.73.81s-.32.81-.73.81-.73-.36-.73-.81.32-.81.73-.81ZM90.9,32.55h1.18v5.92h-1.18v-5.92ZM95.14,36.51c0,.66.25.96.95.96.14,0,.36-.01.47-.02v1.12c-.11.02-.36.05-.57.05-1.4,0-2.03-.64-2.03-2.1v-2.83h-.89v-1.15h.89v-1.6l1.18-.11v1.72h1.35v1.15h-1.35v2.82ZM98.75,38.47h-1.18v-8.35h1.18v3.12c.39-.48.99-.82,1.6-.82,1.29,0,2.18.99,2.18,2.47v3.59h-1.18v-3.52c0-.8-.5-1.37-1.23-1.37-.54,0-1.09.48-1.37.96v3.93ZM109.62,30.46c2.22,0,3.63,1.52,3.63,4.01s-1.41,4.01-3.63,4.01h-2.54v-8.02h2.54ZM108.3,31.65v5.64h1.32c1.4,0,2.39-.87,2.39-2.82s-.99-2.82-2.39-2.82h-1.32ZM114.49,30.46h1.22v3.4h3.18v-3.4h1.22v8.01h-1.22v-3.44h-3.18v3.44h-1.22v-8.01ZM127.84,38.47h-1.32l-.6-1.92h-2.85l-.6,1.92h-1.32l2.67-8.01h1.36l2.67,8.01ZM123.43,35.38h2.13l-1.06-3.44-1.06,3.44ZM132.42,36.41c.47.56,1.11,1.02,1.8,1.02.84,0,1.42-.44,1.42-1.15,0-.61-.34-1.1-1.58-1.39-1.52-.36-2.24-1.18-2.24-2.35,0-1.33.97-2.22,2.36-2.22.99,0,1.78.39,2.34,1.02l-.72.96c-.44-.45-.94-.79-1.56-.79-.67,0-1.17.37-1.17.94,0,.64.43,1.05,1.52,1.33,1.69.44,2.3,1.26,2.3,2.5,0,1.37-.97,2.34-2.6,2.34-1.01,0-2-.48-2.61-1.29l.76-.92Z"/>
      <path class="cls-1" d="M139.29,38.48l-2.02-5.93h1.22l1.4,4.28,1.42-4.28h1.22l-2.92,8.59h-1.22l.91-2.66ZM144.53,34.68v3.79h-1.18v-5.92h1.18v.76c.4-.53.9-.89,1.57-.89.18,0,.36.05.49.11l-.09,1.16c-.18-.07-.37-.1-.55-.1-.58,0-1.09.44-1.42,1.1ZM151.21,32.55h1.18v5.93h-1.18v-.69c-.39.48-.99.82-1.6.82-1.29,0-2.18-.99-2.18-2.47v-3.6h1.18v3.53c0,.8.5,1.36,1.23,1.36.54,0,1.09-.47,1.37-.95v-3.94ZM159.53,35.51c0,1.68-1.15,3.1-2.74,3.1-.68,0-1.3-.25-1.78-.78v3.3h-1.18v-8.59h1.18v.64c.48-.53,1.1-.78,1.78-.78,1.59,0,2.74,1.42,2.74,3.1ZM158.34,35.51c0-1.09-.76-1.94-1.75-1.94-.69,0-1.29.44-1.57,1.08v1.73c.28.64.88,1.07,1.57,1.07.98,0,1.75-.85,1.75-1.94Z"/>
      <polygon class="cls-2" points="19.72 7.28 13.1 18.69 6.49 7.28 4.84 7.28 4.84 26.86 8.93 26.86 8.93 19.17 13.09 26.54 13.12 26.54 17.27 19.17 17.27 26.86 21.36 26.86 21.36 7.28 19.72 7.28"/>
      <path class="cls-2" d="M30.99,27.41c3.53,0,6.39-3.13,6.39-7.59V7.45h-4.11v12.36c0,1.59-1.13,2.69-2.29,2.69s-2.27-1.07-2.27-2.69V7.45h-4.11v12.37c0,4.45,2.86,7.59,6.39,7.59"/>
      <polygon class="cls-2" points="44.69 22.03 44.69 7.45 40.6 7.45 40.6 26.86 50.59 26.86 50.59 22.03 44.69 22.03"/>
      <polygon class="cls-2" points="60.7 7.45 49.23 7.45 49.23 12.26 52.92 12.26 52.92 26.86 57.01 26.86 57.01 12.26 60.7 12.26 60.7 7.45"/>
      <rect class="cls-2" x="63.12" y="7.45" width="4.09" height="19.41"/>
      <polygon class="cls-2" points="74.66 22.03 74.66 7.45 70.57 7.45 70.57 26.86 80.55 26.86 80.55 22.03 74.66 22.03"/>
      <path class="cls-2" d="M88.39,20.82l1.59-4.6,1.58,4.6h-3.16ZM93.63,26.86h4.48l-7.17-19.66h-1.94l-7.16,19.66h4.47l.78-2.27h5.76l.77,2.27Z"/>
      <polygon class="cls-2" points="109.55 7.43 109.55 16.89 101.65 7.26 100.33 7.26 100.33 26.86 104.42 26.86 104.42 17.38 112.34 27.06 113.64 27.06 113.64 7.43 109.55 7.43"/>
      <path class="cls-2" d="M121.97,22h-.98v-9.74h.94c2.76,0,4.44,1.86,4.44,4.91s-1.67,4.84-4.4,4.84h0ZM122.03,7.44h-5.02v19.42h5.02c5.23,0,8.44-3.66,8.44-9.68s-3.2-9.76-8.44-9.74Z"/>
      <rect class="cls-2" x="132.49" y="15.25" width="8.12" height="4.22"/>
      <polygon class="cls-2" points="158.18 7.28 151.56 18.69 144.95 7.28 143.3 7.28 143.3 26.86 147.39 26.86 147.39 19.17 151.55 26.54 151.58 26.54 155.73 19.17 155.73 26.86 159.82 26.86 159.82 7.28 158.18 7.28"/>
      <path class="cls-1" d="M161.99.6c.54,0,1.05.14,1.56.41.51.27.91.67,1.19,1.18.29.51.42,1.05.42,1.6s-.14,1.07-.42,1.58c-.28.5-.67.9-1.18,1.18-.5.29-1.03.42-1.58.42s-1.08-.14-1.59-.42c-.5-.28-.9-.67-1.18-1.18-.29-.51-.42-1.04-.42-1.58s.15-1.09.43-1.6c.29-.51.68-.91,1.19-1.18.51-.28,1.03-.41,1.56-.41ZM161.99,1.13c-.45,0-.88.11-1.31.35-.42.22-.76.55-.99.99-.24.42-.36.86-.36,1.33s.12.9.35,1.31c.23.42.56.75.99.99.42.23.86.35,1.32.35s.9-.12,1.32-.35c.42-.23.75-.56.99-.99.23-.41.35-.86.35-1.31s-.12-.91-.35-1.33c-.24-.43-.57-.76-.99-.99-.42-.23-.86-.35-1.31-.35ZM160.59,5.54v-3.42h1.18c.41,0,.7.03.88.1.18.06.32.17.43.33.1.16.16.33.16.5,0,.25-.09.47-.27.66-.18.18-.41.29-.72.31.12.05.22.11.29.18.14.13.31.36.51.67l.41.67h-.67l-.3-.54c-.24-.43-.43-.69-.58-.8-.1-.08-.25-.11-.44-.11h-.33v1.45h-.55ZM161.15,3.62h.67c.32,0,.54-.05.66-.15.11-.1.17-.22.17-.37,0-.1-.03-.19-.09-.28-.05-.08-.13-.14-.23-.17-.1-.04-.29-.06-.55-.06h-.63v1.03Z"/>
      <path class="cls-1" d="M1.44,7h-.5l1.47-2.32L.95,2.39h.41c.26,0,.48-.09.65-.27.18-.16.27-.37.27-.64,0-.15-.03-.3-.09-.45-.06-.14-.13-.26-.23-.35-.07-.07-.16-.13-.29-.17-.12-.04-.33-.06-.63-.06H.41v4.16h-.41V0h1.15c.25,0,.45.02.61.06.14.04.27.11.41.21.18.14.31.31.4.51.09.19.14.42.14.68,0,.36-.1.67-.29.93-.19.25-.43.39-.74.43l.97,1.48,1.17-1.91h.5l-1.43,2.29,1.47,2.32h-.52l-1.18-1.94-1.22,1.94Z"/>
    </g>
  </g>
</svg>