<?xml version="1.0" encoding="UTF-8"?>
<svg id="Layer_2" data-name="Layer 2" xmlns="http://www.w3.org/2000/svg" viewBox="0 0 174.36 45.64">
  <defs>
    <style>
      .cls-1 {
        fill: #f58220;
      }

      .cls-2 {
        fill: #00a651;
      }

      .cls-3, .cls-4 {
        fill: #231f20;
      }

      .cls-5 {
        fill: #00aeef;
      }

      .cls-4, .cls-6 {
        fill-rule: evenodd;
      }

      .cls-7, .cls-6 {
        fill: #004f4b;
      }
    </style>
  </defs>
  <g id="Layer_1-2" data-name="Layer 1">
    <g>
      <path class="cls-3" d="M33.36,40.55s.01-.07.02-.1c0-.03,0-.05,0-.07,0-.04,0-.07-.03-.1-.02-.02-.05-.04-.1-.04l.02-.1h.76l-.02.1s-.07.03-.09.05c-.02.02-.04.05-.05.09-.02.04-.03.1-.05.19l-.12.54-.22.05-.08-.11c-.13.07-.28.11-.42.11-.22,0-.39-.06-.5-.19-.12-.12-.18-.3-.18-.54,0-.12.02-.25.04-.39.03-.15.08-.28.13-.4.05-.12.12-.22.19-.31.07-.09.16-.16.25-.22.09-.06.18-.1.28-.13.1-.03.2-.04.32-.04.22,0,.41.03.59.09l-.1.45h-.2c0-.09,0-.16-.03-.21-.02-.05-.05-.09-.09-.11-.04-.02-.09-.03-.16-.03s-.13.01-.18.04c-.07.04-.13.08-.18.15-.07.08-.13.18-.18.31-.06.14-.11.3-.16.48-.04.16-.06.31-.06.46,0,.13.02.23.06.3.04.06.11.1.2.1.05,0,.1,0,.13-.03.04-.02.07-.04.09-.07.03-.03.05-.06.06-.1.01-.04.03-.08.04-.12l.02-.1ZM34.31,39.57h.65l-.2.86c-.03.12-.04.21-.05.25,0,.05,0,.08,0,.11,0,.05,0,.08.03.11.02.02.05.03.09.03.02,0,.04,0,.07-.01.03,0,.05-.03.07-.05.02-.02.05-.05.09-.08.04-.04.06-.07.09-.11.03-.04.05-.08.06-.13.02-.05.04-.1.05-.17l.17-.81h.45l-.24,1.12s-.01.06-.02.11c0,.05-.01.08-.01.12,0,.05.01.07.04.09.03.02.06.03.11.03l-.02.1h-.59l.08-.32h-.02c-.1.12-.19.2-.28.26-.09.06-.19.09-.31.09-.11,0-.19-.03-.25-.09-.06-.06-.09-.15-.09-.25,0-.07,0-.15.03-.24l.13-.59s.02-.09.02-.11c0-.03,0-.05,0-.07,0-.05-.01-.08-.04-.1s-.06-.03-.12-.04l.02-.1ZM37.29,39.35s.02-.06.02-.11c0-.05.01-.09.01-.11,0-.02,0-.04,0-.06,0-.01-.01-.02-.02-.03,0,0-.02-.01-.04-.02-.02,0-.05,0-.09-.02l.03-.1.47-.03h.18l-.39,1.8c-.01.05-.02.09-.03.13,0,.04,0,.06,0,.09,0,.05,0,.08.03.1.03.02.06.04.12.04l-.02.1h-.6l.08-.32h-.02c-.07.09-.14.16-.2.21-.06.05-.12.08-.18.11-.06.02-.13.03-.2.03s-.14-.02-.19-.05-.1-.09-.13-.17c-.03-.08-.05-.17-.05-.29,0-.11.01-.22.04-.34.03-.11.06-.22.11-.31.05-.1.11-.18.19-.25.07-.07.16-.12.25-.16.1-.04.2-.06.32-.06.09,0,.18.02.27.05l.05-.24ZM37.13,40.15s0-.07.02-.11c0-.04,0-.08,0-.12,0-.07-.01-.12-.04-.16-.03-.04-.07-.05-.13-.05-.1,0-.18.05-.25.15-.08.1-.14.23-.18.4-.04.17-.07.31-.07.45,0,.08,0,.14.03.17.02.04.06.06.11.06.07,0,.14-.04.21-.1.07-.07.13-.15.17-.24.04-.09.08-.22.12-.38v-.06ZM37.99,39.57h.65l-.2.86c-.03.12-.04.21-.05.25,0,.05,0,.08,0,.11,0,.05,0,.08.03.11.02.02.05.03.09.03.02,0,.04,0,.07-.01.03,0,.05-.03.07-.05.02-.02.05-.05.09-.08.04-.04.06-.07.09-.11.03-.04.05-.08.06-.13.02-.05.04-.1.05-.17l.17-.81h.45l-.24,1.12s-.01.06-.02.11c0,.05-.01.08-.01.12,0,.05.01.07.04.09.03.02.06.03.11.03l-.02.1h-.59l.08-.32h-.02c-.1.12-.19.2-.28.26-.09.06-.19.09-.31.09-.11,0-.19-.03-.25-.09-.06-.06-.09-.15-.09-.25,0-.07,0-.15.03-.24l.13-.59s.02-.09.02-.11c0-.03,0-.05,0-.07,0-.05-.01-.08-.04-.1s-.06-.03-.12-.04l.02-.1ZM40.81,40.72l.12.14c-.11.11-.22.19-.33.24-.11.05-.23.07-.36.07-.11,0-.2-.02-.27-.07-.08-.05-.13-.11-.17-.2-.04-.09-.06-.19-.06-.3,0-.09,0-.18.03-.27.02-.07.04-.13.06-.2.03-.08.07-.16.12-.22.05-.07.11-.14.19-.19.08-.06.16-.1.25-.12.09-.03.19-.04.3-.04.07,0,.14,0,.23.02.08,0,.15.03.21.05l-.09.39h-.28s0-.04,0-.07c0-.07-.01-.13-.04-.17-.02-.03-.06-.05-.1-.05-.08,0-.15.04-.22.13-.07.09-.13.21-.18.37-.05.16-.07.3-.07.42,0,.2.07.3.21.3.07,0,.14-.02.2-.05.06-.03.13-.09.22-.16Z"/>
      <path class="cls-3" d="M41.83,39.84h.02c.08-.1.17-.17.25-.22.09-.05.18-.07.29-.07s.19.03.25.09c.06.06.09.14.09.25,0,.07,0,.15-.03.25l-.13.59s-.02.08-.02.11c0,.03,0,.05,0,.07,0,.05,0,.08.04.1.02.02.06.03.12.04l-.02.1h-.65l.19-.86c.03-.12.04-.21.05-.25,0-.05,0-.08,0-.11,0-.05,0-.08-.03-.1s-.05-.04-.09-.04c-.03,0-.07.01-.11.04s-.08.06-.13.12c-.05.06-.09.11-.11.17-.03.06-.05.14-.07.22l-.17.81h-.45l.4-1.79c.02-.1.03-.18.03-.23,0-.02,0-.04,0-.06,0-.01-.01-.02-.02-.03,0,0-.02-.01-.04-.02-.02,0-.05,0-.09-.02l.03-.1.47-.03h.18l-.24.97ZM43.53,40.71c-.01.05-.02.09-.02.12,0,.02,0,.05,0,.06,0,.05,0,.08.04.1.02.02.06.04.12.04l-.02.1h-.65l.24-1.11c.01-.06.02-.11.03-.15,0-.03,0-.06,0-.09,0-.04,0-.07-.03-.09-.02-.02-.06-.03-.12-.04l.03-.1.46-.02h.18l-.25,1.17ZM43.89,38.93l-.08.39h-.4l.09-.39h.4ZM46.48,39.08l-1.24,2.06h-.33l.02-.11,1.07-1.61v-.02s-.62,0-.62,0c-.06,0-.1,0-.13.02-.03,0-.06.03-.08.06-.02.03-.05.08-.08.16h-.19l.16-.66h1.43l-.02.11ZM46.49,41.04l.08-.39h.25c0,.11.03.19.08.25.05.06.12.08.21.08s.17-.03.23-.08c.06-.06.11-.13.14-.22.04-.1.05-.18.05-.27,0-.1-.03-.18-.07-.24-.05-.06-.12-.08-.22-.08-.05,0-.1,0-.15.01-.05,0-.1.02-.15.04l-.13-.1.23-1.07h.82s.06,0,.08,0c.02,0,.03-.02.04-.03.01-.01.03-.04.05-.07h.16l-.14.51h-.85l-.12.57c.11-.04.23-.05.37-.05.11,0,.2.02.28.06.08.04.14.09.19.17.04.07.06.16.06.26,0,.06,0,.12-.01.17-.01.07-.04.14-.06.2-.03.07-.07.13-.12.18-.05.05-.11.09-.17.13-.07.04-.15.07-.24.09-.09.02-.18.03-.28.03-.11,0-.22-.01-.33-.04-.11-.02-.21-.05-.29-.09ZM50.61,39.87c.09-.11.18-.2.26-.25.09-.05.19-.08.3-.08s.19.03.25.09c.06.06.09.14.09.25,0,.07-.01.15-.03.25l-.13.59s-.02.08-.02.11,0,.05,0,.07c0,.05.01.08.04.1.03.02.06.03.12.04l-.02.1h-.64l.21-.95s.02-.09.03-.12c0-.03,0-.06.01-.08,0-.02,0-.04,0-.06,0-.05,0-.08-.03-.11-.02-.02-.05-.04-.09-.04-.03,0-.07.01-.11.04-.04.03-.09.07-.13.12-.05.06-.09.11-.11.17-.03.06-.05.14-.07.22l-.17.81h-.45l.22-.99s.02-.08.02-.1c0-.03,0-.05,0-.07,0-.02,0-.03,0-.05,0-.06,0-.09-.03-.12-.02-.02-.05-.04-.09-.04-.05,0-.11.03-.18.1-.07.06-.12.13-.16.2-.04.06-.07.15-.09.26l-.17.81h-.45l.25-1.12s0-.06.02-.11c0-.05.01-.09.01-.12,0-.04-.01-.07-.04-.09-.03-.02-.06-.03-.11-.03l.02-.1.43-.02h.17l-.09.34h.02c.07-.08.14-.16.2-.21.06-.05.12-.09.18-.11.06-.02.13-.03.2-.03.11,0,.19.03.25.09.06.06.09.14.1.24ZM51.91,41.27s-.05.06-.06.1c0,.03-.02.06-.02.1,0,.07.03.12.07.16.05.04.12.06.22.06.07,0,.14-.01.19-.04.06-.02.11-.06.16-.12.05-.06.1-.14.14-.25.04-.11.08-.26.12-.44h-.02c-.07.07-.13.14-.19.19-.06.05-.12.08-.18.11-.06.02-.13.03-.2.03-.07,0-.13-.02-.19-.05-.06-.04-.1-.09-.13-.17-.03-.08-.05-.17-.05-.29,0-.15.02-.29.06-.43.04-.14.1-.26.18-.36s.17-.18.28-.24c.11-.06.24-.08.39-.08.07,0,.14,0,.2.02.06.02.12.05.19.09l.14-.11.18.03-.13.62c-.02.1-.04.2-.06.29l-.1.49c-.03.13-.05.24-.08.32-.03.07-.05.14-.08.19-.03.05-.06.09-.1.13-.04.04-.07.07-.11.1-.04.03-.09.05-.14.07-.06.02-.12.04-.2.05-.08.01-.17.02-.26.02-.15,0-.27-.01-.37-.04-.1-.03-.18-.06-.22-.12-.05-.05-.07-.12-.07-.2,0-.06.03-.13.07-.18.04-.06.11-.11.2-.17l.16.14ZM52.86,40.15c.02-.08.02-.16.02-.23s-.01-.13-.04-.16c-.03-.04-.07-.05-.13-.05-.09,0-.18.05-.25.14-.07.1-.13.23-.18.4-.05.17-.07.32-.07.45,0,.08,0,.14.03.17.02.04.06.06.11.06.04,0,.09-.02.13-.04.04-.03.09-.07.14-.14.05-.06.09-.13.13-.22.04-.08.06-.19.09-.32v-.06ZM55.26,40.36l-.13.62h-.33l.13-.62h-.56l.07-.31h.55l.13-.62h.33l-.13.62h.56l-.07.31h-.55ZM57,40.61c0,.09.02.17.04.22.02.05.06.09.11.11.04.02.11.04.18.04.11,0,.2-.04.27-.1.07-.06.1-.16.1-.28,0-.06,0-.12-.03-.16-.02-.05-.05-.09-.1-.14-.04-.05-.11-.11-.22-.19-.1-.07-.17-.16-.22-.24-.05-.09-.07-.18-.07-.28,0-.08.02-.17.05-.25.04-.08.09-.15.16-.21.07-.06.16-.1.26-.14s.23-.05.37-.05c.11,0,.2,0,.29.02.09,0,.18.03.27.06l-.1.45h-.2c0-.12-.03-.2-.07-.26-.04-.06-.11-.08-.22-.08-.11,0-.19.03-.26.09-.06.06-.09.14-.09.25,0,.07.03.15.07.21.05.06.13.14.23.21.09.07.16.13.21.19.05.06.09.11.11.18.03.06.04.14.04.21,0,.11-.03.21-.08.31-.05.09-.11.17-.2.23-.07.05-.15.09-.23.11-.1.03-.22.05-.36.05-.1,0-.2,0-.3-.03-.11-.02-.21-.04-.3-.07l.1-.46h.2ZM59.72,39.65l.14-.11.18.03-.24,1.1c-.01.06-.02.1-.03.13,0,.04,0,.06,0,.09,0,.05,0,.08.03.1.03.02.06.04.12.04l-.02.1h-.6l.08-.32h-.02c-.07.09-.14.16-.2.21-.06.05-.12.08-.18.11-.06.02-.13.03-.2.03s-.14-.02-.19-.05-.1-.09-.13-.17c-.03-.08-.05-.17-.05-.29,0-.11.01-.22.04-.34.03-.11.06-.22.11-.31.05-.1.11-.18.19-.25.08-.07.16-.12.26-.16.1-.04.2-.06.31-.06.16,0,.29.04.4.11ZM59.49,40.15s.01-.07.02-.11c0-.04,0-.08,0-.12,0-.07-.01-.12-.04-.16-.03-.04-.07-.05-.13-.05-.1,0-.18.05-.25.15-.08.1-.14.23-.18.4-.04.17-.07.31-.07.45,0,.08,0,.14.03.17.02.04.06.06.11.06.07,0,.14-.04.21-.1.07-.07.13-.15.17-.24.04-.09.08-.22.12-.38v-.06ZM60.35,39.57h.65l-.2.86c-.03.12-.04.21-.05.25,0,.05,0,.08,0,.11,0,.05,0,.08.03.11.02.02.05.03.09.03.02,0,.04,0,.07-.01.03,0,.05-.03.07-.05.02-.02.05-.05.09-.08.04-.04.06-.07.09-.11.03-.04.05-.08.06-.13.02-.05.04-.1.05-.17l.17-.81h.45l-.24,1.12s-.01.06-.02.11c0,.05-.01.08-.01.12,0,.05.01.07.04.09.03.02.06.03.11.03l-.02.1h-.59l.08-.32h-.02c-.1.12-.19.2-.28.26-.09.06-.19.09-.31.09-.11,0-.19-.03-.25-.09-.06-.06-.09-.15-.09-.25,0-.07,0-.15.03-.24l.13-.59s.02-.09.02-.11,0-.05,0-.07c0-.05-.01-.08-.04-.1s-.06-.03-.12-.04l.02-.1ZM63.64,41.14h-.65l.19-.86c.03-.12.04-.21.05-.25s0-.08,0-.11c0-.05,0-.08-.03-.1-.02-.02-.05-.04-.09-.04-.03,0-.07.01-.11.04-.04.03-.08.06-.13.12-.05.06-.09.11-.11.17-.03.06-.05.14-.07.22l-.17.81h-.45l.25-1.12s0-.06.02-.11c0-.05.01-.09.01-.12,0-.04-.01-.07-.04-.09-.03-.02-.06-.03-.11-.03l.02-.1.43-.02h.17l-.09.34h.02c.07-.08.14-.16.2-.21.06-.05.12-.09.18-.11.06-.02.13-.03.2-.03.11,0,.19.03.25.09s.09.14.09.25c0,.07,0,.15-.03.25l-.13.59s-.02.08-.02.11c0,.03,0,.05,0,.07,0,.05,0,.08.04.1.02.02.06.03.12.04l-.02.1ZM64.09,41.27s-.05.06-.06.1c0,.03-.02.06-.02.1,0,.07.03.12.07.16.05.04.12.06.22.06.07,0,.14-.01.19-.04.06-.02.11-.06.16-.12.05-.06.1-.14.14-.25.04-.11.08-.26.12-.44h-.02c-.07.07-.13.14-.19.19-.06.05-.12.08-.18.11-.06.02-.13.03-.2.03-.07,0-.13-.02-.19-.05-.06-.04-.1-.09-.13-.17-.03-.08-.05-.17-.05-.29,0-.15.02-.29.06-.43.04-.14.1-.26.18-.36s.17-.18.28-.24c.11-.06.24-.08.39-.08.07,0,.14,0,.2.02.06.02.12.05.19.09l.14-.11.18.03-.13.62c-.02.1-.04.2-.06.29l-.1.49c-.03.13-.05.24-.08.32-.03.07-.05.14-.08.19-.03.05-.06.09-.1.13-.04.04-.07.07-.11.1-.04.03-.09.05-.14.07-.06.02-.12.04-.2.05-.08.01-.17.02-.26.02-.15,0-.27-.01-.37-.04-.1-.03-.18-.06-.22-.12-.05-.05-.07-.12-.07-.2,0-.06.03-.13.07-.18.04-.06.11-.11.2-.17l.16.14ZM65.04,40.15c.02-.08.02-.16.02-.23s-.01-.13-.04-.16c-.03-.04-.07-.05-.13-.05-.09,0-.18.05-.25.14-.07.1-.13.23-.18.4-.05.17-.07.32-.07.45,0,.08,0,.14.03.17.02.04.06.06.11.06.04,0,.09-.02.13-.04.04-.03.09-.07.14-.14.05-.06.09-.13.13-.22.04-.08.06-.19.09-.32v-.06ZM66.75,39.48l.09-.38c.14-.05.26-.09.38-.11.11-.03.23-.04.35-.04.11,0,.2.01.27.04.08.03.14.07.19.14.04.06.07.14.07.23,0,.08-.01.16-.04.22-.03.06-.07.12-.12.18-.05.05-.11.1-.18.14-.07.04-.15.07-.23.1v.02c.11.03.21.08.28.17.07.08.1.18.1.29,0,.1-.02.19-.05.27-.04.08-.09.16-.17.23s-.17.12-.27.15c-.11.03-.24.05-.39.05-.11,0-.21-.01-.33-.04-.11-.03-.21-.06-.28-.09l.08-.39h.25c0,.22.11.33.28.33.08,0,.16-.03.22-.07.06-.05.11-.11.15-.2.03-.08.05-.17.05-.26,0-.11-.03-.19-.09-.25-.06-.05-.15-.08-.27-.08h-.14l.04-.18c.13,0,.24-.03.34-.07.11-.05.19-.12.25-.2.06-.09.09-.19.09-.32,0-.07-.02-.13-.06-.17-.04-.04-.09-.06-.16-.06-.03,0-.07,0-.1.01-.04,0-.07.03-.11.05-.04.03-.07.06-.1.11-.03.05-.06.1-.09.18h-.28ZM70.1,39.08l-1.24,2.06h-.33l.02-.11,1.07-1.61v-.02s-.62,0-.62,0c-.06,0-.1,0-.13.02-.03,0-.06.03-.08.06-.02.03-.05.08-.08.16h-.19l.16-.66h1.43l-.02.11ZM70.51,40.66l-.11.48h-.4l.11-.48h.4ZM70.83,41.04l.08-.39h.25c0,.11.03.19.08.25.05.06.12.08.21.08s.17-.03.23-.08c.06-.06.11-.13.14-.22.04-.1.05-.18.05-.27,0-.1-.03-.18-.07-.24s-.12-.08-.22-.08c-.05,0-.1,0-.15.01-.05,0-.1.02-.15.04l-.13-.1.23-1.07h.82s.06,0,.08,0c.02,0,.03-.02.04-.03.01-.01.03-.04.05-.07h.16l-.14.51h-.85l-.12.57c.11-.04.23-.05.37-.05.11,0,.2.02.28.06.08.04.14.09.19.17.04.07.06.16.06.26,0,.06,0,.12-.01.17-.01.07-.04.14-.06.2-.03.07-.07.13-.12.18-.05.05-.11.09-.17.13-.07.04-.15.07-.24.09-.09.02-.18.03-.28.03-.11,0-.22-.01-.33-.04-.11-.02-.21-.05-.29-.09ZM74.95,39.87c.09-.11.18-.2.26-.25.09-.05.19-.08.3-.08s.19.03.25.09c.06.06.09.14.09.25,0,.07-.01.15-.03.25l-.13.59s-.02.08-.02.11,0,.05,0,.07c0,.05.01.08.04.1.03.02.06.03.12.04l-.02.1h-.64l.21-.95s.02-.09.03-.12c0-.03,0-.06.01-.08,0-.02,0-.04,0-.06,0-.05,0-.08-.03-.11-.02-.02-.05-.04-.09-.04-.03,0-.07.01-.11.04-.04.03-.09.07-.13.12-.05.06-.09.11-.11.17-.03.06-.05.14-.07.22l-.17.81h-.45l.22-.99s.02-.08.02-.1c0-.03,0-.05,0-.07,0-.02,0-.03,0-.05,0-.06,0-.09-.03-.12-.02-.02-.05-.04-.09-.04-.05,0-.11.03-.18.1-.07.06-.12.13-.16.2-.04.06-.07.15-.09.26l-.17.81h-.45l.25-1.12s0-.06.02-.11c0-.05.01-.09.01-.12,0-.04-.01-.07-.04-.09-.03-.02-.06-.03-.11-.03l.02-.1.43-.02h.17l-.09.34h.02c.07-.08.14-.16.2-.21.06-.05.12-.09.18-.11.06-.02.13-.03.2-.03.11,0,.19.03.25.09.06.06.09.14.1.24ZM76.26,41.27s-.05.06-.06.1c0,.03-.02.06-.02.1,0,.07.03.12.07.16.05.04.12.06.22.06.07,0,.14-.01.19-.04.06-.02.11-.06.16-.12.05-.06.1-.14.14-.25.04-.11.08-.26.12-.44h-.02c-.07.07-.13.14-.19.19-.06.05-.12.08-.18.11-.06.02-.13.03-.2.03-.07,0-.13-.02-.19-.05-.06-.04-.1-.09-.13-.17-.03-.08-.05-.17-.05-.29,0-.15.02-.29.06-.43.04-.14.1-.26.18-.36s.17-.18.28-.24c.11-.06.24-.08.39-.08.07,0,.14,0,.2.02.06.02.12.05.19.09l.14-.11.18.03-.13.62c-.02.1-.04.2-.06.29l-.1.49c-.03.13-.05.24-.08.32-.03.07-.05.14-.08.19-.03.05-.06.09-.1.13-.04.04-.07.07-.11.1-.04.03-.09.05-.14.07-.06.02-.12.04-.2.05-.08.01-.17.02-.26.02-.15,0-.27-.01-.37-.04-.1-.03-.18-.06-.22-.12-.05-.05-.07-.12-.07-.2,0-.06.03-.13.07-.18.04-.06.11-.11.2-.17l.16.14ZM77.21,40.15c.02-.08.02-.16.02-.23s-.01-.13-.04-.16c-.03-.04-.07-.05-.13-.05-.09,0-.18.05-.25.14-.07.1-.13.23-.18.4-.05.17-.07.32-.07.45,0,.08,0,.14.03.17.02.04.06.06.11.06.04,0,.09-.02.13-.04.04-.03.09-.07.14-.14.05-.06.09-.13.13-.22.04-.08.06-.19.09-.32v-.06ZM79.6,40.36l-.13.62h-.33l.13-.62h-.56l.07-.31h.55l.13-.62h.33l-.13.62h.56l-.07.31h-.55ZM81.92,39.94h.02s.08,0,.11-.02.08-.04.12-.08c.05-.04.12-.11.23-.21.09-.09.16-.17.21-.22.04-.06.07-.1.09-.14,0-.03.02-.06.02-.08,0-.04,0-.06-.03-.08-.02-.01-.04-.02-.08-.03l.03-.11h.76l-.02.11s-.07.02-.09.03-.06.04-.1.07c-.04.03-.1.09-.18.16l-.56.55.33.82c.03.07.05.12.07.16.02.04.04.07.06.09.02.02.04.04.06.05.02,0,.04.02.06.02l-.02.1h-.78l.02-.1s.05-.01.06-.02c0-.01.02-.03.02-.06s0-.06-.02-.1-.03-.1-.07-.19l-.14-.37c-.02-.05-.04-.09-.06-.11-.02-.02-.04-.04-.05-.05-.02,0-.04-.01-.08-.01h-.02l-.13.6s0,.05-.01.06c0,.02,0,.03,0,.05,0,.02,0,.04,0,.07,0,.05,0,.08.03.1.02.02.05.04.1.04l-.02.1h-.78l.02-.1s.08-.03.1-.05c.03-.02.04-.06.06-.09.02-.04.04-.1.05-.18l.28-1.31c.01-.06.02-.12.02-.18,0-.05,0-.08-.03-.1-.02-.02-.05-.03-.1-.04l.02-.11h.78l-.02.11s-.08.03-.1.05c-.03.02-.04.05-.06.09-.02.04-.04.1-.05.18l-.11.54Z"/>
      <path class="cls-3" d="M84.48,39.65l.14-.11.18.03-.24,1.1c-.01.06-.02.1-.03.13,0,.04,0,.06,0,.09,0,.05,0,.08.03.1.03.02.06.04.12.04l-.02.1h-.6l.08-.32h-.02c-.07.09-.14.16-.2.21-.06.05-.12.08-.18.11-.06.02-.13.03-.2.03s-.14-.02-.19-.05-.1-.09-.13-.17c-.03-.08-.05-.17-.05-.29,0-.11.01-.22.04-.34.03-.11.06-.22.11-.31.05-.1.11-.18.19-.25.08-.07.16-.12.26-.16.1-.04.2-.06.31-.06.16,0,.29.04.4.11ZM84.24,40.15s.01-.07.02-.11c0-.04,0-.08,0-.12,0-.07-.01-.12-.04-.16-.03-.04-.07-.05-.13-.05-.1,0-.18.05-.25.15-.08.1-.14.23-.18.4-.04.17-.07.31-.07.45,0,.08,0,.14.03.17.02.04.06.06.11.06.07,0,.14-.04.21-.1.07-.07.13-.15.17-.24.04-.09.08-.22.12-.38v-.06ZM86.02,40.85c-.08.08-.14.14-.2.19-.06.04-.12.07-.18.09-.06.02-.13.03-.22.03s-.16-.02-.21-.05c-.06-.03-.1-.07-.12-.12s-.04-.11-.04-.18c0-.05,0-.1.01-.14,0-.05.02-.12.04-.22l.16-.68h-.21l.02-.11c.06,0,.11-.01.15-.03.04-.02.07-.04.09-.07.03-.04.05-.08.07-.14.02-.06.05-.14.08-.24h.37l-.09.4h.38l-.04.2h-.38l-.17.72s-.02.06-.02.09c0,.03,0,.06-.02.09,0,.03,0,.05,0,.07,0,.02,0,.04,0,.05,0,.05,0,.09.03.11.02.02.04.03.08.03.04,0,.09-.02.14-.05.05-.04.1-.09.16-.16l.12.13ZM86.26,39.57h.65l-.2.86c-.03.12-.04.21-.05.25,0,.05,0,.08,0,.11,0,.05,0,.08.03.11.02.02.05.03.09.03.02,0,.04,0,.07-.01.03,0,.05-.03.07-.05.02-.02.05-.05.09-.08.04-.04.06-.07.09-.11.03-.04.05-.08.06-.13.02-.05.04-.1.05-.17l.17-.81h.45l-.24,1.12s-.01.06-.02.11c0,.05-.01.08-.01.12,0,.05.01.07.04.09.03.02.06.03.11.03l-.02.1h-.59l.08-.32h-.02c-.1.12-.19.2-.28.26-.09.06-.19.09-.31.09-.11,0-.19-.03-.25-.09-.06-.06-.09-.15-.09-.25,0-.07,0-.15.03-.24l.13-.59s.02-.09.02-.11,0-.05,0-.07c0-.05-.01-.08-.04-.1s-.06-.03-.12-.04l.02-.1ZM88.63,40.2h.03s.06,0,.09-.02c.03,0,.06-.03.11-.06s.1-.07.16-.12c.04-.03.07-.06.1-.09.02-.03.04-.05.04-.07,0-.03.01-.05.01-.08,0-.02,0-.05-.02-.06-.01-.02-.04-.03-.07-.03l.03-.1h.55l.04.1c-.06.07-.15.15-.26.24l-.35.27.2.58c.03.07.04.12.06.16.02.03.04.06.06.08.03.02.06.03.11.04l-.03.1h-.55l-.21-.68s-.02-.06-.03-.07c0-.01-.02-.02-.03-.03-.01,0-.03,0-.05,0h-.04l-.17.78h-.45l.4-1.79c.02-.1.03-.18.03-.23,0-.02,0-.04,0-.06,0-.01-.01-.02-.02-.03,0,0-.02-.01-.04-.02-.02,0-.05,0-.09-.02l.03-.1.47-.03h.18l-.29,1.33ZM90.25,40.71c-.01.05-.02.09-.02.12,0,.02,0,.05,0,.06,0,.05,0,.08.04.1.02.02.06.04.12.04l-.02.1h-.65l.24-1.11c.01-.06.02-.11.03-.15,0-.03,0-.06,0-.09,0-.04,0-.07-.03-.09-.02-.02-.06-.03-.12-.04l.03-.1.46-.02h.18l-.25,1.17ZM90.61,38.93l-.08.39h-.4l.09-.39h.4ZM91.67,39.48l.09-.38c.14-.05.26-.09.38-.11.11-.03.23-.04.35-.04.11,0,.2.01.27.04.08.03.14.07.19.14.04.06.07.14.07.23,0,.08-.01.16-.04.22-.03.06-.07.12-.12.18-.05.05-.11.1-.18.14-.07.04-.15.07-.23.1v.02c.11.03.21.08.28.17.07.08.1.18.1.29,0,.1-.02.19-.05.27-.04.08-.09.16-.17.23s-.17.12-.27.15c-.11.03-.24.05-.39.05-.11,0-.21-.01-.33-.04-.11-.03-.21-.06-.28-.09l.08-.39h.25c0,.22.11.33.28.33.08,0,.16-.03.22-.07.06-.05.11-.11.15-.2.03-.08.05-.17.05-.26,0-.11-.03-.19-.09-.25-.06-.05-.15-.08-.27-.08h-.14l.04-.18c.13,0,.24-.03.34-.07.11-.05.19-.12.25-.2.06-.09.09-.19.09-.32,0-.07-.02-.13-.06-.17-.04-.04-.09-.06-.16-.06-.03,0-.07,0-.1.01-.04,0-.07.03-.11.05-.04.03-.07.06-.1.11-.03.05-.06.1-.09.18h-.28ZM95.02,39.08l-1.24,2.06h-.33l.02-.11,1.07-1.61v-.02s-.62,0-.62,0c-.06,0-.1,0-.13.02-.03,0-.06.03-.08.06-.02.03-.05.08-.08.16h-.19l.16-.66h1.43l-.02.11ZM95.43,40.66l-.11.48h-.4l.11-.48h.4ZM95.75,41.04l.08-.39h.25c0,.11.03.19.08.25.05.06.12.08.21.08s.17-.03.23-.08c.06-.06.11-.13.14-.22.04-.1.05-.18.05-.27,0-.1-.03-.18-.07-.24-.05-.06-.12-.08-.22-.08-.05,0-.1,0-.15.01-.05,0-.1.02-.15.04l-.13-.1.23-1.07h.82s.06,0,.08,0c.02,0,.03-.02.04-.03.01-.01.03-.04.05-.07h.16l-.14.51h-.85l-.12.57c.11-.04.23-.05.37-.05.11,0,.2.02.28.06.08.04.14.09.19.17.04.07.06.16.06.26,0,.06,0,.12-.01.17-.01.07-.04.14-.06.2-.03.07-.07.13-.12.18-.05.05-.11.09-.17.13-.07.04-.15.07-.24.09-.09.02-.18.03-.28.03-.11,0-.22-.01-.33-.04-.11-.02-.21-.05-.29-.09ZM99.87,39.87c.09-.11.18-.2.26-.25.09-.05.19-.08.3-.08s.19.03.25.09c.06.06.09.14.09.25,0,.07-.01.15-.03.25l-.13.59s-.02.08-.02.11,0,.05,0,.07c0,.05.01.08.04.1.03.02.06.03.12.04l-.02.1h-.64l.21-.95s.02-.09.03-.12c0-.03,0-.06.01-.08,0-.02,0-.04,0-.06,0-.05,0-.08-.03-.11-.02-.02-.05-.04-.09-.04-.03,0-.07.01-.11.04-.04.03-.09.07-.13.12-.05.06-.09.11-.11.17-.03.06-.05.14-.07.22l-.17.81h-.45l.22-.99s.02-.08.02-.1c0-.03,0-.05,0-.07,0-.02,0-.03,0-.05,0-.06,0-.09-.03-.12-.02-.02-.05-.04-.09-.04-.05,0-.11.03-.18.1-.07.06-.12.13-.16.2-.04.06-.07.15-.09.26l-.17.81h-.45l.25-1.12s0-.06.02-.11c0-.05.01-.09.01-.12,0-.04-.01-.07-.04-.09-.03-.02-.06-.03-.11-.03l.02-.1.43-.02h.17l-.09.34h.02c.07-.08.14-.16.2-.21.06-.05.12-.09.18-.11.06-.02.13-.03.2-.03.11,0,.19.03.25.09.06.06.09.14.1.24ZM101.18,41.27s-.05.06-.06.1c0,.03-.02.06-.02.1,0,.07.03.12.07.16.05.04.12.06.22.06.07,0,.14-.01.19-.04.06-.02.11-.06.16-.12.05-.06.1-.14.14-.25.04-.11.08-.26.12-.44h-.02c-.07.07-.13.14-.19.19-.06.05-.12.08-.18.11-.06.02-.13.03-.2.03-.07,0-.13-.02-.19-.05-.06-.04-.1-.09-.13-.17-.03-.08-.05-.17-.05-.29,0-.15.02-.29.06-.43.04-.14.1-.26.18-.36s.17-.18.28-.24c.11-.06.24-.08.39-.08.07,0,.14,0,.2.02.06.02.12.05.19.09l.14-.11.18.03-.13.62c-.02.1-.04.2-.06.29l-.1.49c-.03.13-.05.24-.08.32-.03.07-.05.14-.08.19-.03.05-.06.09-.1.13-.04.04-.07.07-.11.1-.04.03-.09.05-.14.07-.06.02-.12.04-.2.05-.08.01-.17.02-.26.02-.15,0-.27-.01-.37-.04-.1-.03-.18-.06-.22-.12-.05-.05-.07-.12-.07-.2,0-.06.03-.13.07-.18.04-.06.11-.11.2-.17l.16.14ZM102.13,40.15c.02-.08.02-.16.02-.23s-.01-.13-.04-.16c-.03-.04-.07-.05-.13-.05-.09,0-.18.05-.25.14-.07.1-.13.23-.18.4-.05.17-.07.32-.07.45,0,.08,0,.14.03.17.02.04.06.06.11.06.04,0,.09-.02.13-.04.04-.03.09-.07.14-.14.05-.06.09-.13.13-.22.04-.08.06-.19.09-.32v-.06ZM104.52,40.36l-.13.62h-.33l.13-.62h-.56l.07-.31h.55l.13-.62h.33l-.13.62h.56l-.07.31h-.55ZM107.44,39.67c.06-.11.1-.19.12-.24.02-.05.04-.09.04-.12s0-.06,0-.09c0-.07-.04-.12-.13-.13l.02-.11h.66l-.02.11s-.06.02-.08.03c-.03.01-.05.04-.07.06-.02.03-.04.06-.06.09-.02.03-.04.07-.07.12l-.97,1.77h-.39l-.07-1.7c0-.06,0-.11,0-.15,0-.04-.01-.07-.02-.09,0-.03-.02-.05-.03-.07-.01-.02-.03-.03-.05-.04-.02,0-.04-.01-.06-.02l.02-.11h.81l-.03.11s-.08.01-.11.03c-.03.02-.04.05-.05.08-.01.04-.02.08-.02.15v.92c.02.15.02.27.02.36h.02l.5-.96ZM108.5,40.71c-.01.05-.02.09-.02.12,0,.02,0,.05,0,.06,0,.05,0,.08.04.1.02.02.06.04.12.04l-.02.1h-.65l.24-1.11c.01-.06.02-.11.03-.15,0-.03,0-.06,0-.09,0-.04,0-.07-.03-.09-.02-.02-.06-.03-.12-.04l.03-.1.46-.02h.18l-.25,1.17ZM108.86,38.93l-.08.39h-.4l.09-.39h.4ZM110.18,39.35s.02-.06.02-.11c0-.05.01-.09.01-.11,0-.02,0-.04,0-.06,0-.01-.01-.02-.02-.03,0,0-.02-.01-.04-.02-.02,0-.05,0-.09-.02l.03-.1.47-.03h.18l-.39,1.8c-.01.05-.02.09-.03.13,0,.04,0,.06,0,.09,0,.05,0,.08.03.1.03.02.06.04.12.04l-.02.1h-.6l.08-.32h-.02c-.07.09-.14.16-.2.21-.06.05-.12.08-.18.11-.06.02-.13.03-.2.03s-.14-.02-.19-.05-.1-.09-.13-.17c-.03-.08-.05-.17-.05-.29,0-.11.01-.22.04-.34.03-.11.06-.22.11-.31.05-.1.11-.18.19-.25.07-.07.16-.12.25-.16.1-.04.2-.06.32-.06.09,0,.18.02.27.05l.05-.24ZM110.02,40.15s0-.07.02-.11c0-.04,0-.08,0-.12,0-.07-.01-.12-.04-.16-.03-.04-.07-.05-.13-.05-.1,0-.18.05-.25.15-.08.1-.14.23-.18.4-.04.17-.07.31-.07.45,0,.08,0,.14.03.17.02.04.06.06.11.06.07,0,.14-.04.21-.1.07-.07.13-.15.17-.24.04-.09.08-.22.12-.38v-.06ZM112.07,39.65l.14-.11.18.03-.24,1.1c-.01.06-.02.1-.03.13,0,.04,0,.06,0,.09,0,.05,0,.08.03.1.03.02.06.04.12.04l-.02.1h-.6l.08-.32h-.02c-.07.09-.14.16-.2.21-.06.05-.12.08-.18.11-.06.02-.13.03-.2.03s-.14-.02-.19-.05-.1-.09-.13-.17c-.03-.08-.05-.17-.05-.29,0-.11.01-.22.04-.34.03-.11.06-.22.11-.31.05-.1.11-.18.19-.25.08-.07.16-.12.26-.16.1-.04.2-.06.31-.06.16,0,.29.04.4.11ZM111.84,40.15s.01-.07.02-.11c0-.04,0-.08,0-.12,0-.07-.01-.12-.04-.16-.03-.04-.07-.05-.13-.05-.1,0-.18.05-.25.15-.08.1-.14.23-.18.4-.04.17-.07.31-.07.45,0,.08,0,.14.03.17.02.04.06.06.11.06.07,0,.14-.04.21-.1.07-.07.13-.15.17-.24.04-.09.08-.22.12-.38v-.06ZM114.12,41.14h-.65l.19-.86c.03-.12.04-.21.05-.25s0-.08,0-.11c0-.05,0-.08-.03-.1-.02-.02-.05-.04-.09-.04-.03,0-.07.01-.11.04-.04.03-.08.06-.13.12-.05.06-.09.11-.11.17-.03.06-.05.14-.07.22l-.17.81h-.45l.25-1.12s0-.06.02-.11c0-.05.01-.09.01-.12,0-.04-.01-.07-.04-.09-.03-.02-.06-.03-.11-.03l.02-.1.43-.02h.17l-.09.34h.02c.07-.08.14-.16.2-.21.06-.05.12-.09.18-.11.06-.02.13-.03.2-.03.11,0,.19.03.25.09s.09.14.09.25c0,.07,0,.15-.03.25l-.13.59s-.02.08-.02.11c0,.03,0,.05,0,.07,0,.05,0,.08.04.1.02.02.06.03.12.04l-.02.1ZM114.57,41.27s-.05.06-.06.1c0,.03-.02.06-.02.1,0,.07.03.12.07.16.05.04.12.06.22.06.07,0,.14-.01.19-.04.06-.02.11-.06.16-.12.05-.06.1-.14.14-.25.04-.11.08-.26.12-.44h-.02c-.07.07-.13.14-.19.19-.06.05-.12.08-.18.11-.06.02-.13.03-.2.03-.07,0-.13-.02-.19-.05-.06-.04-.1-.09-.13-.17-.03-.08-.05-.17-.05-.29,0-.15.02-.29.06-.43.04-.14.1-.26.18-.36s.17-.18.28-.24c.11-.06.24-.08.39-.08.07,0,.14,0,.2.02.06.02.12.05.19.09l.14-.11.18.03-.13.62c-.02.1-.04.2-.06.29l-.1.49c-.03.13-.05.24-.08.32-.03.07-.05.14-.08.19-.03.05-.06.09-.1.13-.04.04-.07.07-.11.1-.04.03-.09.05-.14.07-.06.02-.12.04-.2.05-.08.01-.17.02-.26.02-.15,0-.27-.01-.37-.04-.1-.03-.18-.06-.22-.12-.05-.05-.07-.12-.07-.2,0-.06.03-.13.07-.18.04-.06.11-.11.2-.17l.16.14ZM115.52,40.15c.02-.08.02-.16.02-.23s-.01-.13-.04-.16c-.03-.04-.07-.05-.13-.05-.09,0-.18.05-.25.14-.07.1-.13.23-.18.4-.05.17-.07.32-.07.45,0,.08,0,.14.03.17.02.04.06.06.11.06.04,0,.09-.02.13-.04.04-.03.09-.07.14-.14.05-.06.09-.13.13-.22.04-.08.06-.19.09-.32v-.06Z"/>
      <path class="cls-3" d="M117.53,39.65l.14-.11.18.03-.24,1.1c-.01.06-.02.1-.03.13,0,.04,0,.06,0,.09,0,.05,0,.08.03.1.03.02.06.04.12.04l-.02.1h-.6l.08-.32h-.02c-.07.09-.14.16-.2.21-.06.05-.12.08-.18.11-.06.02-.13.03-.2.03s-.14-.02-.19-.05-.1-.09-.13-.17c-.03-.08-.05-.17-.05-.29,0-.11.01-.22.04-.34.03-.11.06-.22.11-.31.05-.1.11-.18.19-.25.08-.07.16-.12.26-.16.1-.04.2-.06.31-.06.16,0,.29.04.4.11ZM117.3,40.15s.01-.07.02-.11c0-.04,0-.08,0-.12,0-.07-.01-.12-.04-.16-.03-.04-.07-.05-.13-.05-.1,0-.18.05-.25.15-.08.1-.14.23-.18.4-.04.17-.07.31-.07.45,0,.08,0,.14.03.17.02.04.06.06.11.06.07,0,.14-.04.21-.1.07-.07.13-.15.17-.24.04-.09.08-.22.12-.38v-.06ZM119.77,40.64c-.02.09-.03.16-.03.19s.01.07.04.09c.02.02.06.04.11.05.05,0,.13.01.23.01l-.03.15h-1.28l.03-.15c.11,0,.19,0,.24-.02.05,0,.09-.03.11-.05.03-.02.05-.05.06-.08.02-.04.04-.09.05-.18l.22-1.03c.01-.05.02-.09.02-.13,0-.03,0-.05-.02-.06-.01-.01-.03-.02-.05-.02s-.04,0-.07,0c-.03,0-.05.02-.09.04s-.11.06-.21.12l-.08-.16.9-.47h.21c-.03.11-.06.25-.1.42l-.27,1.27ZM121.86,40.05c.08.04.15.1.19.16.04.07.06.15.06.24,0,.14-.04.27-.11.38-.07.11-.17.19-.3.25-.13.06-.28.09-.45.09-.14,0-.26-.02-.37-.06-.1-.04-.18-.1-.24-.18-.06-.07-.08-.17-.08-.28,0-.15.04-.28.11-.38.08-.11.19-.19.35-.27v-.02c-.07-.06-.12-.12-.16-.18-.04-.07-.05-.15-.05-.23,0-.13.04-.25.11-.34.07-.09.17-.17.29-.21.12-.05.26-.07.42-.07s.28.02.38.06c.1.04.17.1.22.17.04.07.07.15.07.24,0,.14-.04.26-.11.36-.07.1-.18.18-.34.26v.02ZM121,40.71c0,.09.02.16.06.2.04.04.1.06.19.06.05,0,.09,0,.13-.02.04-.01.07-.04.11-.07.03-.03.06-.07.09-.13s.05-.11.06-.18c.02-.07.03-.14.03-.22,0-.09-.02-.15-.06-.2-.04-.05-.1-.07-.18-.07-.08,0-.16.03-.22.09-.06.06-.11.14-.15.24-.04.1-.05.2-.05.29ZM121.25,39.66c0,.05,0,.1.02.14.01.04.04.07.07.09.03.03.08.04.14.04.08,0,.15-.02.2-.07.06-.05.11-.11.14-.19.04-.08.05-.18.05-.28,0-.09-.02-.16-.06-.2-.04-.04-.1-.06-.17-.06s-.13.02-.19.05c-.05.03-.09.08-.12.13-.03.06-.05.12-.07.18-.01.06-.02.12-.02.17ZM122.78,40.66l-.11.48h-.4l.11-.48h.4ZM124.92,39.08l-1.24,2.06h-.33l.02-.11,1.07-1.61v-.02s-.62,0-.62,0c-.06,0-.1,0-.13.02-.03,0-.06.03-.08.06-.02.03-.05.08-.08.16h-.19l.16-.66h1.43l-.02.11ZM124.93,41.04l.08-.39h.25c0,.11.03.19.08.25.05.06.12.08.21.08s.17-.03.23-.08c.06-.06.11-.13.14-.22.04-.1.05-.18.05-.27,0-.1-.03-.18-.07-.24s-.12-.08-.22-.08c-.05,0-.1,0-.15.01-.05,0-.1.02-.15.04l-.13-.1.23-1.07h.82s.06,0,.08,0c.02,0,.03-.02.04-.03.01-.01.03-.04.05-.07h.16l-.14.51h-.85l-.12.57c.11-.04.23-.05.37-.05.11,0,.2.02.28.06.08.04.14.09.19.17.04.07.06.16.06.26,0,.06,0,.12-.01.17-.01.07-.04.14-.06.2-.03.07-.07.13-.12.18-.05.05-.11.09-.17.13-.07.04-.15.07-.24.09-.09.02-.18.03-.28.03-.11,0-.22-.01-.33-.04-.11-.02-.21-.05-.29-.09ZM129.05,39.87c.09-.11.18-.2.26-.25.09-.05.19-.08.3-.08s.19.03.25.09c.06.06.09.14.09.25,0,.07-.01.15-.03.25l-.13.59s-.02.08-.02.11,0,.05,0,.07c0,.05.01.08.04.1.03.02.06.03.12.04l-.02.1h-.64l.21-.95s.02-.09.03-.12c0-.03,0-.06.01-.08,0-.02,0-.04,0-.06,0-.05,0-.08-.03-.11-.02-.02-.05-.04-.09-.04-.03,0-.07.01-.11.04-.04.03-.09.07-.13.12-.05.06-.09.11-.11.17-.03.06-.05.14-.07.22l-.17.81h-.45l.22-.99s.02-.08.02-.1c0-.03,0-.05,0-.07,0-.02,0-.03,0-.05,0-.06,0-.09-.03-.12-.02-.02-.05-.04-.09-.04-.05,0-.11.03-.18.1-.07.06-.12.13-.16.2-.04.06-.07.15-.09.26l-.17.81h-.45l.25-1.12s0-.06.02-.11c0-.05.01-.09.01-.12,0-.04-.01-.07-.04-.09-.03-.02-.06-.03-.11-.03l.02-.1.43-.02h.17l-.09.34h.02c.07-.08.14-.16.2-.21.06-.05.12-.09.18-.11.06-.02.13-.03.2-.03.11,0,.19.03.25.09.06.06.09.14.1.24ZM130.35,41.27s-.05.06-.06.1c0,.03-.02.06-.02.1,0,.07.03.12.07.16.05.04.12.06.22.06.07,0,.14-.01.19-.04.06-.02.11-.06.16-.12.05-.06.1-.14.14-.25.04-.11.08-.26.12-.44h-.02c-.07.07-.13.14-.19.19-.06.05-.12.08-.18.11-.06.02-.13.03-.2.03-.07,0-.13-.02-.19-.05-.06-.04-.1-.09-.13-.17-.03-.08-.05-.17-.05-.29,0-.15.02-.29.06-.43.04-.14.1-.26.18-.36s.17-.18.28-.24c.11-.06.24-.08.39-.08.07,0,.14,0,.2.02.06.02.12.05.19.09l.14-.11.18.03-.13.62c-.02.1-.04.2-.06.29l-.1.49c-.03.13-.05.24-.08.32-.03.07-.05.14-.08.19-.03.05-.06.09-.1.13-.04.04-.07.07-.11.1-.04.03-.09.05-.14.07-.06.02-.12.04-.2.05-.08.01-.17.02-.26.02-.15,0-.27-.01-.37-.04-.1-.03-.18-.06-.22-.12-.05-.05-.07-.12-.07-.2,0-.06.03-.13.07-.18.04-.06.11-.11.2-.17l.16.14ZM131.3,40.15c.02-.08.02-.16.02-.23s-.01-.13-.04-.16c-.03-.04-.07-.05-.13-.05-.09,0-.18.05-.25.14-.07.1-.13.23-.18.4-.05.17-.07.32-.07.45,0,.08,0,.14.03.17.02.04.06.06.11.06.04,0,.09-.02.13-.04.04-.03.09-.07.14-.14.05-.06.09-.13.13-.22.04-.08.06-.19.09-.32v-.06ZM133.7,40.36l-.13.62h-.33l.13-.62h-.56l.07-.31h.55l.13-.62h.33l-.13.62h.56l-.07.31h-.55ZM135.59,38.97h.59l.3.9c.08.24.15.46.19.65h.02c.03-.18.07-.39.12-.61l.11-.51c.01-.06.02-.12.02-.18,0-.05-.01-.08-.03-.1s-.05-.03-.1-.04l.02-.11h.57l-.02.11s-.08.03-.1.05c-.02.02-.04.05-.06.09-.02.04-.03.1-.05.18l-.38,1.73h-.35l-.37-1.11c-.03-.09-.06-.17-.08-.24-.02-.08-.05-.17-.08-.29h-.02c0,.07-.03.17-.05.29-.02.12-.05.26-.08.4l-.11.52s0,.05-.01.06c0,.02,0,.03,0,.05v.07s0,.08.03.1c.02.02.05.04.1.04l-.02.1h-.57l.02-.1s.08-.03.1-.05c.02-.02.04-.06.06-.09.02-.04.03-.1.05-.18l.28-1.31c.01-.06.02-.12.02-.18,0-.05,0-.08-.03-.1-.02-.02-.05-.03-.1-.04l.02-.11ZM138.68,39.65l.14-.11.18.03-.24,1.1c-.01.06-.02.1-.03.13,0,.04,0,.06,0,.09,0,.05,0,.08.03.1.03.02.06.04.12.04l-.02.1h-.6l.08-.32h-.02c-.07.09-.14.16-.2.21-.06.05-.12.08-.18.11-.06.02-.13.03-.2.03s-.14-.02-.19-.05c-.05-.04-.1-.09-.13-.17-.03-.08-.05-.17-.05-.29,0-.11.01-.22.04-.34.03-.11.06-.22.11-.31.05-.1.11-.18.19-.25.08-.07.16-.12.26-.16.1-.04.2-.06.31-.06.16,0,.29.04.4.11ZM138.45,40.15s.01-.07.02-.11c0-.04,0-.08,0-.12,0-.07-.01-.12-.04-.16-.03-.04-.07-.05-.13-.05-.1,0-.18.05-.25.15-.08.1-.14.23-.18.4-.04.17-.07.31-.07.45,0,.08,0,.14.03.17.02.04.06.06.11.06.07,0,.14-.04.21-.1s.13-.15.17-.24c.04-.09.08-.22.12-.38v-.06ZM139.31,41.27s-.05.06-.06.1c0,.03-.02.06-.02.1,0,.07.03.12.07.16.05.04.12.06.22.06.07,0,.14-.01.19-.04.06-.02.11-.06.16-.12.05-.06.1-.14.14-.25.04-.11.08-.26.12-.44h-.02c-.07.07-.13.14-.19.19-.06.05-.12.08-.18.11-.06.02-.13.03-.2.03-.07,0-.13-.02-.19-.05-.06-.04-.1-.09-.13-.17-.03-.08-.05-.17-.05-.29,0-.15.02-.29.06-.43.04-.14.1-.26.18-.36s.17-.18.28-.24c.11-.06.24-.08.39-.08.07,0,.14,0,.2.02.06.02.12.05.19.09l.14-.11.18.03-.13.62c-.02.1-.04.2-.06.29l-.1.49c-.03.13-.05.24-.08.32-.03.07-.05.14-.08.19-.03.05-.06.09-.1.13-.04.04-.07.07-.11.1-.04.03-.09.05-.14.07-.06.02-.12.04-.2.05-.08.01-.17.02-.26.02-.15,0-.27-.01-.37-.04-.1-.03-.18-.06-.22-.12-.05-.05-.07-.12-.07-.2,0-.06.03-.13.07-.18.04-.06.11-.11.2-.17l.16.14ZM140.26,40.15c.02-.08.02-.16.02-.23s-.01-.13-.04-.16c-.03-.04-.07-.05-.13-.05-.09,0-.18.05-.25.14-.07.1-.13.23-.18.4-.05.17-.07.32-.07.45,0,.08,0,.14.03.17.02.04.06.06.11.06.04,0,.09-.02.13-.04.04-.03.09-.07.14-.14.05-.06.09-.13.13-.22.04-.08.06-.19.09-.32v-.06Z"/>
      <path class="cls-3" d="M142.27,39.65l.14-.11.18.03-.24,1.1c-.01.06-.02.1-.03.13,0,.04,0,.06,0,.09,0,.05,0,.08.03.1.03.02.06.04.12.04l-.02.1h-.6l.08-.32h-.02c-.07.09-.14.16-.2.21-.06.05-.12.08-.18.11-.06.02-.13.03-.2.03s-.14-.02-.19-.05c-.05-.04-.1-.09-.13-.17-.03-.08-.05-.17-.05-.29,0-.11.01-.22.04-.34.03-.11.06-.22.11-.31.05-.1.11-.18.19-.25.08-.07.16-.12.26-.16.1-.04.2-.06.31-.06.16,0,.29.04.4.11ZM142.04,40.15s.01-.07.02-.11c0-.04,0-.08,0-.12,0-.07-.01-.12-.04-.16-.03-.04-.07-.05-.13-.05-.1,0-.18.05-.25.15-.08.1-.14.23-.18.4-.04.17-.07.31-.07.45,0,.08,0,.14.03.17.02.04.06.06.11.06.07,0,.14-.04.21-.1s.13-.15.17-.24c.04-.09.08-.22.12-.38v-.06ZM144.14,39.99h-.28c0-.07,0-.12-.02-.15-.02-.03-.04-.04-.08-.04-.02,0-.03,0-.05,0-.02,0-.04.02-.06.04-.02.02-.05.05-.08.08s-.06.08-.08.11c-.02.04-.04.07-.05.12-.01.04-.03.09-.04.15l-.17.81h-.45l.25-1.12c.02-.1.03-.18.03-.23,0-.04-.01-.07-.04-.09-.03-.02-.06-.03-.11-.03l.02-.1.43-.02h.18l-.12.37h.02c.09-.12.18-.21.27-.28.1-.06.2-.1.31-.1.07,0,.14,0,.22.03l-.09.42ZM145.82,39.87c.09-.11.18-.2.26-.25.09-.05.19-.08.3-.08s.19.03.25.09c.06.06.09.14.09.25,0,.07-.01.15-.03.25l-.13.59s-.02.08-.02.11c0,.03,0,.05,0,.07,0,.05.01.08.04.1.03.02.06.03.12.04l-.02.1h-.64l.21-.95s.02-.09.03-.12c0-.03,0-.06.01-.08,0-.02,0-.04,0-.06,0-.05,0-.08-.03-.11-.02-.02-.05-.04-.09-.04-.03,0-.07.01-.11.04-.04.03-.09.07-.13.12-.05.06-.09.11-.11.17-.03.06-.05.14-.07.22l-.17.81h-.45l.22-.99s.02-.08.02-.1c0-.03,0-.05,0-.07,0-.02,0-.03,0-.05,0-.06,0-.09-.03-.12-.02-.02-.05-.04-.09-.04-.05,0-.11.03-.18.1s-.12.13-.16.2c-.04.06-.07.15-.09.26l-.17.81h-.45l.25-1.12s0-.06.02-.11c0-.05.01-.09.01-.12,0-.04-.01-.07-.04-.09-.03-.02-.06-.03-.11-.03l.02-.1.43-.02h.17l-.09.34h.02c.07-.08.14-.16.2-.21.06-.05.12-.09.18-.11.06-.02.13-.03.2-.03.11,0,.19.03.25.09.06.06.09.14.1.24ZM147.58,41.16c-.11,0-.21-.02-.3-.06-.09-.04-.15-.1-.2-.19-.05-.08-.07-.19-.07-.31,0-.05,0-.1,0-.16,0-.07.02-.15.04-.22.02-.09.05-.16.09-.23.04-.08.09-.14.14-.2s.11-.1.17-.14c.06-.04.13-.06.2-.08.09-.02.18-.03.27-.03.13,0,.24.02.33.07s.15.11.19.2c.04.08.06.18.06.3,0,.14-.02.28-.07.42-.04.14-.11.26-.19.35-.08.09-.18.17-.29.21-.11.05-.24.07-.37.07ZM147.42,40.7c0,.1.02.17.04.22.03.05.08.07.15.07.04,0,.07,0,.11-.03.04-.02.07-.04.1-.08.04-.04.06-.09.09-.15.03-.06.05-.14.08-.22.03-.09.04-.18.06-.26.01-.08.02-.17.02-.24,0-.1-.02-.18-.05-.23-.03-.05-.08-.07-.15-.07-.09,0-.16.04-.23.13-.06.09-.12.22-.17.4-.04.18-.07.34-.07.47ZM149.75,40.85c-.08.08-.14.14-.2.19-.06.04-.12.07-.18.09-.06.02-.13.03-.22.03s-.16-.02-.21-.05c-.06-.03-.1-.07-.12-.12s-.04-.11-.04-.18c0-.05,0-.1.01-.14,0-.05.02-.12.04-.22l.16-.68h-.21l.02-.11c.06,0,.11-.01.15-.03.04-.02.07-.04.09-.07.03-.04.05-.08.07-.14.02-.06.05-.14.08-.24h.37l-.09.4h.38l-.04.2h-.38l-.17.72s-.02.06-.02.09c0,.03,0,.06-.02.09,0,.03,0,.05,0,.07,0,.02,0,.04,0,.05,0,.05,0,.09.03.11.02.02.04.03.08.03.04,0,.09-.02.14-.05.05-.04.1-.09.16-.16l.12.13ZM150.55,39.84h.02c.08-.1.17-.17.25-.22.09-.05.18-.07.29-.07s.19.03.25.09.09.14.09.25c0,.07,0,.15-.03.25l-.13.59s-.02.08-.02.11c0,.03,0,.05,0,.07,0,.05,0,.08.04.1.02.02.06.03.12.04l-.02.1h-.65l.19-.86c.03-.12.04-.21.05-.25s0-.08,0-.11c0-.05,0-.08-.03-.1-.02-.02-.05-.04-.09-.04-.03,0-.07.01-.11.04-.04.03-.08.06-.13.12-.05.06-.09.11-.11.17-.03.06-.05.14-.07.22l-.17.81h-.45l.4-1.79c.02-.1.03-.18.03-.23,0-.02,0-.04,0-.06,0-.01-.01-.02-.02-.03,0,0-.02-.01-.04-.02-.02,0-.05,0-.09-.02l.03-.1.47-.03h.18l-.24.97ZM153.04,39.65l.14-.11.18.03-.24,1.1c-.01.06-.02.1-.03.13,0,.04,0,.06,0,.09,0,.05,0,.08.03.1.03.02.06.04.12.04l-.02.1h-.6l.08-.32h-.02c-.07.09-.14.16-.2.21-.06.05-.12.08-.18.11-.06.02-.13.03-.2.03s-.14-.02-.19-.05c-.05-.04-.1-.09-.13-.17-.03-.08-.05-.17-.05-.29,0-.11.01-.22.04-.34.03-.11.06-.22.11-.31.05-.1.11-.18.19-.25.08-.07.16-.12.26-.16.1-.04.2-.06.31-.06.16,0,.29.04.4.11ZM152.8,40.15s.01-.07.02-.11c0-.04,0-.08,0-.12,0-.07-.01-.12-.04-.16-.03-.04-.07-.05-.13-.05-.1,0-.18.05-.25.15-.08.1-.14.23-.18.4-.04.17-.07.31-.07.45,0,.08,0,.14.03.17.02.04.06.06.11.06.07,0,.14-.04.21-.1s.13-.15.17-.24c.04-.09.08-.22.12-.38v-.06ZM155.97,40.64c-.02.09-.03.16-.03.19s.01.07.04.09c.02.02.06.04.11.05.05,0,.13.01.23.01l-.03.15h-1.28l.03-.15c.11,0,.19,0,.24-.02.05,0,.09-.03.11-.05.03-.02.05-.05.06-.08.02-.04.04-.09.05-.18l.22-1.03c.01-.05.02-.09.02-.13,0-.03,0-.05-.02-.06-.01-.01-.03-.02-.05-.02s-.04,0-.07,0c-.03,0-.05.02-.09.04s-.11.06-.21.12l-.08-.16.9-.47h.21c-.03.11-.06.25-.1.42l-.27,1.27ZM158.06,40.05c.08.04.15.1.19.16.04.07.06.15.06.24,0,.14-.04.27-.11.38-.07.11-.17.19-.3.25-.13.06-.28.09-.45.09-.14,0-.26-.02-.37-.06-.1-.04-.18-.1-.24-.18-.06-.07-.08-.17-.08-.28,0-.15.04-.28.11-.38.08-.11.19-.19.35-.27v-.02c-.07-.06-.12-.12-.16-.18-.04-.07-.05-.15-.05-.23,0-.13.04-.25.11-.34.07-.09.17-.17.29-.21.12-.05.26-.07.42-.07s.28.02.38.06c.1.04.17.1.22.17.04.07.07.15.07.24,0,.14-.04.26-.11.36-.07.1-.18.18-.34.26v.02ZM157.21,40.71c0,.09.02.16.06.2.04.04.1.06.19.06.05,0,.09,0,.13-.02.04-.01.07-.04.11-.07.03-.03.06-.07.09-.13s.05-.11.06-.18c.02-.07.03-.14.03-.22,0-.09-.02-.15-.06-.2-.04-.05-.1-.07-.18-.07-.08,0-.16.03-.22.09-.06.06-.11.14-.15.24-.04.1-.05.2-.05.29ZM157.45,39.66c0,.05,0,.1.02.14.01.04.04.07.07.09.03.03.08.04.14.04.08,0,.15-.02.2-.07.06-.05.11-.11.14-.19.04-.08.05-.18.05-.28,0-.09-.02-.16-.06-.2-.04-.04-.1-.06-.17-.06s-.13.02-.19.05c-.05.03-.09.08-.12.13-.03.06-.05.12-.07.18-.01.06-.02.12-.02.17ZM158.99,40.66l-.11.48h-.4l.11-.48h.4ZM161.12,39.08l-1.24,2.06h-.33l.02-.11,1.07-1.61v-.02s-.62,0-.62,0c-.06,0-.1,0-.13.02-.03,0-.06.03-.08.06-.02.03-.05.08-.08.16h-.19l.16-.66h1.43l-.02.11ZM161.14,41.04l.08-.39h.25c0,.11.03.19.08.25.05.06.12.08.21.08s.17-.03.23-.08c.06-.06.11-.13.14-.22.04-.1.05-.18.05-.27,0-.1-.03-.18-.07-.24-.05-.06-.12-.08-.22-.08-.05,0-.1,0-.15.01-.05,0-.1.02-.15.04l-.13-.1.23-1.07h.82s.06,0,.08,0c.02,0,.03-.02.04-.03.01-.01.03-.04.05-.07h.16l-.14.51h-.85l-.12.57c.11-.04.23-.05.37-.05.11,0,.2.02.28.06.08.04.14.09.19.17.04.07.06.16.06.26,0,.06,0,.12-.01.17-.01.07-.04.14-.06.2-.03.07-.07.13-.12.18-.05.05-.11.09-.17.13-.07.04-.15.07-.24.09-.09.02-.18.03-.28.03-.11,0-.22-.01-.33-.04-.11-.02-.21-.05-.29-.09ZM165.26,39.87c.09-.11.18-.2.26-.25.09-.05.19-.08.3-.08s.19.03.25.09c.06.06.09.14.09.25,0,.07-.01.15-.03.25l-.13.59s-.02.08-.02.11,0,.05,0,.07c0,.05.01.08.04.1.03.02.06.03.12.04l-.02.1h-.64l.21-.95s.02-.09.03-.12c0-.03,0-.06.01-.08,0-.02,0-.04,0-.06,0-.05,0-.08-.03-.11-.02-.02-.05-.04-.09-.04-.03,0-.07.01-.11.04-.04.03-.09.07-.13.12-.05.06-.09.11-.11.17-.03.06-.05.14-.07.22l-.17.81h-.45l.22-.99s.02-.08.02-.1c0-.03,0-.05,0-.07,0-.02,0-.03,0-.05,0-.06,0-.09-.03-.12-.02-.02-.05-.04-.09-.04-.05,0-.11.03-.18.1s-.12.13-.16.2c-.04.06-.07.15-.09.26l-.17.81h-.45l.25-1.12s0-.06.02-.11c0-.05.01-.09.01-.12,0-.04-.01-.07-.04-.09-.03-.02-.06-.03-.11-.03l.02-.1.43-.02h.17l-.09.34h.02c.07-.08.14-.16.2-.21.06-.05.12-.09.18-.11.06-.02.13-.03.2-.03.11,0,.19.03.25.09.06.06.09.14.1.24ZM166.56,41.27s-.05.06-.06.1c0,.03-.02.06-.02.1,0,.07.03.12.07.16.05.04.12.06.22.06.07,0,.14-.01.19-.04.06-.02.11-.06.16-.12.05-.06.1-.14.14-.25.04-.11.08-.26.12-.44h-.02c-.07.07-.13.14-.19.19-.06.05-.12.08-.18.11-.06.02-.13.03-.2.03-.07,0-.13-.02-.19-.05-.06-.04-.1-.09-.13-.17-.03-.08-.05-.17-.05-.29,0-.15.02-.29.06-.43.04-.14.1-.26.18-.36s.17-.18.28-.24c.11-.06.24-.08.39-.08.07,0,.14,0,.2.02.06.02.12.05.19.09l.14-.11.18.03-.13.62c-.02.1-.04.2-.06.29l-.1.49c-.03.13-.05.24-.08.32-.03.07-.05.14-.08.19-.03.05-.06.09-.1.13-.04.04-.07.07-.11.1-.04.03-.09.05-.14.07-.06.02-.12.04-.2.05-.08.01-.17.02-.26.02-.15,0-.27-.01-.37-.04-.1-.03-.18-.06-.22-.12-.05-.05-.07-.12-.07-.2,0-.06.03-.13.07-.18.04-.06.11-.11.2-.17l.16.14ZM167.51,40.15c.02-.08.02-.16.02-.23s-.01-.13-.04-.16c-.03-.04-.07-.05-.13-.05-.09,0-.18.05-.25.14-.07.1-.13.23-.18.4-.05.17-.07.32-.07.45,0,.08,0,.14.03.17.02.04.06.06.11.06.04,0,.09-.02.13-.04.04-.03.09-.07.14-.14.05-.06.09-.13.13-.22.04-.08.06-.19.09-.32v-.06ZM169.9,40.36l-.13.62h-.33l.13-.62h-.56l.07-.31h.55l.13-.62h.33l-.13.62h.56l-.07.31h-.55Z"/>
      <path class="cls-3" d="M32.73,44.8c-.05.25-.15.44-.28.56-.13.12-.3.18-.52.18-.06,0-.11,0-.17-.03l.04-.18s.08.02.11.02c.06,0,.11-.02.15-.05.04-.03.07-.08.1-.14.03-.06.05-.17.08-.3l.36-1.67c.01-.06.02-.12.02-.18,0-.05-.01-.08-.03-.1-.02-.02-.05-.03-.1-.04l.02-.11h.78l-.02.11s-.08.03-.1.05c-.02.02-.04.05-.06.09-.02.04-.03.1-.05.18l-.35,1.6ZM34.58,44.61c-.1.12-.22.21-.34.27-.12.06-.25.09-.39.09-.12,0-.23-.02-.31-.06-.09-.05-.15-.11-.19-.19-.04-.08-.06-.18-.06-.3,0-.06,0-.12.02-.21.02-.11.05-.22.09-.31.05-.11.12-.21.2-.29.08-.08.18-.14.29-.18.11-.05.23-.06.36-.06.16,0,.27.03.36.08.08.06.12.15.12.27,0,.08-.02.15-.05.21-.03.06-.08.12-.16.17-.07.05-.18.09-.31.12-.14.03-.3.05-.49.06-.01.06-.02.13-.02.19,0,.04,0,.08,0,.11,0,.03.02.06.04.09.02.03.04.05.08.06.03.02.07.02.12.02.09,0,.18-.02.25-.06.07-.04.16-.1.26-.2l.13.13ZM33.76,44.08c.19,0,.33-.04.44-.11s.15-.17.15-.3c0-.05-.01-.09-.04-.12-.02-.03-.06-.04-.1-.04-.1,0-.18.05-.26.14-.08.1-.14.24-.19.42ZM36.17,44.61c-.1.12-.22.21-.34.27-.12.06-.25.09-.39.09-.12,0-.23-.02-.31-.06-.09-.05-.15-.11-.19-.19-.04-.08-.06-.18-.06-.3,0-.06,0-.12.02-.21.02-.11.05-.22.09-.31.05-.11.12-.21.2-.29.08-.08.18-.14.29-.18.11-.05.23-.06.36-.06.16,0,.27.03.36.08.08.06.12.15.12.27,0,.08-.02.15-.05.21-.03.06-.08.12-.16.17-.07.05-.18.09-.31.12-.14.03-.3.05-.49.06-.01.06-.02.13-.02.19,0,.04,0,.08,0,.11,0,.03.02.06.04.09.02.03.04.05.08.06.03.02.07.02.12.02.09,0,.18-.02.25-.06.07-.04.16-.1.26-.2l.13.13ZM35.35,44.08c.19,0,.33-.04.44-.11s.15-.17.15-.3c0-.05-.01-.09-.04-.12-.02-.03-.06-.04-.1-.04-.1,0-.18.05-.26.14-.08.1-.14.24-.19.42ZM37.82,43.8h-.28c0-.07,0-.12-.02-.15-.02-.03-.04-.04-.08-.04-.02,0-.03,0-.05,0-.02,0-.04.02-.06.04-.02.02-.05.05-.08.08s-.06.08-.08.11c-.02.04-.04.07-.05.12-.01.04-.03.09-.04.15l-.17.81h-.45l.25-1.12c.02-.1.03-.18.03-.23,0-.04-.01-.07-.04-.09-.03-.02-.06-.03-.11-.03l.02-.1.43-.02h.18l-.12.37h.02c.09-.12.18-.21.27-.28.1-.06.2-.1.31-.1.07,0,.14,0,.22.03l-.09.42Z"/>
      <path class="cls-3" d="M39.19,43.46l.14-.11.18.03-.24,1.1c-.01.06-.02.1-.03.13,0,.04,0,.06,0,.09,0,.05,0,.08.03.1.03.02.06.04.12.04l-.02.1h-.6l.08-.32h-.02c-.07.09-.14.16-.2.21-.06.05-.12.08-.18.11-.06.02-.13.03-.2.03s-.14-.02-.19-.05-.1-.09-.13-.17c-.03-.08-.05-.17-.05-.29,0-.11.01-.22.04-.34.03-.11.06-.22.11-.31.05-.1.11-.18.19-.25.08-.07.16-.12.26-.16.1-.04.2-.06.31-.06.16,0,.29.04.4.11ZM38.95,43.95s.01-.07.02-.11c0-.04,0-.08,0-.12,0-.07-.01-.12-.04-.16-.03-.04-.07-.05-.13-.05-.1,0-.18.05-.25.15-.08.1-.14.23-.18.4-.04.17-.07.31-.07.45,0,.08,0,.14.03.17.02.04.06.06.11.06.07,0,.14-.04.21-.1.07-.07.13-.15.17-.24.04-.09.08-.22.12-.38v-.06ZM41.42,44.45c-.02.09-.03.16-.03.19s.01.07.04.09c.02.02.06.04.11.05.05,0,.13.01.23.01l-.03.15h-1.28l.03-.15c.11,0,.19,0,.24-.02.05,0,.09-.03.11-.05.03-.02.05-.05.06-.08.02-.04.04-.09.05-.18l.22-1.03c.01-.05.02-.09.02-.13,0-.03,0-.05-.02-.06-.01-.01-.03-.02-.05-.02s-.04,0-.07,0c-.03,0-.05.02-.09.04s-.11.06-.21.12l-.08-.16.9-.47h.21c-.03.11-.06.25-.1.42l-.27,1.27ZM43.51,43.85c.08.04.15.1.19.16.04.07.06.15.06.24,0,.14-.04.27-.11.38-.07.11-.17.19-.3.25-.13.06-.28.09-.45.09-.14,0-.26-.02-.37-.06-.1-.04-.18-.1-.24-.18-.06-.07-.08-.17-.08-.28,0-.15.04-.28.11-.38.08-.11.19-.19.35-.27v-.02c-.07-.06-.12-.12-.16-.18-.04-.07-.05-.15-.05-.23,0-.13.04-.25.11-.34.07-.09.17-.17.29-.21.12-.05.26-.07.42-.07s.28.02.38.06c.1.04.17.1.22.17.04.07.07.15.07.24,0,.14-.04.26-.11.36-.07.1-.18.18-.34.26v.02ZM42.66,44.52c0,.09.02.16.06.2.04.04.1.06.19.06.05,0,.09,0,.13-.02.04-.01.07-.04.11-.07.03-.03.06-.07.09-.13s.05-.11.06-.18c.02-.07.03-.14.03-.22,0-.09-.02-.15-.06-.2-.04-.05-.1-.07-.18-.07-.08,0-.16.03-.22.09-.06.06-.11.14-.15.24-.04.1-.05.2-.05.29ZM42.9,43.46c0,.05,0,.1.02.14.01.04.04.07.07.09.03.03.08.04.14.04.08,0,.15-.02.2-.07.06-.05.11-.11.14-.19.04-.08.05-.18.05-.28,0-.09-.02-.16-.06-.2-.04-.04-.1-.06-.17-.06s-.13.02-.19.05c-.05.03-.09.08-.12.13-.03.06-.05.12-.07.18-.01.06-.02.12-.02.17ZM44.44,44.46l-.11.48h-.4l.11-.48h.4ZM46.57,42.88l-1.24,2.06h-.33l.02-.11,1.07-1.61v-.02s-.62,0-.62,0c-.06,0-.1,0-.13.02-.03,0-.06.03-.08.06-.02.03-.05.08-.08.16h-.19l.16-.66h1.43l-.02.11ZM46.59,44.84l.08-.39h.25c0,.11.03.19.08.25.05.06.12.08.21.08s.17-.03.23-.08c.06-.06.11-.13.14-.22.04-.1.05-.18.05-.27,0-.1-.03-.18-.07-.24-.05-.06-.12-.08-.22-.08-.05,0-.1,0-.15.01-.05,0-.1.02-.15.04l-.13-.1.23-1.07h.82s.06,0,.08,0c.02,0,.03-.02.04-.03.01-.01.03-.04.05-.07h.16l-.14.51h-.85l-.12.57c.11-.04.23-.05.37-.05.11,0,.2.02.28.06.08.04.14.09.19.17.04.07.06.16.06.26,0,.06,0,.12-.01.17-.01.07-.04.14-.06.2-.03.07-.07.13-.12.18-.05.05-.11.09-.17.13-.07.04-.15.07-.24.09-.09.02-.18.03-.28.03-.11,0-.22-.01-.33-.04-.11-.02-.21-.05-.29-.09ZM50.71,43.67c.09-.11.18-.2.26-.25.09-.05.19-.08.3-.08s.19.03.25.09c.06.06.09.14.09.25,0,.07-.01.15-.03.25l-.13.59s-.02.08-.02.11,0,.05,0,.07c0,.05.01.08.04.1.03.02.06.03.12.04l-.02.1h-.64l.21-.95s.02-.09.03-.12c0-.03,0-.06.01-.08,0-.02,0-.04,0-.06,0-.05,0-.08-.03-.11-.02-.02-.05-.04-.09-.04-.03,0-.07.01-.11.04-.04.03-.09.07-.13.12-.05.06-.09.11-.11.17-.03.06-.05.14-.07.22l-.17.81h-.45l.22-.99s.02-.08.02-.1c0-.03,0-.05,0-.07,0-.02,0-.03,0-.05,0-.06,0-.09-.03-.12-.02-.02-.05-.04-.09-.04-.05,0-.11.03-.18.1-.07.06-.12.13-.16.2-.04.06-.07.15-.09.26l-.17.81h-.45l.25-1.12s0-.06.02-.11c0-.05.01-.09.01-.12,0-.04-.01-.07-.04-.09-.03-.02-.06-.03-.11-.03l.02-.1.43-.02h.17l-.09.34h.02c.07-.08.14-.16.2-.21.06-.05.12-.09.18-.11.06-.02.13-.03.2-.03.11,0,.19.03.25.09.06.06.09.14.1.24ZM52.01,45.07s-.05.06-.06.1c0,.03-.02.06-.02.1,0,.07.03.12.07.16.05.04.12.06.22.06.07,0,.14-.01.19-.04.06-.02.11-.06.16-.12.05-.06.1-.14.14-.25.04-.11.08-.26.12-.44h-.02c-.07.07-.13.14-.19.19-.06.05-.12.08-.18.11-.06.02-.13.03-.2.03-.07,0-.13-.02-.19-.05-.06-.04-.1-.09-.13-.17-.03-.08-.05-.17-.05-.29,0-.15.02-.29.06-.43.04-.14.1-.26.18-.36s.17-.18.28-.24c.11-.06.24-.08.39-.08.07,0,.14,0,.2.02.06.02.12.05.19.09l.14-.11.18.03-.13.62c-.02.1-.04.2-.06.29l-.1.49c-.03.13-.05.24-.08.32-.03.07-.05.14-.08.19-.03.05-.06.09-.1.13-.04.04-.07.07-.11.1-.04.03-.09.05-.14.07-.06.02-.12.04-.2.05-.08.01-.17.02-.26.02-.15,0-.27-.01-.37-.04-.1-.03-.18-.06-.22-.12-.05-.05-.07-.12-.07-.2,0-.06.03-.13.07-.18.04-.06.11-.11.2-.17l.16.14ZM52.96,43.95c.02-.08.02-.16.02-.23s-.01-.13-.04-.16c-.03-.04-.07-.05-.13-.05-.09,0-.18.05-.25.14-.07.1-.13.23-.18.4-.05.17-.07.32-.07.45,0,.08,0,.14.03.17.02.04.06.06.11.06.04,0,.09-.02.13-.04.04-.03.09-.07.14-.14.05-.06.09-.13.13-.22.04-.08.06-.19.09-.32v-.06ZM55.35,44.17l-.13.62h-.33l.13-.62h-.56l.07-.31h.55l.13-.62h.33l-.13.62h.56l-.07.31h-.55ZM58.72,42.78c.11,0,.19,0,.25,0,.08,0,.15.03.21.05.06.03.12.06.16.1.04.04.08.09.1.15.02.06.03.12.03.2,0,.12-.02.22-.06.32-.04.09-.11.17-.18.24-.08.07-.18.12-.3.15-.12.04-.26.05-.41.05h-.04c-.06,0-.12,0-.16,0l-.11.48s-.01.06-.02.09c0,.03,0,.06,0,.1,0,.05.01.08.04.1.03.02.06.03.11.04l-.02.1h-.8l.02-.1s.08-.03.1-.05c.03-.02.04-.06.06-.09.02-.04.04-.1.05-.18l.28-1.31c.01-.06.02-.12.02-.18,0-.05,0-.08-.03-.1-.02-.02-.05-.03-.1-.04l.02-.11h.78ZM58.44,43.86c.1,0,.19,0,.26-.04.07-.02.12-.06.17-.11.04-.05.08-.11.1-.19.02-.07.04-.15.04-.24,0-.11-.03-.19-.07-.24-.05-.05-.13-.08-.23-.08-.06,0-.11,0-.15,0l-.19.89h.08ZM60.04,44.52c-.01.05-.02.09-.02.12,0,.02,0,.05,0,.06,0,.05,0,.08.04.1.02.02.06.04.12.04l-.02.1h-.65l.24-1.11c.01-.06.02-.11.03-.15,0-.03,0-.06,0-.09,0-.04,0-.07-.03-.09-.02-.02-.06-.03-.12-.04l.03-.1.46-.02h.18l-.25,1.17ZM60.4,42.74l-.08.39h-.4l.09-.39h.4ZM60.71,43.84c.02-.12.04-.19.04-.24,0-.04,0-.07-.03-.09-.02-.02-.06-.03-.12-.03l.02-.1.42-.02h.17l-.09.34h.02c.07-.09.13-.16.19-.21.06-.05.12-.09.18-.11.06-.02.13-.03.2-.03s.14.02.19.05c.06.04.1.09.13.17.04.07.05.17.05.29s-.01.22-.04.34c-.03.11-.06.22-.11.31-.05.1-.11.18-.19.25-.08.07-.16.12-.26.16-.1.04-.2.06-.32.06-.09,0-.18-.02-.27-.05l-.07.33s0,.03,0,.05c0,.01,0,.03,0,.04v.04s0,.08.04.1c.02.02.06.03.12.04l-.02.1h-.65l.39-1.78ZM61.02,44.35c-.02.08-.03.16-.03.23s.01.13.04.17c.03.04.07.05.13.05.04,0,.07,0,.11-.02.03-.01.06-.03.1-.06s.06-.07.1-.13c.04-.07.08-.15.11-.24.03-.09.05-.18.07-.28.02-.1.03-.19.03-.27s-.01-.14-.04-.17c-.02-.04-.05-.06-.1-.06-.07,0-.14.03-.21.1-.07.07-.13.15-.17.24-.04.09-.08.22-.12.38v.06ZM62.53,43.84c.02-.12.04-.19.04-.24,0-.04,0-.07-.03-.09-.02-.02-.06-.03-.12-.03l.02-.1.42-.02h.17l-.09.34h.02c.07-.09.13-.16.19-.21.06-.05.12-.09.18-.11.06-.02.13-.03.2-.03s.14.02.19.05c.06.04.1.09.13.17.04.07.05.17.05.29s-.01.22-.04.34c-.03.11-.06.22-.11.31-.05.1-.11.18-.19.25-.08.07-.16.12-.26.16-.1.04-.2.06-.32.06-.09,0-.18-.02-.27-.05l-.07.33s0,.03,0,.05c0,.01,0,.03,0,.04v.04s0,.08.04.1c.02.02.06.03.12.04l-.02.1h-.65l.39-1.78ZM62.84,44.35c-.02.08-.03.16-.03.23s.01.13.04.17c.03.04.07.05.13.05.04,0,.07,0,.11-.02.03-.01.06-.03.1-.06s.06-.07.1-.13c.04-.07.08-.15.11-.24.03-.09.05-.18.07-.28.02-.1.03-.19.03-.27s-.01-.14-.04-.17c-.02-.04-.05-.06-.1-.06-.07,0-.14.03-.21.1-.07.07-.13.15-.17.24-.04.09-.08.22-.12.38v.06ZM65.43,43.46l.14-.11.18.03-.24,1.1c-.01.06-.02.1-.03.13,0,.04,0,.06,0,.09,0,.05,0,.08.03.1.03.02.06.04.12.04l-.02.1h-.6l.08-.32h-.02c-.07.09-.14.16-.2.21-.06.05-.12.08-.18.11-.06.02-.13.03-.2.03s-.14-.02-.19-.05-.1-.09-.13-.17c-.03-.08-.05-.17-.05-.29,0-.11.01-.22.04-.34.03-.11.06-.22.11-.31.05-.1.11-.18.19-.25.08-.07.16-.12.26-.16.1-.04.2-.06.31-.06.16,0,.29.04.4.11ZM65.2,43.95s.01-.07.02-.11c0-.04,0-.08,0-.12,0-.07-.01-.12-.04-.16-.03-.04-.07-.05-.13-.05-.1,0-.18.05-.25.15-.08.1-.14.23-.18.4-.04.17-.07.31-.07.45,0,.08,0,.14.03.17.02.04.06.06.11.06.07,0,.14-.04.21-.1.07-.07.13-.15.17-.24.04-.09.08-.22.12-.38v-.06ZM66.67,42.67h.18l-.4,1.84s-.02.08-.02.11c0,.03,0,.05,0,.07,0,.05,0,.08.04.1.02.02.06.04.12.04l-.02.1h-.65l.4-1.79c.02-.1.03-.18.03-.23,0-.02,0-.04,0-.06,0-.01-.01-.02-.02-.03,0,0-.02-.01-.04-.02-.02,0-.05,0-.09-.02l.03-.1.47-.03ZM67.41,44.52c-.01.05-.02.09-.02.12,0,.02,0,.05,0,.06,0,.05,0,.08.04.1.02.02.06.04.12.04l-.02.1h-.65l.24-1.11c.01-.06.02-.11.03-.15,0-.03,0-.06,0-.09,0-.04,0-.07-.03-.09-.02-.02-.06-.03-.12-.04l.03-.1.46-.02h.18l-.25,1.17ZM67.77,42.74l-.08.39h-.4l.09-.39h.4ZM69.57,44.45c-.02.09-.03.16-.03.19s.01.07.04.09c.02.02.06.04.11.05.05,0,.13.01.23.01l-.03.15h-1.28l.03-.15c.11,0,.19,0,.24-.02.05,0,.09-.03.11-.05.03-.02.05-.05.06-.08.02-.04.04-.09.05-.18l.22-1.03c.01-.05.02-.09.02-.13,0-.03,0-.05-.02-.06-.01-.01-.03-.02-.05-.02s-.04,0-.07,0c-.03,0-.05.02-.09.04s-.11.06-.21.12l-.08-.16.9-.47h.21c-.03.11-.06.25-.1.42l-.27,1.27ZM71.66,43.85c.08.04.15.1.19.16.04.07.06.15.06.24,0,.14-.04.27-.11.38-.07.11-.17.19-.3.25-.13.06-.28.09-.45.09-.14,0-.26-.02-.37-.06-.1-.04-.18-.1-.24-.18-.06-.07-.08-.17-.08-.28,0-.15.04-.28.11-.38.08-.11.19-.19.35-.27v-.02c-.07-.06-.12-.12-.16-.18-.04-.07-.05-.15-.05-.23,0-.13.04-.25.11-.34.07-.09.17-.17.29-.21.12-.05.26-.07.42-.07s.28.02.38.06c.1.04.17.1.22.17.04.07.07.15.07.24,0,.14-.04.26-.11.36-.07.1-.18.18-.34.26v.02ZM70.81,44.52c0,.09.02.16.06.2.04.04.1.06.19.06.05,0,.09,0,.13-.02.04-.01.07-.04.11-.07.03-.03.06-.07.09-.13s.05-.11.06-.18c.02-.07.03-.14.03-.22,0-.09-.02-.15-.06-.2-.04-.05-.1-.07-.18-.07-.08,0-.16.03-.22.09-.06.06-.11.14-.15.24-.04.1-.05.2-.05.29ZM71.06,43.46c0,.05,0,.1.02.14.01.04.04.07.07.09.03.03.08.04.14.04.08,0,.15-.02.2-.07.06-.05.11-.11.14-.19.04-.08.05-.18.05-.28,0-.09-.02-.16-.06-.2-.04-.04-.1-.06-.17-.06s-.13.02-.19.05c-.05.03-.09.08-.12.13-.03.06-.05.12-.07.18-.01.06-.02.12-.02.17ZM72.59,44.46l-.11.48h-.4l.11-.48h.4ZM74.72,42.88l-1.24,2.06h-.33l.02-.11,1.07-1.61v-.02s-.62,0-.62,0c-.06,0-.1,0-.13.02-.03,0-.06.03-.08.06-.02.03-.05.08-.08.16h-.19l.16-.66h1.43l-.02.11ZM74.74,44.84l.08-.39h.25c0,.11.03.19.08.25.05.06.12.08.21.08s.17-.03.23-.08c.06-.06.11-.13.14-.22.04-.1.05-.18.05-.27,0-.1-.03-.18-.07-.24-.05-.06-.12-.08-.22-.08-.05,0-.1,0-.15.01-.05,0-.1.02-.15.04l-.13-.1.23-1.07h.82s.06,0,.08,0c.02,0,.03-.02.04-.03.01-.01.03-.04.05-.07h.16l-.14.51h-.85l-.12.57c.11-.04.23-.05.37-.05.11,0,.2.02.28.06.08.04.14.09.19.17.04.07.06.16.06.26,0,.06,0,.12-.01.17-.01.07-.04.14-.06.2-.03.07-.07.13-.12.18-.05.05-.11.09-.17.13-.07.04-.15.07-.24.09-.09.02-.18.03-.28.03-.11,0-.22-.01-.33-.04-.11-.02-.21-.05-.29-.09ZM78.86,43.67c.09-.11.18-.2.26-.25.09-.05.19-.08.3-.08s.19.03.25.09c.06.06.09.14.09.25,0,.07-.01.15-.03.25l-.13.59s-.02.08-.02.11c0,.03,0,.05,0,.07,0,.05.01.08.04.1.03.02.06.03.12.04l-.02.1h-.64l.21-.95s.02-.09.03-.12c0-.03,0-.06.01-.08,0-.02,0-.04,0-.06,0-.05,0-.08-.03-.11-.02-.02-.05-.04-.09-.04-.03,0-.07.01-.11.04-.04.03-.09.07-.13.12-.05.06-.09.11-.11.17-.03.06-.05.14-.07.22l-.17.81h-.45l.22-.99s.02-.08.02-.1c0-.03,0-.05,0-.07,0-.02,0-.03,0-.05,0-.06,0-.09-.03-.12-.02-.02-.05-.04-.09-.04-.05,0-.11.03-.18.1-.07.06-.12.13-.16.2-.04.06-.07.15-.09.26l-.17.81h-.45l.25-1.12s0-.06.02-.11c0-.05.01-.09.01-.12,0-.04-.01-.07-.04-.09-.03-.02-.06-.03-.11-.03l.02-.1.43-.02h.17l-.09.34h.02c.07-.08.14-.16.2-.21.06-.05.12-.09.18-.11.06-.02.13-.03.2-.03.11,0,.19.03.25.09.06.06.09.14.1.24ZM80.16,45.07s-.05.06-.06.1c0,.03-.02.06-.02.1,0,.07.03.12.07.16.05.04.12.06.22.06.07,0,.14-.01.19-.04.06-.02.11-.06.16-.12.05-.06.1-.14.14-.25.04-.11.08-.26.12-.44h-.02c-.07.07-.13.14-.19.19-.06.05-.12.08-.18.11-.06.02-.13.03-.2.03-.07,0-.13-.02-.19-.05-.06-.04-.1-.09-.13-.17-.03-.08-.05-.17-.05-.29,0-.15.02-.29.06-.43.04-.14.1-.26.18-.36s.17-.18.28-.24c.11-.06.24-.08.39-.08.07,0,.14,0,.2.02.06.02.12.05.19.09l.14-.11.18.03-.13.62c-.02.1-.04.2-.06.29l-.1.49c-.03.13-.05.24-.08.32-.03.07-.05.14-.08.19-.03.05-.06.09-.1.13-.04.04-.07.07-.11.1-.04.03-.09.05-.14.07-.06.02-.12.04-.2.05-.08.01-.17.02-.26.02-.15,0-.27-.01-.37-.04-.1-.03-.18-.06-.22-.12-.05-.05-.07-.12-.07-.2,0-.06.03-.13.07-.18.04-.06.11-.11.2-.17l.16.14ZM81.11,43.95c.02-.08.02-.16.02-.23s-.01-.13-.04-.16c-.03-.04-.07-.05-.13-.05-.09,0-.18.05-.25.14-.07.1-.13.23-.18.4-.05.17-.07.32-.07.45,0,.08,0,.14.03.17.02.04.06.06.11.06.04,0,.09-.02.13-.04.04-.03.09-.07.14-.14.05-.06.09-.13.13-.22.04-.08.06-.19.09-.32v-.06ZM83.5,44.17l-.13.62h-.33l.13-.62h-.56l.07-.31h.55l.13-.62h.33l-.13.62h.56l-.07.31h-.55ZM86.12,44.27h-.61l-.02.04s-.04.08-.06.11c-.02.04-.03.07-.04.1-.01.04-.02.07-.03.1,0,.03,0,.05,0,.08,0,.08.04.12.13.13l-.03.1h-.66l.02-.1s.07-.02.1-.04c.03-.02.05-.05.08-.08.03-.03.06-.09.11-.18l.97-1.77h.45l.07,1.69c0,.06,0,.12.01.15,0,.04,0,.07.02.1,0,.03.02.05.03.06,0,.02.03.03.04.04.02,0,.04.02.06.02l-.03.1h-.8l.02-.1s.08-.02.11-.04c.03-.02.04-.05.05-.08.01-.04.02-.08.02-.15,0-.05,0-.09,0-.14v-.16ZM85.61,44.08h.51v-.38c0-.14,0-.25,0-.33v-.21h-.02l-.48.92Z"/>
      <path class="cls-3" d="M88.58,43.67c.09-.11.18-.2.26-.25.09-.05.19-.08.3-.08s.19.03.25.09c.06.06.09.14.09.25,0,.07-.01.15-.03.25l-.13.59s-.02.08-.02.11,0,.05,0,.07c0,.05.01.08.04.1.03.02.06.03.12.04l-.02.1h-.64l.21-.95s.02-.09.03-.12c0-.03,0-.06.01-.08,0-.02,0-.04,0-.06,0-.05,0-.08-.03-.11-.02-.02-.05-.04-.09-.04-.03,0-.07.01-.11.04-.04.03-.09.07-.13.12-.05.06-.09.11-.11.17-.03.06-.05.14-.07.22l-.17.81h-.45l.22-.99s.02-.08.02-.1c0-.03,0-.05,0-.07,0-.02,0-.03,0-.05,0-.06,0-.09-.03-.12-.02-.02-.05-.04-.09-.04-.05,0-.11.03-.18.1-.07.06-.12.13-.16.2-.04.06-.07.15-.09.26l-.17.81h-.45l.25-1.12s0-.06.02-.11c0-.05.01-.09.01-.12,0-.04-.01-.07-.04-.09-.03-.02-.06-.03-.11-.03l.02-.1.43-.02h.17l-.09.34h.02c.07-.08.14-.16.2-.21.06-.05.12-.09.18-.11.06-.02.13-.03.2-.03.11,0,.19.03.25.09.06.06.09.14.1.24ZM90.49,42.67h.18l-.4,1.84s-.02.08-.02.11c0,.03,0,.05,0,.07,0,.05,0,.08.04.1.02.02.06.04.12.04l-.02.1h-.65l.4-1.79c.02-.1.03-.18.03-.23,0-.02,0-.04,0-.06,0-.01-.01-.02-.02-.03,0,0-.02-.01-.04-.02-.02,0-.05,0-.09-.02l.03-.1.47-.03ZM92.01,43.46l.14-.11.18.03-.24,1.1c-.01.06-.02.1-.03.13,0,.04,0,.06,0,.09,0,.05,0,.08.03.1.03.02.06.04.12.04l-.02.1h-.6l.08-.32h-.02c-.07.09-.14.16-.2.21-.06.05-.12.08-.18.11-.06.02-.13.03-.2.03s-.14-.02-.19-.05-.1-.09-.13-.17c-.03-.08-.05-.17-.05-.29,0-.11.01-.22.04-.34.03-.11.06-.22.11-.31.05-.1.11-.18.19-.25.08-.07.16-.12.26-.16.1-.04.2-.06.31-.06.16,0,.29.04.4.11ZM91.78,43.95s.01-.07.02-.11c0-.04,0-.08,0-.12,0-.07-.01-.12-.04-.16-.03-.04-.07-.05-.13-.05-.1,0-.18.05-.25.15-.08.1-.14.23-.18.4-.04.17-.07.31-.07.45,0,.08,0,.14.03.17.02.04.06.06.11.06.07,0,.14-.04.21-.1.07-.07.13-.15.17-.24.04-.09.08-.22.12-.38v-.06ZM93.14,44h.03s.06,0,.09-.02c.03,0,.06-.03.11-.06s.1-.07.16-.12c.04-.03.07-.06.1-.09.02-.03.04-.05.04-.07,0-.03.01-.05.01-.08,0-.02,0-.05-.02-.06-.01-.02-.04-.03-.07-.03l.03-.1h.55l.04.1c-.06.07-.15.15-.26.24l-.35.27.2.58c.03.07.04.12.06.16.02.03.04.06.06.08.03.02.06.03.11.04l-.03.1h-.55l-.21-.68s-.02-.06-.03-.07-.02-.02-.03-.03c-.01,0-.03,0-.05,0h-.04l-.17.78h-.45l.4-1.79c.02-.1.03-.18.03-.23,0-.02,0-.04,0-.06,0-.01-.01-.02-.02-.03,0,0-.02-.01-.04-.02-.02,0-.05,0-.09-.02l.03-.1.47-.03h.18l-.29,1.33ZM94.76,44.52c-.01.05-.02.09-.02.12,0,.02,0,.05,0,.06,0,.05,0,.08.04.1.02.02.06.04.12.04l-.02.1h-.65l.24-1.11c.01-.06.02-.11.03-.15,0-.03,0-.06,0-.09,0-.04,0-.07-.03-.09-.02-.02-.06-.03-.12-.04l.03-.1.46-.02h.18l-.25,1.17ZM95.12,42.74l-.08.39h-.4l.09-.39h.4ZM96.93,44.45c-.02.09-.03.16-.03.19s.01.07.04.09c.02.02.06.04.11.05.05,0,.13.01.23.01l-.03.15h-1.28l.03-.15c.11,0,.19,0,.24-.02.05,0,.09-.03.11-.05.03-.02.05-.05.06-.08.02-.04.04-.09.05-.18l.22-1.03c.01-.05.02-.09.02-.13,0-.03,0-.05-.02-.06-.01-.01-.03-.02-.05-.02s-.04,0-.07,0c-.03,0-.05.02-.09.04s-.11.06-.21.12l-.08-.16.9-.47h.21c-.03.11-.06.25-.1.42l-.27,1.27ZM99.02,43.85c.08.04.15.1.19.16.04.07.06.15.06.24,0,.14-.04.27-.11.38-.07.11-.17.19-.3.25-.13.06-.28.09-.45.09-.14,0-.26-.02-.37-.06-.1-.04-.18-.1-.24-.18-.06-.07-.08-.17-.08-.28,0-.15.04-.28.11-.38.08-.11.19-.19.35-.27v-.02c-.07-.06-.12-.12-.16-.18-.04-.07-.05-.15-.05-.23,0-.13.04-.25.11-.34.07-.09.17-.17.29-.21.12-.05.26-.07.42-.07s.28.02.38.06c.1.04.17.1.22.17.04.07.07.15.07.24,0,.14-.04.26-.11.36-.07.1-.18.18-.34.26v.02ZM98.16,44.52c0,.09.02.16.06.2.04.04.1.06.19.06.05,0,.09,0,.13-.02.04-.01.07-.04.11-.07.03-.03.06-.07.09-.13s.05-.11.06-.18c.02-.07.03-.14.03-.22,0-.09-.02-.15-.06-.2-.04-.05-.1-.07-.18-.07-.08,0-.16.03-.22.09-.06.06-.11.14-.15.24-.04.1-.05.2-.05.29ZM98.41,43.46c0,.05,0,.1.02.14.01.04.04.07.07.09.03.03.08.04.14.04.08,0,.15-.02.2-.07.06-.05.11-.11.14-.19.04-.08.05-.18.05-.28,0-.09-.02-.16-.06-.2-.04-.04-.1-.06-.17-.06s-.13.02-.19.05c-.05.03-.09.08-.12.13-.03.06-.05.12-.07.18-.01.06-.02.12-.02.17ZM99.94,44.46l-.11.48h-.4l.11-.48h.4ZM102.08,42.88l-1.24,2.06h-.33l.02-.11,1.07-1.61v-.02s-.62,0-.62,0c-.06,0-.1,0-.13.02-.03,0-.06.03-.08.06-.02.03-.05.08-.08.16h-.19l.16-.66h1.43l-.02.11ZM102.09,44.84l.08-.39h.25c0,.11.03.19.08.25.05.06.12.08.21.08s.17-.03.23-.08c.06-.06.11-.13.14-.22.04-.1.05-.18.05-.27,0-.1-.03-.18-.07-.24s-.12-.08-.22-.08c-.05,0-.1,0-.15.01-.05,0-.1.02-.15.04l-.13-.1.23-1.07h.82s.06,0,.08,0c.02,0,.03-.02.04-.03.01-.01.03-.04.05-.07h.16l-.14.51h-.85l-.12.57c.11-.04.23-.05.37-.05.11,0,.2.02.28.06.08.04.14.09.19.17.04.07.06.16.06.26,0,.06,0,.12-.01.17-.01.07-.04.14-.06.2-.03.07-.07.13-.12.18-.05.05-.11.09-.17.13-.07.04-.15.07-.24.09-.09.02-.18.03-.28.03-.11,0-.22-.01-.33-.04-.11-.02-.21-.05-.29-.09ZM106.21,43.67c.09-.11.18-.2.26-.25.09-.05.19-.08.3-.08s.19.03.25.09c.06.06.09.14.09.25,0,.07-.01.15-.03.25l-.13.59s-.02.08-.02.11c0,.03,0,.05,0,.07,0,.05.01.08.04.1.03.02.06.03.12.04l-.02.1h-.64l.21-.95s.02-.09.03-.12c0-.03,0-.06.01-.08,0-.02,0-.04,0-.06,0-.05,0-.08-.03-.11-.02-.02-.05-.04-.09-.04-.03,0-.07.01-.11.04-.04.03-.09.07-.13.12-.05.06-.09.11-.11.17-.03.06-.05.14-.07.22l-.17.81h-.45l.22-.99s.02-.08.02-.1c0-.03,0-.05,0-.07,0-.02,0-.03,0-.05,0-.06,0-.09-.03-.12-.02-.02-.05-.04-.09-.04-.05,0-.11.03-.18.1-.07.06-.12.13-.16.2-.04.06-.07.15-.09.26l-.17.81h-.45l.25-1.12s0-.06.02-.11c0-.05.01-.09.01-.12,0-.04-.01-.07-.04-.09-.03-.02-.06-.03-.11-.03l.02-.1.43-.02h.17l-.09.34h.02c.07-.08.14-.16.2-.21.06-.05.12-.09.18-.11.06-.02.13-.03.2-.03.11,0,.19.03.25.09.06.06.09.14.1.24ZM107.51,45.07s-.05.06-.06.1c0,.03-.02.06-.02.1,0,.07.03.12.07.16.05.04.12.06.22.06.07,0,.14-.01.19-.04.06-.02.11-.06.16-.12.05-.06.1-.14.14-.25.04-.11.08-.26.12-.44h-.02c-.07.07-.13.14-.19.19-.06.05-.12.08-.18.11-.06.02-.13.03-.2.03-.07,0-.13-.02-.19-.05-.06-.04-.1-.09-.13-.17-.03-.08-.05-.17-.05-.29,0-.15.02-.29.06-.43.04-.14.1-.26.18-.36s.17-.18.28-.24c.11-.06.24-.08.39-.08.07,0,.14,0,.2.02.06.02.12.05.19.09l.14-.11.18.03-.13.62c-.02.1-.04.2-.06.29l-.1.49c-.03.13-.05.24-.08.32-.03.07-.05.14-.08.19-.03.05-.06.09-.1.13-.04.04-.07.07-.11.1-.04.03-.09.05-.14.07-.06.02-.12.04-.2.05-.08.01-.17.02-.26.02-.15,0-.27-.01-.37-.04-.1-.03-.18-.06-.22-.12-.05-.05-.07-.12-.07-.2,0-.06.03-.13.07-.18.04-.06.11-.11.2-.17l.16.14ZM108.46,43.95c.02-.08.02-.16.02-.23s-.01-.13-.04-.16c-.03-.04-.07-.05-.13-.05-.09,0-.18.05-.25.14-.07.1-.13.23-.18.4-.05.17-.07.32-.07.45,0,.08,0,.14.03.17.02.04.06.06.11.06.04,0,.09-.02.13-.04.04-.03.09-.07.14-.14.05-.06.09-.13.13-.22.04-.08.06-.19.09-.32v-.06ZM110.86,44.17l-.13.62h-.33l.13-.62h-.56l.07-.31h.55l.13-.62h.33l-.13.62h.56l-.07.31h-.55ZM113.37,44.51s-.01.06-.02.08,0,.06,0,.1c0,.05.01.08.04.1.02.02.06.03.11.04l-.02.1h-.83l.02-.1s.08-.02.11-.04c.03-.02.05-.05.07-.09.02-.04.04-.1.05-.19l.09-.43-.2-.88s-.02-.07-.03-.11c0-.03-.02-.06-.04-.09-.01-.03-.03-.05-.04-.07-.02-.02-.03-.03-.04-.04s-.03,0-.06-.01l.03-.11h.76l-.03.11c-.08,0-.12.06-.12.15,0,.06,0,.13.03.22l.12.58.36-.53c.06-.08.1-.15.11-.19.02-.05.03-.09.03-.13,0-.03,0-.05-.03-.07-.02-.02-.04-.03-.09-.03l.02-.11h.64l-.02.11s-.04.01-.06.02c-.02,0-.04.03-.06.05-.02.02-.05.06-.09.11-.04.05-.09.11-.14.19l-.6.85-.09.42Z"/>
      <path class="cls-3" d="M115.3,43.46l.14-.11.18.03-.24,1.1c-.01.06-.02.1-.03.13,0,.04,0,.06,0,.09,0,.05,0,.08.03.1.03.02.06.04.12.04l-.02.1h-.6l.08-.32h-.02c-.07.09-.14.16-.2.21-.06.05-.12.08-.18.11-.06.02-.13.03-.2.03s-.14-.02-.19-.05-.1-.09-.13-.17c-.03-.08-.05-.17-.05-.29,0-.11.01-.22.04-.34.03-.11.06-.22.11-.31.05-.1.11-.18.19-.25.08-.07.16-.12.26-.16.1-.04.2-.06.31-.06.16,0,.29.04.4.11ZM115.06,43.95s.01-.07.02-.11c0-.04,0-.08,0-.12,0-.07-.01-.12-.04-.16-.03-.04-.07-.05-.13-.05-.1,0-.18.05-.25.15-.08.1-.14.23-.18.4-.04.17-.07.31-.07.45,0,.08,0,.14.03.17.02.04.06.06.11.06.07,0,.14-.04.21-.1.07-.07.13-.15.17-.24.04-.09.08-.22.12-.38v-.06Z"/>
      <path class="cls-3" d="M117.28,43.37l.05.1c-.13.35-.43.85-.91,1.49h-.3l-.15-1.21c0-.08-.02-.14-.04-.18-.01-.04-.03-.06-.05-.07-.02-.02-.05-.03-.09-.03l.02-.1h.55l.11,1.18c.16-.23.27-.42.35-.57.07-.15.11-.28.11-.38,0-.04,0-.07-.03-.09-.02-.02-.05-.03-.1-.03l.02-.1h.44Z"/>
      <path class="cls-3" d="M118.68,43.46l.14-.11.18.03-.24,1.1c-.01.06-.02.1-.03.13,0,.04,0,.06,0,.09,0,.05,0,.08.03.1.03.02.06.04.12.04l-.02.1h-.6l.08-.32h-.02c-.07.09-.14.16-.2.21-.06.05-.12.08-.18.11-.06.02-.13.03-.2.03s-.14-.02-.19-.05-.1-.09-.13-.17c-.03-.08-.05-.17-.05-.29,0-.11.01-.22.04-.34.03-.11.06-.22.11-.31.05-.1.11-.18.19-.25.08-.07.16-.12.26-.16.1-.04.2-.06.31-.06.16,0,.29.04.4.11ZM118.44,43.95s.01-.07.02-.11c0-.04,0-.08,0-.12,0-.07-.01-.12-.04-.16-.03-.04-.07-.05-.13-.05-.1,0-.18.05-.25.15-.08.1-.14.23-.18.4-.04.17-.07.31-.07.45,0,.08,0,.14.03.17.02.04.06.06.11.06.07,0,.14-.04.21-.1.07-.07.13-.15.17-.24.04-.09.08-.22.12-.38v-.06ZM120.73,44.94h-.65l.19-.86c.03-.12.04-.21.05-.25s0-.08,0-.11c0-.05,0-.08-.03-.1-.02-.02-.05-.04-.09-.04-.03,0-.07.01-.11.04-.04.03-.08.06-.13.12-.05.06-.09.11-.11.17-.03.06-.05.14-.07.22l-.17.81h-.45l.25-1.12s0-.06.02-.11c0-.05.01-.09.01-.12,0-.04-.01-.07-.04-.09-.03-.02-.06-.03-.11-.03l.02-.1.43-.02h.17l-.09.34h.02c.07-.08.14-.16.2-.21.06-.05.12-.09.18-.11.06-.02.13-.03.2-.03.11,0,.19.03.25.09s.09.14.09.25c0,.07,0,.15-.03.25l-.13.59s-.02.08-.02.11c0,.03,0,.05,0,.07,0,.05,0,.08.04.1.02.02.06.03.12.04l-.02.1ZM121.58,44.52c-.01.05-.02.09-.02.12,0,.02,0,.05,0,.06,0,.05,0,.08.04.1.02.02.06.04.12.04l-.02.1h-.65l.24-1.11c.01-.06.02-.11.03-.15,0-.03,0-.06,0-.09,0-.04,0-.07-.03-.09-.02-.02-.06-.03-.12-.04l.03-.1.46-.02h.18l-.25,1.17ZM121.94,42.74l-.08.39h-.4l.09-.39h.4ZM123.74,44.45c-.02.09-.03.16-.03.19s.01.07.04.09c.02.02.06.04.11.05.05,0,.13.01.23.01l-.03.15h-1.28l.03-.15c.11,0,.19,0,.24-.02.05,0,.09-.03.11-.05.03-.02.05-.05.06-.08.02-.04.04-.09.05-.18l.22-1.03c.01-.05.02-.09.02-.13,0-.03,0-.05-.02-.06-.01-.01-.03-.02-.05-.02s-.04,0-.07,0c-.03,0-.05.02-.09.04s-.11.06-.21.12l-.08-.16.9-.47h.21c-.03.11-.06.25-.1.42l-.27,1.27ZM125.83,43.85c.08.04.15.1.19.16.04.07.06.15.06.24,0,.14-.04.27-.11.38-.07.11-.17.19-.3.25-.13.06-.28.09-.45.09-.14,0-.26-.02-.37-.06-.1-.04-.18-.1-.24-.18-.06-.07-.08-.17-.08-.28,0-.15.04-.28.11-.38.08-.11.19-.19.35-.27v-.02c-.07-.06-.12-.12-.16-.18-.04-.07-.05-.15-.05-.23,0-.13.04-.25.11-.34.07-.09.17-.17.29-.21.12-.05.26-.07.42-.07s.28.02.38.06c.1.04.17.1.22.17.04.07.07.15.07.24,0,.14-.04.26-.11.36-.07.1-.18.18-.34.26v.02ZM124.98,44.52c0,.09.02.16.06.2.04.04.1.06.19.06.05,0,.09,0,.13-.02.04-.01.07-.04.11-.07.03-.03.06-.07.09-.13s.05-.11.06-.18c.02-.07.03-.14.03-.22,0-.09-.02-.15-.06-.2-.04-.05-.1-.07-.18-.07-.08,0-.16.03-.22.09-.06.06-.11.14-.15.24-.04.1-.05.2-.05.29ZM125.23,43.46c0,.05,0,.1.02.14.01.04.04.07.07.09.03.03.08.04.14.04.08,0,.15-.02.2-.07.06-.05.11-.11.14-.19.04-.08.05-.18.05-.28,0-.09-.02-.16-.06-.2-.04-.04-.1-.06-.17-.06s-.13.02-.19.05c-.05.03-.09.08-.12.13-.03.06-.05.12-.07.18-.01.06-.02.12-.02.17ZM126.76,44.46l-.11.48h-.4l.11-.48h.4ZM128.9,42.88l-1.24,2.06h-.33l.02-.11,1.07-1.61v-.02s-.62,0-.62,0c-.06,0-.1,0-.13.02-.03,0-.06.03-.08.06-.02.03-.05.08-.08.16h-.19l.16-.66h1.43l-.02.11ZM128.91,44.84l.08-.39h.25c0,.11.03.19.08.25.05.06.12.08.21.08s.17-.03.23-.08c.06-.06.11-.13.14-.22.04-.1.05-.18.05-.27,0-.1-.03-.18-.07-.24-.05-.06-.12-.08-.22-.08-.05,0-.1,0-.15.01-.05,0-.1.02-.15.04l-.13-.1.23-1.07h.82s.06,0,.08,0c.02,0,.03-.02.04-.03.01-.01.03-.04.05-.07h.16l-.14.51h-.85l-.12.57c.11-.04.23-.05.37-.05.11,0,.2.02.28.06.08.04.14.09.19.17.04.07.06.16.06.26,0,.06,0,.12-.01.17-.01.07-.04.14-.06.2-.03.07-.07.13-.12.18-.05.05-.11.09-.17.13-.07.04-.15.07-.24.09-.09.02-.18.03-.28.03-.11,0-.22-.01-.33-.04-.11-.02-.21-.05-.29-.09ZM133.03,43.67c.09-.11.18-.2.26-.25.09-.05.19-.08.3-.08s.19.03.25.09c.06.06.09.14.09.25,0,.07-.01.15-.03.25l-.13.59s-.02.08-.02.11,0,.05,0,.07c0,.05.01.08.04.1.03.02.06.03.12.04l-.02.1h-.64l.21-.95s.02-.09.03-.12c0-.03,0-.06.01-.08,0-.02,0-.04,0-.06,0-.05,0-.08-.03-.11-.02-.02-.05-.04-.09-.04-.03,0-.07.01-.11.04-.04.03-.09.07-.13.12-.05.06-.09.11-.11.17-.03.06-.05.14-.07.22l-.17.81h-.45l.22-.99s.02-.08.02-.1c0-.03,0-.05,0-.07,0-.02,0-.03,0-.05,0-.06,0-.09-.03-.12-.02-.02-.05-.04-.09-.04-.05,0-.11.03-.18.1s-.12.13-.16.2c-.04.06-.07.15-.09.26l-.17.81h-.45l.25-1.12s0-.06.02-.11c0-.05.01-.09.01-.12,0-.04-.01-.07-.04-.09-.03-.02-.06-.03-.11-.03l.02-.1.43-.02h.17l-.09.34h.02c.07-.08.14-.16.2-.21.06-.05.12-.09.18-.11.06-.02.13-.03.2-.03.11,0,.19.03.25.09.06.06.09.14.1.24ZM134.33,45.07s-.05.06-.06.1c0,.03-.02.06-.02.1,0,.07.03.12.07.16.05.04.12.06.22.06.07,0,.14-.01.19-.04.06-.02.11-.06.16-.12.05-.06.1-.14.14-.25.04-.11.08-.26.12-.44h-.02c-.07.07-.13.14-.19.19-.06.05-.12.08-.18.11-.06.02-.13.03-.2.03-.07,0-.13-.02-.19-.05-.06-.04-.1-.09-.13-.17-.03-.08-.05-.17-.05-.29,0-.15.02-.29.06-.43.04-.14.1-.26.18-.36s.17-.18.28-.24c.11-.06.24-.08.39-.08.07,0,.14,0,.2.02.06.02.12.05.19.09l.14-.11.18.03-.13.62c-.02.1-.04.2-.06.29l-.1.49c-.03.13-.05.24-.08.32-.03.07-.05.14-.08.19-.03.05-.06.09-.1.13-.04.04-.07.07-.11.1-.04.03-.09.05-.14.07-.06.02-.12.04-.2.05-.08.01-.17.02-.26.02-.15,0-.27-.01-.37-.04-.1-.03-.18-.06-.22-.12-.05-.05-.07-.12-.07-.2,0-.06.03-.13.07-.18.04-.06.11-.11.2-.17l.16.14ZM135.28,43.95c.02-.08.02-.16.02-.23s-.01-.13-.04-.16c-.03-.04-.07-.05-.13-.05-.09,0-.18.05-.25.14-.07.1-.13.23-.18.4-.05.17-.07.32-.07.45,0,.08,0,.14.03.17.02.04.06.06.11.06.04,0,.09-.02.13-.04.04-.03.09-.07.14-.14.05-.06.09-.13.13-.22.04-.08.06-.19.09-.32v-.06ZM137.9,44.75c-.07.04-.13.07-.17.1-.04.02-.09.04-.14.06-.05.02-.11.03-.16.04-.06,0-.13.01-.2.01-.11,0-.2-.02-.28-.06-.08-.04-.14-.09-.18-.16s-.06-.15-.06-.24c0-.14.05-.27.15-.39.1-.12.27-.23.5-.34-.03-.06-.05-.12-.07-.18-.02-.06-.03-.13-.03-.2,0-.13.03-.24.09-.33.06-.1.15-.18.26-.23.12-.06.25-.08.4-.08.06,0,.12,0,.17.02.05.01.11.03.15.06s.08.06.1.1c.03.04.04.09.04.15s0,.11-.02.16-.04.09-.07.13c-.03.04-.07.08-.12.12-.05.04-.1.07-.15.11-.05.03-.15.09-.27.16.04.08.09.17.15.28s.12.2.18.29c.08-.08.13-.15.17-.21s.05-.12.05-.18c0-.03,0-.06-.03-.07-.02-.02-.04-.03-.09-.03l.02-.1h.43l.05.09c-.09.24-.25.46-.49.66.03.06.06.1.09.13.03.03.05.05.08.06.02.01.05.02.09.02.06,0,.12-.03.19-.09l.09.15c-.1.08-.18.14-.27.18-.08.04-.17.06-.26.06s-.16-.02-.21-.05c-.05-.04-.11-.09-.16-.16ZM137.79,44.59s-.06-.09-.1-.17c-.04-.07-.09-.16-.15-.25-.05-.1-.09-.17-.11-.21-.11.07-.18.14-.24.21-.05.07-.07.15-.07.23,0,.1.03.18.08.23s.12.08.21.08c.07,0,.13,0,.19-.03.06-.02.12-.05.19-.09ZM137.75,43.58c.09-.05.17-.1.22-.14.06-.05.1-.09.13-.15.03-.06.04-.11.04-.18s-.01-.11-.04-.15c-.03-.04-.07-.05-.12-.05-.06,0-.11.02-.16.05-.04.04-.08.08-.11.14-.02.06-.04.12-.04.19,0,.09.02.18.06.28ZM140.01,42.78h.59l.3.9c.08.24.15.46.19.65h.02c.03-.18.07-.39.12-.61l.11-.51c.01-.06.02-.12.02-.18,0-.05-.01-.08-.03-.1s-.05-.03-.1-.04l.02-.11h.57l-.02.11s-.08.03-.1.05c-.02.02-.04.05-.06.09-.02.04-.03.1-.05.18l-.38,1.73h-.35l-.37-1.11c-.03-.09-.06-.17-.08-.24-.02-.08-.05-.17-.08-.29h-.02c0,.07-.03.17-.05.29-.02.12-.05.26-.08.4l-.11.52s0,.05-.01.06c0,.02,0,.03,0,.05v.07s0,.08.03.1c.02.02.05.04.1.04l-.02.1h-.57l.02-.1s.08-.03.1-.05c.02-.02.04-.06.06-.09.02-.04.03-.1.05-.18l.28-1.31c.01-.06.02-.12.02-.18,0-.05,0-.08-.03-.1-.02-.02-.05-.03-.1-.04l.02-.11ZM143.1,43.46l.14-.11.18.03-.24,1.1c-.01.06-.02.1-.03.13,0,.04,0,.06,0,.09,0,.05,0,.08.03.1.03.02.06.04.12.04l-.02.1h-.6l.08-.32h-.02c-.07.09-.14.16-.2.21-.06.05-.12.08-.18.11-.06.02-.13.03-.2.03s-.14-.02-.19-.05c-.05-.04-.1-.09-.13-.17-.03-.08-.05-.17-.05-.29,0-.11.01-.22.04-.34.03-.11.06-.22.11-.31.05-.1.11-.18.19-.25.08-.07.16-.12.26-.16.1-.04.2-.06.31-.06.16,0,.29.04.4.11ZM142.87,43.95s.01-.07.02-.11c0-.04,0-.08,0-.12,0-.07-.01-.12-.04-.16-.03-.04-.07-.05-.13-.05-.1,0-.18.05-.25.15-.08.1-.14.23-.18.4-.04.17-.07.31-.07.45,0,.08,0,.14.03.17.02.04.06.06.11.06.07,0,.14-.04.21-.1s.13-.15.17-.24c.04-.09.08-.22.12-.38v-.06ZM144.97,43.8h-.28c0-.07,0-.12-.02-.15-.02-.03-.04-.04-.08-.04-.02,0-.03,0-.05,0-.02,0-.04.02-.06.04-.02.02-.05.05-.08.08s-.06.08-.08.11c-.02.04-.04.07-.05.12-.01.04-.03.09-.04.15l-.17.81h-.45l.25-1.12c.02-.1.03-.18.03-.23,0-.04-.01-.07-.04-.09-.03-.02-.06-.03-.11-.03l.02-.1.43-.02h.18l-.12.37h.02c.09-.12.18-.21.27-.28.1-.06.2-.1.31-.1.07,0,.14,0,.22.03l-.09.42Z"/>
      <path class="cls-3" d="M146.34,43.46l.14-.11.18.03-.24,1.1c-.01.06-.02.1-.03.13,0,.04,0,.06,0,.09,0,.05,0,.08.03.1.03.02.06.04.12.04l-.02.1h-.6l.08-.32h-.02c-.07.09-.14.16-.2.21-.06.05-.12.08-.18.11-.06.02-.13.03-.2.03s-.14-.02-.19-.05c-.05-.04-.1-.09-.13-.17-.03-.08-.05-.17-.05-.29,0-.11.01-.22.04-.34.03-.11.06-.22.11-.31.05-.1.11-.18.19-.25.08-.07.16-.12.26-.16.1-.04.2-.06.31-.06.16,0,.29.04.4.11ZM146.1,43.95s.01-.07.02-.11c0-.04,0-.08,0-.12,0-.07-.01-.12-.04-.16-.03-.04-.07-.05-.13-.05-.1,0-.18.05-.25.15-.08.1-.14.23-.18.4-.04.17-.07.31-.07.45,0,.08,0,.14.03.17.02.04.06.06.11.06.07,0,.14-.04.21-.1s.13-.15.17-.24c.04-.09.08-.22.12-.38v-.06ZM148.39,44.94h-.65l.19-.86c.03-.12.04-.21.05-.25s0-.08,0-.11c0-.05,0-.08-.03-.1-.02-.02-.05-.04-.09-.04-.03,0-.07.01-.11.04-.04.03-.08.06-.13.12-.05.06-.09.11-.11.17-.03.06-.05.14-.07.22l-.17.81h-.45l.25-1.12s0-.06.02-.11c0-.05.01-.09.01-.12,0-.04-.01-.07-.04-.09-.03-.02-.06-.03-.11-.03l.02-.1.43-.02h.17l-.09.34h.02c.07-.08.14-.16.2-.21.06-.05.12-.09.18-.11s.13-.03.2-.03c.11,0,.19.03.25.09s.09.14.09.25c0,.07,0,.15-.03.25l-.13.59s-.02.08-.02.11c0,.03,0,.05,0,.07,0,.05,0,.08.04.1.02.02.06.03.12.04l-.02.1ZM148.84,45.07s-.05.06-.06.1c0,.03-.02.06-.02.1,0,.07.03.12.07.16.05.04.12.06.22.06.07,0,.14-.01.19-.04.06-.02.11-.06.16-.12.05-.06.1-.14.14-.25.04-.11.08-.26.12-.44h-.02c-.07.07-.13.14-.19.19-.06.05-.12.08-.18.11-.06.02-.13.03-.2.03-.07,0-.13-.02-.19-.05-.06-.04-.1-.09-.13-.17-.03-.08-.05-.17-.05-.29,0-.15.02-.29.06-.43.04-.14.1-.26.18-.36s.17-.18.28-.24c.11-.06.24-.08.39-.08.07,0,.14,0,.2.02.06.02.12.05.19.09l.14-.11.18.03-.13.62c-.02.1-.04.2-.06.29l-.1.49c-.03.13-.05.24-.08.32-.03.07-.05.14-.08.19-.03.05-.06.09-.1.13-.04.04-.07.07-.11.1-.04.03-.09.05-.14.07-.06.02-.12.04-.2.05-.08.01-.17.02-.26.02-.15,0-.27-.01-.37-.04-.1-.03-.18-.06-.22-.12-.05-.05-.07-.12-.07-.2,0-.06.03-.13.07-.18.04-.06.11-.11.2-.17l.16.14ZM149.79,43.95c.02-.08.02-.16.02-.23s-.01-.13-.04-.16c-.03-.04-.07-.05-.13-.05-.09,0-.18.05-.25.14-.07.1-.13.23-.18.4-.05.17-.07.32-.07.45,0,.08,0,.14.03.17.02.04.06.06.11.06.04,0,.09-.02.13-.04.04-.03.09-.07.14-.14.05-.06.09-.13.13-.22.04-.08.06-.19.09-.32v-.06ZM151.04,44.52c-.01.05-.02.09-.02.12,0,.02,0,.05,0,.06,0,.05,0,.08.04.1.02.02.06.04.12.04l-.02.1h-.65l.24-1.11c.01-.06.02-.11.03-.15,0-.03,0-.06,0-.09,0-.04,0-.07-.03-.09-.02-.02-.06-.03-.12-.04l.03-.1.46-.02h.18l-.25,1.17ZM151.4,42.74l-.08.39h-.4l.09-.39h.4ZM152.97,44.96c-.24,0-.41-.06-.54-.19-.12-.13-.18-.31-.18-.55,0-.08,0-.18.03-.29.02-.11.04-.22.08-.34.04-.12.1-.23.17-.34.07-.1.15-.2.25-.27.09-.07.2-.13.31-.17.11-.04.24-.06.36-.06.24,0,.41.06.54.19.12.12.18.31.18.55,0,.1-.01.21-.03.34-.02.12-.06.25-.11.37-.05.13-.11.24-.18.33-.07.1-.15.18-.25.24-.09.06-.19.11-.3.14-.11.03-.22.05-.34.05ZM152.73,44.36c0,.15.02.25.06.32s.11.1.2.1c.05,0,.1-.01.14-.04.06-.03.11-.07.16-.13.07-.07.12-.17.18-.28.05-.11.1-.24.13-.37.03-.11.05-.23.08-.38.01-.08.02-.16.02-.24,0-.14-.02-.25-.06-.31s-.11-.1-.2-.1-.18.04-.26.12c-.08.08-.16.19-.23.34-.07.15-.12.32-.16.5-.04.18-.06.34-.06.46ZM154.86,44.52c-.01.05-.02.09-.02.12,0,.02,0,.05,0,.06,0,.05,0,.08.04.1.02.02.06.04.12.04l-.02.1h-.65l.24-1.11c.01-.06.02-.11.03-.15,0-.03,0-.06,0-.09,0-.04,0-.07-.03-.09-.02-.02-.06-.03-.12-.04l.03-.1.46-.02h.18l-.25,1.17ZM155.22,42.74l-.08.39h-.4l.09-.39h.4ZM156.03,42.67h.18l-.4,1.84s-.02.08-.02.11c0,.03,0,.05,0,.07,0,.05,0,.08.04.1.02.02.06.04.12.04l-.02.1h-.65l.4-1.79c.02-.1.03-.18.03-.23,0-.02,0-.04,0-.06,0-.01-.01-.02-.02-.03,0,0-.02-.01-.04-.02-.02,0-.05,0-.09-.02l.03-.1.47-.03ZM157.55,44.96c-.18,0-.31-.06-.4-.17-.09-.11-.14-.28-.14-.5,0-.14.02-.3.06-.48s.09-.34.16-.47c.07-.14.14-.25.23-.34.09-.09.18-.16.28-.2.1-.05.21-.06.32-.06.13,0,.24.03.32.08.08.06.14.13.18.23.04.1.05.22.05.36,0,.11-.01.24-.04.38-.03.15-.06.28-.1.39-.04.11-.09.22-.14.31-.06.09-.12.18-.2.25-.08.07-.16.12-.26.16-.1.04-.2.06-.31.06ZM157.42,44.55c0,.08.01.15.04.18.03.04.07.06.13.06.04,0,.08-.02.12-.05.06-.05.12-.13.18-.26.07-.16.14-.37.2-.64.06-.27.09-.48.09-.64,0-.06,0-.11-.01-.15s-.03-.07-.05-.09c-.02-.02-.05-.04-.1-.04-.05,0-.1.02-.14.07-.08.07-.15.21-.23.41-.06.18-.12.41-.17.67-.04.2-.06.36-.06.48ZM159.16,44.46l-.11.48h-.4l.11-.48h.4ZM160.51,44.45c-.02.09-.03.16-.03.19s.01.07.04.09c.02.02.06.04.11.05.05,0,.13.01.23.01l-.03.15h-1.28l.03-.15c.11,0,.19,0,.24-.02.05,0,.09-.03.11-.05.03-.02.05-.05.06-.08.02-.04.04-.09.05-.18l.22-1.03c.01-.05.02-.09.02-.13,0-.03,0-.05-.02-.06-.01-.01-.03-.02-.05-.02s-.04,0-.07,0c-.03,0-.05.02-.09.04s-.11.06-.21.12l-.08-.16.9-.47h.21c-.03.11-.06.25-.1.42l-.27,1.27ZM163.6,43.67c.09-.11.18-.2.26-.25.09-.05.19-.08.3-.08s.19.03.25.09c.06.06.09.14.09.25,0,.07-.01.15-.03.25l-.13.59s-.02.08-.02.11c0,.03,0,.05,0,.07,0,.05.01.08.04.1.03.02.06.03.12.04l-.02.1h-.64l.21-.95s.02-.09.03-.12c0-.03,0-.06.01-.08,0-.02,0-.04,0-.06,0-.05,0-.08-.03-.11-.02-.02-.05-.04-.09-.04-.03,0-.07.01-.11.04-.04.03-.09.07-.13.12-.05.06-.09.11-.11.17-.03.06-.05.14-.07.22l-.17.81h-.45l.22-.99s.02-.08.02-.1c0-.03,0-.05,0-.07,0-.02,0-.03,0-.05,0-.06,0-.09-.03-.12-.02-.02-.05-.04-.09-.04-.05,0-.11.03-.18.1s-.12.13-.16.2c-.04.06-.07.15-.09.26l-.17.81h-.45l.25-1.12s0-.06.02-.11c0-.05.01-.09.01-.12,0-.04-.01-.07-.04-.09-.03-.02-.06-.03-.11-.03l.02-.1.43-.02h.17l-.09.34h.02c.07-.08.14-.16.2-.21.06-.05.12-.09.18-.11.06-.02.13-.03.2-.03.11,0,.19.03.25.09.06.06.09.14.1.24ZM165.51,42.67h.18l-.4,1.84s-.02.08-.02.11c0,.03,0,.05,0,.07,0,.05,0,.08.04.1.02.02.06.04.12.04l-.02.1h-.65l.4-1.79c.02-.1.03-.18.03-.23,0-.02,0-.04,0-.06,0-.01-.01-.02-.02-.03,0,0-.02-.01-.04-.02-.02,0-.05,0-.09-.02l.03-.1.47-.03ZM166.59,44.49c0,.08.02.14.05.18.03.05.06.08.09.09.04.02.08.03.13.03.08,0,.15-.02.19-.06.04-.04.07-.1.07-.17,0-.05,0-.08-.02-.11-.01-.03-.04-.06-.07-.09-.04-.03-.09-.07-.16-.11-.11-.06-.18-.13-.23-.2-.05-.07-.07-.14-.07-.23,0-.16.06-.28.17-.36.11-.08.27-.12.48-.12.08,0,.17,0,.26.02.09.01.18.03.25.05l-.08.38h-.2c0-.1-.04-.17-.07-.22-.04-.05-.1-.07-.17-.07s-.12.02-.17.05c-.04.04-.06.09-.06.15,0,.04,0,.07.02.1.02.03.04.06.08.09s.09.06.16.11c.11.07.19.14.24.21.05.07.07.15.07.25,0,.11-.03.2-.08.28-.06.08-.13.13-.23.17-.1.04-.21.06-.33.06-.11,0-.21,0-.31-.02-.1-.02-.19-.04-.27-.06l.09-.39h.2ZM168.16,44.94l-.14-1.17c0-.08-.02-.14-.03-.18-.01-.04-.03-.06-.05-.08-.02-.02-.05-.03-.1-.03l.02-.1h.55l.11,1.18c.16-.23.27-.42.35-.57.07-.15.11-.28.11-.38,0-.04,0-.07-.03-.09-.02-.02-.05-.03-.1-.03l.02-.1h.44l.05.1c-.04.12-.11.26-.2.42-.09.16-.2.34-.33.54-.13.2-.27.4-.42.59-.12.17-.23.29-.31.37-.06.06-.12.11-.18.15-.04.03-.09.05-.14.06s-.11.02-.18.02c-.03,0-.07,0-.11,0-.04,0-.08-.02-.11-.03l.08-.36h.17s0,.08.03.1c.02.02.04.03.07.03.04,0,.08,0,.12-.02.04-.02.07-.04.11-.07.04-.03.08-.07.13-.13.05-.06.11-.13.17-.21h-.09ZM170.79,43.8h-.28c0-.07,0-.12-.02-.15-.02-.03-.04-.04-.08-.04-.02,0-.03,0-.05,0-.02,0-.04.02-.06.04-.02.02-.05.05-.08.08s-.06.08-.08.11c-.02.04-.04.07-.05.12-.01.04-.03.09-.04.15l-.17.81h-.45l.25-1.12c.02-.1.03-.18.03-.23,0-.04-.01-.07-.04-.09-.03-.02-.06-.03-.11-.03l.02-.1.43-.02h.18l-.12.37h.02c.09-.12.18-.21.27-.28.1-.06.2-.1.31-.1.07,0,.14,0,.22.03l-.09.42ZM171,43.37h.65l-.2.86c-.03.12-.04.21-.05.25,0,.05,0,.08,0,.11,0,.05,0,.08.03.11s.05.03.09.03c.02,0,.04,0,.07-.01.03,0,.05-.03.07-.05.02-.02.05-.05.09-.08.04-.04.06-.07.09-.11.03-.04.05-.08.06-.13.02-.05.04-.1.05-.17l.17-.81h.45l-.24,1.12s-.01.06-.02.11c0,.05-.01.08-.01.12,0,.05.01.07.04.09.03.02.06.03.11.03l-.02.1h-.59l.08-.32h-.02c-.1.12-.19.2-.28.26-.09.06-.19.09-.31.09-.11,0-.19-.03-.25-.09-.06-.06-.09-.15-.09-.25,0-.07,0-.15.03-.24l.13-.59s.02-.09.02-.11c0-.03,0-.05,0-.07,0-.05-.01-.08-.04-.1s-.06-.03-.12-.04l.02-.1ZM172.98,43.84c.02-.12.04-.19.04-.24,0-.04,0-.07-.03-.09-.02-.02-.06-.03-.12-.03l.02-.1.42-.02h.17l-.09.34h.02c.07-.09.13-.16.19-.21.06-.05.12-.09.18-.11.06-.02.13-.03.2-.03s.14.02.19.05c.06.04.1.09.13.17.04.07.05.17.05.29s-.01.22-.04.34c-.03.11-.06.22-.11.31-.05.1-.11.18-.19.25-.08.07-.16.12-.26.16-.1.04-.2.06-.32.06-.09,0-.18-.02-.27-.05l-.07.33s0,.03,0,.05c0,.01,0,.03,0,.04v.04s0,.08.04.1c.02.02.06.03.12.04l-.02.1h-.65l.39-1.78ZM173.29,44.35c-.02.08-.03.16-.03.23s.01.13.04.17c.03.04.07.05.13.05.04,0,.07,0,.11-.02.03-.01.06-.03.1-.06s.06-.07.1-.13c.04-.07.08-.15.11-.24.03-.09.05-.18.07-.28.02-.1.03-.19.03-.27s-.01-.14-.04-.17c-.02-.04-.05-.06-.1-.06-.07,0-.14.03-.21.1-.07.07-.13.15-.17.24-.04.09-.08.22-.12.38v.06Z"/>
      <path class="cls-1" d="M42.76,11.68l11.78,22.8-5.64.03-2.18-4.65h-8.14l-2.15,4.65-5.38-.03,11.65-22.8h.06ZM39.88,25.77h5.64l-2.82-5.32-2.82,5.32Z"/>
      <path class="cls-5" d="M56.21,12.25h6.55c1.39,0,2.63.13,3.74.35,1.08.22,1.99.6,2.75,1.14.73.54,1.3,1.27,1.71,2.15.41.92.6,2.03.63,3.39,0,1.08-.22,2.06-.63,2.91-.41.85-.98,1.58-1.71,2.18-.73.6-1.58,1.08-2.56,1.39-.98.35-2.06.51-3.2.51h-1.9v8.11l-5.38.06V12.25ZM61.6,21.62h1.55c1.01,0,1.77-.22,2.31-.63.51-.41.76-.98.76-1.74,0-1.55-1.01-2.34-3.07-2.34h-1.55v4.72Z"/>
      <polygon class="cls-2" points="78.88 12.25 78.88 34.41 73.5 34.44 73.5 12.25 78.88 12.25"/>
      <path class="cls-7" d="M89.84,34.35V12.15h5.38v17.26h7.12l-1.42,4.94h-11.08ZM115.74,11.68l11.78,22.8-5.64.03-2.18-4.65h-8.14l-2.15,4.65-5.38-.03,11.65-22.8h.06ZM112.86,25.77h5.64l-2.82-5.32-2.82,5.32ZM149.18,34.5l-14.22-12.44v12.19l-5.38-.03V11.74h.06l14.22,12.19v-12.16l5.38-.03v22.77h-.06ZM151.96,12.25h7.66c1.55,0,3.04.28,4.4.82,1.36.57,2.56,1.36,3.61,2.34,1.04.98,1.84,2.15,2.44,3.51.6,1.36.89,2.82.89,4.37s-.28,3.01-.89,4.34c-.6,1.36-1.39,2.53-2.44,3.51-1.04.98-2.25,1.77-3.61,2.34-1.36.57-2.85.85-4.4.85h-7.66V12.25ZM157.41,29.69h1.71c.89,0,1.71-.19,2.5-.54.76-.35,1.42-.79,2.03-1.39.57-.6,1.01-1.27,1.36-2.06.32-.76.47-1.55.47-2.41s-.16-1.61-.47-2.41c-.35-.76-.79-1.42-1.36-2.03-.57-.6-1.23-1.08-1.99-1.42-.79-.35-1.61-.51-2.53-.51h-1.71v12.76Z"/>
      <path class="cls-3" d="M168.34,11.59v-2.62h-.98v-.35h2.35v.35h-.98v2.62h-.39ZM170.1,11.59v-2.96h.59l.7,2.1c.07.19.11.34.14.44.03-.11.09-.27.16-.48l.71-2.06h.53v2.96h-.38v-2.48l-.87,2.48h-.35l-.86-2.53v2.53h-.38Z"/>
      <path class="cls-3" d="M16.63,22.01s-.02.04-.03.07c-.02.02-.04.04-.06.06-.05-.01-.09-.03-.12-.05-.03-.03-.05-.06-.07-.09-.01-.04-.02-.08-.03-.12v-.52c0-.07-.02-.12-.05-.16-.03-.03-.08-.05-.14-.05s-.12,0-.18.03c-.06.02-.12.04-.19.06-.02-.02-.03-.05-.05-.08-.01-.03-.02-.07-.02-.1.04-.02.09-.04.15-.05.05-.02.11-.03.17-.04.06,0,.11-.01.17-.01.08,0,.14.01.2.04.06.03.1.07.13.13.03.06.05.13.05.22v.47s0,.08.01.11c0,.03.03.06.05.08M15.67,21.81c0-.09.02-.16.06-.22.04-.06.09-.1.16-.13.07-.03.14-.04.23-.04.04,0,.09,0,.15,0,.05,0,.11.01.15.02v.16s-.09-.02-.14-.02c-.05,0-.1,0-.14,0-.07,0-.12.02-.16.05-.04.04-.06.09-.06.15,0,.05.01.09.04.12.03.03.07.05.12.05.06,0,.12-.02.18-.06.06-.04.12-.1.16-.17l.04.18s-.06.07-.1.1c-.04.04-.09.07-.14.09-.05.03-.11.04-.18.04-.08,0-.14-.02-.19-.05-.05-.03-.09-.08-.11-.13-.02-.05-.04-.11-.04-.16ZM14.83,21.09s.02-.04.03-.07c.02-.03.03-.04.05-.06.08.02.13.06.17.12.04.06.06.14.06.23v.81s-.03,0-.06,0c-.02,0-.04,0-.06,0s-.04,0-.06,0c-.02,0-.04,0-.06,0v-.79c0-.06,0-.11-.03-.15-.02-.04-.04-.07-.06-.09ZM15.55,20.98s0,.07-.01.11c0,.04-.02.08-.05.11-.01,0-.03,0-.05,0-.02,0-.03,0-.05,0-.04,0-.08,0-.11.03-.03.02-.06.04-.08.07-.02.03-.04.06-.06.1-.02.03-.03.07-.04.1l-.03-.04c0-.05,0-.11.02-.17.01-.06.03-.11.06-.15.03-.05.06-.09.11-.11.05-.03.1-.04.17-.04.02,0,.04,0,.06,0,.02,0,.04,0,.06,0ZM14.6,22.01s-.02.04-.03.07c-.02.02-.04.04-.06.06-.05-.01-.09-.03-.12-.05-.03-.03-.05-.06-.07-.09-.01-.04-.02-.08-.03-.12v-.52c0-.07-.02-.12-.05-.16-.03-.03-.08-.05-.14-.05s-.12,0-.18.03c-.06.02-.12.04-.19.06-.02-.02-.03-.05-.05-.08-.01-.03-.02-.07-.02-.1.04-.02.09-.04.15-.05.05-.02.11-.03.17-.04.06,0,.11-.01.17-.01.08,0,.14.01.2.04.06.03.1.07.13.13.03.06.05.13.05.22v.47s0,.08.01.11c0,.03.03.06.05.08ZM13.64,21.81c0-.09.02-.16.06-.22.04-.06.09-.1.16-.13.07-.03.14-.04.23-.04.04,0,.09,0,.15,0,.05,0,.11.01.15.02v.16s-.09-.02-.14-.02c-.05,0-.1,0-.14,0-.07,0-.12.02-.16.05-.04.04-.06.09-.06.15,0,.05.01.09.04.12.03.03.07.05.12.05.06,0,.12-.02.18-.06.06-.04.12-.1.16-.17l.04.18s-.06.07-.1.1c-.04.04-.09.07-.14.09-.05.03-.11.04-.18.04-.08,0-.14-.02-.19-.05-.05-.03-.09-.08-.11-.13-.02-.05-.04-.11-.04-.16ZM13.37,21.88s0,.08,0,.11c0,.04.02.07.03.09-.02.01-.04.03-.07.04-.03,0-.05.01-.08.01-.05,0-.08-.01-.1-.04-.02-.03-.03-.06-.03-.11v-.59c0-.08,0-.13-.03-.17-.02-.04-.06-.05-.11-.05-.04,0-.08,0-.13.03-.05.02-.09.05-.13.08-.04.03-.07.07-.1.12v-.23c.05-.06.11-.11.19-.15.07-.04.15-.06.24-.06.07,0,.13.02.18.05.04.03.08.08.1.14.02.06.03.12.03.19v.54ZM12.7,22.12s-.07,0-.12,0c-.04,0-.08,0-.12,0v-1.69l.02-.02h.09c.05,0,.08.01.1.04.02.02.03.06.03.12v1.55ZM12.17,22.01s-.02.04-.03.07c-.02.02-.04.04-.06.06-.05-.01-.09-.03-.12-.05-.03-.03-.05-.06-.07-.09-.01-.04-.02-.08-.03-.12v-.52c0-.07-.02-.12-.05-.16-.03-.03-.08-.05-.14-.05s-.12,0-.18.03c-.06.02-.12.04-.19.06-.02-.02-.03-.05-.05-.08-.01-.03-.02-.07-.02-.1.04-.02.09-.04.15-.05.05-.02.11-.03.17-.04.06,0,.11-.01.17-.01.08,0,.14.01.2.04.06.03.1.07.13.13.03.06.05.13.05.22v.47s0,.08.01.11c0,.03.03.06.05.08ZM11.21,21.81c0-.09.02-.16.06-.22.04-.06.09-.1.16-.13.07-.03.14-.04.23-.04.04,0,.09,0,.15,0,.05,0,.11.01.15.02v.16s-.09-.02-.14-.02c-.05,0-.1,0-.14,0-.07,0-.12.02-.16.05-.04.04-.06.09-.06.15,0,.05.01.09.04.12.03.03.07.05.12.05.06,0,.12-.02.18-.06.06-.04.12-.1.16-.17l.04.18s-.06.07-.1.1c-.04.04-.09.07-.14.09-.05.03-.11.04-.18.04-.08,0-.14-.02-.19-.05-.05-.03-.09-.08-.11-.13-.02-.05-.04-.11-.04-.16ZM10.23,21.74s-.02,0-.04,0c-.02,0-.04,0-.07,0-.02,0-.04,0-.04,0h-.11l.08-.2h.1s.02,0,.04,0c.02,0,.04,0,.06,0,.02,0,.03,0,.04,0h.23s.02,0,.04,0c.02,0,.04,0,.06,0,.02,0,.03,0,.04,0h.1l.07.2h-.11s-.02,0-.05,0c-.02,0-.04,0-.07,0-.02,0-.04,0-.04,0h-.32ZM10.26,20.54s.04,0,.07,0c.03,0,.05,0,.07,0s.04,0,.07,0c.03,0,.05,0,.07,0l.52,1.56s-.04.02-.07.02c-.03,0-.05,0-.08,0-.04,0-.07,0-.09-.03-.02-.02-.04-.05-.06-.1l-.25-.8c-.02-.07-.04-.14-.06-.21-.02-.08-.04-.14-.06-.2h-.01s-.02.07-.03.11c-.01.04-.02.08-.03.12-.01.04-.02.07-.03.1l-.32,1s-.03,0-.05,0c-.02,0-.04,0-.06,0-.02,0-.04,0-.06,0-.02,0-.04,0-.06-.01h0s.52-1.57.52-1.57ZM9.07,22.01s-.02.04-.03.07c-.02.02-.04.04-.06.06-.05-.01-.09-.03-.12-.05-.03-.03-.05-.06-.07-.09-.01-.04-.02-.08-.03-.12v-.52c0-.07-.02-.12-.05-.16-.03-.03-.08-.05-.14-.05s-.12,0-.18.03c-.06.02-.12.04-.19.06-.02-.02-.03-.05-.05-.08-.01-.03-.02-.07-.02-.1.04-.02.09-.04.15-.05.05-.02.11-.03.17-.04.06,0,.11-.01.17-.01.08,0,.14.01.2.04.06.03.1.07.13.13.03.06.05.13.05.22v.47s0,.08.01.11c0,.03.03.06.05.08ZM8.11,21.81c0-.09.02-.16.06-.22.04-.06.09-.1.16-.13.07-.03.14-.04.23-.04.04,0,.09,0,.15,0,.05,0,.11.01.15.02v.16s-.09-.02-.14-.02c-.05,0-.1,0-.14,0-.07,0-.12.02-.16.05-.04.04-.06.09-.06.15,0,.05.01.09.04.12.03.03.07.05.12.05.06,0,.12-.02.18-.06.06-.04.12-.1.16-.17l.04.18s-.06.07-.1.1c-.04.04-.09.07-.14.09-.05.03-.11.04-.18.04-.08,0-.14-.02-.19-.05-.05-.03-.09-.08-.11-.13-.02-.05-.04-.11-.04-.16ZM6.88,21.56c0-.14.02-.25.07-.34.04-.09.1-.16.17-.2.07-.04.14-.06.21-.06s.14.02.2.05c.06.03.12.06.17.1l-.03.19s-.09-.07-.15-.1c-.05-.03-.11-.05-.17-.05-.04,0-.08.01-.12.04-.04.03-.06.08-.08.14-.02.06-.03.14-.03.23s0,.16.03.22c.02.06.05.1.08.12.03.03.07.04.1.04s.08-.01.12-.03c.04-.02.08-.05.12-.1.04-.04.06-.1.08-.17l.05.18c-.01.05-.04.1-.08.15-.04.05-.09.09-.15.12-.06.03-.12.05-.2.05-.09,0-.16-.03-.22-.07-.06-.05-.1-.12-.13-.21-.03-.09-.04-.19-.04-.31ZM7.83,21.8s0,.09.01.13c0,.04.03.07.05.09,0,.02-.02.04-.04.07-.02.02-.04.04-.06.06-.08-.02-.13-.05-.16-.11-.03-.06-.05-.12-.05-.2v-1.41h.11s.08.01.1.04c.02.02.03.06.03.12v1.22ZM5.88,21.63v-.17h.56v-.03c0-.05,0-.1-.02-.15-.02-.05-.04-.08-.07-.11-.03-.03-.08-.04-.13-.04-.08,0-.14.03-.18.1-.04.07-.06.16-.06.27v.07c0,.07,0,.14.02.2.02.06.04.1.08.14.04.03.09.05.16.05.06,0,.11,0,.17-.03.05-.02.11-.04.15-.06.02.02.04.04.05.07.01.03.02.06.02.08-.05.04-.12.07-.2.1-.08.02-.16.04-.24.04-.09,0-.17-.02-.23-.05-.06-.03-.11-.08-.15-.13-.04-.06-.06-.12-.08-.19-.02-.07-.02-.15-.02-.22,0-.11.02-.22.05-.31.04-.09.09-.16.16-.22.07-.05.16-.08.27-.08.1,0,.18.02.25.07.07.04.12.1.15.18.03.07.05.16.05.25,0,.04,0,.07,0,.1,0,.03,0,.06-.01.09h-.77ZM5.39,20.98s.03,0,.05,0c.02,0,.03,0,.04,0,.02,0,.04,0,.06,0,.02,0,.04,0,.06.01h0c-.03.1-.06.19-.09.3-.03.1-.07.21-.1.31-.03.1-.06.2-.09.29-.03.09-.05.17-.08.23-.03,0-.05,0-.08,0-.03,0-.06,0-.09,0-.05,0-.08,0-.11-.02-.03-.02-.05-.05-.06-.11l-.32-1s.05-.02.07-.03c.02,0,.04,0,.06,0,.03,0,.06,0,.08.02.02.02.04.04.05.08l.16.51s.02.08.04.12c.01.04.02.08.03.12,0,.04.02.07.02.09,0,0,0,.01,0,.02,0,0,0,0,.01,0l.27-.95ZM3.83,21.09s.02-.04.03-.07c.02-.03.03-.04.05-.06.08.02.13.06.17.12.04.06.06.14.06.23v.81s-.03,0-.06,0c-.02,0-.04,0-.06,0s-.04,0-.06,0c-.02,0-.04,0-.06,0v-.79c0-.06,0-.11-.03-.15-.02-.04-.04-.07-.06-.09ZM4.56,20.98s0,.07-.01.11c0,.04-.02.08-.05.11-.01,0-.03,0-.05,0-.02,0-.03,0-.05,0-.04,0-.08,0-.12.03-.03.02-.06.04-.08.07-.02.03-.04.06-.06.1-.02.03-.03.07-.04.1l-.03-.04c0-.05,0-.11.02-.17.01-.06.03-.11.06-.15.03-.05.06-.09.11-.11.05-.03.1-.04.17-.04.02,0,.04,0,.06,0,.02,0,.04,0,.06,0ZM2.62,21.22s0-.08,0-.11c0-.04-.01-.07-.03-.09.02-.01.04-.03.07-.04.03,0,.05-.01.08-.01.05,0,.08.01.1.04.02.03.03.06.03.11v.59c0,.08.01.13.03.17.02.04.06.05.11.05.04,0,.08,0,.13-.03.04-.02.09-.05.13-.08.04-.03.07-.07.1-.12v.23c-.05.06-.11.11-.19.15-.07.04-.15.06-.24.06-.07,0-.13-.02-.18-.05-.05-.03-.08-.08-.1-.14-.02-.06-.03-.12-.03-.19v-.54ZM3.53,21.8s0,.09.01.13c0,.04.03.07.05.09,0,.02-.02.05-.03.07-.02.02-.04.04-.05.05-.08-.02-.13-.05-.16-.11-.03-.06-.05-.12-.05-.2v-.85s.03,0,.06,0c.02,0,.04,0,.06,0s.04,0,.06,0c.02,0,.04,0,.06,0v.82ZM2.12,22.08c-.03.12-.07.22-.11.3-.04.08-.09.14-.16.18s-.15.06-.25.06c-.04,0-.08,0-.12-.01-.04,0-.08-.02-.1-.02,0-.03,0-.06.01-.09.01-.03.02-.06.04-.08.02,0,.04.01.08.02.03,0,.06,0,.1,0,.05,0,.09-.01.13-.03.03-.02.06-.06.09-.1.02-.04.04-.09.06-.15v-.03s-.08-.01-.11-.03c-.03-.02-.05-.05-.06-.1l-.3-1.01s.05-.02.08-.03c.03,0,.05,0,.07,0,.03,0,.05,0,.07.02.02.01.04.04.05.09l.16.53s.02.07.03.12c.01.04.02.08.03.12,0,.04.02.07.02.1,0,.01.01.02.02.02l.25-.98s.03,0,.05,0c.02,0,.04,0,.05,0,.02,0,.04,0,.06,0,.02,0,.04,0,.06.01h0s-.31,1.1-.31,1.1ZM.49,21.74s-.02,0-.04,0c-.02,0-.04,0-.07,0-.02,0-.04,0-.04,0h-.11l.08-.2h.1s.02,0,.04,0c.02,0,.04,0,.06,0,.02,0,.03,0,.04,0h.23s.02,0,.04,0c.02,0,.04,0,.06,0,.02,0,.03,0,.04,0h.1l.07.2h-.11s-.02,0-.05,0c-.02,0-.04,0-.07,0-.02,0-.04,0-.04,0h-.32ZM.52,20.54s.04,0,.07,0c.03,0,.05,0,.07,0s.04,0,.07,0c.03,0,.05,0,.07,0l.52,1.56s-.04.02-.07.02c-.03,0-.05,0-.08,0-.04,0-.07,0-.09-.03-.02-.02-.04-.05-.06-.1l-.25-.8c-.02-.07-.04-.14-.06-.21-.02-.08-.04-.14-.06-.2h-.01s-.02.07-.03.11c-.01.04-.02.08-.03.12-.01.04-.02.07-.03.1l-.32,1s-.03,0-.05,0c-.02,0-.04,0-.06,0-.02,0-.04,0-.06,0-.02,0-.04,0-.06-.01h0s.52-1.57.52-1.57Z"/>
      <path class="cls-4" d="M6.86,18.99v-.51h-.64v.51h.64ZM5.26,18.87v-.8h-.51v.49c-.03.21-.21.08-.29.19-.02.12.1.23.24.23.12,0,.34-.03.56-.11ZM12.56,18.21c-.15-.01-.21.11-.19.19,0,.1,0,.25,0,.25.04.04.09.05.13.04v.14c-.06,0-.13,0-.14.05v.49c.02.12.1.29.29.29h.79s0-.33,0-.33h-.63s0-.42,0-.42c.08,0,.18,0,.26,0,0,.05.01.14.02.18h.35s.03-.26-.02-.34c-.03-.1-.08-.15-.32-.14-.19,0-.27,0-.27,0-.06-.03-.05-.07,0-.11.15-.01.28,0,.43,0h.15v-.42h.24v1.33h.37v-1.33h1.06v.33c-.03.1-.03.16-.21.12-.06-.09-.06-.22-.06-.22-.12,0-.24,0-.36,0v.89c.02.23.21.3.43.3.45-.01.52-.12.58-.27v-.31h-.33c0,.07-.01.15-.02.22-.03.1-.21.08-.26.02,0-.11,0-.2,0-.31.09-.02.57.1.64-.27v-.51h.27v-.26h-4.84v.75h-.3c.15-.16.1-.49,0-.63-.13-.25-1.16-.24-1.02.32h.39c0-.24.4-.3.31.14h-.27v.31s.28,0,.28,0v.4c-.19.13-.32.09-.32-.14l-.41-.04c-.08.62.69.77,1.1.31.03-.13.03-.23.02-.31h.22v.49h.37v-1.33h.4v1.33h.37v-1.33h.96v.13c-.1,0-.24,0-.43,0ZM7.22,18.08v1.33h-.37v-.15h-.78c-.07,0-.14-.06-.14-.13v-.78c0-.07.06-.13.14-.13h.78v-.13h-1.23v1.24c.06.01.1.02.12.03.09.04.24.4.04.57-.16.27-1.27.21-1.33-.45l.44.02c.02.31.47.3.62.23.1-.04.05-.21-.06-.17-.1.02-.41.11-.35-.21.01-.05.07-.07.15-.07v-.08c-.21.06-.48.08-.82.04-.51-.04-.38-.78-.38-.78.11,0,.22-.02.33,0,0-.13,0-.25,0-.38h-.56v1.33h-.37v-1.33h-.4v1.33h-.37v-.49h-.22c.01.08.01.17-.02.31-.41.46-1.18.31-1.1-.31l.41.04c0,.23.14.26.33.14v-.4h-.3v-.31h.27c.1-.44-.31-.37-.31-.14h-.39c-.14-.55.89-.57,1.02-.32.1.14.15.47,0,.63h.3v-.75h4.04l-.5-.54h.52s.11.4.18.15c.05-.19.21-.24.42-.21.21.03.11.2.06.32-.05.12-.16.06-.23.12-.03.03-.03.1-.02.17h1.98v.26h-.45v.42h-.8s-.07.03-.07.06v.31s.03.06.07.06h.45v-.21h.4v.69h-.4v-.16h-.52c-.19,0-.34-.14-.34-.32v-.44c0-.17.15-.32.34-.32h.5v-.1h-1.11Z"/>
      <path class="cls-6" d="M2.45,3.17h1.98c.48.03.53.22.53.63v1.64c0,.5-.09.61-.32.65h-.98s-.02,1.55-.02,1.55c0,0,1.38-.3,1.34.65v5.35c0,.39-.08.65-.57.65h-1.64c-.45,0-.36-.53-.38-.81l-.04-.81c-.02-.41-.14-1.24-1.59-1.43l-.06,2.59c-.03,1.2.32,1.9,1.45,1.93l2.74.06c.99-.08,1.75-.81,1.73-1.94l.05-5.73c-.15-.12-.17-.38-.04-.47h1.14v3.74h1.68v-3.74h1.76c.27-1.07-1-1.31-1.76-1.46v-1.83c.46,0,.99-.03,1.52,0,.23.01.83.17.84,1.2l.03,7.79c.44.13,1.74-.61,1.7-1.51l.09-6.96c.02-1.46-1.42-2.15-2.16-2.15l-3.68-.02v3.57h-1.11c-.05-.04-.13-.21,0-.37l.02-2.71c0-.4-.28-1.59-1.76-1.55h-2.5v1.51Z"/>
      <path class="cls-6" d="M13.39,3.41c1.51-.15,2.49.94,2.84,1.67-1.42.13-2.67-.86-2.84-1.67"/>
      <path class="cls-6" d="M13.56,3.19c.93-.85,2.59-.55,3.21-.13-1.08,1-2.69.73-3.21.13"/>
      <path class="cls-6" d="M13.55,3.04c.27-1.25,1.73-2.13,2.53-1.88-.54,1.35-1.76,2.05-2.53,1.88"/>
      <path class="cls-6" d="M13.44,3.11c-.54-1.15.05-2.78.83-3.11.4,1.4-.13,2.75-.83,3.11"/>
      <path class="cls-6" d="M13.19,3.23c-1.07-.57-1.53-2.3-1.12-3.08,1.29.74,1.53,2.34,1.12,3.08"/>
      <path class="cls-3" d="M39.63,11.14h-.34l1-1.57-.99-1.56h.28c.18,0,.33-.06.44-.18.12-.11.18-.25.18-.44,0-.1-.02-.2-.06-.3-.04-.1-.09-.17-.16-.24-.04-.05-.11-.09-.2-.12-.08-.03-.23-.04-.43-.04h-.43v2.83h-.28v-3.13h.78c.17,0,.31.01.41.04.09.03.19.07.28.14.12.09.21.21.27.35.06.13.1.28.1.46,0,.24-.07.46-.2.63-.13.17-.29.26-.5.29l.66,1,.79-1.29h.34l-.97,1.56,1,1.57h-.35l-.8-1.32-.83,1.32Z"/>
      <path class="cls-3" d="M144.98,6.1l.6-.05c.03.24.09.44.2.6.1.15.26.27.48.37.21.09.46.14.73.14.25,0,.46-.03.64-.11.19-.07.32-.17.42-.3.09-.13.13-.26.13-.41s-.04-.28-.13-.39c-.09-.11-.23-.2-.44-.28-.13-.05-.42-.13-.85-.23-.44-.11-.75-.2-.93-.29-.23-.12-.39-.27-.51-.45-.11-.18-.17-.38-.17-.6,0-.25.07-.48.21-.68.13-.21.33-.37.6-.48.26-.11.56-.16.88-.16.35,0,.67.05.94.17.27.11.48.28.63.5.15.22.22.48.23.76l-.61.05c-.03-.3-.14-.53-.33-.68-.19-.16-.47-.23-.84-.23-.39,0-.66.07-.84.21-.17.14-.26.31-.26.51,0,.17.06.31.19.43.12.11.44.23.96.34.52.11.87.22,1.06.31.28.13.49.29.62.48.13.2.2.43.2.68s-.07.5-.22.72c-.14.23-.35.4-.62.53-.27.13-.58.19-.92.19-.44,0-.8-.06-1.09-.19-.29-.13-.52-.32-.69-.58-.17-.25-.25-.54-.26-.86ZM151,7.64v-2.03l-1.85-2.76h.76l.94,1.45c.18.27.34.54.5.8.14-.25.32-.53.53-.84l.92-1.41h.74l-1.91,2.76v2.03h-.64ZM154.13,7.64V2.85h2.12c.43,0,.76.04.98.13.22.09.4.24.53.46.13.22.2.46.2.72,0,.34-.11.63-.33.86-.22.23-.56.37-1.02.44.17.08.29.16.38.24.18.17.36.38.52.64l.83,1.31h-.79l-.64-1c-.19-.29-.33-.51-.46-.66-.12-.15-.23-.26-.32-.32-.09-.06-.19-.1-.29-.13-.07-.01-.19-.02-.35-.02h-.74v2.13h-.64ZM154.76,4.96h1.36c.29,0,.52-.03.68-.09.16-.05.29-.15.37-.29.09-.13.13-.27.13-.43,0-.23-.08-.42-.25-.56-.16-.15-.42-.22-.78-.22h-1.51v1.59ZM162.08,2.85h.64v2.76c0,.48-.05.87-.16,1.15-.11.28-.31.52-.59.69-.29.18-.66.27-1.12.27s-.82-.07-1.1-.23c-.29-.15-.49-.37-.62-.67-.12-.29-.18-.7-.18-1.2v-2.76h.64v2.76c0,.42.04.72.11.92.08.19.21.35.4.46.19.11.42.16.69.16.46,0,.79-.11.99-.31.19-.21.29-.62.29-1.22v-2.76ZM163.78,7.64V2.85h1.81c.32,0,.56.01.73.05.24.04.44.11.6.22.16.11.29.27.38.46.1.2.15.42.15.66,0,.4-.13.75-.39,1.03-.26.28-.73.42-1.41.42h-1.23v1.95h-.64ZM164.41,5.12h1.24c.41,0,.7-.07.88-.23.17-.15.25-.37.25-.65,0-.19-.05-.37-.15-.51-.1-.15-.23-.24-.39-.29-.11-.03-.31-.04-.6-.04h-1.22v1.71Z"/>
    </g>
  </g>
</svg>