<?xml version="1.0" encoding="UTF-8"?>
<svg id="Layer_2" data-name="Layer 2" xmlns="http://www.w3.org/2000/svg" viewBox="0 0 137.5 44.13">
  <defs>
    <style>
      .cls-1 {
        fill: #00a651;
      }

      .cls-2 {
        fill: #231f20;
      }

      .cls-3 {
        fill: #ed1651;
      }

      .cls-4 {
        fill: #2e3192;
      }
    </style>
  </defs>
  <g id="Layer_1-2" data-name="Layer 1">
    <g>
      <rect class="cls-3" x="4.87" y="31.41" width="111.13" height="2.35"/>
      <path class="cls-1" d="M5.17,29.01V7.07h7.11c2.7,0,4.44.09,5.27.34,1.26.31,2.3,1.04,3.16,2.14.83,1.1,1.26,2.51,1.26,4.26,0,1.35-.25,2.48-.74,3.4-.49.92-1.1,1.65-1.84,2.18-.77.52-1.53.86-2.3,1.04-1.07.18-2.6.31-4.6.31h-2.88v8.27h-4.44ZM9.61,10.78v6.25h2.42c1.75,0,2.91-.12,3.49-.34.58-.25,1.04-.61,1.38-1.1s.49-1.04.49-1.72c0-.8-.25-1.44-.7-1.96s-1.04-.86-1.78-.98c-.52-.09-1.56-.15-3.16-.15h-2.14ZM24.68,18.16c0-2.24.34-4.11,1.01-5.64.49-1.1,1.16-2.11,2.05-3,.86-.89,1.81-1.56,2.82-1.99,1.38-.58,2.94-.86,4.75-.86,3.22,0,5.82,1.01,7.75,3,1.93,2.02,2.91,4.81,2.91,8.39s-.95,6.31-2.88,8.33c-1.93,1.99-4.5,3-7.72,3s-5.88-1.01-7.81-3c-1.9-1.99-2.88-4.72-2.88-8.24ZM29.25,18.01c0,2.51.58,4.38,1.72,5.67,1.16,1.29,2.63,1.93,4.38,1.93s3.22-.64,4.38-1.9c1.13-1.29,1.69-3.19,1.69-5.76s-.55-4.38-1.65-5.61c-1.1-1.26-2.57-1.87-4.41-1.87s-3.31.61-4.41,1.87c-1.13,1.26-1.69,3.16-1.69,5.67ZM55.04,29.01l-7.84-21.94h4.81l5.58,16.24,5.33-16.24h4.72l-7.81,21.94h-4.78Z"/>
      <path class="cls-4" d="M69.71,29.01V7.07h4.44v21.94h-4.44ZM77.47,18.16c0-2.24.34-4.11,1.01-5.64.49-1.1,1.16-2.11,2.05-3,.86-.89,1.81-1.56,2.82-1.99,1.38-.58,2.94-.86,4.75-.86,3.22,0,5.82,1.01,7.75,3,1.93,2.02,2.91,4.81,2.91,8.39s-.95,6.31-2.88,8.33c-1.93,1.99-4.5,3-7.72,3s-5.88-1.01-7.81-3c-1.9-1.99-2.88-4.72-2.88-8.24ZM82.03,18.01c0,2.51.58,4.38,1.72,5.67,1.16,1.29,2.63,1.93,4.38,1.93s3.22-.64,4.38-1.9c1.13-1.29,1.69-3.19,1.69-5.76s-.55-4.38-1.65-5.61c-1.1-1.26-2.57-1.87-4.41-1.87s-3.31.61-4.41,1.87c-1.13,1.26-1.69,3.16-1.69,5.67ZM102.22,7.07h8.09c1.81,0,3.22.12,4.17.43,1.29.37,2.39,1.04,3.28,2.02.92.95,1.62,2.14,2.11,3.55.46,1.38.7,3.12.7,5.18,0,1.81-.21,3.34-.67,4.66-.55,1.59-1.32,2.88-2.33,3.89-.77.74-1.81,1.32-3.12,1.75-.98.31-2.27.46-3.89.46h-8.33V7.07ZM106.66,10.78v14.52h3.31c1.23,0,2.11-.06,2.67-.21.7-.18,1.29-.49,1.78-.92.46-.43.86-1.13,1.13-2.11.31-.98.46-2.33.46-4.01s-.15-3-.46-3.89c-.28-.92-.7-1.62-1.23-2.14-.55-.49-1.23-.83-2.05-1.01-.61-.15-1.84-.21-3.62-.21h-1.99Z"/>
      <path class="cls-2" d="M122.72,2.02c.53,0,1.05.14,1.56.41.51.27.91.66,1.19,1.17s.42,1.04.42,1.6-.14,1.07-.42,1.58c-.28.5-.66.9-1.17,1.17-.5.28-1.03.42-1.58.42s-1.08-.14-1.59-.42c-.5-.28-.9-.67-1.17-1.17-.28-.51-.42-1.04-.42-1.58s.15-1.09.43-1.6.68-.91,1.19-1.17c.51-.28,1.03-.41,1.56-.41ZM122.72,2.55c-.45,0-.88.11-1.3.35-.42.22-.76.55-.99.98-.24.42-.36.86-.36,1.33s.12.9.35,1.31c.23.42.56.75.98.98s.86.35,1.32.35.9-.12,1.32-.35.75-.56.98-.98c.23-.41.35-.85.35-1.31s-.12-.91-.35-1.33c-.24-.43-.57-.76-.99-.98-.42-.23-.86-.35-1.3-.35ZM121.32,6.96v-3.42h1.17c.41,0,.7.03.88.09s.32.17.43.33c.1.16.16.33.16.5,0,.25-.09.47-.27.66-.18.18-.41.28-.72.31.12.05.22.11.29.18.14.13.31.36.51.67l.41.67h-.67l-.3-.53c-.24-.43-.43-.69-.58-.8-.1-.08-.25-.11-.44-.11h-.33v1.45h-.55ZM121.87,5.03h.67c.32,0,.53-.05.66-.15.11-.09.17-.22.17-.37,0-.1-.03-.19-.09-.28-.05-.08-.13-.14-.23-.17-.09-.04-.28-.06-.55-.06h-.63v1.03Z"/>
      <path class="cls-2" d="M5.58,42.34v-6.1h2.14c.38,0,.67.02.86.06.29.05.51.14.7.28.19.14.34.34.45.59.12.26.17.53.17.84,0,.51-.15.95-.46,1.31-.31.36-.86.54-1.66.54h-1.46v2.49h-.75ZM6.33,39.13h1.47c.48,0,.83-.09,1.04-.29.2-.2.3-.47.3-.83,0-.25-.06-.47-.18-.65-.12-.19-.28-.31-.47-.37-.13-.03-.36-.05-.7-.05h-1.45v2.18ZM10.52,40.12c0-.81.21-1.42.63-1.82.36-.32.78-.49,1.29-.49.57,0,1.03.2,1.39.6.36.39.54.95.54,1.65,0,.57-.08,1.01-.24,1.34-.16.32-.39.58-.69.76-.31.19-.63.27-1,.27-.57,0-1.04-.2-1.39-.6-.36-.39-.53-.96-.53-1.71ZM11.23,40.13c0,.56.12.99.35,1.26.23.28.51.43.86.43s.63-.14.87-.43c.23-.28.34-.71.34-1.29,0-.55-.12-.96-.35-1.24s-.51-.42-.86-.42-.63.14-.86.42-.35.7-.35,1.27ZM16.3,42.34l-1.55-4.42h.74l.88,2.65c.1.28.18.58.27.89.06-.23.14-.51.25-.84l.92-2.7h.71l-1.55,4.42h-.67ZM19.14,37.09v-.85h.7v.85h-.7ZM19.14,42.34v-4.42h.7v4.42h-.7ZM23.55,42.34v-.56c-.26.43-.64.66-1.15.66-.32,0-.63-.09-.9-.29-.27-.2-.48-.47-.63-.81-.15-.35-.23-.75-.23-1.2s.07-.84.21-1.2.34-.63.62-.82c.27-.2.58-.29.91-.29.25,0,.47.06.67.17.19.11.35.26.47.43v-2.19h.7v6.1h-.65ZM21.35,40.13c0,.56.11.99.33,1.27.22.28.48.42.79.42s.56-.14.78-.4.32-.67.32-1.23c0-.6-.11-1.04-.32-1.32-.21-.29-.48-.43-.8-.43s-.57.14-.78.41c-.21.26-.31.7-.31,1.28ZM25.04,40.12c0-.81.21-1.42.63-1.82.36-.32.78-.49,1.29-.49.57,0,1.03.2,1.39.6.36.39.54.95.54,1.65,0,.57-.08,1.01-.24,1.34-.16.32-.39.58-.69.76-.31.19-.63.27-1,.27-.57,0-1.04-.2-1.39-.6-.36-.39-.53-.96-.53-1.71ZM25.75,40.13c0,.56.12.99.35,1.26.23.28.51.43.86.43s.63-.14.87-.43c.23-.28.34-.71.34-1.29,0-.55-.12-.96-.35-1.24s-.51-.42-.86-.42-.63.14-.86.42-.35.7-.35,1.27ZM29.7,42.34v-4.42h.63v.63c.3-.49.74-.72,1.31-.72.25,0,.48.05.68.14s.36.22.47.38c.1.15.17.34.21.55.02.14.04.38.04.72v2.72h-.7v-2.69c0-.31-.02-.54-.08-.69-.06-.14-.15-.27-.29-.36-.14-.09-.3-.14-.49-.14-.29,0-.55.1-.76.31-.21.2-.32.58-.32,1.15v2.41h-.7ZM36.91,40.91l.72.1c-.11.45-.32.8-.63,1.05-.31.25-.7.38-1.17.38-.6,0-1.08-.2-1.43-.6-.36-.4-.53-.95-.53-1.67s.17-1.32.53-1.73.82-.61,1.39-.61.99.2,1.34.61c.35.4.52.96.52,1.7v.2h-3.07c.02.49.15.85.38,1.12.23.26.51.38.86.38.25,0,.47-.08.65-.22.18-.14.32-.38.43-.69ZM34.63,39.7h2.29c-.03-.38-.12-.65-.26-.84-.22-.29-.51-.43-.86-.43-.32,0-.59.11-.8.34-.22.23-.34.55-.36.93ZM40.93,42.34v-6.1h.75v6.1h-.75ZM42.65,40.12c0-.81.21-1.42.63-1.82.36-.32.78-.49,1.29-.49.57,0,1.03.2,1.39.6.36.39.54.95.54,1.65,0,.57-.08,1.01-.24,1.34-.16.32-.39.58-.69.76-.31.19-.63.27-1,.27-.57,0-1.04-.2-1.39-.6-.36-.39-.53-.96-.53-1.71ZM43.36,40.13c0,.56.12.99.35,1.26.23.28.51.43.86.43s.63-.14.87-.43c.23-.28.34-.71.34-1.29,0-.55-.12-.96-.35-1.24s-.51-.42-.86-.42-.63.14-.86.42-.35.7-.35,1.27ZM49.97,42.34v-.56c-.26.43-.64.66-1.15.66-.32,0-.63-.09-.9-.29-.27-.2-.48-.47-.63-.81-.15-.35-.23-.75-.23-1.2s.07-.84.21-1.2.34-.63.62-.82c.27-.2.58-.29.91-.29.25,0,.47.06.67.17.19.11.35.26.47.43v-2.19h.7v6.1h-.65ZM47.77,40.13c0,.56.11.99.33,1.27.22.28.48.42.79.42s.56-.14.78-.4.32-.67.32-1.23c0-.6-.11-1.04-.32-1.32-.21-.29-.48-.43-.8-.43s-.57.14-.78.41c-.21.26-.31.7-.31,1.28ZM51.72,37.09v-.85h.7v.85h-.7ZM51.72,42.34v-4.42h.7v4.42h-.7ZM53.48,42.34v-4.42h.63v.63c.3-.49.74-.72,1.31-.72.25,0,.48.05.68.14s.36.22.47.38c.1.15.17.34.21.55.02.14.04.38.04.72v2.72h-.7v-2.69c0-.31-.02-.54-.08-.69-.06-.14-.15-.27-.29-.36-.14-.09-.3-.14-.49-.14-.29,0-.55.1-.76.31-.21.2-.32.58-.32,1.15v2.41h-.7ZM60.68,40.91l.72.1c-.11.45-.32.8-.63,1.05-.31.25-.7.38-1.17.38-.6,0-1.08-.2-1.43-.6-.36-.4-.53-.95-.53-1.67s.17-1.32.53-1.73.82-.61,1.39-.61.99.2,1.34.61c.35.4.52.96.52,1.7v.2h-3.07c.02.49.15.85.38,1.12.23.26.51.38.86.38.25,0,.47-.08.65-.22.18-.14.32-.38.43-.69ZM58.4,39.7h2.29c-.03-.38-.12-.65-.26-.84-.22-.29-.51-.43-.86-.43-.32,0-.59.11-.8.34-.22.23-.34.55-.36.93ZM67.23,39.94v-.72h2.4v2.26c-.36.32-.74.55-1.14.72-.39.16-.79.24-1.2.24-.56,0-1.06-.13-1.52-.38-.45-.26-.8-.63-1.03-1.12s-.35-1.02-.35-1.63.12-1.14.35-1.66c.23-.51.56-.9.99-1.14.44-.25.93-.38,1.5-.38.41,0,.78.07,1.12.21.33.14.59.34.78.6.19.26.33.59.43,1l-.67.2c-.09-.32-.19-.55-.32-.73-.13-.18-.31-.32-.55-.43-.23-.11-.49-.16-.78-.16-.34,0-.64.06-.89.17-.25.11-.45.26-.61.44-.15.18-.27.38-.36.61-.14.38-.21.78-.21,1.23,0,.55.09,1.01.26,1.37s.43.64.76.82c.33.17.68.26,1.05.26.32,0,.64-.07.95-.2s.55-.28.7-.43v-1.14h-1.66ZM73.33,41.78c-.26.24-.51.4-.74.5-.24.09-.5.14-.77.14-.45,0-.8-.12-1.05-.36-.25-.23-.36-.54-.36-.9,0-.21.05-.42.13-.6.1-.18.21-.32.36-.43s.32-.19.5-.25c.14-.03.35-.08.63-.11.56-.07.97-.15,1.24-.26v-.2c0-.31-.06-.52-.2-.64-.17-.17-.44-.26-.79-.26s-.57.06-.73.19c-.16.12-.27.34-.35.66l-.68-.1c.06-.32.17-.57.31-.76.14-.2.35-.34.62-.45.27-.1.58-.15.93-.15s.63.04.86.14c.22.09.38.2.48.33s.17.31.22.51c.02.13.03.36.03.69v.99c0,.7.02,1.13.05,1.32.02.19.08.37.17.54h-.73c-.07-.16-.11-.34-.13-.55ZM73.28,40.12c-.25.11-.63.2-1.14.28-.29.04-.49.09-.61.14-.12.06-.21.14-.28.25-.06.1-.1.22-.1.35,0,.2.07.37.21.5.14.13.35.2.62.2s.51-.06.71-.19c.21-.13.36-.3.46-.52.08-.16.12-.42.12-.74v-.27ZM75.04,42.34v-4.42h.63v.67c.16-.31.31-.52.44-.61.13-.1.29-.15.45-.15.23,0,.47.08.71.24l-.25.69c-.17-.1-.34-.15-.51-.15-.15,0-.29.05-.41.14-.12.1-.21.24-.25.41-.08.26-.12.56-.12.88v2.31h-.7ZM77.56,42.7l.67.1c.02.22.1.39.24.49.17.14.4.2.7.2.32,0,.57-.07.75-.2.17-.14.29-.33.36-.58.03-.15.05-.48.05-.96-.31.38-.68.58-1.14.58-.56,0-1-.22-1.31-.66-.32-.44-.47-.96-.47-1.58,0-.43.07-.81.21-1.17.14-.36.35-.63.62-.83s.59-.29.95-.29c.48,0,.88.21,1.2.64v-.55h.64v3.82c0,.69-.06,1.18-.2,1.47-.13.29-.33.51-.62.68-.28.16-.63.25-1.04.25-.49,0-.89-.12-1.19-.36-.3-.23-.44-.59-.44-1.07ZM78.13,40.05c0,.57.1,1,.32,1.26.22.26.48.4.81.4s.59-.14.81-.4c.21-.26.32-.67.32-1.24,0-.54-.11-.95-.33-1.22-.23-.27-.5-.41-.81-.41s-.58.14-.79.4c-.21.27-.32.67-.32,1.21ZM82.07,42.34v-6.1h.7v6.1h-.7ZM86.65,40.91l.72.1c-.11.45-.32.8-.63,1.05-.31.25-.7.38-1.17.38-.6,0-1.08-.2-1.43-.6-.36-.4-.53-.95-.53-1.67s.17-1.32.53-1.73.82-.61,1.39-.61.99.2,1.34.61c.35.4.52.96.52,1.7v.2h-3.07c.02.49.15.85.38,1.12.23.26.51.38.86.38.25,0,.47-.08.65-.22.18-.14.32-.38.43-.69ZM84.37,39.7h2.29c-.03-.38-.12-.65-.26-.84-.22-.29-.51-.43-.86-.43-.32,0-.59.11-.8.34-.22.23-.34.55-.36.93ZM93.91,41.62v.72h-3.75c0-.18.02-.36.08-.52.1-.27.25-.55.47-.81.21-.27.51-.58.91-.92.61-.55,1.03-.98,1.25-1.3.21-.32.32-.62.32-.9,0-.3-.1-.55-.29-.75s-.46-.31-.78-.31c-.34,0-.61.11-.81.32-.21.21-.31.51-.31.9l-.71-.08c.05-.57.24-1.01.55-1.31.32-.3.75-.45,1.29-.45s.97.16,1.29.49c.32.32.48.73.48,1.21,0,.25-.05.49-.14.72-.09.24-.25.49-.46.75s-.57.62-1.07,1.07c-.42.38-.69.63-.81.77s-.22.27-.29.41h2.78ZM94.79,37.7c0-.43.1-.81.31-1.11.21-.31.5-.46.89-.46.36,0,.65.14.89.41.23.27.35.67.35,1.2s-.12.91-.36,1.19c-.24.28-.52.42-.87.42s-.63-.14-.86-.41c-.22-.28-.34-.69-.34-1.24ZM96,36.65c-.17,0-.32.08-.43.24-.12.16-.17.45-.17.89,0,.38.06.66.17.82s.26.24.43.24c.18,0,.32-.08.44-.24.12-.16.17-.45.17-.88,0-.39-.06-.67-.17-.83-.12-.16-.26-.24-.44-.24ZM96.01,42.56l3.09-6.43h.57l-3.08,6.43h-.58ZM98.45,40.91c0-.44.1-.81.31-1.12.2-.3.5-.45.89-.45.36,0,.65.14.89.41.23.27.35.67.35,1.2s-.12.91-.36,1.19c-.23.28-.52.42-.87.42s-.63-.14-.86-.42c-.22-.27-.34-.69-.34-1.24ZM99.67,39.86c-.18,0-.32.08-.44.24-.12.16-.17.45-.17.89,0,.38.06.66.17.82s.26.24.43.24c.18,0,.32-.08.44-.24.12-.16.17-.45.17-.88,0-.39-.06-.67-.17-.83-.11-.16-.26-.24-.43-.24ZM104.83,42.34l-1.24-4.42h.73l.65,2.55.24.95c0-.05.08-.35.21-.91l.65-2.59h.71l.62,2.57.21.84.23-.85.71-2.56h.68l-1.29,4.42h-.72l-.66-2.65-.16-.75-.83,3.4h-.74ZM109.29,42.44l1.65-6.31h.56l-1.65,6.31h-.56ZM113.14,42.34l-1.55-4.42h.74l.88,2.65c.1.28.18.58.27.89.06-.23.14-.51.25-.84l.92-2.7h.71l-1.55,4.42h-.67Z"/>
      <path class="cls-2" d="M1.22,5.93h-.43l1.25-1.96-1.23-1.94h.35c.22,0,.41-.08.55-.23.15-.13.23-.31.23-.54,0-.13-.03-.25-.08-.38-.05-.12-.11-.22-.2-.3-.06-.06-.14-.11-.24-.15-.1-.03-.28-.05-.53-.05H.35v3.52h-.35V0h.97c.21,0,.38.02.52.05.12.03.23.09.35.18.15.12.26.26.33.43.08.16.12.35.12.58,0,.31-.08.57-.24.79-.16.21-.37.33-.62.36l.82,1.25.99-1.61h.42l-1.21,1.94,1.25,1.96h-.44l-1-1.65-1.03,1.65Z"/>
      <path class="cls-2" d="M121.26,30.14v-.54h1.93v1.69c-.29.24-.6.41-.92.54-.31.12-.64.18-.97.18-.45,0-.85-.1-1.22-.29-.36-.19-.64-.47-.83-.84-.18-.36-.28-.77-.28-1.22s.1-.85.28-1.24c.18-.38.45-.67.8-.85.35-.18.75-.28,1.21-.28.33,0,.63.05.9.16s.47.26.62.45c.15.19.27.44.34.75l-.54.15c-.07-.24-.15-.41-.26-.55-.1-.13-.25-.24-.44-.32-.18-.08-.4-.12-.62-.12-.27,0-.52.04-.71.13-.2.08-.36.19-.49.33-.12.13-.22.29-.29.45-.11.28-.17.59-.17.92,0,.41.07.75.21,1.03.14.27.34.48.61.61.27.13.55.2.85.2.26,0,.52-.05.77-.15.25-.1.44-.21.57-.33v-.85h-1.34ZM126.17,31.51c-.21.18-.41.3-.6.38-.19.07-.4.11-.62.11-.36,0-.64-.09-.84-.27-.2-.17-.29-.4-.29-.68,0-.16.04-.31.11-.45.08-.13.17-.24.29-.32.12-.08.26-.14.4-.18.11-.03.28-.06.5-.08.45-.05.78-.11,1-.19v-.15c0-.23-.05-.39-.16-.48-.14-.13-.36-.19-.64-.19s-.46.04-.59.14c-.13.09-.22.26-.28.49l-.55-.08c.05-.24.13-.43.25-.57.11-.15.28-.26.5-.34.22-.08.47-.11.75-.11s.51.03.69.1c.18.06.31.15.39.25.08.1.14.23.18.38.02.1.03.27.03.52v.74c0,.52.01.85.04.99.02.14.06.27.13.4h-.59c-.06-.12-.09-.26-.11-.41ZM126.13,30.27c-.2.08-.51.15-.92.21-.23.03-.4.07-.49.11-.1.04-.17.1-.22.18-.05.08-.08.17-.08.26,0,.15.06.27.17.38.11.1.28.15.5.15s.41-.04.57-.14c.17-.1.29-.22.37-.39.06-.12.1-.31.1-.55v-.2ZM127.55,31.93v-3.31h.5v.5c.13-.23.25-.39.36-.46.11-.08.23-.11.36-.11.18,0,.38.06.57.18l-.2.52c-.14-.08-.27-.11-.41-.11-.12,0-.24.04-.33.11-.1.08-.17.18-.2.31-.06.2-.1.42-.1.66v1.73h-.56ZM129.58,32.2l.54.08c.02.17.08.29.19.37.14.1.33.15.57.15.26,0,.46-.05.61-.15.14-.1.24-.25.29-.43.03-.11.04-.36.04-.72-.25.29-.55.43-.92.43-.45,0-.8-.17-1.05-.49-.26-.33-.38-.72-.38-1.18,0-.32.06-.61.17-.87.11-.27.28-.47.5-.62.22-.15.47-.22.77-.22.39,0,.71.16.96.48v-.41h.52v2.86c0,.52-.05.88-.16,1.1-.1.22-.27.38-.5.51-.22.12-.5.18-.84.18-.4,0-.71-.09-.96-.27-.24-.17-.36-.44-.35-.8ZM130.04,30.22c0,.43.08.75.26.94.18.2.39.3.65.3s.47-.1.65-.3c.17-.2.26-.5.26-.93,0-.4-.09-.71-.27-.91-.18-.2-.4-.31-.65-.31s-.47.1-.64.3c-.17.2-.26.5-.26.91ZM133.21,31.93v-4.57h.56v4.57h-.56ZM136.9,30.86l.58.08c-.09.34-.26.6-.5.78-.25.18-.56.28-.94.28-.48,0-.87-.15-1.15-.45-.29-.3-.43-.71-.43-1.25s.14-.99.43-1.29.66-.46,1.12-.46.8.15,1.08.45c.28.3.42.72.42,1.27v.15h-2.47c.02.36.12.64.31.84.18.19.41.29.69.29.2,0,.38-.06.52-.17.15-.11.26-.28.34-.52ZM135.06,29.96h1.84c-.03-.28-.1-.48-.21-.62-.18-.22-.41-.33-.69-.33-.26,0-.47.08-.64.26-.18.17-.27.41-.29.69Z"/>
    </g>
  </g>
</svg>