<?xml version="1.0" encoding="UTF-8"?>
<svg id="Layer_2" data-name="Layer 2" xmlns="http://www.w3.org/2000/svg" viewBox="0 0 172.42 32.77">
  <defs>
    <style>
      .cls-1 {
        fill: #f58220;
      }

      .cls-1, .cls-2, .cls-3, .cls-4 {
        fill-rule: evenodd;
      }

      .cls-5, .cls-3 {
        fill: #231f20;
      }

      .cls-2 {
        fill: #00a651;
      }

      .cls-6 {
        fill: #fff;
      }

      .cls-4 {
        fill: #00aeef;
      }
    </style>
  </defs>
  <g id="Layer_1-2" data-name="Layer 1">
    <g>
      <path class="cls-1" d="M129.95,18.38c0,.83.24,1.49.73,1.96.49.47,1.08.71,1.78.71.65,0,1.19-.21,1.63-.64.43-.43.65-1.06.65-1.91s-.23-1.53-.68-1.98c-.45-.45-1.02-.68-1.69-.68s-1.27.22-1.73.66c-.47.44-.7,1.07-.7,1.89M139.04,11.52l-4.91.52c-.13-.59-.34-1.01-.65-1.25-.31-.24-.68-.37-1.12-.37-.8,0-1.42.35-1.86,1.05-.32.5-.56,1.58-.72,3.23.59-.52,1.2-.9,1.82-1.15.62-.25,1.34-.37,2.16-.37,1.58,0,2.92.49,4.02,1.47,1.1.98,1.64,2.22,1.64,3.73,0,1.01-.28,1.94-.83,2.78-.55.84-1.32,1.48-2.3,1.9-.98.43-2.21.64-3.69.64-1.78,0-3.2-.26-4.28-.79-1.08-.52-1.94-1.36-2.58-2.51-.64-1.15-.96-2.67-.96-4.57,0-2.78.67-4.81,2.03-6.1,1.35-1.29,3.22-1.93,5.61-1.93,1.41,0,2.53.14,3.35.42.82.28,1.5.7,2.04,1.24.54.54.96,1.23,1.24,2.05Z"/>
      <polygon class="cls-4" points="0 4.82 122.14 4.82 115.11 26.62 0 26.62 0 4.82"/>
      <path class="cls-6" d="M107.95,20.87c.33-2.88.51-5.79.54-8.73h-.93s-.62.02-.62.02l-2.13.07.1-2.72v-.49c1.72.01,3.76.02,6.14.02h4.57s1.22-.02,1.22-.02l-.08,1.43c-.02.37-.04.72-.04,1.06,0,.33,0,.57,0,.72l-2.25-.08h-.5s-.9,0-.9,0c-.22,2.28-.36,5.19-.42,8.73-1.19-.02-1.93-.03-2.25-.03-.28,0-1.1,0-2.46.03M90.16,20.87c.22-2.52.37-4.66.45-6.42.08-1.76.12-3.26.12-4.5v-.9c1.13.01,1.97.02,2.51.02.42,0,1.18,0,2.28-.02-.16,1.72-.25,3.08-.28,4.08h3.75c.03-.52.05-1.11.07-1.76.02-.65.03-1.1.03-1.37,0-.22,0-.54-.02-.96l2.55.02c.24,0,.98,0,2.24-.02l-.37,5.69c-.05.87-.09,1.67-.1,2.4-.02.72-.03,1.45-.03,2.19v1.55s-2.31-.03-2.31-.03c-.31,0-1.15,0-2.51.03.15-1.27.25-2.78.29-4.52h-3.76l-.14,4.52-2.48-.03c-.28,0-1.04,0-2.28.03ZM83.09,13.87c.73.02,1.47.03,2.23.03,1.49,0,2.58,0,3.26-.03l-.1,1.17c-.02.25-.06.73-.1,1.44l-.17,2.85c-.01.25-.03.7-.05,1.35-.69.11-1.24.19-1.66.24-.43.04-.97.09-1.65.13-.67.04-1.22.06-1.65.06-.83,0-1.64-.06-2.43-.17-.79-.11-1.49-.31-2.11-.59-.62-.28-1.14-.67-1.55-1.16-.41-.49-.73-1.07-.95-1.74-.22-.67-.33-1.37-.33-2.08,0-.93.19-1.82.58-2.66.39-.85.94-1.57,1.65-2.17.71-.6,1.52-1.04,2.42-1.31.9-.27,1.97-.41,3.2-.41,1.32,0,2.78.15,4.39.46,0,1.01.05,2.14.14,3.39-.53-.17-.97-.3-1.31-.38-.34-.08-.73-.15-1.17-.21-.44-.06-.85-.08-1.22-.08-.54,0-1.06.07-1.55.21-.49.14-.93.36-1.3.67-.38.31-.67.69-.87,1.16-.21.46-.31.98-.31,1.55,0,.51.09.95.28,1.32.18.37.47.65.85.83.38.19.81.28,1.29.28.33,0,.7-.04,1.12-.12l.07-.99c-.26-.02-.53-.03-.8-.03h-.32c.07-1.27.12-2.27.13-2.99ZM69.32,20.87l.26-3.69c.07-1.03.14-2.17.2-3.4.05-1.23.08-2.39.08-3.48,0-.19,0-.61-.02-1.26h1.3c.47.01.87.02,1.21.02.14,0,.91,0,2.28-.02-.11,1.37-.2,2.68-.27,3.9-.09,1.55-.14,2.89-.17,4.01-.03,1.13-.04,2.43-.04,3.92l-2.18-.03c-.4,0-1.28,0-2.63.03ZM57.85,20.87c.12-1.01.2-1.81.25-2.42.05-.61.1-1.42.15-2.43.05-1.01.09-2.14.14-3.39.04-1.25.06-2.18.06-2.78,0-.17,0-.44,0-.82,1.9.01,3.65.02,5.27.02h2.96s1.77-.02,1.77-.02l-.09,1.59c-.04.54-.06,1.07-.07,1.59l-1.05-.03h-.74c-.19-.01-.8-.02-1.84-.02-.2,0-.75,0-1.67.03l-.06,1.19c.84.02,1.65.03,2.42.03.37,0,1,0,1.87-.03l-.07,1.34c-.02.41-.03,1-.04,1.76-.92-.03-1.53-.04-1.81-.04-.69,0-1.54.01-2.53.04l-.09,2.95v1.08s0,.36,0,.36l-2.29-.03-2.5.03ZM51.1,20.87l.26-3.69c.07-1.03.14-2.17.2-3.4.05-1.23.08-2.39.08-3.48,0-.19,0-.61-.02-1.26h1.3c.47.01.87.02,1.21.02.14,0,.91,0,2.28-.02-.11,1.37-.2,2.68-.27,3.9-.09,1.55-.14,2.89-.17,4.01-.03,1.13-.04,2.43-.04,3.92l-2.18-.03c-.4,0-1.28,0-2.63.03ZM36.56,20.87c.7-.89,1.52-1.97,2.45-3.24.94-1.27,1.68-2.31,2.23-3.14l-1.62-2.78-1.19-1.92c-.05-.08-.2-.33-.46-.75.93.01,1.87.02,2.82.02.74,0,1.56,0,2.44-.02l.59,1.26c.18.36.38.8.6,1.33.17-.33.32-.63.47-.89l.93-1.69c.76.01,1.57.02,2.44.02.55,0,1.37,0,2.45-.02l-2.58,3.6-1.49,2.18c1.05,1.84,2.28,3.86,3.72,6.06-1.14-.02-1.98-.03-2.51-.03-.93,0-1.86,0-2.79.03l-.75-1.53c-.2-.41-.46-.96-.77-1.66l-.19.35c-.04.08-.1.17-.16.28-.06.1-.15.25-.26.43l-1.34,2.12c-1.06-.02-1.87-.03-2.45-.03-.64,0-1.5,0-2.56.03ZM29.8,12.01c-.53,0-1.03.14-1.48.42-.46.28-.8.66-1.04,1.16-.24.49-.36,1.01-.36,1.53s.11.97.33,1.38c.22.41.54.74.98.99.43.25.89.37,1.37.37.52,0,1-.14,1.45-.42.44-.28.79-.67,1.03-1.16.25-.49.37-.99.37-1.5s-.12-.96-.34-1.4c-.23-.43-.54-.77-.95-1.01-.4-.24-.86-.36-1.36-.36ZM29.94,8.81c.98,0,1.93.13,2.84.39.91.26,1.69.66,2.36,1.21.66.55,1.15,1.18,1.48,1.89.32.71.48,1.52.48,2.43,0,.96-.18,1.84-.54,2.64-.36.8-.88,1.49-1.58,2.07-.69.58-1.52,1-2.47,1.26-.95.26-1.94.39-2.97.39s-1.97-.12-2.89-.38c-.92-.25-1.73-.66-2.41-1.23-.69-.56-1.19-1.19-1.5-1.88-.31-.69-.46-1.5-.46-2.44,0-.99.18-1.88.55-2.67.37-.79.9-1.46,1.62-2.01.71-.55,1.53-.97,2.47-1.26.93-.29,1.94-.43,3.04-.43ZM5.44,20.87l.23-1.92.53-5.92.27-4c1.15.01,2.18.02,3.08.02.77,0,1.7,0,2.81-.02.14,1.01.3,2.02.48,3.03.17,1.02.33,2.11.47,3.28l.35-1.5,1.33-4.82c.92.01,1.95.02,3.1.02.85,0,1.81,0,2.87-.02l-.2,3.96-.17,5.99c0,.25,0,.46,0,.64,0,.35,0,.77,0,1.24-.95-.02-1.6-.03-1.94-.03-.53,0-1.2,0-2,.03.05-.62.12-1.76.19-3.41.08-1.65.12-2.75.12-3.29,0-.23,0-.55-.02-.96l-1.27,4.63-.87,3.04c-.94-.02-1.56-.03-1.87-.03-.4,0-1.06,0-2,.03-.22-1.4-.46-2.82-.72-4.24-.26-1.42-.45-2.57-.56-3.43l-.13,1.21c-.02.29-.05.64-.08,1.04-.03.4-.07,1.16-.13,2.29l-.09,2.01c0,.22-.01.59-.02,1.12-1-.02-1.62-.03-1.86-.03-.34,0-.97,0-1.9.03Z"/>
      <path class="cls-2" d="M159.86,8.07h11.71v3.42h-7.93l-.42,2.3c.55-.22,1.09-.39,1.63-.5.54-.11,1.07-.17,1.59-.17,1.77,0,3.22.47,4.32,1.4,1.1.93,1.66,2.1,1.66,3.51,0,.99-.29,1.94-.85,2.86-.57.92-1.38,1.61-2.42,2.1-1.05.48-2.39.72-4.02.72-1.17,0-2.18-.1-3.01-.29-.84-.19-1.55-.48-2.13-.86-.59-.38-1.06-.81-1.42-1.3-.36-.48-.67-1.08-.91-1.81l4.99-.47c.12.69.41,1.22.85,1.59.45.36.98.54,1.59.54.69,0,1.26-.23,1.7-.68.45-.45.67-1.12.67-2.02s-.23-1.59-.68-2.01c-.45-.43-1.05-.64-1.8-.64-.48,0-.94.1-1.38.3-.33.15-.7.41-1.09.8l-4.21-.53,1.56-8.27Z"/>
      <path class="cls-4" d="M155.74,23.45h-14.82c.17-1.26.69-2.46,1.55-3.57.86-1.12,2.47-2.43,4.84-3.95,1.45-.93,2.37-1.64,2.78-2.12.41-.48.61-.94.61-1.38,0-.47-.2-.87-.6-1.2-.4-.33-.91-.5-1.51-.5s-1.15.17-1.55.52c-.4.35-.67.95-.81,1.83l-4.94-.35c.19-1.21.55-2.14,1.07-2.82.52-.68,1.25-1.19,2.18-1.55.94-.36,2.25-.54,3.91-.54s3.09.17,4.05.52c.96.34,1.72.87,2.28,1.58.55.71.83,1.51.83,2.39,0,.93-.32,1.83-.95,2.69-.63.85-1.79,1.79-3.46,2.81-.99.59-1.66,1.01-1.99,1.25-.34.24-.73.55-1.18.93h7.71v3.48Z"/>
      <path class="cls-5" d="M121.91,4.22V.5h-1.39v-.5h3.34v.5h-1.39v3.72h-.56ZM124.42,4.22V0h.84l1,2.99c.09.28.16.48.21.62.05-.15.12-.38.22-.68l1.01-2.93h.75v4.22h-.54V.69l-1.23,3.53h-.5l-1.22-3.59v3.59h-.54Z"/>
      <path class="cls-3" d="M168.8,31.49l.63-.08c.03.21.13.37.3.48.16.11.39.17.68.17s.51-.05.65-.15c.14-.1.21-.21.21-.35,0-.12-.06-.21-.19-.28-.09-.05-.31-.11-.65-.18-.47-.1-.79-.18-.97-.25-.18-.07-.32-.17-.41-.29-.09-.12-.14-.26-.14-.41,0-.14.04-.27.11-.38.08-.12.18-.22.31-.29.1-.06.23-.11.4-.15.17-.04.35-.06.55-.06.29,0,.55.03.77.11.22.07.39.17.49.28.1.12.18.28.22.48l-.62.07c-.03-.16-.11-.29-.24-.38-.14-.09-.33-.14-.57-.14-.29,0-.5.04-.62.12-.12.08-.19.17-.19.28,0,.07.03.13.08.18.05.06.13.1.24.14.06.02.25.06.56.13.45.1.76.18.94.24.18.06.32.16.42.27.1.12.15.27.15.45s-.06.34-.19.49c-.12.15-.3.27-.54.36-.23.08-.5.13-.79.13-.49,0-.86-.08-1.12-.25-.26-.17-.42-.41-.49-.74M166.21,31.95l.09.46c-.18.03-.34.05-.48.05-.23,0-.41-.03-.54-.09-.13-.06-.22-.14-.27-.24-.05-.1-.08-.31-.08-.62v-1.79h-.47v-.41h.47v-.77l.64-.32v1.08h.64v.41h-.64v1.82c0,.15.01.25.03.29.02.04.06.08.11.1.05.02.12.04.22.04.07,0,.16,0,.28-.02ZM159.07,30.57h2.09c-.03-.26-.11-.46-.24-.59-.2-.2-.46-.3-.79-.3-.29,0-.54.08-.74.24-.2.16-.31.38-.33.65ZM161.15,31.42l.66.07c-.1.32-.29.56-.57.74-.28.17-.64.26-1.07.26-.55,0-.98-.14-1.3-.42-.32-.28-.48-.67-.48-1.17s.16-.92.49-1.21c.32-.29.75-.43,1.26-.43s.91.14,1.23.42c.32.28.48.68.48,1.19,0,.03,0,.08,0,.14h-2.8c.02.34.14.6.35.78.21.18.47.27.78.27.23,0,.43-.05.6-.15.17-.1.3-.26.39-.49ZM154.75,32.42v-4.28h.64v4.28h-.64ZM149.11,30.85c0,.37.06.64.18.8.2.27.47.41.81.41.28,0,.52-.1.72-.3.2-.2.3-.5.3-.89s-.1-.7-.29-.89c-.19-.19-.43-.29-.71-.29s-.52.1-.72.3c-.2.2-.3.49-.3.86ZM149.12,32.42h-.59v-4.28h.64v1.53c.27-.28.61-.42,1.03-.42.23,0,.45.04.66.11.21.08.38.19.51.32.13.14.24.31.31.5.08.2.11.41.11.63,0,.53-.16.94-.48,1.23-.32.29-.7.43-1.15.43s-.79-.15-1.04-.46v.39ZM144.69,30.87c-.23.08-.58.14-1.04.2-.26.03-.45.07-.56.1-.11.04-.19.1-.25.17-.06.07-.09.16-.09.25,0,.14.06.26.19.35.13.09.32.14.56.14s.46-.04.66-.13c.19-.09.33-.21.42-.36.07-.12.1-.29.1-.52v-.19ZM144.74,32.03c-.24.17-.46.28-.68.35-.22.07-.45.1-.7.1-.41,0-.73-.08-.95-.25-.22-.17-.33-.38-.33-.64,0-.15.04-.29.13-.42.08-.13.19-.23.33-.3.14-.08.29-.13.46-.17.13-.03.32-.05.57-.08.51-.05.89-.11,1.14-.18,0-.07,0-.12,0-.14,0-.21-.06-.36-.18-.45-.16-.12-.41-.18-.73-.18-.3,0-.52.04-.66.13-.14.09-.25.24-.32.46l-.62-.07c.06-.22.15-.4.28-.53.13-.14.32-.24.56-.31.25-.07.53-.11.85-.11s.58.03.78.09c.2.06.35.14.44.24.09.09.16.21.2.36.02.09.03.25.03.48v.7c0,.49.01.79.04.93.03.13.08.25.16.37h-.67c-.06-.11-.11-.24-.12-.39ZM137.85,32.42v-3.78h-1.71v-.5h4.11v.5h-1.71v3.78h-.69Z"/>
      <path class="cls-5" d="M31.2,29.95c0-.29-.02-.53-.05-.72-.03-.19-.09-.33-.17-.42-.08-.1-.19-.14-.32-.14-.2,0-.34.11-.41.32-.08.21-.12.54-.12.99,0,.3.02.55.05.74.03.19.09.34.17.44.08.1.18.15.32.15s.25-.05.32-.15c.08-.1.13-.25.16-.44.03-.19.05-.44.05-.75M31.81,30c0,.26-.02.49-.05.68-.03.19-.09.36-.17.52-.1.19-.23.34-.4.44-.16.1-.34.15-.54.15-.23,0-.43-.07-.61-.21-.18-.14-.32-.33-.41-.57-.05-.13-.08-.28-.1-.44-.02-.16-.03-.34-.03-.52,0-.24.01-.46.04-.65.02-.19.06-.36.11-.5.09-.23.22-.41.39-.53.17-.12.37-.18.6-.18.15,0,.29.03.42.08.13.05.24.13.33.24.1.1.18.23.24.38.11.26.17.64.17,1.12ZM28.69,28.8h-1.07l-.13.78c.21-.12.41-.18.59-.18.14,0,.28.03.4.09.13.06.23.14.33.24.09.1.17.22.22.36.05.14.08.29.08.45,0,.23-.05.44-.15.64-.1.19-.24.34-.42.45-.18.11-.39.17-.63.17-.27,0-.49-.05-.65-.16-.17-.11-.29-.23-.36-.36-.07-.14-.1-.26-.1-.36,0-.06.02-.12.07-.18.05-.06.11-.08.18-.08.13,0,.22.08.28.23.06.14.14.25.24.33.1.08.22.12.34.12.12,0,.22-.03.3-.1.09-.06.15-.15.2-.27.05-.11.07-.24.07-.38,0-.15-.03-.29-.08-.39-.05-.11-.12-.19-.2-.24-.09-.05-.18-.08-.29-.08-.13,0-.22.02-.28.05-.06.03-.14.09-.24.18-.1.08-.19.13-.26.13-.07,0-.14-.03-.2-.09-.06-.06-.09-.12-.09-.19,0,0,0-.06.02-.16l.19-1.15c.02-.14.06-.24.12-.3.06-.06.15-.09.28-.09h1.19c.23,0,.35.1.35.29,0,.08-.03.15-.09.2-.06.05-.14.08-.25.08Z"/>
      <path class="cls-5" d="M79.8,28.81c-.09,0-.16-.03-.22-.08-.06-.06-.09-.14-.09-.24,0-.09.03-.17.09-.23.06-.06.13-.09.22-.09s.15.03.21.08c.06.06.09.13.09.24s-.03.18-.09.24c-.06.06-.13.09-.21.09M80.1,29.49v1.9c0,.13-.03.23-.09.3-.06.07-.13.1-.22.1s-.16-.03-.22-.1c-.06-.07-.08-.17-.08-.3v-1.88c0-.13.03-.23.08-.29.06-.07.13-.1.22-.1s.16.03.22.1c.06.07.09.16.09.27ZM78.95,30.98c0,.08-.02.17-.07.26-.05.09-.12.18-.21.27-.09.08-.21.15-.35.2-.14.05-.3.08-.48.08-.38,0-.68-.12-.89-.36-.21-.24-.32-.55-.32-.95,0-.27.05-.51.15-.72.1-.21.24-.37.42-.48.19-.11.41-.17.66-.17.16,0,.3.02.44.07.13.05.24.11.34.19.09.08.16.16.21.25.05.09.07.17.07.25s-.03.15-.08.2c-.06.05-.12.08-.2.08-.05,0-.09-.01-.13-.04-.03-.03-.07-.07-.11-.14-.08-.12-.15-.21-.23-.27-.08-.06-.19-.09-.31-.09-.18,0-.33.08-.44.23-.11.15-.17.36-.17.62,0,.12.01.24.04.34.03.1.07.19.12.26.05.07.12.13.2.17.08.04.16.06.25.06.12,0,.23-.03.32-.09.09-.06.17-.15.23-.28.04-.07.08-.13.12-.17.04-.04.1-.06.16-.06.08,0,.14.03.19.09.05.06.07.13.07.19ZM74.27,30.35h.98l-.5-1.45-.49,1.45ZM75.59,31.33l-.16-.44h-1.34l-.16.45c-.06.18-.11.3-.16.36-.04.06-.11.09-.21.09-.08,0-.16-.03-.22-.1-.06-.07-.1-.14-.1-.22,0-.05,0-.1.02-.15.02-.05.04-.12.07-.21l.84-2.29c.02-.07.05-.14.09-.24.03-.09.07-.17.11-.23.04-.06.09-.11.15-.15.06-.04.14-.06.23-.06s.17.02.23.06c.06.04.11.09.15.15.04.06.07.12.1.19.03.07.06.16.1.27l.86,2.28c.07.17.1.3.1.38s-.03.16-.1.23c-.06.07-.14.1-.23.1-.05,0-.1,0-.14-.03-.04-.02-.07-.05-.09-.08-.03-.03-.05-.09-.08-.16-.03-.07-.05-.13-.08-.19ZM71.75,30.98c0,.08-.02.17-.07.26-.05.09-.12.18-.21.27-.09.08-.21.15-.35.2-.14.05-.3.08-.48.08-.38,0-.68-.12-.89-.36-.21-.24-.32-.55-.32-.95,0-.27.05-.51.15-.72.1-.21.24-.37.42-.48.18-.11.41-.17.66-.17.16,0,.3.02.44.07.13.05.24.11.34.19.09.08.16.16.21.25.05.09.07.17.07.25s-.03.15-.08.2c-.06.05-.12.08-.2.08-.05,0-.09-.01-.13-.04-.03-.03-.07-.07-.11-.14-.08-.12-.15-.21-.23-.27-.08-.06-.19-.09-.31-.09-.18,0-.33.08-.44.23-.11.15-.17.36-.17.62,0,.12.01.24.04.34.03.1.07.19.12.26.05.07.12.13.2.17.08.04.16.06.25.06.12,0,.23-.03.32-.09.09-.06.17-.15.23-.28.04-.07.08-.13.12-.17.04-.04.1-.06.16-.06.08,0,.14.03.19.09.05.06.07.13.07.19ZM68.61,28.81c-.09,0-.16-.03-.22-.08-.06-.06-.09-.14-.09-.24,0-.09.03-.17.09-.23.06-.06.13-.09.22-.09s.15.03.21.08c.06.06.09.13.09.24s-.03.18-.09.24c-.06.06-.13.09-.21.09ZM68.92,29.49v1.9c0,.13-.03.23-.09.3-.06.07-.13.1-.22.1s-.16-.03-.22-.1c-.06-.07-.08-.17-.08-.3v-1.88c0-.13.03-.23.08-.29.06-.07.13-.1.22-.1s.16.03.22.1c.06.07.09.16.09.27ZM66.08,29.48v.08c.11-.15.23-.26.35-.34.13-.07.28-.11.44-.11s.31.04.43.11c.13.07.22.18.29.32.04.08.07.17.08.26.01.09.02.21.02.36v1.22c0,.13-.03.23-.08.3-.06.07-.13.1-.22.1s-.17-.03-.22-.1c-.06-.07-.09-.17-.09-.3v-1.1c0-.22-.03-.38-.08-.5-.06-.11-.17-.17-.34-.17-.11,0-.21.03-.3.1-.09.07-.16.17-.2.29-.03.1-.05.28-.05.55v.82c0,.13-.03.23-.09.3-.06.07-.13.1-.22.1s-.16-.03-.22-.1c-.06-.07-.09-.17-.09-.3v-1.9c0-.12.03-.22.08-.28.05-.06.12-.09.21-.09.05,0,.1.01.15.04.04.03.08.07.1.12.03.05.04.12.04.2ZM64.3,30.47c-.09.04-.22.07-.39.11-.17.04-.29.07-.36.09-.07.02-.13.06-.19.11-.06.05-.09.13-.09.23s.04.18.11.25c.07.07.16.11.28.11.12,0,.23-.03.34-.09.1-.06.18-.13.23-.22.06-.1.08-.26.08-.49v-.09ZM64.34,31.42c-.15.12-.29.22-.43.28-.14.06-.29.09-.47.09-.16,0-.3-.03-.42-.1-.12-.07-.21-.16-.28-.27-.06-.11-.1-.24-.1-.37,0-.18.05-.33.16-.46.11-.13.25-.21.44-.26.04,0,.14-.03.29-.06.15-.03.29-.06.4-.09.11-.03.23-.06.36-.1,0-.17-.04-.3-.1-.38-.06-.08-.18-.12-.36-.12-.16,0-.27.02-.35.07-.08.05-.15.12-.2.21-.06.09-.1.15-.12.18-.02.03-.07.04-.15.04-.07,0-.13-.02-.18-.07-.05-.05-.08-.11-.08-.18,0-.12.04-.23.11-.34.08-.11.2-.2.36-.27.16-.07.36-.11.61-.11.27,0,.48.03.64.1.15.07.26.18.33.32.06.15.1.34.1.59,0,.15,0,.29,0,.39,0,.11,0,.23,0,.36,0,.12.02.25.06.39.04.13.06.22.06.26,0,.07-.03.13-.09.18-.06.06-.13.08-.2.08-.06,0-.13-.03-.19-.09-.06-.06-.13-.15-.2-.27ZM61.54,31.39v-2.85c0-.13.03-.23.08-.3.05-.07.13-.1.22-.1s.17.03.22.1c.06.07.09.17.09.3v2.85c0,.13-.03.23-.09.3-.06.07-.13.1-.22.1s-.16-.03-.22-.1c-.06-.07-.08-.17-.08-.3ZM60.35,31.42v-.08c-.07.1-.15.18-.23.25-.08.07-.17.12-.26.15-.1.03-.2.05-.33.05-.15,0-.28-.03-.4-.1-.12-.07-.21-.16-.27-.27-.08-.14-.11-.34-.11-.6v-1.3c0-.13.03-.23.08-.3.06-.06.13-.1.22-.1s.17.03.22.1c.06.07.09.16.09.29v1.05c0,.15.01.28.04.38.02.1.07.19.13.24.06.06.15.09.25.09s.2-.03.29-.1c.09-.07.16-.15.2-.26.03-.09.05-.3.05-.61v-.8c0-.13.03-.23.09-.29.06-.07.13-.1.22-.1s.16.03.22.1c.06.06.08.16.08.3v1.9c0,.12-.03.22-.08.28-.05.06-.12.09-.21.09s-.15-.03-.21-.1c-.05-.06-.08-.16-.08-.27ZM56.7,29.53l.5,1.49.53-1.56c.04-.12.08-.21.12-.27.04-.05.1-.08.18-.08s.14.03.2.08c.05.06.08.12.08.19,0,.03,0,.06-.01.1-.01.04-.02.07-.03.11-.01.03-.03.07-.04.12l-.59,1.57s-.04.1-.06.17c-.03.07-.06.13-.09.18-.03.05-.07.09-.12.11-.05.03-.1.04-.17.04-.09,0-.16-.02-.21-.06-.05-.04-.09-.09-.11-.14-.02-.05-.07-.15-.13-.3l-.58-1.55s-.03-.08-.04-.12c-.01-.04-.03-.08-.04-.12,0-.04-.01-.07-.01-.1,0-.05.01-.09.04-.13.03-.04.06-.08.11-.11.05-.03.09-.04.15-.04.1,0,.17.03.21.09.04.06.08.17.13.32ZM55.15,30.47c-.09.04-.22.07-.39.11-.17.04-.29.07-.36.09-.07.02-.13.06-.19.11-.06.05-.09.13-.09.23s.04.18.11.25c.07.07.16.11.28.11.12,0,.23-.03.34-.09.1-.06.18-.13.23-.22.06-.1.08-.26.08-.49v-.09ZM55.19,31.42c-.15.12-.29.22-.43.28-.14.06-.29.09-.47.09-.16,0-.3-.03-.42-.1-.12-.07-.21-.16-.28-.27-.06-.11-.1-.24-.1-.37,0-.18.05-.33.16-.46.11-.13.25-.21.44-.26.04,0,.14-.03.29-.06.15-.03.29-.06.4-.09.11-.03.23-.06.36-.1,0-.17-.04-.3-.1-.38-.06-.08-.18-.12-.36-.12-.16,0-.27.02-.35.07-.08.05-.15.12-.2.21-.06.09-.1.15-.12.18-.02.03-.07.04-.15.04-.07,0-.13-.02-.18-.07-.05-.05-.08-.11-.08-.18,0-.12.04-.23.11-.34.08-.11.2-.2.36-.27.16-.07.36-.11.61-.11.27,0,.48.03.64.1.15.07.26.18.33.32.06.15.1.34.1.59,0,.15,0,.29,0,.39,0,.11,0,.23,0,.36,0,.12.02.25.06.39.04.13.06.22.06.26,0,.07-.03.13-.09.18-.06.06-.13.08-.2.08-.06,0-.13-.03-.19-.09-.06-.06-.13-.15-.2-.27ZM52.4,31.39v-2.85c0-.13.03-.23.08-.3.05-.07.13-.1.22-.1s.17.03.22.1c.06.07.09.17.09.3v2.85c0,.13-.03.23-.09.3-.06.07-.13.1-.22.1s-.16-.03-.22-.1c-.06-.07-.08-.17-.08-.3ZM51.84,30.62c0,.11-.03.23-.08.36-.05.13-.13.26-.24.38-.11.13-.25.23-.42.31-.17.08-.37.12-.6.12-.17,0-.33-.02-.47-.05-.14-.04-.27-.09-.39-.17-.12-.07-.22-.17-.32-.29-.09-.11-.16-.23-.22-.37-.06-.14-.11-.28-.14-.44-.03-.16-.05-.32-.05-.5,0-.28.04-.54.12-.76.08-.23.19-.42.33-.58.14-.16.31-.28.51-.36.19-.08.4-.13.62-.13.27,0,.5.06.71.17.21.11.37.25.48.42.11.17.17.33.17.48,0,.08-.03.15-.08.22-.05.06-.12.09-.2.09-.09,0-.15-.02-.19-.06-.04-.04-.09-.12-.14-.22-.09-.18-.19-.31-.31-.39-.12-.09-.26-.13-.44-.13-.27,0-.49.11-.66.33-.16.22-.24.54-.24.95,0,.27.04.5.11.69.07.18.17.32.31.41.13.09.29.13.46.13.19,0,.35-.05.49-.15.13-.1.23-.25.3-.45.03-.09.06-.17.11-.23.04-.06.11-.09.2-.09.08,0,.15.03.2.09.06.06.09.13.09.22ZM45.6,29.44c.15-.1.26-.19.33-.26.07-.07.1-.16.1-.26s-.03-.18-.1-.25c-.07-.07-.15-.1-.26-.1s-.19.03-.26.1c-.07.07-.1.15-.1.24,0,.05.01.1.04.16.03.06.06.11.1.16.04.06.09.12.15.21ZM45.37,30.1c-.15.09-.27.19-.34.28-.08.09-.11.21-.11.34,0,.07.01.14.04.21.03.07.07.13.12.19.05.06.12.1.19.13.07.03.14.05.22.05s.15-.01.22-.04c.07-.03.14-.06.2-.11.06-.05.13-.11.2-.18-.13-.13-.25-.26-.36-.39-.11-.13-.23-.29-.38-.48ZM44.73,28.95c0-.15.04-.29.11-.41.07-.12.18-.22.32-.29.14-.07.31-.11.5-.11s.35.04.49.11c.14.07.24.17.31.3.07.12.1.25.1.38,0,.18-.06.34-.17.47-.11.13-.27.27-.49.41.08.1.14.18.21.27.06.08.13.16.19.23.06.07.11.13.16.19.02-.05.06-.13.1-.25.05-.12.09-.21.13-.27.04-.05.1-.08.17-.08s.13.03.19.08c.05.05.08.12.08.2,0,.07-.02.17-.07.3-.05.13-.11.27-.2.43.06.05.14.13.26.23.12.1.19.17.22.21.03.04.04.09.04.15,0,.08-.03.15-.08.21-.06.06-.12.09-.19.09s-.14-.02-.2-.07c-.07-.05-.21-.17-.42-.35-.1.1-.2.18-.3.24-.1.06-.22.11-.33.14-.12.03-.25.05-.4.05-.19,0-.36-.03-.5-.09-.15-.06-.27-.14-.37-.24-.1-.1-.17-.21-.22-.33-.05-.12-.07-.24-.07-.37s.02-.23.05-.33c.04-.1.09-.19.15-.27.07-.08.15-.16.24-.23.1-.07.21-.14.33-.21-.11-.15-.2-.29-.26-.4-.06-.12-.09-.24-.09-.36ZM40.79,30.43c0,.27.05.47.16.6.11.14.25.2.42.2.1,0,.2-.03.29-.09.09-.06.16-.15.22-.26.06-.12.09-.26.09-.43,0-.27-.06-.48-.16-.63-.11-.15-.25-.22-.43-.22s-.32.07-.42.21c-.11.14-.16.35-.16.61ZM42.57,29.6v1.91c0,.22-.02.41-.07.56-.04.16-.11.29-.21.39-.1.1-.22.18-.38.23-.15.05-.35.07-.58.07-.21,0-.4-.03-.57-.1-.17-.06-.29-.15-.38-.25-.09-.1-.13-.2-.13-.31,0-.08.03-.15.08-.2.05-.05.11-.08.18-.08.09,0,.17.04.24.13.03.04.07.09.1.13.04.04.07.08.12.11.04.03.09.06.15.07.06.02.13.02.21.02.16,0,.28-.02.37-.07.09-.05.15-.11.18-.2.04-.08.06-.18.06-.27,0-.1.01-.25.01-.47-.09.14-.2.25-.33.32-.12.07-.27.11-.44.11-.21,0-.39-.06-.54-.17-.15-.11-.27-.27-.35-.47-.08-.2-.12-.44-.12-.7,0-.2.03-.38.08-.54.05-.16.12-.29.21-.4.09-.11.2-.19.32-.25.12-.06.25-.08.4-.08.17,0,.32.04.45.11.13.07.25.18.35.34v-.09c0-.11.03-.2.08-.27.05-.06.12-.09.2-.09.12,0,.2.04.24.12.04.08.06.2.06.36ZM38.28,30.5v.87c0,.14-.03.24-.09.31-.06.07-.14.1-.23.1s-.17-.03-.23-.1c-.06-.07-.09-.17-.09-.31v-1.05c0-.17,0-.29-.02-.39,0-.09-.04-.17-.09-.23-.05-.06-.12-.09-.22-.09-.2,0-.33.07-.4.22-.06.15-.1.36-.1.64v.89c0,.14-.03.24-.09.31-.06.07-.13.1-.23.1s-.17-.03-.23-.1c-.06-.07-.09-.17-.09-.31v-1.88c0-.12.03-.22.08-.28.05-.06.12-.1.21-.1s.15.03.21.09c.06.06.08.14.08.25v.06c.11-.14.22-.24.34-.3.12-.06.26-.1.4-.1.16,0,.29.03.4.1.11.07.2.17.27.3.1-.13.21-.23.33-.3.12-.06.25-.1.39-.1.17,0,.31.04.43.11.12.07.21.17.27.3.05.12.08.31.08.56v1.28c0,.14-.03.24-.09.31-.06.07-.14.1-.23.1s-.17-.03-.23-.1-.09-.17-.09-.31v-1.11c0-.14,0-.25-.02-.34-.01-.08-.04-.16-.09-.21-.05-.06-.12-.09-.22-.09-.08,0-.16.03-.23.08-.07.05-.13.12-.17.21-.05.11-.07.31-.07.59ZM33.93,29.95c0-.29-.02-.53-.05-.72-.03-.19-.09-.33-.17-.42-.08-.1-.19-.14-.32-.14-.2,0-.34.11-.41.32-.08.21-.12.54-.12.99,0,.3.02.55.05.74.03.19.09.34.17.44.08.1.18.15.32.15s.25-.05.32-.15c.08-.1.13-.25.16-.44.03-.19.05-.44.05-.75ZM34.55,30c0,.26-.02.49-.05.68-.03.19-.09.36-.17.52-.1.19-.23.34-.4.44-.16.1-.34.15-.54.15-.23,0-.43-.07-.61-.21-.18-.14-.32-.33-.41-.57-.05-.13-.08-.28-.1-.44-.02-.16-.03-.34-.03-.52,0-.24.01-.46.04-.65.02-.19.06-.36.11-.5.09-.23.22-.41.39-.53.17-.12.37-.18.6-.18.15,0,.29.03.42.08.13.05.24.13.33.24.1.1.18.23.24.38.11.26.17.64.17,1.12Z"/>
      <path class="cls-5" d="M117.95,30.93c0,.18-.04.34-.12.47-.08.13-.2.23-.37.29-.16.07-.36.1-.59.1s-.41-.04-.57-.11c-.16-.07-.27-.16-.35-.27-.07-.11-.11-.22-.11-.33,0-.07.02-.13.07-.18.05-.05.11-.08.18-.08.06,0,.11.02.15.05.03.03.07.08.1.14.06.12.14.2.23.26.09.06.21.09.36.09.12,0,.22-.03.3-.09.08-.06.12-.13.12-.2,0-.12-.04-.2-.12-.25-.08-.05-.22-.1-.4-.15-.21-.06-.38-.12-.52-.18-.13-.06-.24-.14-.32-.24-.08-.1-.12-.23-.12-.37,0-.13.04-.26.11-.37.07-.12.18-.21.33-.28.14-.07.32-.11.52-.11.16,0,.3.02.43.05.13.04.23.08.32.14.09.06.15.13.19.2.04.07.07.14.07.21,0,.07-.02.14-.07.18-.05.05-.11.07-.2.07-.06,0-.12-.02-.16-.06-.04-.04-.09-.1-.15-.17-.05-.06-.1-.12-.16-.15-.06-.04-.15-.06-.26-.06s-.2.03-.28.08c-.07.05-.11.11-.11.19,0,.07.03.13.08.17.05.04.13.08.22.11.09.03.22.06.38.11.19.05.35.11.47.18.12.07.21.15.27.24.06.09.09.2.09.32M114.38,29.18h.07v-.4c0-.11,0-.19,0-.25,0-.06.02-.11.04-.16.02-.05.06-.08.1-.11.04-.03.09-.04.15-.04.08,0,.15.03.21.09.04.04.07.09.08.15.01.06.02.15.02.26v.45h.22c.09,0,.15.02.2.07.05.04.07.1.07.17,0,.09-.03.15-.1.19-.07.04-.16.05-.28.05h-.11v1.21c0,.1,0,.18,0,.24,0,.06.02.1.05.13.03.03.08.05.14.05.04,0,.08,0,.15-.02.06-.01.11-.02.14-.02.05,0,.09.02.13.06.04.04.06.1.06.16,0,.11-.05.19-.16.24-.11.06-.26.08-.47.08-.19,0-.34-.03-.44-.1-.1-.07-.16-.16-.19-.29-.03-.12-.05-.28-.05-.49v-1.26h-.08c-.09,0-.16-.02-.2-.07-.05-.04-.07-.1-.07-.17s.02-.12.07-.17c.05-.04.12-.07.21-.07ZM112.12,30.24h1.11c-.01-.22-.07-.39-.17-.5-.1-.11-.23-.17-.39-.17s-.28.06-.38.17c-.1.11-.16.28-.18.5ZM113.32,30.62h-1.2c0,.15.03.28.08.4.05.11.13.2.22.26.09.06.19.09.3.09.07,0,.14,0,.2-.03.06-.02.12-.05.18-.09.06-.04.11-.08.16-.13.05-.05.11-.11.19-.18.03-.03.08-.04.13-.04.06,0,.11.02.15.06.04.04.06.09.06.16,0,.06-.02.13-.07.21-.04.08-.11.16-.2.23-.09.07-.2.13-.33.18-.13.05-.29.07-.46.07-.39,0-.7-.12-.92-.36-.22-.24-.33-.57-.33-.98,0-.19.03-.37.08-.54.05-.17.13-.31.24-.43.1-.12.23-.21.38-.27.15-.06.32-.1.5-.1.24,0,.45.05.62.16.17.11.3.25.39.42.09.17.13.35.13.53,0,.17-.04.27-.13.32-.09.05-.21.07-.37.07ZM110.36,31.39v-2.85c0-.13.03-.23.08-.3.05-.07.13-.1.22-.1s.17.03.22.1c.06.07.09.17.09.3v2.85c0,.13-.03.23-.09.3-.06.07-.13.1-.22.1s-.16-.03-.22-.1c-.06-.07-.08-.17-.08-.3ZM108.14,30.47c0,.26.06.46.17.6.11.14.26.21.44.21.15,0,.29-.07.4-.22.11-.14.17-.35.17-.62,0-.17-.02-.32-.07-.45-.05-.12-.11-.22-.2-.29-.09-.07-.19-.1-.3-.1s-.22.03-.31.1c-.09.07-.16.17-.22.3-.05.13-.08.28-.08.46ZM108.11,28.52v1c.12-.13.23-.23.35-.3.12-.07.27-.1.44-.1.2,0,.38.05.54.16.15.1.27.25.36.45.09.2.13.43.13.7,0,.2-.02.38-.07.55-.05.17-.12.31-.21.43-.09.12-.2.22-.33.28-.13.07-.27.1-.42.1-.09,0-.18-.01-.27-.04-.08-.02-.15-.06-.21-.1-.06-.04-.11-.08-.15-.12-.04-.04-.1-.1-.16-.19v.06c0,.12-.03.22-.08.28-.06.06-.13.1-.21.1s-.16-.03-.21-.1c-.05-.06-.08-.16-.08-.28v-2.87c0-.13.03-.23.08-.3.05-.07.12-.1.21-.1.09,0,.17.03.22.1.05.06.08.16.08.28ZM106.38,30.47c-.09.04-.22.07-.39.11-.17.04-.29.07-.36.09-.07.02-.13.06-.19.11-.06.05-.09.13-.09.23s.04.18.11.25c.07.07.16.11.28.11.12,0,.23-.03.34-.09.1-.06.18-.13.23-.22.06-.1.08-.26.08-.49v-.09ZM106.42,31.42c-.15.12-.29.22-.43.28-.14.06-.29.09-.47.09-.16,0-.3-.03-.42-.1-.12-.07-.21-.16-.28-.27-.06-.11-.1-.24-.1-.37,0-.18.05-.33.16-.46.11-.13.25-.21.44-.26.04,0,.14-.03.29-.06.15-.03.29-.06.4-.09.11-.03.23-.06.36-.1,0-.17-.04-.3-.1-.38-.06-.08-.18-.12-.36-.12-.16,0-.27.02-.35.07-.08.05-.15.12-.2.21-.06.09-.1.15-.12.18-.02.03-.07.04-.15.04-.07,0-.13-.02-.18-.07-.05-.05-.08-.11-.08-.18,0-.12.04-.23.11-.34.08-.11.2-.2.36-.27.16-.07.36-.11.61-.11.27,0,.48.03.64.1.15.07.26.18.33.32.06.15.1.34.1.59,0,.15,0,.29,0,.39,0,.11,0,.23,0,.36,0,.12.02.25.06.39.04.13.06.22.06.26,0,.07-.03.13-.09.18-.06.06-.13.08-.2.08-.06,0-.13-.03-.19-.09-.06-.06-.13-.15-.2-.27ZM104.41,28.79h-.73v2.56c0,.15-.03.26-.09.33-.06.07-.14.11-.24.11s-.18-.04-.24-.11c-.06-.07-.09-.18-.09-.33v-2.56h-.73c-.11,0-.2-.03-.25-.08-.06-.05-.08-.13-.08-.21s.03-.16.09-.22c.06-.05.14-.08.25-.08h2.12c.12,0,.2.03.26.08.06.06.08.13.08.21s-.03.16-.09.21c-.06.05-.14.08-.26.08ZM98.67,30.43c0,.27.05.47.16.6.11.14.25.2.42.2.1,0,.2-.03.29-.09.09-.06.16-.15.22-.26.06-.12.09-.26.09-.43,0-.27-.06-.48-.17-.63-.11-.15-.25-.22-.43-.22s-.32.07-.42.21c-.11.14-.16.35-.16.61ZM100.45,29.6v1.91c0,.22-.02.41-.07.56-.04.16-.11.29-.21.39-.1.1-.22.18-.38.23-.15.05-.35.07-.58.07-.21,0-.4-.03-.57-.1-.17-.06-.29-.15-.38-.25-.09-.1-.13-.2-.13-.31,0-.08.03-.15.08-.2.05-.05.11-.08.18-.08.09,0,.17.04.24.13.03.04.07.09.1.13.04.04.07.08.12.11.04.03.09.06.15.07.06.02.13.02.21.02.16,0,.28-.02.37-.07.09-.05.15-.11.18-.2.04-.08.06-.18.06-.27,0-.1.01-.25.01-.47-.09.14-.2.25-.33.32-.12.07-.27.11-.44.11-.21,0-.39-.06-.54-.17-.15-.11-.27-.27-.35-.47-.08-.2-.12-.44-.12-.7,0-.2.03-.38.08-.54.05-.16.12-.29.21-.4.09-.11.2-.19.32-.25.12-.06.25-.08.4-.08.17,0,.32.04.45.11.13.07.25.18.35.34v-.09c0-.11.03-.2.08-.27.05-.06.12-.09.2-.09.12,0,.2.04.24.12.04.08.06.2.06.36ZM96.16,30.5v.87c0,.14-.03.24-.09.31-.06.07-.14.1-.23.1s-.17-.03-.23-.1c-.06-.07-.09-.17-.09-.31v-1.05c0-.17,0-.29-.02-.39-.01-.09-.04-.17-.09-.23-.05-.06-.12-.09-.22-.09-.2,0-.33.07-.4.22-.06.15-.1.36-.1.64v.89c0,.14-.03.24-.09.31-.06.07-.13.1-.23.1s-.17-.03-.23-.1c-.06-.07-.09-.17-.09-.31v-1.88c0-.12.03-.22.08-.28.05-.06.12-.1.21-.1s.15.03.21.09c.06.06.08.14.08.25v.06c.11-.14.22-.24.34-.3.12-.06.26-.1.4-.1s.29.03.4.1c.11.07.2.17.27.3.1-.13.21-.23.33-.3.12-.06.25-.1.39-.1.17,0,.31.04.43.11.12.07.21.17.27.3.05.12.08.31.08.56v1.28c0,.14-.03.24-.09.31-.06.07-.14.1-.23.1s-.17-.03-.23-.1c-.06-.07-.09-.17-.09-.31v-1.11c0-.14,0-.25-.02-.34-.01-.08-.04-.16-.09-.21-.05-.06-.12-.09-.22-.09-.08,0-.16.03-.23.08-.07.05-.13.12-.17.21-.05.11-.07.31-.07.59ZM92.05,28.8h-1.07l-.13.78c.21-.12.41-.18.59-.18.14,0,.28.03.4.09.13.06.23.14.33.24.09.1.17.22.22.36.05.14.08.29.08.45,0,.23-.05.44-.15.64-.1.19-.24.34-.42.45-.18.11-.39.17-.63.17-.27,0-.49-.05-.65-.16-.17-.11-.29-.23-.36-.36-.07-.14-.1-.26-.1-.36,0-.06.02-.12.07-.18.05-.06.11-.08.18-.08.13,0,.22.08.28.23.06.14.14.25.24.33.1.08.22.12.34.12.12,0,.22-.03.3-.1.09-.06.15-.15.2-.27.05-.11.07-.24.07-.38,0-.15-.03-.29-.08-.39-.05-.11-.12-.19-.2-.24-.09-.05-.18-.08-.29-.08-.13,0-.22.02-.28.05-.06.03-.14.09-.24.18-.1.08-.19.13-.26.13-.07,0-.14-.03-.2-.09-.06-.06-.09-.12-.09-.19,0,0,0-.06.02-.16l.19-1.15c.02-.14.06-.24.12-.3.06-.06.15-.09.28-.09h1.19c.23,0,.35.1.35.29,0,.08-.03.15-.09.2-.06.05-.14.08-.25.08ZM88.21,31.16h1.17c.12,0,.21.03.27.08.06.05.09.12.09.21,0,.08-.02.14-.07.2-.05.05-.12.08-.22.08h-1.66c-.11,0-.2-.03-.26-.1-.06-.07-.09-.14-.09-.24,0-.06.02-.13.06-.23.04-.1.09-.17.13-.23.2-.22.38-.41.54-.57.16-.16.28-.26.34-.31.12-.09.23-.19.31-.28.08-.09.14-.19.19-.29.04-.1.06-.2.06-.29,0-.1-.02-.19-.07-.28-.05-.08-.11-.14-.19-.19-.08-.05-.17-.07-.26-.07-.2,0-.35.09-.46.28-.02.02-.04.09-.08.2-.04.11-.07.19-.12.25-.04.06-.11.09-.19.09-.08,0-.14-.03-.19-.08-.05-.05-.07-.12-.07-.22,0-.11.02-.23.07-.35.05-.12.12-.23.21-.33.09-.1.21-.18.35-.24.14-.06.31-.09.5-.09.23,0,.42.04.59.12.11.05.2.12.28.21.08.09.14.19.19.31.04.12.07.24.07.37,0,.2-.05.38-.14.54-.09.16-.19.29-.28.38-.1.09-.26.24-.48.43-.23.2-.38.35-.46.46-.04.04-.07.1-.11.16ZM85.74,31.4v-2.19c-.38.31-.64.47-.77.47-.06,0-.12-.03-.17-.08-.05-.05-.07-.12-.07-.19,0-.08.02-.14.07-.18.05-.04.13-.09.25-.15.18-.09.33-.19.44-.29.11-.1.2-.21.29-.34.08-.13.14-.2.16-.23.03-.03.07-.04.14-.04.08,0,.14.03.19.1.05.07.07.16.07.27v2.76c0,.32-.1.48-.31.48-.09,0-.17-.03-.22-.1-.06-.07-.08-.16-.08-.29ZM81.21,30.45c0,.18.03.33.08.46.05.12.12.22.21.28.09.06.19.1.29.1s.21-.03.3-.09c.09-.06.16-.15.21-.28.05-.12.08-.28.08-.47,0-.17-.03-.32-.08-.45-.05-.13-.13-.22-.22-.29-.09-.07-.19-.1-.3-.1s-.21.03-.3.1c-.09.07-.16.17-.21.29-.05.13-.07.28-.07.44ZM82.41,31.41v-.06c-.08.1-.16.18-.24.25-.08.06-.17.11-.26.14-.09.03-.2.05-.31.05-.15,0-.28-.03-.41-.1-.12-.07-.23-.16-.33-.29-.09-.12-.16-.27-.21-.44-.05-.17-.07-.35-.07-.54,0-.41.09-.73.28-.96.19-.23.43-.34.74-.34.18,0,.33.03.45.1.12.06.24.17.36.3v-.97c0-.13.03-.24.08-.31.05-.07.12-.1.21-.1s.16.03.21.1c.05.06.08.16.08.28v2.9c0,.12-.03.22-.08.28-.05.06-.12.09-.21.09s-.15-.03-.21-.1c-.05-.06-.08-.16-.08-.28Z"/>
      <path class="cls-5" d="M23.36,29.48v.08c.11-.15.23-.26.35-.34.13-.07.28-.11.44-.11s.31.04.43.11c.13.07.22.18.29.32.04.08.07.17.08.26.01.09.02.21.02.36v1.22c0,.13-.03.23-.08.3-.06.07-.13.1-.22.1s-.17-.03-.22-.1c-.06-.07-.09-.17-.09-.3v-1.1c0-.22-.03-.38-.08-.5-.06-.11-.17-.17-.34-.17-.11,0-.21.03-.3.1-.09.07-.16.17-.2.29-.03.1-.05.28-.05.55v.82c0,.13-.03.23-.09.3-.06.07-.13.1-.22.1s-.16-.03-.22-.1c-.06-.07-.09-.17-.09-.3v-1.9c0-.12.03-.22.08-.28.05-.06.12-.09.21-.09.05,0,.1.01.15.04.04.03.08.07.1.12.03.05.04.12.04.2M21.87,28.81c-.09,0-.16-.03-.22-.08-.06-.06-.09-.14-.09-.24,0-.09.03-.17.09-.23.06-.06.13-.09.22-.09s.15.03.21.08c.06.06.09.13.09.24s-.03.18-.09.24c-.06.06-.13.09-.21.09ZM22.17,29.49v1.9c0,.13-.03.23-.09.3-.06.07-.13.1-.22.1s-.16-.03-.22-.1c-.06-.07-.08-.17-.08-.3v-1.88c0-.13.03-.23.08-.29.06-.07.13-.1.22-.1s.16.03.22.1c.06.07.09.16.09.27ZM20.31,31.39v-2.85c0-.13.03-.23.08-.3.05-.07.13-.1.22-.1s.17.03.22.1c.06.07.09.17.09.3v2.85c0,.13-.03.23-.09.3-.06.07-.13.1-.22.1s-.16-.03-.22-.1c-.06-.07-.08-.17-.08-.3ZM19.06,31.39v-2.85c0-.13.03-.23.08-.3.05-.07.13-.1.22-.1s.17.03.22.1c.06.07.09.17.09.3v2.85c0,.13-.03.23-.09.3-.06.07-.13.1-.22.1s-.16-.03-.22-.1c-.06-.07-.08-.17-.08-.3ZM18.12,28.81c-.09,0-.16-.03-.22-.08-.06-.06-.09-.14-.09-.24,0-.09.03-.17.09-.23.06-.06.13-.09.22-.09s.15.03.21.08c.06.06.09.13.09.24s-.03.18-.09.24c-.06.06-.13.09-.21.09ZM18.43,29.49v1.9c0,.13-.03.23-.09.3-.06.07-.13.1-.22.1s-.16-.03-.22-.1c-.06-.07-.08-.17-.08-.3v-1.88c0-.13.03-.23.08-.29.06-.07.13-.1.22-.1s.16.03.22.1c.06.07.09.16.09.27ZM17.28,30.98c0,.08-.02.17-.07.26-.05.09-.12.18-.21.27-.09.08-.21.15-.35.2-.14.05-.3.08-.48.08-.38,0-.68-.12-.89-.36-.21-.24-.32-.55-.32-.95,0-.27.05-.51.15-.72.1-.21.24-.37.42-.48.18-.11.41-.17.66-.17.16,0,.3.02.44.07.13.05.24.11.34.19.09.08.16.16.21.25.05.09.07.17.07.25s-.03.15-.08.2c-.06.05-.12.08-.2.08-.05,0-.09-.01-.13-.04-.03-.03-.07-.07-.11-.14-.08-.12-.15-.21-.23-.27-.08-.06-.19-.09-.31-.09-.18,0-.33.08-.44.23-.11.15-.17.36-.17.62,0,.12.01.24.04.34.03.1.07.19.12.26.05.07.12.13.2.17.08.04.16.06.25.06.12,0,.23-.03.32-.09.09-.06.17-.15.23-.28.04-.07.08-.13.12-.17.04-.04.1-.06.16-.06.08,0,.14.03.19.09.05.06.07.13.07.19ZM13.21,31.87l.06-.15-.76-2.04c-.05-.12-.07-.2-.07-.26,0-.06.01-.11.04-.16.03-.05.06-.09.11-.12.05-.03.1-.04.15-.04.09,0,.16.03.2.09.05.06.08.15.12.26l.52,1.62.49-1.51c.04-.12.07-.22.11-.29.03-.07.06-.12.1-.14.04-.02.09-.04.15-.04.05,0,.09.01.13.04.04.03.08.06.1.11.02.04.03.09.03.14,0,.03-.02.07-.03.13-.01.06-.03.11-.05.17l-.8,2.24c-.07.2-.14.35-.2.47-.07.11-.15.2-.26.26-.11.06-.25.09-.44.09s-.31-.02-.4-.06c-.09-.04-.13-.12-.13-.23,0-.08.02-.13.06-.17.04-.04.11-.06.19-.06.03,0,.07,0,.1.01.04,0,.07.01.1.01.07,0,.13-.01.17-.03.04-.02.08-.06.11-.12.03-.06.07-.14.11-.24ZM11.57,31.52l-.45-.7-.46.7c-.07.1-.12.17-.17.21-.05.04-.1.06-.17.06-.08,0-.14-.03-.2-.08-.05-.05-.08-.11-.08-.18s.04-.17.13-.3l.55-.85-.49-.71c-.09-.12-.13-.22-.13-.31,0-.07.03-.13.08-.18.05-.05.12-.07.2-.07.07,0,.13.02.18.06.05.04.1.11.16.2l.4.58.39-.58c.06-.1.12-.17.17-.21.05-.04.11-.06.18-.06.08,0,.15.02.2.07.05.05.08.11.08.18,0,.05-.01.1-.03.14-.02.05-.06.1-.1.16l-.49.71.55.85c.09.13.13.23.13.3s-.03.13-.08.18c-.05.05-.12.07-.2.07-.07,0-.13-.02-.18-.06-.05-.04-.1-.11-.17-.21ZM9.26,30.45c0-.27-.06-.48-.16-.63-.11-.15-.26-.22-.44-.22-.12,0-.23.03-.32.1-.09.07-.16.17-.21.3-.05.13-.07.28-.07.45s.02.32.07.45c.05.13.12.23.21.3.09.07.2.1.32.1.19,0,.33-.07.44-.23.11-.15.16-.36.16-.62ZM9.88,30.45c0,.2-.03.38-.09.54-.06.17-.14.31-.25.43-.11.12-.24.21-.39.27-.15.06-.32.1-.51.1s-.35-.03-.5-.1c-.15-.06-.28-.16-.39-.28-.11-.12-.19-.26-.25-.42-.06-.16-.08-.34-.08-.54s.03-.38.09-.55c.06-.17.14-.31.25-.42.11-.12.24-.21.39-.27.15-.06.32-.1.5-.1s.35.03.51.1c.15.06.28.16.39.28.11.12.19.26.25.42.06.16.08.34.08.54ZM5.54,30.5v.87c0,.14-.03.24-.09.31-.06.07-.14.1-.23.1s-.17-.03-.23-.1c-.06-.07-.09-.17-.09-.31v-1.05c0-.17,0-.29-.02-.39,0-.09-.04-.17-.09-.23-.05-.06-.12-.09-.22-.09-.2,0-.33.07-.4.22-.06.15-.1.36-.1.64v.89c0,.14-.03.24-.09.31-.06.07-.13.1-.23.1s-.17-.03-.23-.1c-.06-.07-.09-.17-.09-.31v-1.88c0-.12.03-.22.08-.28.05-.06.12-.1.21-.1s.15.03.21.09c.06.06.08.14.08.25v.06c.11-.14.22-.24.34-.3.12-.06.26-.1.4-.1s.29.03.4.1c.11.07.2.17.27.3.1-.13.21-.23.33-.3.12-.06.25-.1.39-.1.17,0,.31.04.43.11.12.07.21.17.27.3.05.12.08.31.08.56v1.28c0,.14-.03.24-.09.31-.06.07-.14.1-.23.1s-.17-.03-.23-.1c-.06-.07-.09-.17-.09-.31v-1.11c0-.14,0-.25-.02-.34-.01-.08-.04-.16-.09-.21-.05-.06-.12-.09-.22-.09-.08,0-.16.03-.23.08-.07.05-.13.12-.17.21-.05.11-.07.31-.07.59ZM1.02,30.35h.98l-.5-1.45-.49,1.45ZM2.34,31.33l-.16-.44H.85l-.16.45c-.06.18-.11.3-.16.36-.04.06-.11.09-.21.09-.08,0-.16-.03-.22-.1-.06-.07-.1-.14-.1-.22,0-.05,0-.1.02-.15.02-.05.04-.12.07-.21l.84-2.29c.02-.07.05-.14.09-.24.03-.09.07-.17.11-.23.04-.06.09-.11.15-.15.06-.04.14-.06.23-.06s.17.02.23.06c.06.04.11.09.15.15.04.06.07.12.1.19.03.07.06.16.1.27l.86,2.28c.07.17.1.3.1.38s-.03.16-.1.23c-.06.07-.14.1-.23.1-.05,0-.1,0-.14-.03-.04-.02-.07-.05-.09-.08-.03-.03-.05-.09-.08-.16-.03-.07-.05-.13-.08-.19Z"/>
      <path class="cls-6" d="M1.52,8.64v-2.62h.99c.18,0,.31,0,.4.03.13.02.24.06.33.12.09.06.16.15.21.25.05.11.08.23.08.36,0,.22-.07.41-.21.56s-.4.23-.77.23h-.67v1.07h-.35ZM1.87,7.26h.68c.22,0,.38-.04.48-.12.09-.08.14-.2.14-.36,0-.11-.03-.2-.08-.28-.05-.08-.13-.13-.22-.16-.06-.01-.17-.02-.33-.02h-.67v.94Z"/>
      <path class="cls-6" d="M2.23,9.4l.7-.99-.64-.92h.4l.3.45c.05.08.1.15.13.21.05-.08.1-.15.15-.21l.31-.45h.4l-.65.92.69.99h-.39l-.39-.59-.09-.14-.51.73h-.4Z"/>
    </g>
  </g>
</svg>