<?xml version="1.0" encoding="UTF-8"?>
<svg id="Layer_2" data-name="Layer 2" xmlns="http://www.w3.org/2000/svg" viewBox="0 0 142.18 47.13">
  <g id="Layer_1-2" data-name="Layer 1">
    <g>
      <path d="M1.35,35.07c0-.98.26-1.76.77-2.32.52-.57,1.18-.84,1.99-.84.53,0,1.02.13,1.44.39.43.27.75.63.98,1.1.23.47.34,1.01.34,1.6s-.12,1.15-.35,1.62-.57.83-1,1.08c-.44.24-.9.37-1.4.37-.55,0-1.03-.13-1.46-.41-.43-.27-.76-.64-.98-1.11s-.33-.97-.33-1.49ZM2.14,35.08c0,.72.19,1.28.56,1.7.37.41.84.62,1.4.62s1.05-.21,1.42-.62.56-1.01.56-1.77c0-.48-.08-.91-.23-1.27-.16-.37-.4-.64-.7-.84s-.65-.3-1.02-.3c-.54,0-1.01.19-1.4.57-.4.38-.59,1.02-.59,1.92ZM7.96,37.97v-3.76h-.63v-.57h.63v-.42c0-.43.09-.76.27-.98.19-.22.47-.34.86-.34.26,0,.5.03.72.09l-.11.62c-.14-.02-.27-.03-.38-.03-.24,0-.41.05-.5.15s-.14.31-.14.63v.28h.81v.57h-.81v3.76h-.71ZM10.01,37.97v-5.96h.71v5.96h-.71ZM11.54,35.81c0-.79.22-1.38.65-1.77.36-.32.8-.47,1.31-.47.58,0,1.05.19,1.41.58.36.38.55.92.55,1.61,0,.56-.08.99-.24,1.31s-.4.57-.7.74c-.31.18-.65.27-1.02.27-.58,0-1.06-.19-1.42-.58-.36-.38-.54-.94-.54-1.67ZM12.26,35.82c0,.55.12.97.35,1.23.23.27.52.42.88.42s.65-.14.89-.42c.23-.27.35-.69.35-1.26,0-.53-.12-.94-.35-1.22s-.52-.41-.88-.41-.65.13-.88.41-.35.68-.35,1.24ZM15.8,37.97l1.53-2.24-1.42-2.08h.87l.66,1.02c.12.19.22.35.29.47.12-.17.23-.33.32-.47l.69-1.02h.87l-1.43,2.08,1.52,2.24h-.86l-.86-1.33-.2-.32-1.11,1.66h-.87ZM23.06,37.43c-.27.23-.52.39-.76.49-.24.09-.51.14-.78.14-.46,0-.81-.12-1.06-.35-.25-.22-.37-.52-.37-.88,0-.21.05-.41.14-.58.1-.17.22-.31.37-.42.15-.11.32-.18.51-.24.15-.03.35-.07.64-.11.57-.07.99-.15,1.27-.25v-.19c0-.3-.06-.51-.2-.62-.18-.17-.45-.25-.81-.25s-.58.06-.74.18c-.16.12-.27.33-.35.64l-.69-.1c.06-.31.17-.56.31-.74.15-.19.35-.33.63-.44.27-.1.59-.15.95-.15s.65.04.87.13c.23.08.39.19.49.32s.18.3.23.5c.02.12.03.35.03.67v.97c0,.68.02,1.11.05,1.29.02.18.08.36.17.52h-.74c-.07-.16-.11-.33-.14-.54ZM23,35.81c-.26.11-.65.2-1.16.27-.29.04-.5.09-.62.14-.12.06-.21.13-.28.24-.06.1-.1.22-.1.34,0,.2.07.36.22.49.15.12.35.19.63.19s.52-.06.73-.18c.22-.12.37-.29.47-.51.08-.16.12-.41.12-.72v-.27ZM27.54,36.39l.69.1c-.07.49-.27.87-.58,1.16-.31.27-.7.42-1.15.42-.57,0-1.03-.19-1.38-.58-.35-.38-.52-.93-.52-1.66,0-.47.07-.87.23-1.22.15-.35.38-.62.69-.79.3-.17.64-.26.99-.26.45,0,.83.12,1.11.36.29.23.48.57.56,1.01l-.69.11c-.06-.29-.18-.51-.35-.66-.17-.14-.37-.22-.61-.22-.36,0-.65.13-.87.39-.23.27-.34.68-.34,1.26s.1,1,.32,1.27c.22.26.5.39.85.39.27,0,.51-.09.69-.27.19-.17.31-.44.35-.81ZM28.84,32.84v-.83h.71v.83h-.71ZM28.84,37.97v-4.32h.71v4.32h-.71ZM30.63,37.97v-4.32h.64v.62c.31-.47.75-.71,1.33-.71.25,0,.48.05.69.14.21.09.37.22.48.37.1.15.18.33.22.54.02.13.04.37.04.71v2.66h-.71v-2.62c0-.3-.02-.52-.08-.67-.06-.14-.15-.27-.29-.35-.15-.09-.31-.13-.5-.13-.3,0-.56.1-.77.3-.22.19-.33.57-.33,1.12v2.36h-.71ZM40.88,37.27v.7h-3.82c0-.17.02-.35.08-.51.1-.27.26-.53.48-.79.22-.27.52-.57.93-.9.62-.53,1.05-.96,1.27-1.27.22-.31.33-.61.33-.88,0-.29-.1-.53-.3-.73s-.47-.3-.79-.3c-.35,0-.62.11-.82.32-.21.21-.31.5-.31.87l-.73-.07c.05-.56.24-.99.56-1.28s.77-.44,1.31-.44.99.16,1.31.47.48.72.48,1.18c0,.24-.05.47-.15.7-.09.23-.25.47-.47.73s-.58.61-1.09,1.05c-.43.37-.7.62-.82.75s-.23.27-.3.4h2.83ZM41.65,35.03c0-.71.07-1.27.21-1.71.15-.43.35-.77.63-.99.27-.23.62-.35,1.04-.35.31,0,.58.07.81.19.23.13.43.32.58.56.15.24.27.54.35.88.09.35.13.82.13,1.42,0,.7-.07,1.27-.21,1.69-.14.43-.35.77-.62,1s-.63.35-1.05.35c-.56,0-.99-.21-1.31-.62-.38-.5-.57-1.31-.57-2.42ZM42.37,35.03c0,.98.11,1.63.33,1.96.23.32.5.48.82.48s.6-.17.82-.48c.22-.32.33-.98.33-1.96s-.11-1.63-.33-1.96-.5-.48-.83-.48-.59.14-.78.42c-.24.37-.36,1.03-.36,2.02ZM46.13,35.03c0-.71.07-1.27.21-1.71.15-.43.35-.77.63-.99.27-.23.62-.35,1.04-.35.31,0,.58.07.81.19.23.13.43.32.58.56.15.24.27.54.35.88.09.35.13.82.13,1.42,0,.7-.07,1.27-.21,1.69-.14.43-.35.77-.62,1s-.63.35-1.05.35c-.56,0-.99-.21-1.31-.62-.38-.5-.57-1.31-.57-2.42ZM46.86,35.03c0,.98.11,1.63.33,1.96.23.32.5.48.82.48s.6-.17.82-.48c.22-.32.33-.98.33-1.96s-.11-1.63-.33-1.96-.5-.48-.83-.48-.59.14-.78.42c-.24.37-.36,1.03-.36,2.02ZM50.81,37.97v-4.32h.64v.61c.13-.21.31-.38.52-.51.22-.12.47-.19.74-.19.31,0,.56.07.76.2.2.13.34.32.42.56.34-.51.77-.76,1.3-.76.42,0,.74.12.96.36.23.23.34.6.34,1.09v2.96h-.71v-2.72c0-.29-.02-.5-.07-.63-.04-.12-.13-.22-.25-.31-.12-.07-.26-.12-.43-.12-.29,0-.54.1-.73.3-.19.21-.29.52-.29.97v2.51h-.71v-2.81c0-.32-.06-.57-.17-.73-.12-.16-.31-.24-.57-.24-.19,0-.38.05-.55.16-.17.11-.29.27-.37.48-.07.21-.11.51-.11.9v2.24h-.71ZM57.4,38.33l.69.1c.02.22.1.38.24.48.18.13.41.2.72.2.33,0,.58-.07.77-.2.18-.13.3-.32.36-.57.03-.15.05-.47.05-.94-.31.37-.69.57-1.16.57-.57,0-1.02-.22-1.33-.64-.32-.43-.48-.94-.48-1.54,0-.42.07-.79.22-1.14.15-.35.35-.62.63-.81s.6-.28.97-.28c.49,0,.9.21,1.22.62v-.53h.65v3.73c0,.67-.06,1.15-.2,1.43-.13.28-.34.5-.63.67-.28.16-.64.24-1.06.24-.5,0-.9-.12-1.21-.35-.31-.22-.45-.57-.44-1.04ZM57.98,35.74c0,.56.1.97.32,1.23.23.26.49.39.82.39s.6-.13.82-.39c.22-.26.33-.66.33-1.22,0-.52-.11-.92-.34-1.19-.23-.27-.51-.4-.82-.4s-.59.13-.81.39c-.22.27-.33.66-.33,1.18ZM65.75,37.01v-1.63h-1.57v-.68h1.57v-1.62h.67v1.62h1.57v.68h-1.57v1.63h-.67ZM71.06,35.07c0-.98.26-1.76.77-2.32.52-.57,1.18-.84,1.99-.84.53,0,1.02.13,1.44.39.43.27.75.63.98,1.1.23.47.34,1.01.34,1.6s-.12,1.15-.35,1.62-.57.83-1,1.08c-.44.24-.9.37-1.4.37-.55,0-1.03-.13-1.46-.41-.43-.27-.76-.64-.98-1.11s-.33-.97-.33-1.49ZM71.86,35.08c0,.72.19,1.28.56,1.7.37.41.84.62,1.4.62s1.05-.21,1.42-.62.56-1.01.56-1.77c0-.48-.08-.91-.23-1.27-.16-.37-.4-.64-.7-.84s-.65-.3-1.02-.3c-.54,0-1.01.19-1.4.57-.4.38-.59,1.02-.59,1.92ZM77.48,37.97v-4.32h.64v.66c.16-.3.31-.51.45-.6.14-.1.29-.15.46-.15.23,0,.48.07.73.23l-.25.67c-.18-.1-.35-.15-.52-.15-.15,0-.3.05-.42.14-.12.1-.21.23-.26.4-.08.26-.12.55-.12.86v2.26h-.71ZM80.17,37.97v-4.32h.64v.62c.31-.47.75-.71,1.33-.71.25,0,.48.05.69.14.21.09.37.22.48.37.1.15.18.33.22.54.02.13.04.37.04.71v2.66h-.71v-2.62c0-.3-.02-.52-.08-.67-.06-.14-.15-.27-.29-.35-.15-.09-.31-.13-.5-.13-.3,0-.56.1-.77.3-.22.19-.33.57-.33,1.12v2.36h-.71ZM84.66,32.84v-.83h.71v.83h-.71ZM84.66,37.97v-4.32h.71v4.32h-.71ZM89.15,37.97v-.55c-.27.42-.65.64-1.17.64-.33,0-.64-.09-.92-.28-.27-.19-.49-.46-.65-.79-.15-.34-.23-.73-.23-1.17s.07-.82.21-1.17.35-.62.63-.8c.27-.19.59-.28.93-.28.25,0,.48.06.68.17.19.11.35.25.48.42v-2.14h.71v5.96h-.66ZM86.91,35.82c0,.55.11.97.34,1.24s.49.41.81.41.57-.13.79-.39.32-.66.32-1.2c0-.58-.11-1.02-.33-1.29-.22-.28-.49-.42-.81-.42s-.58.13-.8.4c-.21.26-.31.68-.31,1.25ZM93.67,37.43c-.27.23-.52.39-.76.49-.24.09-.51.14-.78.14-.46,0-.81-.12-1.06-.35-.25-.22-.37-.52-.37-.88,0-.21.05-.41.14-.58.1-.17.22-.31.37-.42.15-.11.32-.18.51-.24.15-.03.35-.07.64-.11.57-.07.99-.15,1.27-.25v-.19c0-.3-.06-.51-.2-.62-.18-.17-.45-.25-.81-.25s-.58.06-.74.18c-.16.12-.27.33-.35.64l-.69-.1c.06-.31.17-.56.31-.74.15-.19.35-.33.63-.44.27-.1.59-.15.95-.15s.65.04.87.13c.23.08.39.19.49.32s.18.3.23.5c.02.12.03.35.03.67v.97c0,.68.02,1.11.05,1.29.02.18.08.36.17.52h-.74c-.07-.16-.11-.33-.14-.54ZM93.61,35.81c-.26.11-.65.2-1.16.27-.29.04-.5.09-.62.14-.12.06-.21.13-.28.24-.06.1-.1.22-.1.34,0,.2.07.36.22.49.15.12.35.19.63.19s.52-.06.73-.18c.22-.12.37-.29.47-.51.08-.16.12-.41.12-.72v-.27ZM95.04,37.97v-.6l2.65-3.16c-.3.02-.56.02-.79.02h-1.69v-.59h3.41v.48l-2.27,2.74-.44.51c.32-.02.62-.04.9-.04h1.94v.63h-3.7ZM99.18,35.81c0-.79.22-1.38.65-1.77.36-.32.8-.47,1.31-.47.58,0,1.05.19,1.41.58.36.38.55.92.55,1.61,0,.56-.08.99-.24,1.31s-.4.57-.7.74c-.31.18-.65.27-1.02.27-.58,0-1.06-.19-1.42-.58-.36-.38-.54-.94-.54-1.67ZM99.91,35.82c0,.55.12.97.35,1.23.23.27.52.42.88.42s.65-.14.89-.42c.23-.27.35-.69.35-1.26,0-.53-.12-.94-.35-1.22s-.52-.41-.88-.41-.65.13-.88.41-.35.68-.35,1.24ZM103.92,37.97v-5.96h.71v5.96h-.71ZM108.58,36.57l.73.1c-.11.44-.33.78-.64,1.02-.31.24-.71.37-1.19.37-.61,0-1.1-.19-1.45-.58-.36-.39-.54-.93-.54-1.63s.18-1.29.54-1.69.83-.6,1.41-.6,1.01.19,1.36.59c.35.39.53.94.53,1.66v.19h-3.12c.02.47.15.83.39,1.09.23.25.52.37.88.37.26,0,.48-.07.66-.22.19-.14.33-.37.44-.67ZM106.26,35.4h2.33c-.03-.37-.12-.63-.27-.82-.23-.28-.52-.42-.88-.42-.32,0-.6.11-.81.33-.23.22-.35.53-.37.91ZM112.26,36.41l.74-.06c.06.37.19.65.38.84.2.19.44.28.73.28.35,0,.63-.13.87-.4.23-.27.35-.62.35-1.06,0-.42-.11-.75-.34-.99-.22-.24-.52-.36-.89-.36-.23,0-.44.05-.62.16-.18.11-.32.25-.43.42l-.67-.1.56-3.06h2.86v.7h-2.3l-.31,1.61c.35-.25.71-.37,1.09-.37.5,0,.93.18,1.27.54s.52.82.52,1.39-.15,1.01-.45,1.4c-.37.48-.88.72-1.52.72-.52,0-.95-.15-1.28-.46-.34-.3-.52-.71-.57-1.21ZM116.74,35.03c0-.71.07-1.27.21-1.71.15-.43.35-.77.63-.99.27-.23.62-.35,1.04-.35.31,0,.58.07.81.19.23.13.43.32.58.56.15.24.27.54.35.88.09.35.13.82.13,1.42,0,.7-.07,1.27-.21,1.69-.14.43-.35.77-.62,1s-.63.35-1.05.35c-.56,0-.99-.21-1.31-.62-.38-.5-.57-1.31-.57-2.42ZM117.47,35.03c0,.98.11,1.63.33,1.96.23.32.5.48.82.48s.6-.17.82-.48c.22-.32.33-.98.33-1.96s-.11-1.63-.33-1.96-.5-.48-.83-.48-.59.14-.78.42c-.24.37-.36,1.03-.36,2.02ZM121.23,35.03c0-.71.07-1.27.21-1.71.15-.43.35-.77.63-.99.27-.23.62-.35,1.04-.35.31,0,.58.07.81.19.23.13.43.32.58.56.15.24.27.54.35.88.09.35.13.82.13,1.42,0,.7-.07,1.27-.21,1.69-.14.43-.35.77-.62,1s-.63.35-1.05.35c-.56,0-.99-.21-1.31-.62-.38-.5-.57-1.31-.57-2.42ZM121.95,35.03c0,.98.11,1.63.33,1.96.23.32.5.48.82.48s.6-.17.82-.48c.22-.32.33-.98.33-1.96s-.11-1.63-.33-1.96-.5-.48-.83-.48-.59.14-.78.42c-.24.37-.36,1.03-.36,2.02ZM128.15,37.97v-4.32h.64v.61c.13-.21.31-.38.52-.51.22-.12.47-.19.74-.19.31,0,.56.07.76.2.2.13.34.32.42.56.34-.51.77-.76,1.3-.76.42,0,.74.12.96.36.23.23.34.6.34,1.09v2.96h-.71v-2.72c0-.29-.02-.5-.07-.63-.04-.12-.13-.22-.25-.31-.12-.07-.26-.12-.43-.12-.29,0-.54.1-.73.3-.19.21-.29.52-.29.97v2.51h-.71v-2.81c0-.32-.06-.57-.17-.73-.12-.16-.31-.24-.57-.24-.19,0-.38.05-.55.16-.17.11-.29.27-.37.48-.07.21-.11.51-.11.9v2.24h-.71ZM134.74,38.33l.69.1c.02.22.1.38.24.48.18.13.41.2.72.2.33,0,.58-.07.77-.2.18-.13.3-.32.36-.57.03-.15.05-.47.05-.94-.31.37-.69.57-1.16.57-.57,0-1.02-.22-1.33-.64-.32-.43-.48-.94-.48-1.54,0-.42.07-.79.22-1.14.15-.35.35-.62.63-.81s.6-.28.97-.28c.49,0,.9.21,1.22.62v-.53h.65v3.73c0,.67-.06,1.15-.2,1.43-.13.28-.34.5-.63.67-.28.16-.64.24-1.06.24-.5,0-.9-.12-1.21-.35-.31-.22-.45-.57-.44-1.04ZM135.32,35.74c0,.56.1.97.32,1.23.23.26.49.39.82.39s.6-.13.82-.39c.22-.26.33-.66.33-1.22,0-.52-.11-.92-.34-1.19-.23-.27-.51-.4-.82-.4s-.59.13-.81.39c-.22.27-.33.66-.33,1.18Z"/>
      <path d="M23.6,22.88l-3.93,4.06H5.28l-3.93-4.06v-9.75l3.93-4.06h14.39l3.93,4.06v9.75ZM18.38,22.94v-9.87H6.57v9.87h11.81Z"/>
      <polygon points="47.9 9.08 44.06 13.08 32.45 13.08 32.45 16.22 45.38 16.22 41.86 19.86 32.45 19.86 32.45 26.97 27.23 30.03 27.23 9.08 47.9 9.08"/>
      <path d="M70.53,9.08l-3.84,3.99h-11.61v3.15h12.93l-3.52,3.63h-9.41v7.11l-5.22,3.06V9.08h20.67ZM88,16.83l-2.17,3.99h-14.19l2.17-3.99h14.19ZM113.06,22.88l-3.93,4.06h-14.39l-3.93-4.06v-9.75l3.93-4.06h14.39l3.93,4.06v9.75ZM107.85,22.94v-9.87h-11.81v9.87h11.81Z"/>
      <polygon points="138.13 26.94 134.17 26.94 121.92 16.53 121.92 26.94 116.7 30.03 116.7 9.08 120.42 9.08 132.91 19.74 132.91 9.08 138.13 9.08 138.13 26.94"/>
      <polygon points="111.38 47.02 111.38 40.91 109.17 40.91 109.17 40.09 114.48 40.09 114.48 40.91 112.27 40.91 112.27 47.02 111.38 47.02"/>
      <path d="M117.43,46.39c-.31.27-.6.45-.88.57-.28.11-.59.16-.91.16-.53,0-.95-.14-1.24-.41-.29-.26-.43-.61-.43-1.03,0-.24.06-.47.16-.68.11-.2.25-.36.43-.48.18-.13.37-.21.59-.28.17-.04.41-.09.74-.13.67-.08,1.15-.17,1.47-.29v-.22c0-.35-.07-.59-.23-.73-.21-.19-.52-.29-.94-.29s-.67.07-.86.21c-.19.14-.32.39-.41.74l-.81-.12c.07-.36.2-.65.37-.86.17-.22.41-.39.73-.51.32-.12.68-.17,1.11-.17s.75.05,1.01.15c.26.1.45.22.57.38.12.15.21.35.26.58.03.15.04.41.04.78v1.12c0,.79.02,1.29.06,1.5.03.21.09.42.2.61h-.86c-.08-.18-.13-.39-.16-.63ZM117.37,44.5c-.3.13-.75.23-1.35.32-.34.05-.58.11-.72.16-.14.07-.24.15-.33.28-.07.12-.11.25-.11.4,0,.23.08.42.25.57.17.15.41.22.73.22s.6-.07.84-.21c.25-.15.43-.34.54-.59.09-.18.14-.47.14-.84v-.31ZM120.23,47.02h-.77v-6.93h.82v2.47c.35-.45.8-.67,1.33-.67.3,0,.58.06.85.18.26.13.49.3.66.52.18.23.31.5.4.81.1.32.15.66.15,1.03,0,.85-.21,1.52-.62,1.98-.41.47-.9.71-1.48.71s-1.02-.25-1.35-.74v.63ZM120.22,44.48c0,.6.08,1.03.23,1.3.26.44.61.66,1.06.66.36,0,.67-.16.93-.48.26-.32.39-.8.39-1.44s-.12-1.14-.37-1.45-.55-.46-.91-.46-.67.16-.94.48c-.26.32-.39.78-.39,1.4ZM124.66,47.02v-6.93h.82v6.93h-.82ZM130.07,45.39l.85.12c-.13.51-.38.91-.74,1.19-.37.28-.82.43-1.39.43-.71,0-1.27-.22-1.69-.68-.42-.45-.63-1.08-.63-1.9s.21-1.5.63-1.96.96-.7,1.64-.7,1.17.22,1.58.69c.41.45.62,1.09.62,1.93v.22h-3.63c.03.55.18.97.45,1.27.27.29.61.44,1.02.44.3,0,.55-.09.77-.25s.38-.43.51-.78ZM127.38,44.03h2.71c-.04-.43-.14-.74-.31-.95-.26-.33-.6-.49-1.02-.49-.37,0-.69.13-.95.39-.26.26-.4.62-.43,1.05ZM133.76,46.26l.11.75c-.23.05-.44.08-.62.08-.3,0-.53-.05-.69-.15-.17-.1-.28-.23-.35-.39-.07-.16-.1-.49-.1-1.01v-2.89h-.61v-.66h.61v-1.24l.82-.51v1.75h.82v.66h-.82v2.94c0,.24.02.4.05.46.03.08.07.13.14.17.07.04.16.06.28.06.08,0,.21,0,.36-.04ZM134.24,45.52l.82-.14c.05.34.18.59.38.77.21.18.51.27.88.27s.66-.08.84-.24c.18-.15.27-.34.27-.56,0-.18-.08-.34-.24-.45-.12-.08-.4-.17-.84-.29-.61-.15-1.02-.29-1.26-.41-.23-.12-.41-.28-.53-.48-.11-.19-.18-.43-.18-.67,0-.22.05-.43.15-.62.1-.19.23-.35.4-.47.13-.1.3-.18.52-.25s.46-.1.71-.1c.37,0,.71.06,1,.17.29.11.5.26.64.45.13.19.23.45.28.78l-.81.12c-.04-.26-.14-.46-.32-.61-.17-.15-.42-.22-.74-.22-.37,0-.65.07-.81.19-.16.13-.24.28-.24.45,0,.11.04.2.1.3.07.09.17.16.31.22.08.03.33.11.73.21.58.16.98.3,1.22.4.23.11.41.25.54.44s.2.44.2.73-.07.55-.24.8c-.16.25-.38.45-.69.58-.3.14-.64.2-1.02.2-.63,0-1.11-.14-1.44-.41-.34-.27-.54-.67-.64-1.2Z"/>
      <path d="M1.29,6.5h-.45l1.32-2.15L.85,2.22h.37c.24,0,.43-.08.58-.25.16-.15.24-.35.24-.6,0-.14-.03-.28-.08-.42-.05-.13-.12-.24-.21-.32-.06-.07-.15-.12-.26-.16-.11-.04-.3-.06-.56-.06H.37v3.86h-.37V0h1.03c.22,0,.41.02.55.06.12.04.25.1.37.2.16.13.28.28.36.47.09.18.13.39.13.63,0,.33-.09.62-.26.87-.17.23-.39.36-.66.4l.87,1.37,1.05-1.77h.45l-1.29,2.13,1.32,2.15h-.47l-1.06-1.81-1.1,1.81Z"/>
      <path d="M134.67,6.56V2.14h-1.6v-.59h3.84v.59h-1.6v4.42h-.64ZM137.56,6.56V1.56h.96l1.14,3.54c.11.33.18.57.24.74.05-.18.14-.45.26-.8l1.16-3.48h.86v5.01h-.62V2.37l-1.42,4.19h-.58l-1.4-4.26v4.26h-.62Z"/>
    </g>
  </g>
</svg>