<?xml version="1.0" encoding="UTF-8"?>
<svg id="Layer_2" data-name="Layer 2" xmlns="http://www.w3.org/2000/svg" viewBox="0 0 173.51 48.92">
  <defs>
    <style>
      .cls-1 {
        fill: #8c181b;
      }

      .cls-2 {
        fill: #231f20;
      }

      .cls-3 {
        fill: #650f0b;
      }

      .cls-4 {
        fill: #fff;
      }
    </style>
  </defs>
  <g id="Layer_1-2" data-name="Layer 1">
    <g>
      <path class="cls-1" d="M166.06,34.73h-29.31c-4.12,0-7.45-3.01-7.45-6.73v-10.26c0-3.72,3.33-6.73,7.45-6.73h29.31c4.11,0,7.45,3.01,7.45,6.73v10.26c0,3.71-3.34,6.73-7.45,6.73"/>
      <path class="cls-4" d="M142.04,19.83c-.11-.49-.38-.87-1.14-.87-1.09,0-1.41,1.09-1.45,2.55.52-.46,1.25-.78,2.43-.78,1.94,0,3.55,1.14,3.55,3.51,0,2.22-1.44,3.97-4.54,3.97-3.59,0-4.7-2.15-4.7-5.39,0-3.44,1.44-5.84,4.83-5.84,3.01,0,3.97,1.55,4.13,2.84h-3.11ZM142.12,24.42c0-1.14-.46-1.68-1.32-1.68s-1.31.38-1.31,1.59.35,1.92,1.33,1.92c.83,0,1.3-.57,1.3-1.82Z"/>
      <path class="cls-4" d="M156.03,22.39c0,3.36-1.22,5.83-4.69,5.83s-4.66-2.39-4.66-5.74,1.45-5.5,4.72-5.5,4.63,2.05,4.63,5.41M150.01,22.49c0,2.59.3,3.72,1.36,3.72,1.12,0,1.34-1.17,1.34-3.74s-.3-3.47-1.32-3.47-1.38.87-1.38,3.49Z"/>
      <path class="cls-4" d="M157.94,16.83h3.35v4.75c1.16-1.56,2.54-3.43,3.52-4.75h4l-3.92,4.47,4.13,6.73h-4.02l-2.44-4.7-1.25,1.36v3.35h-3.36v-11.2Z"/>
      <path class="cls-2" d="M135.07,43.52c.16,1.12.89,1.69,1.91,1.69s1.67-.54,1.67-1.49-.46-1.4-1.95-1.87c-1.88-.59-2.58-1.25-2.58-2.57,0-1.51,1.1-2.45,2.74-2.45,1.93,0,2.75,1.16,2.85,2.49h-1.21c-.13-.89-.61-1.47-1.66-1.47-.98,0-1.47.5-1.47,1.3s.45,1.14,1.83,1.57c2.18.69,2.72,1.57,2.72,2.84,0,1.52-1,2.67-2.99,2.67-1.84,0-2.95-1.02-3.07-2.72h1.22Z"/>
      <path class="cls-2" d="M146.77,42.64c0,1.97-.84,3.62-2.94,3.62s-2.86-1.73-2.86-3.58.93-3.45,2.94-3.45c1.89,0,2.86,1.48,2.86,3.41M142.19,42.66c0,1.54.58,2.59,1.71,2.59s1.66-1.02,1.66-2.59c0-1.45-.56-2.4-1.69-2.4s-1.67.98-1.67,2.41Z"/>
      <path class="cls-2" d="M148.41,46.14v-5.78h-.98v-1h.98v-.8c0-1.22.44-2.21,1.8-2.21.22,0,.48.03.63.09v1.03c-.13-.03-.31-.06-.51-.06-.55,0-.75.39-.75,1.11v.84h1.18v1h-1.18v5.78h-1.18Z"/>
      <path class="cls-2" d="M150.76,39.36h1.02v-1.95h1.18v1.95h1.28v1h-1.28v4.09c0,.55.13.78.68.78.17,0,.33-.02.48-.04v.91c-.27.1-.66.12-.89.12-1,0-1.45-.41-1.45-1.56v-4.3h-1.02v-1Z"/>
      <path class="cls-2" d="M160.49,45.59c0,2.11-.81,3.32-2.84,3.32s-2.51-1.09-2.61-2.06h1.17c.14.71.68,1.06,1.49,1.06,1.33,0,1.63-.9,1.63-2.33v-.53c-.33.73-.91,1.07-1.87,1.07-1.53,0-2.52-1.32-2.52-3.42s1.18-3.49,2.67-3.49c1.02,0,1.53.43,1.7.92,0-.26.04-.64.06-.79h1.16c-.01.32-.03,1.05-.03,1.98v4.25ZM156.17,42.69c0,1.5.61,2.38,1.6,2.38,1.19,0,1.6-.76,1.6-2.41s-.32-2.38-1.55-2.38c-1.01,0-1.65.87-1.65,2.41Z"/>
      <path class="cls-2" d="M163.09,43c0,1.26.5,2.25,1.61,2.25.99,0,1.3-.71,1.41-1.06h1.17c-.23.9-.89,2.07-2.63,2.07-2.04,0-2.76-1.63-2.76-3.53,0-1.67.79-3.51,2.82-3.51s2.66,1.65,2.66,3.25v.52h-4.28ZM166.21,42.12c-.03-1.08-.45-1.91-1.52-1.91-1.22,0-1.51,1.14-1.57,1.91h3.09Z"/>
      <rect class="cls-2" x="168.8" y="36.44" width="1.18" height="9.69"/>
      <path class="cls-1" d="M5.32,34.28v-1.91c.82-.1,1.4-.33,1.67-.66.29-.36.42-1.02.42-2.04v-14.07c0-1.02-.13-1.71-.42-2.04-.26-.33-.85-.56-1.67-.66v-1.91h8.58c3.55,0,6.33,1.02,8.4,3.09,2.04,2.07,3.07,4.9,3.07,8.45,0,1.81-.29,3.52-.9,5.1s-1.46,2.93-2.6,4.04c-.9.89-1.96,1.58-3.18,1.97-1.22.43-2.7.62-4.45.62H5.32ZM11.94,28.46c0,1.55.19,2.56.56,3.06s1.09.72,2.15.72c1.8,0,3.23-.79,4.24-2.4,1.03-1.58,1.54-3.81,1.54-6.64,0-3.25-.64-5.79-1.88-7.59-1.27-1.81-3.02-2.7-5.3-2.7-.48,0-.82.13-1.01.36s-.29.66-.29,1.22v13.97ZM29.58,23.95v-1.91c1.43-.13,2.57-.62,3.39-1.45s1.25-1.84,1.25-3.09c0-.85-.24-1.61-.74-2.17s-1.14-.85-1.91-.85c-.53,0-1.06.16-1.59.49-.56.3-1.14.79-1.75,1.45l-.77-1.25c.82-1.32,1.7-2.3,2.62-2.96.93-.62,1.91-.95,2.99-.95,1.35,0,2.46.46,3.36,1.38.87.92,1.32,2.07,1.32,3.42,0,.99-.21,1.91-.64,2.76-.42.82-1.09,1.61-1.96,2.33,1.14.62,1.96,1.41,2.49,2.3.56.92.82,1.97.82,3.22,0,2.3-.74,4.21-2.23,5.75-1.51,1.55-3.42,2.3-5.72,2.3-1.14,0-1.99-.2-2.54-.56-.58-.36-.87-.92-.87-1.64,0-.36.11-.66.32-.95.21-.26.48-.39.77-.39.34,0,.9.16,1.67.53s1.38.56,1.83.56c.9,0,1.67-.36,2.28-1.12.64-.72.93-1.64.93-2.73,0-1.38-.45-2.47-1.38-3.29-.93-.79-2.2-1.18-3.84-1.18h-.11ZM56.05,11v1.87c-.82.1-1.38.33-1.64.66-.29.36-.42,1.02-.42,2.07v12.86c0,1.71.21,2.79.61,3.29.4.46,1.22.69,2.46.69,1.54,0,2.78-.36,3.71-1.05s1.83-1.97,2.73-3.81h1.46l-1.14,6.71h-16.53v-1.91c.82-.1,1.4-.33,1.67-.66.29-.36.42-1.02.42-2.04v-14.07c0-1.02-.13-1.71-.42-2.04-.26-.36-.82-.59-1.67-.69v-1.87h8.77ZM66.11,34.28v-1.91c.48-.13.85-.39,1.11-.79.29-.43.58-1.12.85-2.14l4.53-16.41c.05-.2.08-.33.08-.43.03-.1.03-.16.03-.23,0-.23-.05-.46-.13-.69-.11-.2-.24-.46-.45-.69h4.74l5.3,18.81c.24.82.5,1.41.79,1.84s.66.66,1.06.72v1.91h-8.21v-1.91c.58-.03.98-.16,1.27-.39.26-.23.4-.59.4-1.05,0-.13-.03-.33-.05-.53s-.08-.46-.16-.79l-.77-3.49h-5.77l-.69,3.19c-.08.33-.11.59-.13.79s-.05.36-.05.53c0,.56.13.99.42,1.28.26.3.66.46,1.17.46h.08v1.91h-5.4ZM71.31,24.09h4.5l-2.23-8.38-2.28,8.38ZM85.45,34.28v-1.91c.9-.1,1.51-.39,1.85-.89.32-.49.48-1.58.48-3.22v-13.51c-.42-.66-.82-1.15-1.17-1.41-.34-.3-.72-.43-1.09-.43h-.08v-1.91h5.19c.26,0,.42.03.53.1.11.1.24.26.42.53l9.67,14.17v-9.6c0-1.02-.19-1.78-.56-2.27-.37-.53-.95-.85-1.8-1.02v-1.91h6.41v1.91c-.85.16-1.46.49-1.77.95-.34.49-.5,1.25-.5,2.33v14.7c0,.59,0,1.18.03,1.84.03.62.05,1.28.11,2.01h-1.91l-11.76-17.13v10.65c0,1.55.19,2.56.58,3.09.37.56,1.11.89,2.23,1.02v1.91h-6.86ZM106.83,34.28v-1.91c.82-.1,1.4-.33,1.67-.66.29-.36.42-1.02.42-2.04v-14.07c0-1.02-.13-1.71-.42-2.04-.26-.33-.85-.56-1.67-.66v-1.91h8.58c3.55,0,6.33,1.02,8.4,3.09,2.04,2.07,3.07,4.9,3.07,8.45,0,1.81-.29,3.52-.9,5.1s-1.46,2.93-2.6,4.04c-.9.89-1.96,1.58-3.18,1.97-1.22.43-2.7.62-4.45.62h-8.93ZM113.45,28.46c0,1.55.19,2.56.56,3.06s1.09.72,2.15.72c1.8,0,3.23-.79,4.24-2.4,1.03-1.58,1.54-3.81,1.54-6.64,0-3.25-.64-5.79-1.88-7.59-1.27-1.81-3.02-2.7-5.3-2.7-.48,0-.82.13-1.01.36s-.29.66-.29,1.22v13.97Z"/>
      <path class="cls-2" d="M122.85,10.14v-3.51h-1.31v-.47h3.15v.47h-1.31v3.51h-.53ZM125.22,10.14v-3.97h.79l.94,2.81c.09.26.15.46.19.59.04-.14.12-.36.21-.64l.95-2.76h.7v3.97h-.51v-3.32l-1.16,3.32h-.47l-1.15-3.39v3.39h-.51Z"/>
      <path class="cls-3" d="M9.46,45.78l1.2.37c-.18.68-.49,1.17-.92,1.51-.43.33-.98.49-1.63.49-.82,0-1.49-.28-2.01-.84s-.79-1.31-.79-2.28c0-1.02.27-1.81.79-2.38.53-.56,1.22-.85,2.08-.85.75,0,1.36.22,1.83.67.27.26.49.63.62,1.13l-1.22.29c-.07-.32-.22-.56-.45-.75-.23-.18-.51-.27-.84-.27-.45,0-.82.16-1.1.49s-.43.86-.43,1.58c0,.77.14,1.33.42,1.65.28.33.64.5,1.09.5.33,0,.62-.1.85-.32.24-.21.41-.54.51-.98ZM12.87,41.91v2.27c.38-.45.84-.68,1.37-.68.27,0,.51.05.74.15.21.1.38.23.49.38.11.16.19.33.23.52s.06.48.06.88v2.6h-1.17v-2.34c0-.46-.03-.76-.07-.88-.04-.13-.12-.23-.24-.3-.11-.08-.26-.11-.43-.11-.2,0-.37.04-.53.15-.15.09-.27.23-.33.43-.08.19-.11.47-.11.84v2.22h-1.17v-6.13h1.17ZM16.67,45.76c0-.39.09-.77.29-1.13.19-.37.46-.65.81-.84.35-.2.74-.29,1.18-.29.68,0,1.22.21,1.65.65.43.44.64.99.64,1.66s-.21,1.23-.65,1.67c-.43.44-.98.67-1.63.67-.4,0-.8-.09-1.16-.27-.37-.19-.65-.45-.84-.81-.2-.36-.29-.79-.29-1.3ZM17.87,45.82c0,.44.1.78.32,1.02.21.23.46.35.77.35s.56-.12.77-.35c.21-.24.31-.57.31-1.03,0-.43-.1-.77-.31-1s-.46-.35-.77-.35-.56.12-.77.35c-.21.23-.32.57-.32,1.01ZM22.17,48.04v-6.13h1.17v6.13h-1.17ZM27.11,46.64l1.17.2c-.15.43-.38.75-.71.98-.33.22-.74.33-1.21.33-.78,0-1.34-.26-1.72-.76-.29-.4-.44-.92-.44-1.53,0-.74.2-1.31.57-1.73.38-.42.87-.62,1.46-.62.66,0,1.18.21,1.56.65.38.44.56,1.11.55,2.01h-2.93c0,.35.1.62.28.81s.41.29.68.29c.18,0,.33-.05.46-.15.13-.09.22-.26.28-.48ZM27.18,45.45c0-.34-.09-.6-.27-.78-.16-.18-.37-.27-.61-.27-.26,0-.46.09-.63.28-.16.19-.25.44-.24.76h1.75ZM33.17,44.92l-1.15.21c-.03-.23-.13-.4-.27-.52-.14-.11-.32-.17-.54-.17-.29,0-.52.1-.69.3-.18.21-.27.55-.27,1.02,0,.53.09.9.27,1.12.18.21.41.33.71.33.22,0,.4-.07.55-.19.15-.13.24-.35.3-.66l1.15.2c-.12.53-.35.93-.68,1.2-.34.27-.8.41-1.37.41-.65,0-1.16-.21-1.55-.62s-.58-.98-.58-1.7.2-1.31.58-1.71c.38-.41.91-.62,1.57-.62.54,0,.98.12,1.29.35s.55.58.68,1.06ZM34.93,44.97l-1.06-.19c.12-.44.33-.75.62-.97.3-.21.73-.31,1.31-.31.52,0,.92.06,1.17.19.25.12.44.27.54.47.1.19.15.54.15,1.05l-.02,1.37c0,.38.02.68.06.86.03.19.1.38.21.6h-1.16c-.03-.08-.07-.19-.11-.34-.02-.07-.03-.12-.04-.14-.2.2-.41.34-.64.44-.23.09-.47.15-.73.15-.45,0-.81-.13-1.08-.38-.27-.24-.39-.56-.39-.93,0-.26.06-.48.18-.68s.29-.34.5-.44c.21-.11.52-.2.93-.27.55-.1.92-.21,1.14-.29v-.12c0-.23-.05-.39-.16-.49-.12-.09-.33-.15-.63-.15-.21,0-.38.04-.5.13-.11.08-.21.22-.28.44ZM36.51,45.92c-.15.05-.38.11-.71.18s-.54.14-.64.21c-.15.11-.23.25-.23.41s.06.31.19.43c.12.12.27.18.46.18.21,0,.42-.07.61-.21.15-.11.24-.24.28-.39.03-.1.04-.29.04-.57v-.23ZM38.82,48.04v-6.13h1.17v6.13h-1.17ZM45.06,44.92l-1.15.21c-.03-.23-.13-.4-.27-.52-.14-.11-.32-.17-.54-.17-.29,0-.52.1-.69.3-.18.21-.27.55-.27,1.02,0,.53.09.9.27,1.12.18.21.41.33.71.33.22,0,.4-.07.55-.19.15-.13.24-.35.3-.66l1.15.2c-.12.53-.35.93-.68,1.2-.34.27-.8.41-1.37.41-.65,0-1.16-.21-1.55-.62s-.58-.98-.58-1.7.2-1.31.58-1.71c.38-.41.91-.62,1.57-.62.54,0,.98.12,1.29.35s.55.58.68,1.06ZM45.95,43v-1.09h1.17v1.09h-1.17ZM45.95,48.04v-4.44h1.17v4.44h-1.17ZM47.82,43.6h.65v-.33c0-.38.04-.66.12-.84.08-.19.23-.33.44-.45.21-.11.48-.17.81-.17s.66.05.98.15l-.15.82c-.2-.04-.38-.07-.56-.07s-.3.04-.38.12c-.07.08-.11.23-.11.46v.32h.88v.92h-.88v3.52h-1.17v-3.52h-.65v-.92ZM53.75,46.64l1.17.2c-.15.43-.38.75-.71.98-.33.22-.74.33-1.21.33-.78,0-1.34-.26-1.72-.76-.29-.4-.44-.92-.44-1.53,0-.74.2-1.31.57-1.73.38-.42.87-.62,1.46-.62.66,0,1.18.21,1.56.65.38.44.56,1.11.55,2.01h-2.93c0,.35.1.62.28.81s.41.29.68.29c.18,0,.33-.05.46-.15.13-.09.22-.26.28-.48ZM53.81,45.45c0-.34-.09-.6-.27-.78-.16-.18-.37-.27-.61-.27-.26,0-.46.09-.63.28-.16.19-.25.44-.24.76h1.75ZM57.06,48.04h-1.17v-4.44h1.09v.63c.19-.3.36-.5.5-.59.15-.09.32-.14.51-.14.27,0,.52.08.77.22l-.36,1.02c-.21-.13-.38-.19-.56-.19s-.31.04-.42.14c-.11.09-.21.25-.27.49-.07.24-.1.74-.1,1.49v1.37ZM58.99,45.76c0-.39.09-.77.29-1.13.19-.37.46-.65.81-.84.35-.2.74-.29,1.18-.29.68,0,1.22.21,1.65.65.43.44.64.99.64,1.66s-.21,1.23-.65,1.67c-.43.44-.98.67-1.63.67-.4,0-.8-.09-1.16-.27-.37-.19-.65-.45-.84-.81-.2-.36-.29-.79-.29-1.3ZM60.2,45.82c0,.44.1.78.32,1.02.21.23.46.35.77.35s.56-.12.77-.35c.21-.24.31-.57.31-1.03,0-.43-.1-.77-.31-1s-.46-.35-.77-.35-.56.12-.77.35c-.21.23-.32.57-.32,1.01ZM64.49,48.04v-6.13h1.17v6.13h-1.17ZM72.97,43.41l-1.14.13c-.03-.23-.1-.41-.21-.52-.12-.11-.27-.16-.45-.16-.25,0-.46.11-.63.33s-.27.68-.33,1.39c.3-.34.66-.51,1.09-.51.49,0,.91.19,1.26.56.35.38.52.86.52,1.45,0,.62-.18,1.13-.55,1.51-.37.38-.85.57-1.42.57-.62,0-1.13-.24-1.52-.73-.4-.48-.6-1.27-.6-2.36s.21-1.94.62-2.44c.41-.5.95-.74,1.62-.74.46,0,.85.13,1.15.39.31.26.5.64.58,1.14ZM70.31,45.98c0,.38.09.68.27.88.17.21.38.32.6.32s.4-.09.55-.26.21-.45.21-.84-.08-.69-.23-.88c-.16-.18-.35-.27-.59-.27-.22,0-.41.09-.57.27-.15.18-.23.44-.23.79ZM75.74,41.88c.59,0,1.05.21,1.39.63.4.5.6,1.34.6,2.51s-.2,1.99-.6,2.5c-.33.42-.8.63-1.39.63s-1.08-.23-1.45-.69c-.37-.45-.55-1.27-.55-2.46s.21-1.98.6-2.5c.33-.42.8-.62,1.39-.62ZM75.74,42.86c-.15,0-.27.04-.38.14-.11.09-.2.25-.26.49-.08.3-.12.81-.12,1.54s.03,1.21.11,1.48c.07.27.15.45.27.54.11.09.23.14.38.14.14,0,.27-.04.37-.14.11-.09.2-.26.26-.49.08-.3.12-.81.12-1.53s-.03-1.21-.1-1.49c-.08-.27-.16-.45-.27-.54-.11-.09-.23-.14-.37-.14ZM80.5,41.88c.59,0,1.05.21,1.39.63.4.5.6,1.34.6,2.51s-.2,1.99-.6,2.5c-.33.42-.8.63-1.39.63s-1.08-.23-1.45-.69c-.37-.45-.55-1.27-.55-2.46s.21-1.98.6-2.5c.33-.42.8-.62,1.39-.62ZM80.5,42.86c-.15,0-.27.04-.38.14-.11.09-.2.25-.26.49-.08.3-.12.81-.12,1.54s.03,1.21.11,1.48c.07.27.15.45.27.54.11.09.23.14.38.14.14,0,.27-.04.37-.14.11-.09.2-.26.26-.49.08-.3.12-.81.12-1.53s-.03-1.21-.1-1.49c-.08-.27-.16-.45-.27-.54-.11-.09-.23-.14-.37-.14ZM85.26,41.88c.59,0,1.05.21,1.39.63.4.5.6,1.34.6,2.51s-.2,1.99-.6,2.5c-.33.42-.8.63-1.39.63s-1.08-.23-1.45-.69c-.37-.45-.55-1.27-.55-2.46s.21-1.98.6-2.5c.33-.42.8-.62,1.39-.62ZM85.26,42.86c-.15,0-.27.04-.38.14-.11.09-.2.25-.26.49-.08.3-.12.81-.12,1.54s.03,1.21.11,1.48c.07.27.15.45.27.54.11.09.23.14.38.14.14,0,.27-.04.37-.14.11-.09.2-.26.26-.49.08-.3.12-.81.12-1.53s-.03-1.21-.1-1.49c-.08-.27-.16-.45-.27-.54-.11-.09-.23-.14-.37-.14ZM90.01,41.88c.59,0,1.05.21,1.39.63.4.5.6,1.34.6,2.51s-.2,1.99-.6,2.5c-.33.42-.8.63-1.39.63s-1.08-.23-1.45-.69c-.37-.45-.55-1.27-.55-2.46s.21-1.98.6-2.5c.33-.42.8-.62,1.39-.62ZM90.01,42.86c-.15,0-.27.04-.38.14-.11.09-.2.25-.26.49-.08.3-.12.81-.12,1.54s.03,1.21.11,1.48c.07.27.15.45.27.54.11.09.23.14.38.14.14,0,.27-.04.37-.14.11-.09.2-.26.26-.49.08-.3.12-.81.12-1.53s-.03-1.21-.1-1.49c-.08-.27-.16-.45-.27-.54-.11-.09-.23-.14-.37-.14ZM95.38,48.04v-6.13h1.24v6.13h-1.24ZM97.78,48.04v-1.17h1.17v1.17h-1.17ZM100.18,41.91h1.24v3.32c0,.53.02.86.04,1.03.06.25.18.45.38.6.2.15.47.23.81.23s.61-.07.79-.21c.17-.15.28-.33.32-.53.03-.21.05-.56.05-1.04v-3.39h1.24v3.22c0,.74-.03,1.26-.1,1.57-.06.3-.19.56-.37.77-.18.21-.42.38-.72.5-.3.13-.68.19-1.17.19-.58,0-1.03-.07-1.33-.21s-.54-.31-.71-.52c-.18-.22-.29-.44-.35-.68-.08-.35-.12-.87-.12-1.56v-3.27ZM106.34,48.04v-1.17h1.17v1.17h-1.17Z"/>
      <path class="cls-2" d="M1.68,8.17h-.59l1.72-2.7-1.69-2.67h.48c.31,0,.56-.11.75-.32.21-.18.32-.43.32-.75,0-.17-.04-.35-.11-.52-.06-.16-.16-.3-.27-.41-.08-.08-.19-.15-.34-.2-.14-.05-.39-.07-.73-.07H.48v4.85h-.48V0h1.34c.29,0,.53.02.71.07.16.04.32.13.48.25.2.16.36.36.46.59.11.22.17.49.17.79,0,.42-.11.78-.34,1.09-.22.29-.5.45-.86.5l1.13,1.72,1.36-2.22h.58l-1.67,2.67,1.72,2.7h-.61l-1.38-2.27-1.42,2.27Z"/>
    </g>
  </g>
</svg>