<?xml version="1.0" encoding="UTF-8"?>
<svg id="Layer_2" data-name="Layer 2" xmlns="http://www.w3.org/2000/svg" viewBox="0 0 134.88 51.4">
  <defs>
    <style>
      .cls-1 {
        fill: #231f20;
      }

      .cls-2 {
        fill: #ed1651;
      }
    </style>
  </defs>
  <g id="Layer_1-2" data-name="Layer 1">
    <g>
      <path class="cls-1" d="M6.94,38.37h-2.09v-3.76h.47v3.36h1.62v.4ZM8.96,37.04h-1.53v-.34h1.53v.34ZM12.98,38.37h-.52l-.43-1.05h-1.71l-.4,1.05h-.52l1.55-3.76h.49l1.55,3.76ZM11.87,36.92l-.63-1.61s-.05-.13-.06-.25h-.02c-.02.11-.04.19-.06.25l-.63,1.6h1.4ZM15,36.12c-.08-.06-.2-.09-.35-.09-.2,0-.36.09-.49.26s-.2.41-.2.71v1.37h-.46v-2.68h.46v.55h.01c.06-.19.17-.34.3-.44.14-.11.29-.16.45-.16.12,0,.21.01.28.04v.45ZM17.95,38.15c0,.98-.51,1.48-1.52,1.48-.36,0-.67-.06-.93-.19v-.43c.32.17.63.25.93.25.71,0,1.06-.35,1.06-1.05v-.3h-.01c-.22.34-.55.52-.99.52-.36,0-.64-.12-.86-.36-.22-.24-.33-.56-.33-.96,0-.46.12-.82.35-1.09.24-.27.56-.4.97-.4s.68.14.86.43h.01v-.37h.46v2.47ZM17.49,37.15v-.4c0-.21-.07-.4-.23-.55-.16-.16-.35-.23-.58-.23-.28,0-.51.1-.67.29s-.24.47-.24.82c0,.3.08.54.23.72.16.18.36.27.62.27s.47-.09.63-.26c.16-.17.24-.39.24-.66ZM19.12,35c-.08,0-.16-.03-.21-.08-.06-.05-.09-.12-.09-.2s.03-.14.09-.2c.06-.05.13-.08.21-.08.09,0,.16.03.22.08.06.05.09.12.09.2,0,.08-.03.14-.09.2-.06.05-.13.08-.22.08ZM19.34,38.37h-.46v-2.68h.46v2.68ZM22.66,38.37h-.46v-1.54c0-.57-.22-.85-.67-.85-.23,0-.42.08-.57.24-.15.16-.22.37-.22.61v1.54h-.46v-2.68h.46v.45h.01c.22-.34.53-.51.94-.51.32,0,.56.1.72.28s.25.46.25.82v1.64ZM23.76,35c-.08,0-.16-.03-.21-.08-.06-.05-.09-.12-.09-.2s.03-.14.09-.2c.06-.05.13-.08.21-.08.09,0,.16.03.22.08.06.05.09.12.09.2,0,.08-.03.14-.09.2-.06.05-.13.08-.22.08ZM23.99,38.37h-.46v-2.68h.46v2.68ZM27.3,38.37h-.46v-1.54c0-.57-.22-.85-.67-.85-.23,0-.42.08-.57.24-.15.16-.22.37-.22.61v1.54h-.46v-2.68h.46v.45h.01c.22-.34.53-.51.94-.51.32,0,.56.1.72.28.17.19.25.46.25.82v1.64ZM30.48,37.13h-2.03c0,.3.09.53.26.69.17.17.39.25.68.25.32,0,.62-.1.89-.3v.4c-.25.17-.59.26-1,.26s-.72-.12-.95-.37c-.24-.25-.35-.59-.35-1.03s.13-.76.38-1.03c.25-.26.57-.39.95-.39s.67.11.87.34c.21.23.31.55.31.95v.23ZM30.01,36.77c0-.25-.06-.45-.19-.58-.13-.14-.3-.21-.53-.21s-.4.07-.55.22c-.15.14-.25.33-.28.57h1.55ZM34.96,37.3c0,.17-.03.32-.1.46s-.16.26-.29.35c-.13.1-.28.18-.45.23-.17.05-.36.08-.57.08-.39,0-.69-.07-.91-.2v-.46c.27.2.58.3.93.3.14,0,.27-.02.38-.05.11-.04.21-.09.29-.14.08-.06.14-.14.19-.23.04-.09.06-.19.06-.3,0-.49-.37-.74-1.12-.74h-.33v-.37h.32c.66,0,.99-.23.99-.69,0-.42-.25-.64-.76-.64-.28,0-.55.09-.8.27v-.42c.26-.14.56-.21.91-.21.17,0,.32.02.46.06s.25.11.35.18c.1.08.17.18.22.28.05.11.08.23.08.37,0,.49-.26.81-.8.96h0c.14.02.26.05.38.1.11.05.22.11.3.19.09.08.15.17.2.27.05.11.07.22.07.35ZM38.3,38.15c0,.98-.51,1.48-1.52,1.48-.36,0-.67-.06-.93-.19v-.43c.32.17.63.25.93.25.71,0,1.06-.35,1.06-1.05v-.3h-.01c-.22.34-.55.52-.99.52-.36,0-.64-.12-.86-.36-.22-.24-.33-.56-.33-.96,0-.46.12-.82.35-1.09.24-.27.56-.4.97-.4s.68.14.86.43h.01v-.37h.46v2.47ZM37.84,37.15v-.4c0-.21-.07-.4-.23-.55-.16-.16-.35-.23-.58-.23-.28,0-.51.1-.67.29s-.24.47-.24.82c0,.3.08.54.23.72.16.18.36.27.62.27s.47-.09.63-.26c.16-.17.24-.39.24-.66ZM43.31,38.37h-.46v-1.55c0-.3-.05-.51-.15-.64-.1-.13-.26-.2-.49-.2-.2,0-.36.09-.5.25s-.21.37-.21.6v1.54h-.46v-1.59c0-.53-.22-.79-.66-.79-.2,0-.37.08-.5.24-.13.16-.2.37-.2.62v1.54h-.46v-2.68h.46v.42h.01c.21-.32.5-.48.89-.48.2,0,.37.05.52.15.14.1.25.24.3.4.21-.37.53-.55.95-.55.63,0,.95.37.95,1.1v1.65ZM46.17,37.77l-.45,1.29h-.33l.33-1.29h.45ZM48.64,38.37v-3.76h1.11c1.42,0,2.13.61,2.13,1.83,0,.58-.2,1.05-.59,1.4-.39.35-.92.53-1.58.53h-1.06ZM49.11,35v2.96h.6c.53,0,.94-.13,1.24-.4.29-.26.44-.64.44-1.12,0-.96-.55-1.44-1.64-1.44h-.63ZM55.69,38.37h-.47v-1.71h-2.08v1.71h-.47v-3.76h.47v1.65h2.08v-1.65h.47v3.76ZM59.87,38.37h-.52l-.43-1.05h-1.71l-.4,1.05h-.52l1.55-3.76h.49l1.55,3.76ZM58.77,36.92l-.63-1.61s-.05-.13-.06-.25h-.02c-.02.11-.04.19-.06.25l-.63,1.6h1.4ZM63.67,35.59c0-.11-.02-.21-.06-.3s-.09-.16-.16-.21c-.07-.05-.14-.1-.24-.12s-.19-.04-.29-.04c-.09,0-.18.01-.26.03-.09.02-.17.05-.25.1-.08.04-.16.09-.24.14-.07.06-.14.12-.21.19v-.46c.13-.12.28-.2.44-.27.16-.06.36-.09.59-.09.17,0,.32.02.46.06.14.05.26.11.36.2.1.09.18.19.25.32.06.12.09.27.09.43,0,.15-.02.28-.05.41-.04.12-.09.23-.17.34s-.17.21-.28.31c-.11.1-.24.2-.4.3-.19.12-.34.23-.47.32-.12.09-.22.17-.29.25-.07.08-.12.16-.15.24-.03.08-.05.17-.05.27h2.01v.39h-2.49v-.19c0-.16.02-.3.06-.42.03-.12.1-.24.18-.35.09-.11.2-.22.34-.33.14-.11.31-.24.51-.38.15-.1.27-.19.37-.28.1-.09.18-.18.24-.27.06-.09.1-.18.13-.27.03-.09.04-.19.04-.3ZM67.46,36.47c0,.31-.03.59-.09.83-.06.25-.15.45-.26.62s-.25.3-.42.38c-.17.09-.36.13-.57.13-.2,0-.38-.04-.54-.12-.16-.09-.29-.2-.4-.37s-.2-.35-.25-.59c-.06-.23-.09-.5-.09-.79,0-.33.03-.62.09-.87.06-.25.15-.46.26-.63.11-.17.25-.3.43-.39.17-.09.36-.13.58-.13.85,0,1.26.64,1.26,1.93ZM66.99,36.51c0-1.07-.27-1.61-.82-1.61-.57,0-.86.54-.86,1.63,0,1.01.28,1.52.85,1.52s.83-.52.83-1.55ZM70.56,36.47c0,.31-.03.59-.09.83-.06.25-.15.45-.26.62s-.25.3-.42.38c-.17.09-.36.13-.57.13-.2,0-.38-.04-.54-.12-.16-.09-.29-.2-.4-.37s-.2-.35-.25-.59c-.06-.23-.09-.5-.09-.79,0-.33.03-.62.09-.87.06-.25.15-.46.26-.63.11-.17.25-.3.43-.39.17-.09.36-.13.58-.13.85,0,1.26.64,1.26,1.93ZM70.09,36.51c0-1.07-.27-1.61-.82-1.61-.57,0-.86.54-.86,1.63,0,1.01.28,1.52.85,1.52s.83-.52.83-1.55ZM76.91,38.37h-.46v-1.55c0-.3-.05-.51-.15-.64-.1-.13-.26-.2-.49-.2-.2,0-.36.09-.5.25s-.21.37-.21.6v1.54h-.46v-1.59c0-.53-.22-.79-.66-.79-.2,0-.37.08-.5.24-.13.16-.2.37-.2.62v1.54h-.46v-2.68h.46v.42h.01c.21-.32.5-.48.89-.48.2,0,.37.05.52.15.14.1.25.24.3.4.21-.37.53-.55.95-.55.63,0,.95.37.95,1.1v1.65ZM80.24,38.15c0,.98-.51,1.48-1.52,1.48-.36,0-.67-.06-.93-.19v-.43c.32.17.63.25.93.25.71,0,1.06-.35,1.06-1.05v-.3h-.01c-.22.34-.55.52-.99.52-.36,0-.64-.12-.86-.36-.22-.24-.33-.56-.33-.96,0-.46.12-.82.35-1.09.24-.27.56-.4.97-.4s.68.14.86.43h.01v-.37h.46v2.47ZM79.78,37.15v-.4c0-.21-.07-.4-.23-.55-.16-.16-.35-.23-.58-.23-.28,0-.51.1-.67.29s-.24.47-.24.82c0,.3.08.54.23.72.16.18.36.27.62.27s.47-.09.63-.26c.16-.17.24-.39.24-.66ZM81.59,37.77l-.45,1.29h-.33l.33-1.29h.45Z"/>
      <path class="cls-1" d="M5.32,42.83v1.42h-.47v-3.76h1.1c.43,0,.76.1,1,.3.24.19.36.47.36.83s-.13.64-.39.88c-.26.23-.62.34-1.07.34h-.53ZM5.32,40.89v1.54h.49c.33,0,.57-.07.74-.21.17-.14.26-.33.26-.59,0-.5-.32-.75-.94-.75h-.55ZM9.5,42c-.08-.06-.2-.09-.35-.09-.2,0-.36.09-.49.26s-.2.41-.2.71v1.37h-.46v-2.68h.46v.55h.01c.06-.19.17-.34.3-.44.14-.11.29-.16.45-.16.12,0,.21.01.28.04v.45ZM11.21,44.32c-.43,0-.76-.12-1.02-.38s-.38-.59-.38-1c0-.45.13-.81.4-1.06s.62-.38,1.07-.38c.43,0,.76.12,1,.37.24.25.36.59.36,1.03s-.13.77-.39,1.03c-.26.26-.6.39-1.04.39ZM11.24,41.86c-.29,0-.53.09-.7.28-.17.19-.26.45-.26.78s.09.57.26.75c.18.19.41.28.7.28s.53-.09.68-.27c.16-.18.24-.43.24-.77s-.08-.6-.24-.78c-.16-.18-.39-.27-.68-.27ZM15.43,44.25h-.46v-.42h-.01c-.2.32-.49.48-.89.48-.29,0-.51-.07-.67-.21-.16-.14-.24-.33-.24-.56,0-.5.32-.79.95-.88l.86-.11c0-.46-.2-.69-.59-.69-.34,0-.66.11-.94.33v-.44c.28-.17.61-.25.98-.25.67,0,1.01.33,1.01,1v1.74ZM14.97,42.9l-.7.09c-.21.03-.37.08-.48.14-.1.08-.16.2-.16.38,0,.13.05.24.15.32.1.08.24.12.4.12.23,0,.41-.08.56-.23s.22-.34.22-.57v-.27ZM18.68,44.25h-.46v-1.54c0-.57-.22-.85-.67-.85-.23,0-.42.08-.57.24-.15.16-.22.37-.22.61v1.54h-.46v-2.68h.46v.45h.01c.22-.34.53-.51.94-.51.32,0,.56.1.72.28s.25.46.25.82v1.64ZM20.88,44.23c-.11.06-.25.09-.43.09-.5,0-.75-.26-.75-.79v-1.59h-.49v-.37h.49v-.66l.46-.14v.79h.72v.37h-.72v1.51c0,.18.03.31.1.39.07.08.17.12.33.12.11,0,.21-.03.3-.09v.37ZM23.88,44.25h-.46v-1.55c0-.56-.22-.84-.67-.84-.22,0-.41.08-.57.24s-.23.37-.23.62v1.52h-.46v-3.97h.46v1.73h.01c.22-.34.53-.5.94-.5.65,0,.97.37.97,1.1v1.65ZM25.95,44.32c-.43,0-.76-.12-1.02-.38s-.38-.59-.38-1c0-.45.13-.81.4-1.06s.62-.38,1.07-.38c.43,0,.76.12,1,.37.24.25.36.59.36,1.03s-.13.77-.39,1.03c-.26.26-.6.39-1.04.39ZM25.99,41.86c-.29,0-.53.09-.7.28-.17.19-.26.45-.26.78s.09.57.26.75c.18.19.41.28.7.28s.53-.09.68-.27c.16-.18.24-.43.24-.77s-.08-.6-.24-.78c-.16-.18-.39-.27-.68-.27ZM30.08,44.13c-.22.13-.48.19-.79.19-.41,0-.74-.12-.99-.38-.25-.25-.38-.57-.38-.97,0-.45.14-.8.41-1.07.27-.27.63-.4,1.09-.4.25,0,.48.04.67.13v.44c-.21-.14-.44-.21-.68-.21-.29,0-.53.1-.72.3-.19.2-.28.46-.28.78s.09.56.26.75c.18.18.41.27.71.27.25,0,.49-.08.71-.24v.41ZM33.06,41.57l-1.32,3.11c-.24.55-.57.83-.99.83-.12,0-.22-.01-.3-.03v-.39c.1.03.19.05.27.05.24,0,.41-.13.52-.39l.23-.51-1.12-2.68h.51l.78,2.07s.03.09.06.2h.02s.03-.11.06-.2l.82-2.07h.48ZM35.61,44.25h-.46v-.42h-.01c-.2.32-.49.48-.89.48-.29,0-.51-.07-.67-.21-.16-.14-.24-.33-.24-.56,0-.5.32-.79.95-.88l.86-.11c0-.46-.2-.69-.59-.69-.34,0-.66.11-.94.33v-.44c.28-.17.61-.25.98-.25.67,0,1.01.33,1.01,1v1.74ZM35.15,42.9l-.7.09c-.21.03-.37.08-.48.14-.1.08-.16.2-.16.38,0,.13.05.24.15.32.1.08.24.12.4.12.23,0,.41-.08.56-.23s.22-.34.22-.57v-.27ZM38.86,44.25h-.46v-1.54c0-.57-.22-.85-.67-.85-.23,0-.42.08-.57.24-.15.16-.22.37-.22.61v1.54h-.46v-2.68h.46v.45h.01c.22-.34.53-.51.94-.51.32,0,.56.1.72.28.17.19.25.46.25.82v1.64ZM39.97,40.89c-.08,0-.16-.03-.21-.08-.06-.05-.09-.12-.09-.2s.03-.14.09-.2c.06-.05.13-.08.21-.08.09,0,.16.03.22.08.06.05.09.12.09.2,0,.08-.03.14-.09.2-.06.05-.13.08-.22.08ZM40.19,44.25h-.46v-2.68h.46v2.68ZM43.58,44.25h-.46v-.45h-.01c-.21.34-.54.52-.99.52-.36,0-.65-.12-.87-.36-.21-.24-.32-.57-.32-.98,0-.45.12-.8.36-1.07.24-.27.56-.4.95-.4s.68.14.86.43h.01v-1.66h.46v3.97ZM43.12,43.04v-.4c0-.22-.07-.4-.23-.55s-.35-.23-.59-.23c-.28,0-.5.1-.66.29s-.24.46-.24.8c0,.31.08.55.23.74.16.18.36.27.63.27s.46-.09.62-.26c.16-.17.24-.39.24-.66ZM44.74,40.89c-.08,0-.16-.03-.21-.08-.06-.05-.09-.12-.09-.2s.03-.14.09-.2c.06-.05.13-.08.21-.08.09,0,.16.03.22.08.06.05.09.12.09.2,0,.08-.03.14-.09.2-.06.05-.13.08-.22.08ZM44.97,44.25h-.46v-2.68h.46v2.68ZM48.28,44.25h-.46v-1.54c0-.57-.22-.85-.67-.85-.23,0-.42.08-.57.24-.15.16-.22.37-.22.61v1.54h-.46v-2.68h.46v.45h.01c.22-.34.53-.51.94-.51.32,0,.56.1.72.28.17.19.25.46.25.82v1.64ZM48.98,44.16v-.46c.25.18.53.26.83.26.4,0,.6-.13.6-.38,0-.07-.02-.13-.05-.18-.03-.05-.08-.09-.14-.13-.06-.04-.13-.07-.21-.1-.08-.03-.17-.06-.26-.1-.13-.05-.24-.09-.33-.14s-.18-.1-.24-.17c-.06-.06-.11-.13-.14-.2-.03-.08-.05-.17-.05-.27,0-.13.03-.24.09-.34s.14-.18.25-.24c.1-.06.22-.12.35-.15s.27-.05.41-.05c.25,0,.47.04.67.12v.43c-.21-.13-.45-.19-.73-.19-.08,0-.16.01-.23.03-.07.02-.13.04-.18.08-.05.03-.09.07-.11.12-.03.05-.04.1-.04.16,0,.07.01.13.04.18.03.04.07.09.12.12.05.04.11.07.19.1.07.03.16.06.25.1.13.04.24.09.34.14.1.05.18.1.26.16.07.06.12.13.16.21s.06.17.06.28c0,.13-.03.25-.09.35-.06.1-.15.18-.25.24-.1.06-.22.11-.36.14-.13.03-.28.05-.43.05-.3,0-.55-.05-.77-.16ZM55.53,40.74c-.06.1-.14.23-.22.37-.09.15-.18.32-.28.5-.1.18-.2.38-.29.6-.1.21-.2.43-.29.66-.09.23-.16.46-.23.69-.06.23-.11.46-.14.69h-.49c.03-.23.09-.45.16-.69.07-.23.15-.46.24-.69.09-.23.18-.44.28-.65.1-.2.2-.4.29-.57.09-.17.18-.33.26-.46.07-.13.14-.24.18-.31h-2.02v-.39h2.56v.25ZM58.51,43.1c0,.18-.03.35-.1.5-.07.14-.17.27-.29.38-.12.11-.27.19-.45.25-.17.06-.37.09-.59.09-.37,0-.65-.05-.83-.16v-.46c.28.17.55.25.84.25.14,0,.28-.02.4-.06.11-.04.21-.1.3-.17.08-.07.14-.16.19-.26.04-.1.06-.21.06-.33,0-.25-.09-.43-.26-.57-.17-.14-.43-.21-.76-.21h-.17c-.06,0-.12,0-.18.01-.06,0-.12,0-.18,0-.06,0-.11.01-.16.02l.14-1.88h1.86v.39h-1.47l-.08,1.1c.06,0,.13,0,.19,0,.07,0,.13,0,.18,0,.21,0,.4.03.57.08.17.05.31.12.43.22.11.1.21.22.26.36.06.14.09.3.09.47ZM65.01,44.25h-.46v-1.55c0-.3-.05-.51-.15-.64-.1-.13-.26-.2-.49-.2-.2,0-.36.09-.5.25s-.21.37-.21.6v1.54h-.46v-1.59c0-.53-.22-.79-.66-.79-.2,0-.37.08-.5.24-.13.16-.2.37-.2.62v1.54h-.46v-2.68h.46v.42h.01c.21-.32.5-.48.89-.48.2,0,.37.05.52.15.14.1.25.24.3.4.21-.37.53-.55.95-.55.63,0,.95.37.95,1.1v1.65ZM68.33,44.04c0,.98-.51,1.48-1.52,1.48-.36,0-.67-.06-.93-.19v-.43c.32.17.63.25.93.25.71,0,1.06-.35,1.06-1.05v-.3h-.01c-.22.34-.55.52-.99.52-.36,0-.64-.12-.86-.36-.22-.24-.33-.56-.33-.96,0-.46.12-.82.35-1.09.24-.27.56-.4.97-.4s.68.14.86.43h.01v-.37h.46v2.47ZM67.87,43.04v-.4c0-.21-.07-.4-.23-.55-.16-.16-.35-.23-.58-.23-.28,0-.51.1-.67.29s-.24.47-.24.82c0,.3.08.54.23.72.16.18.36.27.62.27s.47-.09.63-.26c.16-.17.24-.39.24-.66ZM69.68,43.66l-.45,1.29h-.33l.33-1.29h.45ZM75.14,40.5l-1.49,3.76h-.52l-1.46-3.76h.52l1.12,2.98c.03.1.06.2.08.33h.01c.02-.11.05-.22.09-.34l1.14-2.97h.51ZM75.89,40.89c-.08,0-.16-.03-.21-.08-.06-.05-.09-.12-.09-.2s.03-.14.09-.2c.06-.05.13-.08.21-.08.09,0,.16.03.22.08.06.05.09.12.09.2,0,.08-.03.14-.09.2-.06.05-.13.08-.22.08ZM76.11,44.25h-.46v-2.68h.46v2.68ZM78.38,44.23c-.11.06-.25.09-.43.09-.5,0-.75-.26-.75-.79v-1.59h-.49v-.37h.49v-.66l.46-.14v.79h.72v.37h-.72v1.51c0,.18.03.31.1.39.07.08.17.12.33.12.11,0,.21-.03.3-.09v.37ZM79.15,44.31c-.09,0-.16-.03-.22-.09-.06-.06-.09-.13-.09-.21s.03-.15.09-.21c.06-.06.13-.09.22-.09s.16.03.22.09.09.13.09.21-.03.15-.09.21-.14.09-.22.09ZM81.88,44.25v-3.76h1.14c.35,0,.62.08.83.24.2.16.3.37.3.62,0,.21-.06.4-.18.55-.13.16-.29.27-.51.34h0c.27.04.49.13.66.3.16.16.24.38.24.63,0,.32-.12.58-.37.78-.25.2-.56.3-.94.3h-1.17ZM82.35,40.89v1.21h.48c.26,0,.46-.06.61-.18.14-.11.22-.28.22-.49,0-.37-.26-.55-.77-.55h-.54ZM82.35,42.5v1.35h.64c.28,0,.49-.06.64-.18.16-.12.23-.29.23-.5,0-.45-.32-.67-.97-.67h-.54ZM87.51,43.06c0,.18-.03.35-.1.5-.06.15-.15.28-.26.4-.11.11-.25.2-.4.26-.16.06-.33.09-.51.09-.2,0-.39-.04-.55-.12s-.29-.19-.41-.34c-.11-.15-.2-.33-.25-.54-.06-.21-.09-.46-.09-.72,0-.33.04-.62.11-.89.08-.27.19-.49.33-.69.14-.19.32-.33.52-.43.2-.1.43-.16.68-.16.28,0,.5.04.67.11v.41c-.21-.1-.43-.15-.66-.15-.18,0-.34.04-.49.11s-.26.18-.37.32c-.1.14-.18.31-.24.5-.05.19-.08.41-.08.64h.01c.18-.31.49-.47.92-.47.17,0,.33.03.48.09.14.05.26.13.36.24.1.1.17.22.23.37.05.14.08.3.08.47ZM87.04,43.12c0-.13-.02-.25-.05-.35-.03-.1-.09-.19-.16-.27-.06-.07-.15-.13-.25-.17-.1-.04-.21-.06-.33-.06s-.22.02-.32.06c-.1.04-.18.1-.25.17-.07.07-.13.15-.17.24s-.06.19-.06.29c0,.13.02.25.06.37s.1.21.17.3c.07.08.16.15.25.19.1.05.21.08.33.08s.22-.02.32-.06c.1-.04.18-.1.25-.17.07-.07.12-.16.16-.26.04-.1.06-.21.06-.34ZM91.99,43.19c0,.17-.03.32-.1.46s-.16.26-.29.35c-.13.1-.28.18-.45.23-.17.05-.36.08-.57.08-.39,0-.69-.07-.91-.2v-.46c.27.2.58.3.93.3.14,0,.27-.02.38-.05.11-.04.21-.09.29-.14.08-.06.14-.14.19-.23.04-.09.06-.19.06-.3,0-.49-.37-.74-1.12-.74h-.33v-.37h.32c.66,0,.99-.23.99-.69,0-.42-.25-.64-.76-.64-.28,0-.55.09-.8.27v-.42c.26-.14.56-.21.91-.21.17,0,.32.02.46.06s.25.11.35.18c.1.08.17.18.22.28.05.11.08.23.08.37,0,.49-.26.81-.8.96h0c.14.02.26.05.38.1.11.05.22.11.3.19.09.08.15.17.2.27.05.11.07.22.07.35ZM98.53,44.25h-.46v-1.55c0-.3-.05-.51-.15-.64-.1-.13-.26-.2-.49-.2-.2,0-.36.09-.5.25s-.21.37-.21.6v1.54h-.46v-1.59c0-.53-.22-.79-.66-.79-.2,0-.37.08-.5.24-.13.16-.2.37-.2.62v1.54h-.46v-2.68h.46v.42h.01c.21-.32.5-.48.89-.48.2,0,.37.05.52.15.14.1.25.24.3.4.21-.37.53-.55.95-.55.63,0,.95.37.95,1.1v1.65ZM101.86,44.04c0,.98-.51,1.48-1.52,1.48-.36,0-.67-.06-.93-.19v-.43c.32.17.63.25.93.25.71,0,1.06-.35,1.06-1.05v-.3h-.01c-.22.34-.55.52-.99.52-.36,0-.64-.12-.86-.36-.22-.24-.33-.56-.33-.96,0-.46.12-.82.35-1.09.24-.27.56-.4.97-.4s.68.14.86.43h.01v-.37h.46v2.47ZM101.4,43.04v-.4c0-.21-.07-.4-.23-.55-.16-.16-.35-.23-.58-.23-.28,0-.51.1-.67.29-.16.19-.24.47-.24.82,0,.3.08.54.23.72.16.18.36.27.62.27s.47-.09.63-.26c.16-.17.24-.39.24-.66Z"/>
      <path class="cls-1" d="M6.84,50.14h-.46v-.42h-.01c-.2.32-.49.48-.89.48-.29,0-.51-.07-.67-.21-.16-.14-.24-.33-.24-.56,0-.5.32-.79.95-.88l.86-.11c0-.46-.2-.69-.59-.69-.34,0-.66.11-.94.33v-.44c.28-.17.61-.25.98-.25.67,0,1.01.33,1.01,1v1.74ZM6.38,48.78l-.7.09c-.21.03-.37.08-.48.14-.1.08-.16.2-.16.38,0,.13.05.24.15.32.1.08.24.12.4.12.23,0,.41-.08.56-.23s.22-.34.22-.57v-.27ZM10.1,50.14h-.46v-1.54c0-.57-.22-.85-.67-.85-.23,0-.42.08-.57.24-.15.16-.22.37-.22.61v1.54h-.46v-2.68h.46v.45h.01c.22-.34.53-.51.94-.51.32,0,.56.1.72.28s.25.46.25.82v1.64ZM13.42,50.14h-.46v-.45h-.01c-.21.34-.54.52-.99.52-.36,0-.65-.12-.87-.36-.21-.24-.32-.57-.32-.98,0-.45.12-.8.36-1.07.24-.27.56-.4.95-.4s.68.14.86.43h.01v-1.66h.46v3.97ZM12.96,48.93v-.4c0-.22-.07-.4-.23-.55s-.35-.23-.59-.23c-.28,0-.5.1-.66.29s-.24.46-.24.8c0,.31.08.55.23.74.16.18.36.27.63.27s.46-.09.62-.26c.16-.17.24-.39.24-.66ZM18.03,46.78h-1.57v1.3h1.45v.4h-1.45v1.66h-.47v-3.76h2.04v.4ZM19.93,50.21c-.43,0-.76-.12-1.02-.38s-.38-.59-.38-1c0-.45.13-.81.4-1.06s.62-.38,1.07-.38.76.12,1,.37c.24.25.36.59.36,1.03s-.13.77-.39,1.03c-.26.26-.6.39-1.04.39ZM19.96,47.75c-.29,0-.53.09-.7.28-.17.19-.26.45-.26.78s.09.57.26.75c.18.19.41.28.7.28s.53-.09.68-.27c.16-.18.24-.43.24-.77s-.08-.6-.24-.78c-.16-.18-.39-.27-.68-.27ZM22.55,50.14h-.46v-3.97h.46v3.97ZM23.72,46.78c-.08,0-.16-.03-.21-.08-.06-.05-.09-.12-.09-.2s.03-.14.09-.2c.06-.05.13-.08.21-.08.09,0,.16.03.22.08.06.05.09.12.09.2,0,.08-.03.14-.09.2-.06.05-.13.08-.22.08ZM23.95,50.14h-.46v-2.68h.46v2.68ZM26.84,50.02c-.22.13-.48.19-.79.19-.41,0-.74-.12-.99-.38-.25-.25-.38-.57-.38-.97,0-.45.14-.8.41-1.07.27-.27.63-.4,1.09-.4.25,0,.48.04.67.13v.44c-.21-.14-.44-.21-.68-.21-.29,0-.53.1-.72.3-.19.2-.28.46-.28.78s.09.56.26.75.41.27.71.27c.25,0,.49-.08.71-.24v.41ZM32.29,50.14h-.52l-.43-1.05h-1.71l-.4,1.05h-.52l1.55-3.76h.49l1.55,3.76ZM31.19,48.69l-.63-1.61s-.05-.13-.06-.25h-.02c-.02.11-.04.19-.06.25l-.63,1.6h1.4ZM34.77,50.02c-.22.13-.48.19-.79.19-.41,0-.74-.12-.99-.38-.25-.25-.38-.57-.38-.97,0-.45.14-.8.41-1.07.27-.27.63-.4,1.09-.4.25,0,.48.04.67.13v.44c-.21-.14-.44-.21-.68-.21-.29,0-.53.1-.72.3-.19.2-.28.46-.28.78s.09.56.26.75.41.27.71.27c.25,0,.49-.08.71-.24v.41ZM35.7,46.78c-.08,0-.16-.03-.21-.08-.06-.05-.09-.12-.09-.2s.03-.14.09-.2c.06-.05.13-.08.21-.08.09,0,.16.03.22.08.06.05.09.12.09.2,0,.08-.03.14-.09.2-.06.05-.13.08-.22.08ZM35.93,50.14h-.46v-2.68h.46v2.68ZM39.31,50.14h-.46v-.45h-.01c-.21.34-.54.52-.99.52-.36,0-.65-.12-.87-.36-.21-.24-.32-.57-.32-.98,0-.45.12-.8.36-1.07.24-.27.56-.4.95-.4s.68.14.86.43h.01v-1.66h.46v3.97ZM38.85,48.93v-.4c0-.22-.07-.4-.23-.55s-.35-.23-.59-.23c-.28,0-.5.1-.66.29s-.24.46-.24.8c0,.31.08.55.23.74.16.18.36.27.63.27s.46-.09.62-.26c.16-.17.24-.39.24-.66ZM43.38,50.14h-.46v-3.25s-.09.07-.16.11c-.07.04-.14.09-.23.13-.09.04-.17.08-.27.12-.09.04-.18.06-.28.09v-.43c.1-.03.21-.06.32-.11s.22-.1.33-.15c.11-.05.21-.11.31-.17s.18-.12.25-.18h.17v3.84ZM45.08,50.2c-.09,0-.16-.03-.22-.09-.06-.06-.09-.13-.09-.21s.03-.15.09-.21c.06-.06.13-.09.22-.09s.16.03.22.09.09.13.09.21-.03.15-.09.21-.14.09-.22.09ZM48.42,48.99c0,.18-.03.35-.1.5-.07.14-.17.27-.29.38-.12.11-.27.19-.45.25-.17.06-.37.09-.59.09-.37,0-.65-.05-.83-.16v-.46c.28.17.55.25.84.25.14,0,.28-.02.4-.06.11-.04.21-.1.3-.17.08-.07.14-.16.19-.26.04-.1.06-.21.06-.33,0-.25-.09-.43-.26-.57-.17-.14-.43-.21-.76-.21h-.17c-.06,0-.12,0-.18.01-.06,0-.12,0-.18,0-.06,0-.11.01-.16.02l.14-1.88h1.86v.39h-1.47l-.08,1.1c.06,0,.13,0,.19,0,.07,0,.13,0,.18,0,.21,0,.4.03.57.08.17.05.31.12.43.22.11.1.21.22.26.36.06.14.09.3.09.47ZM54.92,50.14h-.46v-1.55c0-.3-.05-.51-.15-.64-.1-.13-.26-.2-.49-.2-.2,0-.36.09-.5.25s-.21.37-.21.6v1.54h-.46v-1.59c0-.53-.22-.79-.66-.79-.2,0-.37.08-.5.24-.13.16-.2.37-.2.62v1.54h-.46v-2.68h.46v.42h.01c.21-.32.5-.48.89-.48.2,0,.37.05.52.15.14.1.25.24.3.4.21-.37.53-.55.95-.55.63,0,.95.37.95,1.1v1.65ZM58.24,49.93c0,.98-.51,1.48-1.52,1.48-.36,0-.67-.06-.93-.19v-.43c.32.17.63.25.93.25.71,0,1.06-.35,1.06-1.05v-.3h-.01c-.22.34-.55.52-.99.52-.36,0-.64-.12-.86-.36-.22-.24-.33-.56-.33-.96,0-.46.12-.82.35-1.09.24-.27.56-.4.97-.4s.68.14.86.43h.01v-.37h.46v2.47ZM57.78,48.93v-.4c0-.21-.07-.4-.23-.55-.16-.16-.35-.23-.58-.23-.28,0-.51.1-.67.29s-.24.47-.24.82c0,.3.08.54.23.72.16.18.36.27.62.27s.47-.09.63-.26c.16-.17.24-.39.24-.66ZM62.19,49.99v-.52c.06.05.14.1.23.14.09.04.18.08.28.11s.2.05.29.07c.1.01.19.02.28.02.29,0,.51-.05.65-.15s.21-.25.21-.43c0-.1-.02-.19-.07-.26-.05-.08-.11-.14-.2-.2-.08-.06-.18-.12-.3-.18-.11-.05-.24-.11-.37-.18-.14-.07-.27-.13-.4-.2-.12-.06-.22-.14-.32-.23-.09-.08-.16-.17-.21-.28-.05-.1-.07-.23-.07-.37,0-.17.04-.32.12-.45.08-.13.18-.23.32-.32.13-.08.28-.14.45-.18.17-.04.34-.06.51-.06.4,0,.69.04.87.13v.49c-.24-.16-.54-.23-.91-.23-.1,0-.21.01-.31.03-.1.02-.2.05-.28.1-.08.04-.14.1-.2.18-.05.07-.07.16-.07.26,0,.1.02.18.06.25s.1.13.17.19c.07.06.16.11.27.17.11.05.23.11.37.18.14.07.28.14.41.21.13.08.24.16.34.25.1.09.17.19.23.3s.09.23.09.37c0,.19-.04.34-.11.47-.08.13-.18.23-.32.31s-.28.14-.45.18c-.17.04-.36.05-.55.05-.06,0-.14,0-.24-.02-.09,0-.19-.02-.29-.04-.09-.02-.18-.04-.28-.07-.09-.03-.16-.06-.21-.09ZM67.43,50.14h-.46v-.42h-.01c-.2.32-.49.48-.89.48-.29,0-.51-.07-.67-.21-.16-.14-.24-.33-.24-.56,0-.5.32-.79.95-.88l.86-.11c0-.46-.2-.69-.59-.69-.34,0-.66.11-.94.33v-.44c.28-.17.61-.25.98-.25.67,0,1.01.33,1.01,1v1.74ZM66.97,48.78l-.7.09c-.21.03-.37.08-.48.14-.1.08-.16.2-.16.38,0,.13.05.24.15.32.1.08.24.12.4.12.23,0,.41-.08.56-.23s.22-.34.22-.57v-.27ZM70.25,50.02c-.22.13-.48.19-.79.19-.41,0-.74-.12-.99-.38-.25-.25-.38-.57-.38-.97,0-.45.14-.8.41-1.07.27-.27.63-.4,1.09-.4.25,0,.48.04.67.13v.44c-.21-.14-.44-.21-.68-.21-.29,0-.53.1-.72.3-.19.2-.28.46-.28.78s.09.56.26.75.41.27.71.27c.25,0,.49-.08.71-.24v.41ZM73.33,50.14h-.46v-1.55c0-.56-.22-.84-.67-.84-.22,0-.41.08-.57.24-.16.16-.23.37-.23.62v1.52h-.46v-3.97h.46v1.73h.01c.22-.34.53-.5.94-.5.65,0,.97.37.97,1.1v1.65ZM76.51,48.91h-2.03c0,.3.09.53.26.69.17.17.39.25.68.25.32,0,.62-.1.89-.3v.4c-.25.17-.59.26-1,.26s-.72-.12-.95-.37c-.24-.25-.35-.59-.35-1.03s.13-.76.38-1.03c.25-.26.57-.39.95-.39s.67.11.87.34c.21.23.31.55.31.95v.23ZM76.04,48.54c0-.25-.06-.45-.19-.58-.13-.14-.3-.21-.53-.21s-.4.07-.55.22c-.15.14-.25.33-.28.57h1.55ZM78.54,50.12c-.11.06-.25.09-.43.09-.5,0-.75-.26-.75-.79v-1.59h-.49v-.37h.49v-.66l.46-.14v.79h.72v.37h-.72v1.51c0,.18.03.31.1.39.07.08.17.12.33.12.11,0,.21-.03.3-.09v.37ZM78.98,50.05v-.46c.25.18.53.26.83.26.4,0,.6-.13.6-.38,0-.07-.02-.13-.05-.18-.03-.05-.08-.09-.14-.13-.06-.04-.13-.07-.21-.1-.08-.03-.17-.06-.26-.1-.13-.05-.24-.09-.33-.14s-.18-.1-.24-.17c-.06-.06-.11-.13-.14-.2-.03-.08-.05-.17-.05-.27,0-.13.03-.24.09-.34s.14-.18.25-.24c.1-.06.22-.12.35-.15s.27-.05.41-.05c.25,0,.47.04.67.12v.43c-.21-.13-.45-.19-.73-.19-.08,0-.16.01-.23.03-.07.02-.13.04-.18.08-.05.03-.09.07-.11.12s-.04.1-.04.16c0,.07.01.13.04.18.03.04.07.09.12.12.05.04.11.07.19.1.07.03.16.06.25.1.13.04.24.09.34.14.1.05.18.1.26.16.07.06.12.13.16.21s.06.17.06.28c0,.13-.03.25-.09.35-.06.1-.15.18-.25.24-.1.06-.22.11-.36.14-.13.03-.28.05-.43.05-.3,0-.55-.05-.77-.16Z"/>
      <path class="cls-2" d="M4.57,27.6V6.1h10.96c1.29,0,2.44.22,3.43.66,1.02.44,1.8,1.13,2.36,2.05.56.94.83,2.1.83,3.51,0,.91-.19,1.74-.54,2.49s-.86,1.38-1.53,1.91c-.67.5-1.45.88-2.39,1.11l.16.06c1.53.75,2.6,1.91,3.19,3.48.16.41.29.83.35,1.27.08.41.13.91.21,1.49.05.58.11,1.02.13,1.33.05.3.11.61.16.94.05.33.13.72.19,1.22h-3.46c-.21-1.13-.32-1.85-.35-2.16-.03-.14-.05-.47-.11-1s-.08-.97-.13-1.35c-.05-.39-.11-.72-.19-1-.32-1.19-.88-2.07-1.72-2.65-.8-.61-1.93-.91-3.32-.91h-4.99v9.07h-3.27ZM7.84,8.75v7.13h7.05c1.1,0,1.98-.25,2.68-.75.7-.5,1.05-1.44,1.05-2.82s-.35-2.32-1.05-2.82c-.67-.5-1.58-.75-2.68-.75h-7.05ZM41.99,6.1v2.65h-7.93c-1.45,0-2.65.28-3.56.83s-1.61,1.41-2.04,2.63c-.46,1.19-.67,2.74-.67,4.64s.21,3.46.67,4.64c.43,1.19,1.13,2.07,2.04,2.63s2.12.83,3.56.83h4.56v-6.94h-6.27v-2.65h9.65v12.25h-9.06c-1.31,0-2.49-.25-3.59-.69-1.07-.47-1.98-1.19-2.76-2.1-.75-.94-1.34-2.07-1.74-3.4-.4-1.35-.62-2.88-.62-4.56s.21-3.21.62-4.56c.4-1.35.99-2.49,1.74-3.4.78-.91,1.69-1.63,2.76-2.1s2.28-.69,3.59-.69h9.06Z"/>
      <path class="cls-1" d="M54.12,6.1h3.35v13.91c0,.8.08,1.47.24,2.02.19.55.51,1.08.96,1.58.48.5.99.86,1.5,1.05.54.19,1.15.3,1.88.3h5.25v2.65h-6.49c-1.82,0-3.43-.69-4.8-2.1-.7-.69-1.18-1.52-1.47-2.54-.27-1-.43-2.13-.43-3.43V6.1ZM68.32,27.6l8.58-21.51h4.32l8.58,21.51h-3.56l-2.22-5.67h-9.89l-2.22,5.67h-3.56ZM75.08,19.42h7.99l-4.02-10.15-3.97,10.15ZM90.81,27.6V6.1h3.94l10.75,17.14V6.1h3.19v21.51h-3.59l-11.1-17.06v17.06h-3.19Z"/>
      <path class="cls-1" d="M111.77,27.6V6.1h9.76c1.34,0,2.55.22,3.62.66s1.98,1.11,2.76,1.99c.75.88,1.34,2.02,1.74,3.37.4,1.35.62,2.93.62,4.73s-.21,3.37-.62,4.73c-.4,1.35-.99,2.46-1.77,3.37-.75.88-1.69,1.55-2.73,1.99-1.07.44-2.28.66-3.62.66h-9.76ZM115.04,8.75v16.2h5.95c1.47,0,2.81-.53,3.97-1.52,1.15-1.02,1.74-3.23,1.74-6.58,0-5.39-1.9-8.1-5.71-8.1h-5.95Z"/>
      <path class="cls-1" d="M92.19,35.9l.95-.09c.04.4.15.71.32.98.16.25.42.45.77.62.34.15.74.23,1.16.23.39,0,.72-.05,1.02-.18s.51-.29.66-.49c.14-.21.21-.43.21-.67s-.06-.46-.2-.65c-.14-.18-.37-.33-.69-.46-.2-.08-.66-.21-1.35-.38-.7-.18-1.19-.33-1.48-.48-.36-.2-.63-.45-.81-.74-.18-.3-.27-.63-.27-.98,0-.41.11-.78.33-1.12.21-.34.53-.6.96-.79.42-.18.88-.26,1.4-.26.56,0,1.07.09,1.49.29.44.19.77.46,1,.82.23.36.35.78.37,1.24l-.97.08c-.05-.49-.22-.87-.52-1.12-.31-.26-.75-.38-1.33-.38-.62,0-1.05.11-1.34.34-.28.23-.42.52-.42.84,0,.29.1.52.3.7.19.18.7.37,1.52.56s1.39.36,1.68.51c.45.21.78.47.98.79.21.33.32.7.32,1.12s-.12.81-.35,1.18c-.22.37-.56.66-.99.87-.44.21-.93.31-1.47.31-.69,0-1.27-.1-1.74-.31s-.83-.53-1.1-.95c-.27-.41-.4-.88-.42-1.41ZM103.13,37.71c-.35.31-.68.52-1,.65-.32.12-.67.19-1.03.19-.61,0-1.08-.15-1.41-.46-.33-.3-.49-.69-.49-1.17,0-.27.06-.54.18-.77.13-.23.29-.41.49-.55.2-.14.43-.24.67-.32.19-.04.47-.1.84-.14.76-.09,1.31-.2,1.67-.33v-.25c0-.4-.09-.67-.27-.82-.23-.22-.6-.33-1.07-.33s-.77.08-.98.24c-.21.15-.36.44-.47.85l-.92-.13c.09-.41.22-.74.42-.98.19-.25.47-.44.83-.58.36-.13.78-.2,1.26-.2s.85.05,1.15.18c.3.11.51.25.65.43.14.18.23.4.3.66.03.16.04.46.04.89v1.27c0,.9.02,1.46.06,1.7.03.24.11.47.22.69h-.98c-.1-.21-.15-.44-.18-.71ZM103.05,35.57c-.34.14-.85.26-1.53.36-.38.05-.66.12-.82.19-.16.08-.28.18-.37.32-.09.13-.13.29-.13.45,0,.26.1.47.29.65.19.16.47.25.83.25s.68-.08.96-.24c.29-.16.49-.38.62-.67.11-.21.16-.54.16-.96v-.35ZM109.05,36.33l.92.13c-.1.65-.35,1.15-.77,1.53-.42.36-.93.55-1.52.55-.76,0-1.36-.25-1.82-.77-.46-.51-.69-1.23-.69-2.19,0-.62.1-1.14.3-1.6.19-.46.5-.81.91-1.04.39-.23.84-.34,1.31-.34.6,0,1.1.15,1.47.47.38.31.63.76.74,1.33l-.91.14c-.09-.38-.23-.67-.46-.87-.22-.19-.49-.29-.8-.29-.48,0-.86.18-1.15.52-.3.35-.45.9-.45,1.66s.14,1.32.43,1.67c.29.34.66.52,1.12.52.36,0,.67-.12.92-.35.25-.23.4-.58.47-1.07ZM110.77,38.42v-7.87h.94v2.84c.44-.53.98-.79,1.65-.79.4,0,.76.08,1.05.25.31.16.52.4.65.68.13.3.19.73.19,1.27v3.62h-.94v-3.61c0-.48-.1-.84-.3-1.06-.2-.22-.49-.33-.86-.33-.27,0-.53.08-.78.22-.23.15-.42.35-.51.6-.11.25-.16.6-.16,1.06v3.11h-.94ZM120.47,36.58l.97.13c-.15.58-.44,1.03-.84,1.35-.42.32-.94.48-1.58.48-.81,0-1.45-.25-1.92-.77-.48-.52-.71-1.23-.71-2.15s.23-1.7.71-2.23,1.1-.79,1.86-.79,1.33.25,1.8.78c.47.52.7,1.24.7,2.19v.25h-4.12c.03.63.2,1.1.51,1.44.31.33.69.49,1.16.49.34,0,.63-.1.87-.29.25-.19.44-.48.58-.89ZM117.4,35.03h3.08c-.04-.48-.16-.84-.35-1.08-.3-.37-.68-.56-1.16-.56-.43,0-.79.14-1.08.44-.3.3-.46.7-.49,1.2ZM124.65,37.55l.13.86c-.27.05-.5.09-.7.09-.34,0-.61-.05-.79-.16-.19-.11-.32-.26-.39-.44-.07-.19-.12-.56-.12-1.14v-3.29h-.69v-.75h.69v-1.41l.94-.58v1.99h.94v.75h-.94v3.34c0,.27.02.45.05.53.03.09.09.14.16.2.07.04.18.07.32.07.1,0,.23-.01.4-.04ZM125.21,36.72l.93-.15c.05.38.2.67.44.88.23.21.58.31,1,.31s.75-.09.96-.27c.2-.18.31-.38.31-.64,0-.21-.1-.38-.28-.51-.14-.09-.46-.2-.96-.33-.69-.18-1.16-.33-1.43-.46s-.47-.32-.61-.55c-.13-.22-.2-.48-.2-.76,0-.25.05-.48.17-.7s.27-.4.46-.54c.15-.11.34-.21.6-.29s.52-.11.81-.11c.43,0,.81.07,1.14.2.33.12.56.3.72.52.15.22.27.52.32.89l-.92.13c-.04-.3-.16-.53-.36-.69-.19-.18-.48-.25-.84-.25-.43,0-.74.08-.92.22-.18.14-.28.32-.28.52,0,.12.04.23.12.34.07.1.19.19.35.25.1.03.37.12.83.24.66.19,1.12.34,1.39.45.27.12.47.29.62.51.15.22.22.49.22.82s-.09.63-.28.91c-.18.29-.44.51-.79.66-.34.15-.72.23-1.16.23-.71,0-1.27-.15-1.64-.46-.38-.31-.62-.76-.72-1.36Z"/>
      <path class="cls-1" d="M128.09,6.02v-3.99h-1.44v-.53h3.47v.53h-1.44v3.99h-.58ZM130.7,6.02V1.5h.87l1.03,3.2c.1.3.17.52.21.67.05-.16.13-.41.23-.73l1.05-3.14h.78v4.52h-.56v-3.78l-1.28,3.78h-.52l-1.27-3.85v3.85h-.56Z"/>
      <path class="cls-1" d="M1.1,4.89h-.38l1.12-1.62L.73,1.67h.31c.2,0,.37-.06.49-.19.14-.11.21-.26.21-.45,0-.1-.02-.21-.07-.31-.04-.1-.1-.18-.18-.24-.05-.05-.12-.09-.22-.12-.09-.03-.25-.04-.48-.04h-.48v2.91h-.32V0h.88c.19,0,.34.01.47.04.1.03.21.08.32.15.13.1.23.21.3.36.07.13.11.29.11.48,0,.25-.07.47-.22.65-.14.17-.33.27-.56.3l.74,1.03.89-1.33h.38l-1.09,1.6,1.12,1.62h-.4l-.9-1.36-.93,1.36Z"/>
    </g>
  </g>
</svg>