<?xml version="1.0" encoding="UTF-8"?>
<svg id="Layer_2" data-name="Layer 2" xmlns="http://www.w3.org/2000/svg" viewBox="0 0 139.19 34.13">
  <g id="Layer_1-2" data-name="Layer 1">
    <g>
      <path d="M0,3.27V0h1.45c.29,0,.52.03.67.09.15.06.27.16.36.31.09.15.14.32.14.49,0,.23-.07.43-.22.59-.15.16-.38.26-.69.3.11.05.2.11.26.16.12.11.25.26.36.43l.57.89h-.54l-.43-.68c-.13-.2-.23-.35-.31-.45s-.16-.18-.22-.22-.13-.07-.2-.09c-.05,0-.13-.01-.24-.01H.43v1.45h-.43ZM.43,1.44h.93c.2,0,.35-.02.47-.06.11-.04.2-.11.25-.2.06-.09.09-.19.09-.29,0-.16-.05-.28-.17-.38-.11-.1-.29-.15-.53-.15H.43v1.08Z"/>
      <path d="M1.75,4.84l.87-1.23-.8-1.14h.49l.37.56c.07.11.12.19.16.26.07-.1.13-.18.18-.26l.39-.56h.49l-.81,1.14.86,1.23h-.49l-.49-.73-.11-.18-.63.91h-.49Z"/>
      <path d="M135.06,3.47V1.12h-.88v-.31h2.11v.31h-.88v2.35h-.35ZM136.65,3.47V.81h.53l.63,1.88c.06.17.1.3.13.39.03-.1.08-.24.14-.43l.64-1.85h.47v2.66h-.34V1.25l-.78,2.23h-.32l-.77-2.27v2.27h-.34Z"/>
      <path d="M3.82,30.52l.76.23c-.11.43-.31.75-.58.96-.27.21-.62.31-1.04.31-.52,0-.95-.18-1.28-.53-.33-.35-.5-.83-.5-1.45,0-.65.17-1.16.5-1.52.34-.36.78-.54,1.33-.54.48,0,.87.14,1.17.43.17.16.31.4.4.72l-.78.19c-.04-.2-.14-.36-.29-.48-.15-.11-.33-.17-.53-.17-.29,0-.52.1-.7.31-.18.21-.27.55-.27,1.01,0,.49.09.85.27,1.05.18.21.41.32.69.32.21,0,.39-.07.54-.2.15-.13.26-.34.33-.63ZM6.9,31.07l.75.13c-.09.27-.25.48-.45.63-.21.14-.47.21-.77.21-.5,0-.86-.16-1.1-.49-.19-.26-.28-.58-.28-.98,0-.47.13-.83.37-1.1.25-.27.56-.4.93-.4.42,0,.75.14.99.41.25.28.36.71.35,1.28h-1.87c0,.22.07.39.18.52.11.13.26.19.43.19.11,0,.21-.03.29-.1.08-.06.14-.16.18-.31ZM6.94,30.31c0-.22-.06-.38-.17-.5-.1-.11-.23-.17-.39-.17-.16,0-.29.06-.4.18-.1.12-.16.28-.15.49h1.11ZM7.98,29.13h.41v-.21c0-.24.03-.42.08-.53.05-.12.15-.21.28-.29.14-.07.31-.11.52-.11s.42.03.63.1l-.09.52c-.13-.03-.24-.05-.35-.05s-.19.03-.24.08c-.04.05-.07.15-.07.29v.2h.56v.59h-.56v2.24h-.75v-2.24h-.41v-.59ZM10.1,28.75v-.69h.75v.69h-.75ZM10.1,31.96v-2.83h.75v2.83h-.75ZM11.26,31.96l1.02-1.46-.98-1.37h.91l.5.78.53-.78h.88l-.96,1.34,1.05,1.49h-.92l-.58-.88-.58.88h-.87ZM14.66,28.75v-.69h.75v.69h-.75ZM14.66,31.96v-2.83h.75v2.83h-.75ZM16.12,29.13h.69v.39c.25-.3.54-.45.88-.45.18,0,.34.04.47.11.13.08.24.19.33.34.13-.15.26-.26.4-.34.14-.07.29-.11.46-.11.21,0,.38.04.53.13.14.09.25.21.32.37.05.12.08.32.08.59v1.81h-.75v-1.61c0-.28-.03-.46-.08-.55-.07-.1-.17-.16-.32-.16-.1,0-.2.03-.29.09-.09.07-.16.16-.2.28-.04.13-.06.32-.06.58v1.36h-.75v-1.55c0-.27-.01-.45-.04-.53-.03-.08-.07-.14-.13-.17-.05-.04-.13-.06-.23-.06-.11,0-.22.03-.31.09-.09.06-.16.15-.2.27-.04.12-.06.31-.06.58v1.37h-.75v-2.83ZM22.66,31.07l.75.13c-.09.27-.25.48-.45.63-.21.14-.47.21-.77.21-.5,0-.86-.16-1.1-.49-.19-.26-.28-.58-.28-.98,0-.47.13-.83.37-1.1.25-.27.56-.4.93-.4.42,0,.75.14.99.41.25.28.36.71.35,1.28h-1.87c0,.22.07.39.18.52.11.13.26.19.43.19.11,0,.21-.03.29-.1.08-.06.14-.16.18-.31ZM22.7,30.31c0-.22-.06-.38-.17-.5-.1-.11-.23-.17-.39-.17-.16,0-.29.06-.4.18-.1.12-.16.28-.15.49h1.11ZM27.94,31.27v.69h-2.62c.03-.26.11-.51.26-.75.14-.23.42-.55.84-.94.34-.32.55-.53.62-.64.1-.15.15-.31.15-.46,0-.16-.04-.29-.14-.38-.09-.09-.21-.14-.37-.14s-.28.05-.38.14-.14.25-.16.47l-.75-.08c.04-.41.19-.71.42-.89.23-.18.52-.27.88-.27.39,0,.69.1.91.31.22.21.33.47.33.78,0,.17-.03.34-.09.5-.07.16-.16.33-.3.5-.09.11-.26.28-.49.5-.24.22-.39.37-.45.44-.06.07-.11.14-.15.21h1.49ZM29.71,28.03c.38,0,.67.14.88.4.26.32.38.86.38,1.6s-.13,1.27-.38,1.59c-.21.27-.51.4-.88.4s-.69-.15-.92-.44c-.23-.29-.35-.81-.35-1.57s.13-1.27.38-1.59c.21-.27.51-.4.89-.4ZM29.71,28.65c-.09,0-.17.03-.24.09-.07.05-.13.16-.16.31-.05.19-.08.52-.08.98s.02.77.07.94c.04.17.1.29.17.34.07.06.15.09.24.09.09,0,.17-.03.23-.09.07-.06.13-.16.16-.31.05-.19.08-.52.08-.98s-.02-.77-.07-.95c-.05-.17-.1-.29-.17-.34-.07-.06-.15-.09-.23-.09ZM32.74,28.03c.38,0,.67.14.88.4.26.32.38.86.38,1.6s-.13,1.27-.38,1.59c-.21.27-.51.4-.88.4s-.69-.15-.92-.44c-.23-.29-.35-.81-.35-1.57s.13-1.27.38-1.59c.21-.27.51-.4.89-.4ZM32.74,28.65c-.09,0-.17.03-.24.09-.07.05-.13.16-.16.31-.05.19-.08.52-.08.98s.02.77.07.94c.04.17.1.29.17.34.07.06.15.09.24.09.09,0,.17-.03.23-.09.07-.06.13-.16.16-.31.05-.19.08-.52.08-.98s-.02-.77-.07-.95c-.05-.17-.1-.29-.17-.34-.07-.06-.15-.09-.23-.09ZM36.13,29.13h.69v.39c.25-.3.54-.45.88-.45.18,0,.34.04.47.11.13.08.24.19.33.34.13-.15.26-.26.4-.34.14-.07.29-.11.46-.11.21,0,.38.04.53.13.14.09.25.21.32.37.05.12.08.32.08.59v1.81h-.75v-1.61c0-.28-.03-.46-.08-.55-.07-.1-.17-.16-.32-.16-.1,0-.2.03-.29.09-.09.07-.16.16-.2.28-.04.13-.06.32-.06.58v1.36h-.75v-1.55c0-.27-.01-.45-.04-.53-.03-.08-.07-.14-.13-.17-.05-.04-.13-.06-.23-.06-.11,0-.22.03-.31.09-.09.06-.16.15-.2.27-.04.12-.06.31-.06.58v1.37h-.75v-2.83ZM40.96,32.14l.86.1c.02.1.05.17.1.21.07.05.19.08.34.08.2,0,.34-.03.44-.09.07-.04.12-.1.15-.19.02-.06.03-.17.03-.34v-.41c-.22.31-.51.46-.85.46-.38,0-.68-.16-.91-.48-.17-.26-.26-.57-.26-.95,0-.47.11-.83.34-1.09.23-.25.51-.38.85-.38s.64.15.87.46v-.4h.7v2.54c0,.34-.03.58-.08.75-.05.16-.13.29-.23.39-.1.09-.23.17-.4.22-.16.05-.38.08-.63.08-.48,0-.82-.08-1.02-.25-.2-.17-.3-.38-.3-.63v-.09ZM41.63,30.49c0,.3.06.52.17.66.11.14.26.21.43.21.18,0,.33-.07.46-.21.13-.15.19-.35.19-.64s-.06-.51-.18-.65c-.12-.14-.27-.21-.46-.21s-.33.07-.44.21c-.11.14-.17.35-.17.64ZM46.74,31.4v-1.01h-1.03v-.7h1.03v-1.01h.68v1.01h1.03v.7h-1.03v1.01h-.68ZM50.42,30.03c0-.4.06-.73.18-1,.09-.2.21-.38.37-.53.15-.16.32-.28.5-.35.25-.1.52-.15.85-.15.57,0,1.04.18,1.38.53.34.36.52.86.52,1.49s-.17,1.12-.51,1.48c-.34.35-.8.53-1.37.53s-1.05-.18-1.39-.53c-.34-.35-.51-.84-.51-1.47ZM51.24,30c0,.45.1.78.31,1.01.21.23.47.34.78.34s.57-.11.78-.34c.2-.23.3-.57.3-1.03s-.1-.78-.29-1c-.2-.22-.46-.33-.79-.33s-.59.11-.79.33c-.2.22-.3.56-.3,1.01ZM54.51,29.13h.41v-.21c0-.24.03-.42.08-.53.05-.12.15-.21.28-.29.14-.07.31-.11.52-.11s.42.03.63.1l-.09.52c-.13-.03-.24-.05-.35-.05s-.19.03-.24.08c-.04.05-.07.15-.07.29v.2h.56v.59h-.56v2.24h-.75v-2.24h-.41v-.59ZM56.63,31.96v-3.91h.75v3.91h-.75ZM57.98,30.51c0-.25.06-.49.19-.72.12-.23.29-.41.52-.53.22-.13.47-.19.75-.19.43,0,.78.14,1.05.41.27.28.41.63.41,1.06s-.14.79-.41,1.06c-.27.28-.62.43-1.04.43-.26,0-.51-.06-.74-.17-.23-.12-.41-.29-.53-.52-.13-.23-.19-.5-.19-.83ZM58.75,30.55c0,.28.07.5.2.65.13.15.29.22.49.22s.36-.08.49-.22c.13-.15.2-.37.2-.65,0-.27-.07-.49-.2-.64-.13-.15-.29-.22-.49-.22s-.36.08-.49.22c-.14.15-.2.37-.2.64ZM61.13,31.96l1.02-1.46-.98-1.37h.91l.5.78.53-.78h.88l-.96,1.34,1.05,1.49h-.92l-.58-.88-.58.88h-.87ZM65.08,30l-.68-.12c.08-.28.21-.48.39-.62.19-.13.46-.2.83-.2.33,0,.58.04.75.12.16.08.28.17.34.3.07.12.1.34.1.67v.87c-.01.25,0,.43.03.55.02.12.07.25.13.38h-.74s-.04-.12-.07-.22c-.01-.04-.02-.08-.03-.09-.13.13-.26.22-.41.28-.15.06-.3.09-.46.09-.29,0-.52-.08-.69-.24-.17-.15-.25-.35-.25-.59,0-.16.04-.31.11-.43.08-.13.19-.22.32-.28.14-.07.33-.13.59-.17.35-.07.59-.13.73-.19v-.08c0-.15-.03-.25-.1-.31-.08-.06-.21-.09-.4-.09-.14,0-.24.03-.32.08-.07.05-.13.14-.18.28ZM66.08,30.61c-.09.03-.25.07-.45.11-.21.04-.34.09-.41.13-.1.07-.15.16-.15.26s.04.2.12.27c.08.08.17.11.29.11.14,0,.27-.04.39-.13.09-.07.15-.15.18-.25.02-.07.03-.19.03-.37v-.15ZM70.02,29.97l-.74.13c-.02-.15-.08-.26-.17-.33-.09-.07-.2-.11-.34-.11-.19,0-.33.07-.44.19-.11.13-.17.35-.17.65,0,.34.05.57.17.71.11.14.26.21.45.21.14,0,.26-.04.35-.12.09-.08.15-.22.19-.42l.74.13c-.08.34-.22.59-.44.76-.22.17-.51.26-.87.26-.41,0-.74-.13-.99-.39-.25-.26-.37-.62-.37-1.09s.13-.83.37-1.09c.25-.26.58-.39,1-.39.34,0,.62.08.82.22.2.15.35.37.44.68ZM70.59,28.75v-.69h.75v.69h-.75ZM70.59,31.96v-2.83h.75v2.83h-.75ZM74.68,31.96h-.75v-1.45c0-.31-.02-.5-.05-.59-.03-.09-.08-.16-.16-.21-.07-.05-.16-.08-.26-.08-.13,0-.25.03-.35.1-.1.07-.17.17-.21.28-.04.12-.06.33-.06.65v1.28h-.75v-2.83h.69v.41c.25-.32.56-.47.94-.47.16,0,.32.03.45.09.14.06.25.14.31.23.07.09.12.2.15.32.03.11.04.28.04.5v1.76ZM79.32,31.27v.69h-2.62c.03-.26.11-.51.26-.75.14-.23.42-.55.84-.94.34-.32.55-.53.62-.64.1-.15.15-.31.15-.46,0-.16-.04-.29-.14-.38-.09-.09-.21-.14-.37-.14s-.28.05-.38.14-.14.25-.16.47l-.75-.08c.04-.41.19-.71.42-.89.23-.18.52-.27.88-.27.39,0,.69.1.91.31.22.21.33.47.33.78,0,.17-.03.34-.09.5-.07.16-.16.33-.3.5-.09.11-.26.28-.49.5-.24.22-.39.37-.45.44-.06.07-.11.14-.15.21h1.49ZM81.09,28.03c.38,0,.67.14.88.4.26.32.38.86.38,1.6s-.13,1.27-.38,1.59c-.21.27-.51.4-.88.4s-.69-.15-.92-.44c-.23-.29-.35-.81-.35-1.57s.13-1.27.38-1.59c.21-.27.51-.4.89-.4ZM81.09,28.65c-.09,0-.17.03-.24.09-.07.05-.13.16-.16.31-.05.19-.08.52-.08.98s.02.77.07.94c.04.17.1.29.17.34.07.06.15.09.24.09.09,0,.17-.03.23-.09.07-.06.13-.16.16-.31.05-.19.08-.52.08-.98s-.02-.77-.07-.95c-.05-.17-.1-.29-.17-.34-.07-.06-.15-.09-.23-.09ZM84.13,28.03c.38,0,.67.14.88.4.26.32.38.86.38,1.6s-.13,1.27-.38,1.59c-.21.27-.51.4-.88.4s-.69-.15-.92-.44c-.23-.29-.35-.81-.35-1.57s.13-1.27.38-1.59c.21-.27.51-.4.89-.4ZM84.13,28.65c-.09,0-.17.03-.24.09-.07.05-.13.16-.16.31-.05.19-.08.52-.08.98s.02.77.07.94c.04.17.1.29.17.34.07.06.15.09.24.09.09,0,.17-.03.23-.09.07-.06.13-.16.16-.31.05-.19.08-.52.08-.98s-.02-.77-.07-.95c-.05-.17-.1-.29-.17-.34-.07-.06-.15-.09-.23-.09ZM87.51,29.13h.69v.39c.25-.3.54-.45.88-.45.18,0,.34.04.47.11.13.08.24.19.33.34.13-.15.26-.26.4-.34.14-.07.29-.11.46-.11.21,0,.38.04.53.13.14.09.25.21.32.37.05.12.08.32.08.59v1.81h-.75v-1.61c0-.28-.03-.46-.08-.55-.07-.1-.17-.16-.32-.16-.1,0-.2.03-.29.09-.09.07-.16.16-.2.28-.04.13-.06.32-.06.58v1.36h-.75v-1.55c0-.27-.01-.45-.04-.53-.03-.08-.07-.14-.13-.17-.05-.04-.13-.06-.23-.06-.11,0-.22.03-.31.09-.09.06-.16.15-.2.27-.04.12-.06.31-.06.58v1.37h-.75v-2.83ZM92.34,32.14l.86.1c.02.1.05.17.1.21.07.05.19.08.34.08.2,0,.34-.03.44-.09.07-.04.12-.1.15-.19.02-.06.03-.17.03-.34v-.41c-.22.31-.51.46-.85.46-.38,0-.68-.16-.91-.48-.17-.26-.26-.57-.26-.95,0-.47.11-.83.34-1.09.23-.25.51-.38.85-.38s.64.15.87.46v-.4h.7v2.54c0,.34-.03.58-.08.75-.05.16-.13.29-.23.39-.1.09-.23.17-.4.22-.16.05-.38.08-.63.08-.48,0-.82-.08-1.02-.25-.2-.17-.3-.38-.3-.63v-.09ZM93.02,30.49c0,.3.06.52.17.66.11.14.26.21.43.21.18,0,.33-.07.46-.21.13-.15.19-.35.19-.64s-.06-.51-.18-.65c-.12-.14-.27-.21-.46-.21s-.33.07-.44.21c-.11.14-.17.35-.17.64Z"/>
      <path d="M86.69,18.04v-2.37h5.52v2.37h-5.52ZM71.2,24.93V4.66h3.69v8.84c.66-1.09,1.4-1.86,2.2-2.31.8-.45,1.62-.67,2.44-.67,1.08,0,2,.35,2.77,1.07.78.71,1.16,1.84,1.16,3.38v9.95h-3.69v-9.01c0-.77-.07-1.29-.2-1.56-.14-.27-.32-.48-.56-.62-.24-.14-.5-.21-.79-.21-.5,0-1.03.17-1.57.52-.54.35-1.13,1.03-1.77,2.03v8.86h-3.69ZM67.66,24.61c-1.51.42-2.92.63-4.22.63-2.32,0-4.06-.71-5.23-2.13-1.17-1.42-1.75-3.17-1.75-5.24,0-2.17.61-3.94,1.85-5.3,1.23-1.36,3.05-2.05,5.44-2.05,1.1,0,2.37.18,3.81.55v2.73c-1.48-.49-2.67-.74-3.55-.74-1.26,0-2.18.5-2.76,1.49-.58.99-.87,2.08-.87,3.27,0,.92.17,1.78.5,2.57.33.8.8,1.38,1.4,1.74.6.36,1.27.55,2.02.55,1.08,0,2.2-.24,3.35-.71v2.63ZM54.39,24.85c-.88.26-1.57.39-2.08.39-1.2,0-2.14-.18-2.8-.53-.67-.35-1.16-.83-1.5-1.43-.33-.6-.5-1.49-.5-2.66v-7.42h-1.53v-2.37h1.53v-2.37l3.69-.44v2.8h2.93v2.37h-2.93v6.9c0,1.01.17,1.7.52,2.05.35.35.86.53,1.53.53.32,0,.7-.04,1.13-.13v2.29ZM39.07,8.47v-3.18h3.69v3.18h-3.69ZM39.07,24.93v-14.09h3.69v14.09h-3.69ZM19.53,24.93l-3.79-14.09h3.45l2.65,9.86,2.83-9.86h3.2l2.57,9.91,2.88-9.91h2.58l-4.06,14.09h-3.49l-2.51-9.67-2.78,9.67h-3.52ZM1.56,24.77v-3.26c1.43.62,2.51.99,3.22,1.11.71.12,1.37.18,1.96.18,1.07,0,1.87-.25,2.4-.74.53-.5.79-1.1.79-1.79,0-.53-.15-1.01-.45-1.44-.29-.42-1.02-.96-2.17-1.63l-1.24-.71c-1.77-1.02-2.96-1.96-3.59-2.83-.63-.87-.95-1.87-.95-3,0-1.43.53-2.65,1.59-3.67,1.06-1.02,2.57-1.53,4.56-1.53,1.48,0,3.15.22,5,.66v3.05c-1.9-.74-3.41-1.1-4.52-1.1-.92,0-1.62.21-2.11.62-.48.42-.73.92-.73,1.5,0,.45.15.86.44,1.25.28.39,1,.91,2.15,1.58l1.33.76c2.03,1.17,3.32,2.19,3.88,3.06.55.87.83,1.85.83,2.93,0,1.56-.57,2.89-1.72,3.99-1.15,1.1-2.98,1.66-5.48,1.66-1.48,0-3.21-.21-5.19-.63Z"/>
      <path d="M103.77,22.8c1.77,0,3.08-.75,3.95-2.24.87-1.5,1.3-3.21,1.3-5.14s-.43-3.64-1.3-5.13c-.87-1.48-2.18-2.23-3.94-2.23s-3.09.74-3.96,2.23c-.87,1.49-1.3,3.2-1.3,5.13s.43,3.64,1.3,5.14c.86,1.49,2.18,2.24,3.97,2.24M103.77,25.4c-1.92,0-3.58-.41-5-1.23-1.42-.81-2.49-1.99-3.23-3.53-.74-1.53-1.11-3.28-1.11-5.22s.37-3.67,1.11-5.21c.74-1.54,1.82-2.72,3.24-3.53,1.42-.82,3.09-1.23,4.99-1.23s3.54.41,4.97,1.23c1.42.81,2.51,2,3.24,3.53.74,1.54,1.11,3.28,1.11,5.21s-.37,3.68-1.11,5.22c-.74,1.54-1.81,2.72-3.22,3.53-1.41.82-3.07,1.23-4.99,1.23Z"/>
      <path d="M127.48,24.93v-11.72h-1.88v-2.37h1.88v-1.01c0-1.97.44-3.37,1.31-4.22.88-.84,2.12-1.26,3.73-1.26,1.09,0,2.21.17,3.36.5v2.58c-1.04-.47-1.98-.71-2.81-.71-.39,0-.72.08-1,.24-.28.16-.5.42-.66.8-.16.37-.24,1.02-.24,1.94v1.16h3.46v2.37h-3.46v11.72h-3.69ZM116.94,24.93v-11.72h-1.88v-2.37h1.88v-1.01c0-1.97.44-3.37,1.31-4.22.88-.84,2.12-1.26,3.73-1.26,1.09,0,2.21.17,3.36.5v2.58c-1.04-.47-1.98-.71-2.81-.71-.39,0-.72.08-1,.24-.28.16-.5.42-.66.8-.16.37-.24,1.02-.24,1.94v1.16h3.46v2.37h-3.46v11.72h-3.69Z"/>
      <path d="M132.2,32.7l.75-.12c.04.3.16.53.35.69.19.16.46.24.81.24s.61-.07.78-.21c.17-.14.25-.31.25-.5,0-.17-.08-.31-.23-.4-.11-.07-.37-.15-.78-.26-.56-.14-.94-.26-1.16-.36-.21-.1-.38-.24-.49-.43-.11-.18-.17-.38-.17-.6,0-.2.05-.38.14-.55.09-.17.22-.31.37-.42.12-.09.28-.16.48-.22.2-.06.42-.09.65-.09.35,0,.66.05.92.15.27.1.46.24.59.41.13.17.21.41.26.7l-.74.1c-.03-.23-.13-.42-.29-.55-.16-.13-.39-.2-.68-.2-.35,0-.6.06-.74.17-.15.12-.22.25-.22.4,0,.1.03.19.09.27.06.08.16.15.29.2.08.03.3.09.67.19.54.14.91.26,1.12.35.21.09.38.22.5.4.12.17.18.39.18.65s-.07.49-.22.71c-.15.22-.36.4-.64.52-.28.12-.59.18-.95.18-.58,0-1.03-.12-1.33-.36-.31-.24-.5-.6-.58-1.07M131.75,33.36l.1.67c-.21.04-.4.07-.57.07-.27,0-.49-.04-.64-.13-.15-.09-.26-.2-.32-.34-.06-.14-.09-.44-.09-.9v-2.58h-.56v-.59h.56v-1.11l.76-.46v1.56h.76v.59h-.76v2.62c0,.22.01.36.04.42.03.06.07.11.13.15.06.04.15.05.26.05.08,0,.19-.01.33-.03ZM125.87,31.37h2.5c-.03-.38-.13-.66-.29-.85-.24-.29-.55-.44-.94-.44-.35,0-.64.12-.88.35-.24.23-.37.55-.39.94ZM128.36,32.58l.79.1c-.12.46-.35.81-.69,1.06-.33.25-.76.38-1.28.38-.65,0-1.17-.2-1.55-.6-.38-.4-.57-.97-.57-1.69s.19-1.34.58-1.75c.39-.42.89-.62,1.51-.62s1.08.2,1.46.61c.38.41.57.98.57,1.72,0,.04,0,.11,0,.2h-3.34c.03.49.17.87.42,1.13.25.26.56.39.93.39.28,0,.52-.07.71-.22.2-.15.35-.38.47-.7ZM123.37,34.03v-6.18h.76v6.18h-.76ZM119.27,31.76c0,.54.07.92.22,1.16.24.39.56.59.97.59.33,0,.62-.14.86-.43.24-.29.36-.72.36-1.29s-.12-1.01-.35-1.29c-.23-.28-.51-.42-.84-.42s-.62.14-.86.43c-.24.29-.36.7-.36,1.25ZM119.28,34.03h-.71v-6.18h.76v2.21c.32-.4.73-.6,1.23-.6.27,0,.54.05.78.17.25.11.45.27.61.47.16.2.28.44.37.73.09.28.14.59.14.91,0,.77-.19,1.36-.57,1.78-.38.42-.83.63-1.37.63s-.94-.22-1.24-.66v.56ZM116.65,31.79c-.28.11-.69.21-1.24.28-.31.04-.54.09-.66.15-.13.06-.23.14-.3.24-.07.11-.11.23-.11.36,0,.2.08.37.23.5.15.13.38.2.67.2s.55-.06.78-.19c.23-.13.4-.3.5-.52.08-.17.12-.42.12-.76v-.28ZM116.71,33.47c-.28.24-.55.41-.81.51-.26.1-.54.15-.84.15-.49,0-.87-.12-1.14-.36-.26-.24-.4-.55-.4-.92,0-.22.05-.42.15-.6.1-.18.23-.33.39-.43.16-.11.34-.19.55-.25.15-.04.38-.08.68-.11.61-.07,1.07-.16,1.36-.26,0-.1,0-.17,0-.2,0-.31-.07-.53-.22-.65-.19-.17-.48-.26-.87-.26-.36,0-.62.06-.79.19-.17.13-.3.35-.38.67l-.74-.1c.07-.32.18-.58.33-.77.16-.2.38-.35.67-.45.29-.11.63-.16,1.02-.16s.7.04.94.14c.24.09.42.2.53.34.11.14.19.31.24.52.02.13.04.36.04.7v1.01c0,.7.02,1.15.05,1.34.03.19.09.37.19.54h-.79c-.08-.16-.13-.35-.15-.56ZM111.13,34.03v-5.46h-2.04v-.73h4.9v.73h-2.04v5.46h-.82Z"/>
    </g>
  </g>
</svg>