<?xml version="1.0" encoding="UTF-8"?>
<svg id="Layer_2" data-name="Layer 2" xmlns="http://www.w3.org/2000/svg" viewBox="0 0 164.93 45.26">
  <defs>
    <style>
      .cls-1 {
        font-family: LEMONMILK-RegularItalic, 'LEMON MILK';
        font-size: 9px;
        font-style: italic;
      }

      .cls-2 {
        font-family: ArialMT, Arial;
        font-size: 6.63px;
      }

      .cls-3 {
        fill: #cb8932;
      }

      .cls-4 {
        font-family: LEMONMILK-Bold, 'LEMON MILK';
        font-size: 9.25px;
        font-weight: 700;
      }
    </style>
  </defs>
  <g id="Layer_1-2" data-name="Layer 1">
    <g>
      <polygon class="cls-3" points="23.3 5.98 17.59 14.73 11.89 5.98 10.47 5.98 10.47 20.99 14 20.99 14 15.1 17.59 20.74 17.61 20.74 21.19 15.1 21.19 20.99 24.72 20.99 24.72 5.98 23.3 5.98"/>
      <path class="cls-3" d="M33.02,21.41c3.04,0,5.51-2.4,5.51-5.81V6.11h-3.54v9.47c0,1.22-.97,2.06-1.97,2.06s-1.96-.82-1.96-2.06V6.11h-3.54v9.48c0,3.41,2.47,5.81,5.51,5.81"/>
      <polygon class="cls-3" points="44.83 17.29 44.83 6.11 41.3 6.11 41.3 20.99 49.91 20.99 49.91 17.29 44.83 17.29"/>
      <polygon class="cls-3" points="58.63 6.11 48.74 6.11 48.74 9.8 51.93 9.8 51.93 20.99 55.45 20.99 55.45 9.8 58.63 9.8 58.63 6.11"/>
      <rect class="cls-3" x="60.72" y="6.11" width="3.53" height="14.88"/>
      <polygon class="cls-3" points="70.67 17.29 70.67 6.11 67.14 6.11 67.14 20.99 75.75 20.99 75.75 17.29 70.67 17.29"/>
      <path class="cls-3" d="M82.51,16.36l1.37-3.53,1.36,3.53h-2.73ZM87.02,20.99h3.86l-6.18-15.07h-1.67l-6.17,15.07h3.86l.68-1.74h4.96l.67,1.74Z"/>
      <polygon class="cls-3" points="100.75 6.09 100.75 13.35 93.94 5.97 92.8 5.97 92.8 20.99 96.33 20.99 96.33 13.72 103.16 21.14 104.28 21.14 104.28 6.09 100.75 6.09"/>
      <path class="cls-3" d="M111.46,17.27h-.84v-7.47h.81c2.38,0,3.83,1.43,3.83,3.76s-1.44,3.71-3.79,3.71h0ZM111.52,6.11h-4.33v14.89h4.33c4.51,0,7.27-2.81,7.27-7.42s-2.76-7.48-7.27-7.46Z"/>
      <rect class="cls-3" x="120.53" y="12.09" width="7" height="3.23"/>
      <polygon class="cls-3" points="142.68 5.98 136.98 14.73 131.27 5.98 129.85 5.98 129.85 20.99 133.38 20.99 133.38 15.1 136.97 20.74 136.99 20.74 140.57 15.1 140.57 20.99 144.1 20.99 144.1 5.98 142.68 5.98"/>
      <text class="cls-4" transform="translate(60.68 31.69) scale(1.12 1)"><tspan x="0" y="0">CAPSULES</tspan></text>
      <text class="cls-2" transform="translate(143.21 5.69) scale(1.12 1)"><tspan x="0" y="0">®</tspan></text>
      <path d="M3.71,7.32h-.55l1.62-2.26-1.6-2.24h.45c.29,0,.53-.09.71-.26.2-.15.3-.36.3-.63,0-.15-.03-.29-.1-.44-.06-.14-.15-.25-.26-.34-.07-.07-.18-.13-.32-.17-.13-.04-.36-.06-.69-.06h-.69v4.06h-.45V.48h1.26c.27,0,.5.02.67.06.15.04.3.11.45.21.19.13.34.3.43.5.1.19.16.41.16.66,0,.35-.11.66-.32.91-.21.24-.47.38-.81.42l1.07,1.44,1.28-1.86h.55l-1.57,2.24,1.62,2.26h-.57l-1.3-1.9-1.34,1.9Z"/>
      <text class="cls-1" transform="translate(.35 42.85) scale(.86 1)"><tspan x="0" y="0">Amino Acids, Multivitamins &amp; Minerals</tspan></text>
    </g>
  </g>
</svg>