<?xml version="1.0" encoding="UTF-8"?>
<svg id="Layer_2" data-name="Layer 2" xmlns="http://www.w3.org/2000/svg" viewBox="0 0 167.57 47.87">
  <defs>
    <style>
      .cls-1 {
        fill: #8c181b;
      }

      .cls-2 {
        fill: #231f20;
      }

      .cls-3 {
        fill: #650f0b;
      }
    </style>
  </defs>
  <g id="Layer_1-2" data-name="Layer 1">
    <g>
      <path class="cls-1" d="M4,36.58v-2.05c1.09-.11,1.86-.35,2.21-.71.39-.39.56-1.1.56-2.2v-15.16c0-1.1-.18-1.84-.56-2.2-.35-.35-1.12-.6-2.21-.71v-2.05h11.36c4.7,0,8.38,1.1,11.11,3.33,2.7,2.23,4.07,5.28,4.07,9.1,0,1.95-.39,3.79-1.19,5.49s-1.93,3.15-3.44,4.36c-1.19.96-2.59,1.7-4.21,2.13-1.61.46-3.58.67-5.89.67H4ZM12.76,30.31c0,1.66.25,2.76.74,3.29s1.44.78,2.84.78c2.38,0,4.28-.85,5.61-2.59,1.37-1.7,2.03-4.11,2.03-7.16,0-3.51-.84-6.23-2.49-8.18-1.68-1.95-4-2.9-7.01-2.9-.63,0-1.09.14-1.33.39-.25.25-.39.71-.39,1.31v15.05ZM36.11,25.45v-2.05c1.89-.14,3.4-.67,4.49-1.56s1.65-1.98,1.65-3.33c0-.92-.32-1.74-.98-2.34s-1.51-.92-2.52-.92c-.7,0-1.4.18-2.1.53-.74.32-1.51.85-2.31,1.56l-1.02-1.35c1.09-1.42,2.24-2.48,3.47-3.19,1.23-.67,2.52-1.03,3.96-1.03,1.79,0,3.26.5,4.45,1.49,1.16.99,1.75,2.23,1.75,3.68,0,1.06-.28,2.05-.84,2.98-.56.89-1.44,1.74-2.59,2.52,1.51.67,2.59,1.52,3.3,2.48.74.99,1.09,2.13,1.09,3.47,0,2.48-.98,4.53-2.95,6.2-2,1.66-4.52,2.48-7.57,2.48-1.51,0-2.63-.21-3.37-.6-.77-.39-1.16-.99-1.16-1.77,0-.39.14-.71.42-1.03.28-.28.63-.43,1.02-.43.46,0,1.19.18,2.21.57,1.02.39,1.82.6,2.42.6,1.19,0,2.21-.39,3.02-1.2.84-.78,1.23-1.77,1.23-2.94,0-1.49-.6-2.66-1.82-3.54-1.23-.85-2.91-1.28-5.08-1.28h-.14ZM71.14,11.5v2.02c-1.09.11-1.82.35-2.17.71-.39.39-.56,1.1-.56,2.23v13.85c0,1.84.28,3.01.81,3.54.53.5,1.61.74,3.26.74,2.03,0,3.68-.39,4.91-1.13s2.42-2.13,3.61-4.11h1.93l-1.51,7.23h-21.88v-2.05c1.09-.11,1.86-.35,2.21-.71.39-.39.56-1.1.56-2.2v-15.16c0-1.1-.18-1.84-.56-2.2-.35-.39-1.09-.64-2.21-.74v-2.02h11.61ZM84.46,36.58v-2.05c.63-.14,1.12-.43,1.47-.85.39-.46.77-1.2,1.12-2.3l6-17.68c.07-.21.11-.35.11-.46.04-.11.04-.18.04-.25,0-.25-.07-.5-.18-.74-.14-.21-.32-.5-.6-.74h6.28l7.01,20.26c.32.89.67,1.52,1.05,1.98s.88.71,1.4.78v2.05h-10.87v-2.05c.77-.04,1.3-.18,1.68-.43.35-.25.53-.64.53-1.13,0-.14-.04-.35-.07-.57-.04-.21-.11-.5-.21-.85l-1.02-3.75h-7.64l-.91,3.44c-.11.35-.14.64-.18.85-.04.21-.07.39-.07.57,0,.6.18,1.06.56,1.38.35.32.88.5,1.54.5h.11v2.05h-7.15ZM91.34,25.6h5.96l-2.95-9.03-3.02,9.03ZM110.06,36.58v-2.05c1.19-.11,2-.43,2.45-.96.42-.53.63-1.7.63-3.47v-14.56c-.56-.71-1.09-1.24-1.54-1.52-.46-.32-.95-.46-1.44-.46h-.11v-2.05h6.87c.35,0,.56.04.7.11.14.11.32.28.56.57l12.8,15.27v-10.34c0-1.1-.25-1.91-.74-2.44-.49-.57-1.26-.92-2.38-1.1v-2.05h8.48v2.05c-1.12.18-1.93.53-2.35,1.03-.46.53-.67,1.35-.67,2.52v15.83c0,.64,0,1.28.04,1.98.04.67.07,1.38.14,2.16h-2.52l-15.57-18.46v11.48c0,1.66.25,2.76.77,3.33.49.6,1.47.96,2.95,1.1v2.05h-9.08ZM138.35,36.58v-2.05c1.09-.11,1.86-.35,2.21-.71.39-.39.56-1.1.56-2.2v-15.16c0-1.1-.18-1.84-.56-2.2-.35-.35-1.12-.6-2.21-.71v-2.05h11.36c4.7,0,8.38,1.1,11.11,3.33,2.7,2.23,4.07,5.28,4.07,9.1,0,1.95-.39,3.79-1.19,5.49s-1.93,3.15-3.44,4.36c-1.19.96-2.59,1.7-4.21,2.13-1.61.46-3.58.67-5.89.67h-11.82ZM147.12,30.31c0,1.66.25,2.76.74,3.29s1.44.78,2.84.78c2.38,0,4.28-.85,5.61-2.59,1.37-1.7,2.03-4.11,2.03-7.16,0-3.51-.84-6.23-2.49-8.18-1.68-1.95-4-2.9-7.01-2.9-.63,0-1.09.14-1.33.39-.25.25-.39.71-.39,1.31v15.05Z"/>
      <path class="cls-2" d="M158.9,9.95v-4.02h-1.84v-.53h4.43v.53h-1.84v4.02h-.74ZM162.23,9.95v-4.55h1.11l1.32,3.22c.12.3.21.52.27.67.06-.17.16-.41.3-.73l1.34-3.17h.99v4.55h-.71v-3.81l-1.63,3.81h-.66l-1.62-3.88v3.88h-.71Z"/>
      <polygon class="cls-3" points="6.24 46.18 3.92 39.68 5.34 39.68 6.99 44.49 8.57 39.68 9.97 39.68 7.66 46.18 6.24 46.18"/>
      <path class="cls-3" d="M10.46,40.84v-1.15h1.24v1.15h-1.24ZM10.46,46.18v-4.71h1.24v4.71h-1.24ZM15.13,41.47v.99h-.85v1.91c0,.39,0,.62.03.68.02.06.05.11.11.15.05.05.13.06.21.06.12,0,.28-.04.51-.12l.1.96c-.29.13-.62.19-.98.19-.23,0-.43-.04-.61-.11-.18-.08-.31-.18-.39-.3-.09-.12-.15-.28-.18-.49-.02-.15-.04-.44-.04-.88v-2.06h-.57v-.99h.57v-.93l1.24-.73v1.67h.85ZM16.93,42.92l-1.12-.2c.13-.46.34-.8.65-1.03.32-.22.77-.33,1.39-.33.55,0,.97.06,1.24.2.26.13.46.29.57.5.11.2.16.57.16,1.12l-.02,1.45c0,.41.02.72.06.91.04.2.11.41.22.63h-1.23c-.03-.08-.07-.2-.12-.36-.02-.07-.04-.13-.05-.15-.21.21-.44.36-.68.47-.24.1-.5.15-.77.15-.48,0-.86-.14-1.14-.4-.28-.25-.42-.59-.42-.99,0-.27.06-.51.19-.72.13-.21.31-.36.54-.47.23-.12.55-.21.99-.29.58-.11.98-.22,1.21-.31v-.13c0-.24-.05-.42-.17-.52-.13-.1-.34-.15-.67-.15-.23,0-.4.05-.53.14-.12.08-.22.24-.3.46ZM18.6,43.93c-.15.05-.41.12-.75.19-.34.07-.57.15-.68.22-.16.12-.24.26-.24.44s.06.33.2.45c.13.13.29.19.49.19.23,0,.44-.07.64-.22.15-.12.25-.25.3-.42.03-.11.05-.31.05-.61v-.24ZM20.96,41.47h1.14v.64c.41-.5.9-.74,1.47-.74.3,0,.56.06.78.18.22.13.4.32.54.56.21-.24.43-.44.67-.56.24-.12.49-.18.76-.18.34,0,.63.07.88.21.24.15.42.34.54.62.08.2.13.53.13.98v3h-1.24v-2.69c0-.47-.05-.77-.13-.91-.12-.17-.29-.26-.54-.26-.17,0-.34.05-.49.15-.15.11-.26.26-.34.47-.06.21-.1.53-.1.97v2.26h-1.24v-2.58c0-.45-.02-.75-.06-.89-.05-.13-.12-.23-.21-.29-.09-.07-.22-.1-.38-.1-.19,0-.36.05-.52.15-.15.1-.26.25-.33.44-.06.2-.1.52-.1.97v2.29h-1.24v-4.71ZM29.11,40.84v-1.15h1.24v1.15h-1.24ZM29.11,46.18v-4.71h1.24v4.71h-1.24ZM35.92,46.18h-1.24v-2.4c0-.51-.03-.83-.08-.98-.05-.15-.14-.26-.26-.34-.12-.09-.26-.13-.44-.13-.22,0-.41.05-.58.17-.17.12-.29.28-.35.47-.06.2-.1.55-.1,1.08v2.13h-1.24v-4.71h1.15v.69c.42-.53.93-.79,1.56-.79.27,0,.53.05.75.15.24.1.41.23.52.38.12.15.2.33.24.53.05.19.07.47.07.83v2.92ZM39.71,39.68h2.39c.54,0,.95.04,1.23.13.38.11.71.31.97.6.27.28.48.64.63,1.05.14.41.21.93.21,1.53,0,.54-.06.99-.2,1.38-.16.47-.39.85-.69,1.15-.23.22-.54.39-.93.52-.29.09-.67.14-1.15.14h-2.47v-6.5ZM41.03,40.78v4.3h.98c.36,0,.63-.02.79-.06.21-.05.38-.15.53-.27.14-.13.25-.34.34-.63.09-.29.14-.69.14-1.19s-.05-.89-.14-1.15c-.08-.27-.21-.48-.36-.64-.16-.15-.36-.24-.61-.3-.18-.05-.54-.06-1.07-.06h-.59ZM45.94,44.46l1.21-.15c.04.31.15.54.31.71.17.16.37.24.61.24.25,0,.47-.1.64-.29.17-.2.26-.46.26-.8,0-.31-.08-.56-.25-.74-.16-.18-.37-.27-.61-.27-.16,0-.35.03-.57.09l.14-1.01c.34,0,.59-.06.77-.22.17-.15.26-.36.26-.63,0-.22-.06-.39-.19-.53-.14-.13-.31-.19-.53-.19s-.39.07-.54.22c-.15.15-.24.37-.27.65l-1.14-.2c.08-.39.2-.71.36-.94s.38-.43.67-.56c.29-.14.61-.2.97-.2.61,0,1.1.19,1.47.59.3.32.45.68.45,1.08,0,.57-.31,1.03-.93,1.37.37.08.67.26.89.54.23.27.34.61.34,1.01,0,.56-.21,1.05-.63,1.45-.42.41-.93.61-1.55.61s-1.07-.17-1.46-.51c-.38-.34-.61-.78-.67-1.33ZM55.99,46.18v-1.31h-2.65v-1.09l2.81-4.13h1.04v4.13h.81v1.09h-.81v1.31h-1.21ZM55.99,43.78v-2.22l-1.49,2.22h1.49ZM60.7,39.65c.63,0,1.12.23,1.47.67.43.54.64,1.42.64,2.66s-.21,2.11-.64,2.65c-.35.44-.84.67-1.47.67s-1.14-.24-1.53-.73c-.39-.48-.58-1.35-.58-2.6s.22-2.1.64-2.65c.35-.44.84-.66,1.48-.66ZM60.7,40.68c-.15,0-.28.05-.4.15-.12.09-.21.26-.27.52-.08.32-.13.86-.13,1.63s.04,1.29.12,1.57c.07.29.16.48.28.57.12.1.24.15.4.15.15,0,.28-.05.39-.15.12-.1.21-.27.27-.52.08-.32.13-.86.13-1.62s-.04-1.29-.11-1.58c-.08-.28-.17-.48-.29-.57-.12-.1-.24-.15-.39-.15ZM65.75,39.65c.63,0,1.12.23,1.47.67.43.54.64,1.42.64,2.66s-.21,2.11-.64,2.65c-.35.44-.84.67-1.47.67s-1.14-.24-1.53-.73c-.39-.48-.58-1.35-.58-2.6s.22-2.1.64-2.65c.35-.44.84-.66,1.48-.66ZM65.75,40.68c-.15,0-.28.05-.4.15-.12.09-.21.26-.27.52-.08.32-.13.86-.13,1.63s.04,1.29.12,1.57c.07.29.16.48.28.57.12.1.24.15.4.15.15,0,.28-.05.39-.15.12-.1.21-.27.27-.52.08-.32.13-.86.13-1.62s-.04-1.29-.11-1.58c-.08-.28-.17-.48-.29-.57-.12-.1-.24-.15-.39-.15ZM71.44,46.18v-6.5h1.32v6.5h-1.32ZM73.99,46.18v-1.24h1.24v1.24h-1.24ZM76.53,39.68h1.32v3.52c0,.56.02.92.05,1.09.06.26.19.48.4.63.21.16.5.24.86.24s.64-.07.83-.23c.18-.15.3-.34.34-.56.04-.23.05-.59.05-1.11v-3.59h1.32v3.41c0,.78-.04,1.33-.11,1.66-.06.32-.2.59-.39.82-.19.22-.44.4-.76.53-.32.14-.73.2-1.24.2-.62,0-1.09-.07-1.41-.22s-.57-.33-.75-.55c-.19-.24-.31-.47-.37-.73-.08-.37-.13-.93-.13-1.65v-3.47ZM83.06,46.18v-1.24h1.24v1.24h-1.24Z"/>
      <path class="cls-2" d="M1.67,8.14h-.59l1.71-2.69-1.69-2.67h.48c.31,0,.56-.11.75-.32.21-.18.32-.43.32-.75,0-.17-.04-.35-.1-.52-.06-.16-.16-.3-.27-.41-.08-.08-.19-.15-.33-.2-.14-.05-.39-.07-.73-.07H.48v4.84h-.48V0h1.34c.29,0,.52.02.71.07.16.04.32.13.48.24.2.16.36.36.46.59.11.22.17.49.17.79,0,.42-.11.78-.33,1.09-.22.29-.5.45-.86.5l1.13,1.72,1.36-2.22h.58l-1.67,2.67,1.71,2.69h-.61l-1.38-2.26-1.42,2.26Z"/>
      <path class="cls-2" d="M138.63,39.27h2.5c.64,0,1.11.06,1.44.17.32.11.61.31.89.58.27.27.49.63.64,1.06.15.43.23.98.23,1.62,0,.58-.08,1.09-.24,1.53-.16.42-.37.77-.61,1.02-.25.25-.56.44-.9.57-.35.12-.81.19-1.35.19h-2.58v-6.75ZM139.99,40.41v4.47h1.03c.44,0,.76-.04.96-.1s.36-.17.49-.3c.13-.14.23-.36.31-.65s.13-.68.13-1.16-.05-.9-.13-1.19c-.08-.28-.22-.52-.39-.68-.19-.17-.41-.27-.66-.33-.19-.04-.56-.06-1.11-.06h-.63ZM146.73,46.01h-1.31v-4.89h1.22v.7c.21-.33.39-.55.56-.65s.36-.16.57-.16c.3,0,.59.08.86.24l-.41,1.12c-.22-.14-.42-.21-.61-.21-.19,0-.34.06-.47.16-.14.11-.24.31-.3.59s-.09.81-.09,1.57v1.52ZM148.86,43.5c0-.48.12-.91.35-1.31.24-.4.54-.69.91-.89.38-.2.81-.29,1.27-.29.8,0,1.41.25,1.86.75.46.51.68,1.1.68,1.77,0,.51-.12.96-.35,1.37-.24.41-.54.72-.94.91-.38.21-.8.31-1.25.31-.73,0-1.34-.23-1.82-.68-.49-.46-.73-1.11-.73-1.95ZM150.19,43.56c0,.5.12.88.36,1.13.24.24.52.38.87.38.32,0,.6-.13.85-.39.23-.25.35-.63.35-1.13s-.12-.85-.36-1.1c-.23-.26-.52-.39-.86-.39s-.61.12-.85.39c-.24.25-.36.62-.36,1.11ZM154.94,41.12h1.22v.72c.16-.25.38-.46.66-.61.27-.14.56-.22.87-.22.57,0,1.05.22,1.46.65.41.44.6,1.06.6,1.87s-.2,1.48-.61,1.93c-.41.44-.89.67-1.45.67-.25,0-.5-.05-.73-.15-.22-.1-.45-.29-.71-.57v2.46h-1.31v-6.75ZM156.23,43.48c0,.56.1.96.32,1.22.22.26.49.4.8.4s.54-.12.75-.37c.2-.24.3-.63.3-1.18s-.1-.9-.31-1.16c-.21-.24-.46-.37-.76-.37s-.58.12-.79.36c-.21.24-.31.61-.31,1.09ZM160.32,44.62l1.31-.2c.12.52.46.77,1.05.77.31,0,.54-.05.69-.15.15-.09.23-.23.23-.39,0-.1-.03-.19-.1-.24-.07-.07-.21-.12-.43-.17-1.07-.23-1.75-.44-2.04-.65-.36-.26-.54-.62-.54-1.08s.17-.81.53-1.09c.36-.27.87-.41,1.55-.41.64,0,1.13.1,1.47.31.34.2.57.53.71.99l-1.23.23c-.1-.4-.42-.59-.93-.59-.32,0-.56.04-.68.11-.14.08-.21.18-.21.29s.06.21.19.27c.12.08.51.19,1.16.33.73.17,1.22.37,1.48.6.25.24.38.55.38.94,0,.47-.2.87-.59,1.17-.41.31-.95.46-1.66.46-.63,0-1.15-.13-1.55-.39-.41-.25-.67-.63-.8-1.12Z"/>
    </g>
  </g>
</svg>