<?xml version="1.0" encoding="UTF-8"?>
<svg id="Layer_2" data-name="Layer 2" xmlns="http://www.w3.org/2000/svg" viewBox="0 0 160.24 50.79">
  <defs>
    <style>
      .cls-1 {
        fill: #231f20;
        font-family: ArialMT, Arial;
        font-size: 8px;
      }

      .cls-2, .cls-3, .cls-4 {
        fill: #fff200;
        stroke: #231f20;
        stroke-miterlimit: 10;
      }

      .cls-2, .cls-4 {
        stroke-width: .23px;
      }

      .cls-3 {
        stroke-width: .15px;
      }

      .cls-5, .cls-4 {
        fill-rule: evenodd;
      }
    </style>
  </defs>
  <g id="Layer_1-2" data-name="Layer 1">
    <g>
      <path d="M4.46,42.24v-2.5h.76l.45,1.71.44-1.71h.76v2.5h-.47v-1.97l-.5,1.97h-.49l-.49-1.97v1.97h-.47ZM8.43,41.67l.48.08c-.06.17-.16.31-.29.4-.13.09-.3.14-.5.14-.32,0-.55-.1-.7-.31-.12-.16-.18-.37-.18-.63,0-.3.08-.54.23-.71.16-.17.36-.26.6-.26.27,0,.48.09.64.27.16.18.23.45.22.82h-1.2c0,.14.04.25.12.33s.17.12.28.12c.07,0,.14-.02.19-.06.05-.04.09-.1.12-.2ZM8.46,41.18c0-.14-.04-.24-.11-.32-.07-.07-.15-.11-.25-.11-.1,0-.19.04-.26.12-.07.08-.1.18-.1.31h.71ZM9.32,42.24v-2.5h.48v2.5h-.48ZM10.65,40.99l-.43-.08c.05-.18.13-.31.25-.4.12-.08.3-.13.54-.13.21,0,.37.02.48.08.1.05.18.11.22.19.04.08.06.22.06.43v.56c0,.16,0,.28.02.35.01.08.04.16.08.24h-.48s-.03-.08-.05-.14c0-.03-.01-.05-.02-.06-.08.08-.17.14-.26.18-.09.04-.19.06-.3.06-.19,0-.33-.05-.44-.15-.11-.1-.16-.23-.16-.38,0-.1.02-.2.07-.28s.12-.14.21-.18c.09-.05.21-.08.38-.11.22-.04.38-.08.47-.12v-.05c0-.09-.02-.16-.07-.2-.05-.04-.13-.06-.26-.06-.09,0-.15.02-.2.05-.05.03-.08.09-.12.18ZM11.3,41.37c-.06.02-.16.05-.29.07s-.22.06-.26.08c-.06.05-.09.1-.09.17s.02.13.08.17c.05.05.11.07.19.07.09,0,.17-.03.25-.08.06-.05.1-.1.12-.16.01-.04.02-.12.02-.23v-.09ZM13.07,40.43v.38h-.33v.73c0,.15,0,.24.01.26s.02.04.04.06.05.02.08.02c.05,0,.11-.01.2-.05l.04.37c-.11.05-.24.07-.38.07-.09,0-.16-.01-.23-.04-.07-.03-.12-.07-.15-.12-.03-.05-.06-.11-.07-.19,0-.06-.01-.17-.01-.34v-.79h-.22v-.38h.22v-.36l.48-.28v.64h.33ZM13.29,41.31c0-.16.04-.31.12-.46.08-.15.19-.27.33-.34.14-.08.3-.12.48-.12.28,0,.5.09.67.27.17.18.26.41.26.68s-.09.5-.27.68c-.17.18-.4.27-.67.27-.16,0-.33-.04-.48-.11-.15-.08-.27-.19-.34-.33-.08-.15-.12-.32-.12-.53ZM13.79,41.34c0,.18.04.32.13.42.08.09.19.14.31.14s.23-.05.31-.14c.08-.1.13-.23.13-.42,0-.17-.04-.31-.13-.41s-.19-.14-.31-.14-.23.05-.31.14c-.09.09-.13.23-.13.41ZM17.19,42.24h-.48v-.93c0-.2-.01-.32-.03-.38-.02-.06-.05-.1-.1-.13-.05-.03-.1-.05-.17-.05-.08,0-.16.02-.22.07s-.11.11-.14.18c-.02.08-.04.21-.04.42v.82h-.48v-1.81h.44v.27c.16-.2.36-.3.6-.3.1,0,.2.02.29.06.09.04.16.09.2.15.05.06.08.13.09.2.02.07.03.18.03.32v1.13ZM17.68,40.18v-.44h.48v.44h-.48ZM17.68,42.24v-1.81h.48v1.81h-.48ZM20.3,42.24h-.48v-.93c0-.2-.01-.32-.03-.38-.02-.06-.05-.1-.1-.13-.05-.03-.1-.05-.17-.05-.08,0-.16.02-.22.07s-.11.11-.14.18c-.02.08-.04.21-.04.42v.82h-.48v-1.81h.44v.27c.16-.2.36-.3.6-.3.1,0,.2.02.29.06.09.04.16.09.2.15.05.06.08.13.09.2.02.07.03.18.03.32v1.13ZM21.66,41.6l.48-.05c.01.11.06.2.12.26s.14.09.23.09c.1,0,.19-.04.26-.12.07-.08.1-.21.1-.37s-.03-.27-.1-.35c-.07-.08-.16-.12-.27-.12-.14,0-.26.06-.37.18l-.39-.06.24-1.3h1.27v.45h-.91l-.07.43c.1-.05.21-.08.33-.08.21,0,.4.08.54.23.15.15.22.36.22.6,0,.21-.06.39-.18.55-.16.22-.39.33-.68.33-.23,0-.42-.06-.57-.19-.15-.13-.23-.29-.26-.5ZM23.67,40.43h.44v.25c.16-.19.35-.29.57-.29.12,0,.22.02.3.07.08.05.15.12.21.22.08-.09.16-.17.26-.22.09-.05.19-.07.29-.07.13,0,.24.03.34.08.09.06.16.13.21.24.03.08.05.2.05.38v1.16h-.48v-1.04c0-.18-.02-.3-.05-.35-.05-.07-.11-.1-.21-.1-.07,0-.13.02-.19.06-.06.04-.1.1-.13.18-.02.08-.04.2-.04.37v.87h-.48v-.99c0-.17,0-.29-.02-.34-.02-.05-.05-.09-.08-.11-.03-.03-.08-.04-.15-.04-.07,0-.14.02-.2.06s-.1.1-.13.17c-.02.08-.04.2-.04.37v.88h-.48v-1.81ZM26.77,42.36l.55.07c.01.07.03.11.06.13.05.03.12.05.22.05.13,0,.22-.02.28-.06.04-.02.08-.07.1-.12.01-.04.02-.11.02-.22v-.27c-.14.2-.33.3-.54.3-.24,0-.44-.1-.58-.31-.11-.16-.17-.37-.17-.61,0-.3.07-.54.22-.7s.33-.24.55-.24.41.1.56.29v-.26h.45v1.63c0,.22-.02.37-.05.48-.03.1-.08.19-.15.25-.06.06-.15.11-.26.14-.1.03-.24.05-.4.05-.31,0-.52-.05-.65-.16-.13-.11-.19-.24-.19-.4v-.06ZM27.2,41.3c0,.19.04.33.11.42.07.09.17.13.28.13.12,0,.21-.05.29-.14.08-.09.12-.23.12-.41s-.04-.33-.12-.42-.17-.14-.29-.14-.21.05-.28.13c-.07.09-.11.23-.11.41ZM30.47,41.88v-.65h-.66v-.45h.66v-.65h.44v.65h.66v.45h-.66v.65h-.44ZM33.58,42.24l-.9-2.5h.55l.64,1.85.61-1.85h.54l-.89,2.5h-.55Z"/>
      <path d="M35.43,40.99l-.43-.08c.05-.18.13-.31.25-.4.12-.08.3-.13.54-.13.21,0,.37.02.48.08.1.05.18.11.22.19.04.08.06.22.06.43v.56c0,.16,0,.28.02.35.01.08.04.16.08.24h-.48s-.03-.08-.05-.14c0-.03-.01-.05-.02-.06-.08.08-.17.14-.26.18-.09.04-.19.06-.3.06-.19,0-.33-.05-.44-.15-.11-.1-.16-.23-.16-.38,0-.1.02-.2.07-.28s.12-.14.21-.18c.09-.05.21-.08.38-.11.22-.04.38-.08.47-.12v-.05c0-.09-.02-.16-.07-.2-.05-.04-.13-.06-.26-.06-.09,0-.15.02-.2.05-.05.03-.08.09-.12.18ZM36.08,41.37c-.06.02-.16.05-.29.07s-.22.06-.26.08c-.06.05-.09.1-.09.17s.02.13.08.17c.05.05.11.07.19.07.09,0,.17-.03.25-.08.06-.05.1-.1.12-.16.01-.04.02-.12.02-.23v-.09ZM37.02,42.24v-2.5h.48v2.5h-.48ZM39.04,41.67l.48.08c-.06.17-.16.31-.29.4-.13.09-.3.14-.5.14-.32,0-.55-.1-.7-.31-.12-.16-.18-.37-.18-.63,0-.3.08-.54.23-.71.16-.17.36-.26.6-.26.27,0,.48.09.64.27.16.18.23.45.22.82h-1.2c0,.14.04.25.12.33s.17.12.28.12c.07,0,.14-.02.19-.06.05-.04.09-.1.12-.2ZM39.07,41.18c0-.14-.04-.24-.11-.32-.07-.07-.15-.11-.25-.11-.1,0-.19.04-.26.12-.07.08-.1.18-.1.31h.71ZM40.39,42.24h-.48v-1.81h.44v.26c.08-.12.15-.2.21-.24.06-.04.13-.06.21-.06.11,0,.21.03.31.09l-.15.42c-.08-.05-.16-.08-.23-.08s-.13.02-.17.06c-.05.03-.08.1-.11.2-.03.1-.04.3-.04.61v.56ZM41.3,40.18v-.44h.48v.44h-.48ZM41.3,42.24v-1.81h.48v1.81h-.48ZM42.63,40.99l-.43-.08c.05-.18.13-.31.25-.4.12-.08.3-.13.54-.13.21,0,.37.02.48.08.1.05.18.11.22.19.04.08.06.22.06.43v.56c0,.16,0,.28.02.35.01.08.04.16.08.24h-.48s-.03-.08-.05-.14c0-.03-.01-.05-.02-.06-.08.08-.17.14-.26.18-.09.04-.19.06-.3.06-.19,0-.33-.05-.44-.15-.11-.1-.16-.23-.16-.38,0-.1.02-.2.07-.28s.12-.14.21-.18c.09-.05.21-.08.38-.11.22-.04.38-.08.47-.12v-.05c0-.09-.02-.16-.07-.2-.05-.04-.13-.06-.26-.06-.09,0-.15.02-.2.05-.05.03-.08.09-.12.18ZM43.27,41.37c-.06.02-.16.05-.29.07s-.22.06-.26.08c-.06.05-.09.1-.09.17s.02.13.08.17c.05.05.11.07.19.07.09,0,.17-.03.25-.08.06-.05.1-.1.12-.16.01-.04.02-.12.02-.23v-.09ZM45.86,42.24h-.48v-.93c0-.2-.01-.32-.03-.38-.02-.06-.05-.1-.1-.13-.05-.03-.1-.05-.17-.05-.08,0-.16.02-.22.07s-.11.11-.14.18c-.02.08-.04.21-.04.42v.82h-.48v-1.81h.44v.27c.16-.2.36-.3.6-.3.1,0,.2.02.29.06.09.04.16.09.2.15.05.06.08.13.09.2.02.07.03.18.03.32v1.13ZM47.78,42.24h-.48v-1.81h.44v.26c.08-.12.15-.2.21-.24.06-.04.13-.06.21-.06.11,0,.21.03.31.09l-.15.42c-.08-.05-.16-.08-.23-.08s-.13.02-.17.06c-.05.03-.08.1-.11.2-.03.1-.04.3-.04.61v.56ZM48.57,41.31c0-.16.04-.31.12-.46.08-.15.19-.27.33-.34.14-.08.3-.12.48-.12.28,0,.5.09.67.27.17.18.26.41.26.68s-.09.5-.27.68c-.17.18-.4.27-.67.27-.16,0-.33-.04-.48-.11-.15-.08-.27-.19-.34-.33-.08-.15-.12-.32-.12-.53ZM49.06,41.34c0,.18.04.32.13.42.08.09.19.14.31.14s.23-.05.31-.14c.08-.1.13-.23.13-.42,0-.17-.04-.31-.13-.41s-.19-.14-.31-.14-.23.05-.31.14c-.09.09-.13.23-.13.41ZM50.71,41.31c0-.16.04-.31.12-.46.08-.15.19-.27.33-.34.14-.08.3-.12.48-.12.28,0,.5.09.67.27.17.18.26.41.26.68s-.09.5-.27.68c-.17.18-.4.27-.67.27-.16,0-.33-.04-.48-.11-.15-.08-.27-.19-.34-.33-.08-.15-.12-.32-.12-.53ZM51.2,41.34c0,.18.04.32.13.42.08.09.19.14.31.14s.23-.05.31-.14c.08-.1.13-.23.13-.42,0-.17-.04-.31-.13-.41s-.19-.14-.31-.14-.23.05-.31.14c-.09.09-.13.23-.13.41ZM53.79,40.43v.38h-.33v.73c0,.15,0,.24.01.26s.02.04.04.06.05.02.08.02c.05,0,.11-.01.2-.05l.04.37c-.11.05-.24.07-.38.07-.09,0-.16-.01-.23-.04-.07-.03-.12-.07-.15-.12-.03-.05-.06-.11-.07-.19,0-.06-.01-.17-.01-.34v-.79h-.22v-.38h.22v-.36l.48-.28v.64h.33ZM56.14,41.67l.48.08c-.06.17-.16.31-.29.4-.13.09-.3.14-.5.14-.32,0-.55-.1-.7-.31-.12-.16-.18-.37-.18-.63,0-.3.08-.54.23-.71.16-.17.36-.26.6-.26.27,0,.48.09.64.27.16.18.23.45.22.82h-1.2c0,.14.04.25.12.33s.17.12.28.12c.07,0,.14-.02.19-.06.05-.04.09-.1.12-.2ZM56.17,41.18c0-.14-.04-.24-.11-.32-.07-.07-.15-.11-.25-.11-.1,0-.19.04-.26.12-.07.08-.1.18-.1.31h.71ZM56.81,42.24l.65-.93-.63-.88h.58l.32.5.34-.5h.56l-.62.86.67.95h-.59l-.37-.56-.37.56h-.56ZM59.81,40.43v.38h-.33v.73c0,.15,0,.24.01.26s.02.04.04.06.05.02.08.02c.05,0,.11-.01.2-.05l.04.37c-.11.05-.24.07-.38.07-.09,0-.16-.01-.23-.04-.07-.03-.12-.07-.15-.12-.03-.05-.06-.11-.07-.19,0-.06-.01-.17-.01-.34v-.79h-.22v-.38h.22v-.36l.48-.28v.64h.33ZM60.6,42.24h-.48v-1.81h.44v.26c.08-.12.15-.2.21-.24.06-.04.13-.06.21-.06.11,0,.21.03.31.09l-.15.42c-.08-.05-.16-.08-.23-.08s-.13.02-.17.06c-.05.03-.08.1-.11.2-.03.1-.04.3-.04.61v.56ZM61.86,40.99l-.43-.08c.05-.18.13-.31.25-.4.12-.08.3-.13.54-.13.21,0,.37.02.48.08.1.05.18.11.22.19.04.08.06.22.06.43v.56c0,.16,0,.28.02.35.01.08.04.16.08.24h-.48s-.03-.08-.05-.14c0-.03-.01-.05-.02-.06-.08.08-.17.14-.26.18-.09.04-.19.06-.3.06-.19,0-.33-.05-.44-.15-.11-.1-.16-.23-.16-.38,0-.1.02-.2.07-.28s.12-.14.21-.18c.09-.05.21-.08.38-.11.22-.04.38-.08.47-.12v-.05c0-.09-.02-.16-.07-.2-.05-.04-.13-.06-.26-.06-.09,0-.15.02-.2.05-.05.03-.08.09-.12.18ZM62.51,41.37c-.06.02-.16.05-.29.07s-.22.06-.26.08c-.06.05-.09.1-.09.17s.02.13.08.17c.05.05.11.07.19.07.09,0,.17-.03.25-.08.06-.05.1-.1.12-.16.01-.04.02-.12.02-.23v-.09ZM65.03,40.96l-.47.08c-.01-.09-.05-.16-.11-.21-.06-.05-.13-.07-.22-.07-.12,0-.21.04-.28.12-.07.08-.11.22-.11.42,0,.22.03.37.11.46.07.09.17.13.29.13.09,0,.16-.03.22-.08.06-.05.1-.14.12-.27l.47.08c-.05.22-.14.38-.28.49-.14.11-.33.17-.56.17-.27,0-.48-.08-.63-.25s-.24-.4-.24-.7.08-.54.24-.7c.16-.17.37-.25.64-.25.22,0,.4.05.53.14s.22.24.28.43ZM66.22,40.43v.38h-.33v.73c0,.15,0,.24.01.26s.02.04.04.06.05.02.08.02c.05,0,.11-.01.2-.05l.04.37c-.11.05-.24.07-.38.07-.09,0-.16-.01-.23-.04-.07-.03-.12-.07-.15-.12-.03-.05-.06-.11-.07-.19,0-.06-.01-.17-.01-.34v-.79h-.22v-.38h.22v-.36l.48-.28v.64h.33ZM68.66,42.24h-.48v-1.81c-.17.16-.38.28-.62.36v-.44c.13-.04.26-.12.41-.23.15-.11.24-.25.3-.4h.39v2.52ZM70.19,39.72c.24,0,.43.09.57.26.16.21.24.55.24,1.02s-.08.81-.24,1.02c-.14.17-.33.26-.57.26s-.44-.09-.59-.28c-.15-.19-.22-.52-.22-1s.08-.81.24-1.02c.14-.17.33-.26.57-.26ZM70.19,40.12c-.06,0-.11.02-.15.06-.05.03-.08.1-.1.2-.03.12-.05.33-.05.63s.01.5.05.6c.03.11.06.19.11.22.05.04.09.06.15.06.06,0,.11-.02.15-.06.05-.04.08-.1.1-.2.03-.12.05-.33.05-.63s-.01-.5-.04-.61c-.03-.11-.07-.19-.11-.22-.05-.04-.09-.06-.15-.06ZM72.13,39.72c.24,0,.43.09.57.26.16.21.24.55.24,1.02s-.08.81-.24,1.02c-.14.17-.33.26-.57.26s-.44-.09-.59-.28c-.15-.19-.22-.52-.22-1s.08-.81.24-1.02c.14-.17.33-.26.57-.26ZM72.13,40.12c-.06,0-.11.02-.15.06-.05.03-.08.1-.1.2-.03.12-.05.33-.05.63s.01.5.05.6c.03.11.06.19.11.22.05.04.09.06.15.06.06,0,.11-.02.15-.06.05-.04.08-.1.1-.2.03-.12.05-.33.05-.63s-.01-.5-.04-.61c-.03-.11-.07-.19-.11-.22-.05-.04-.09-.06-.15-.06ZM73.33,40.43h.44v.25c.16-.19.35-.29.57-.29.12,0,.22.02.3.07.08.05.15.12.21.22.08-.09.16-.17.26-.22.09-.05.19-.07.29-.07.13,0,.24.03.34.08.09.06.16.13.21.24.03.08.05.2.05.38v1.16h-.48v-1.04c0-.18-.02-.3-.05-.35-.05-.07-.11-.1-.21-.1-.07,0-.13.02-.19.06-.06.04-.1.1-.13.18-.02.08-.04.2-.04.37v.87h-.48v-.99c0-.17,0-.29-.02-.34-.02-.05-.05-.09-.08-.11-.03-.03-.08-.04-.15-.04-.07,0-.14.02-.2.06s-.1.1-.13.17c-.02.08-.04.2-.04.37v.88h-.48v-1.81ZM76.43,42.36l.55.07c.01.07.03.11.06.13.05.03.12.05.22.05.13,0,.22-.02.28-.06.04-.02.08-.07.1-.12.01-.04.02-.11.02-.22v-.27c-.14.2-.33.3-.54.3-.24,0-.44-.1-.58-.31-.11-.16-.17-.37-.17-.61,0-.3.07-.54.22-.7s.33-.24.55-.24.41.1.56.29v-.26h.45v1.63c0,.22-.02.37-.05.48-.03.1-.08.19-.15.25-.06.06-.15.11-.26.14-.1.03-.24.05-.4.05-.31,0-.52-.05-.65-.16-.13-.11-.19-.24-.19-.4v-.06ZM76.86,41.3c0,.19.04.33.11.42.07.09.17.13.28.13.12,0,.21-.05.29-.14.08-.09.12-.23.12-.41s-.04-.33-.12-.42-.17-.14-.29-.14-.21.05-.28.13c-.07.09-.11.23-.11.41ZM80.13,41.88v-.65h-.66v-.45h.66v-.65h.44v.65h.66v.45h-.66v.65h-.44ZM82.6,42.24v-2.5h.81c.31,0,.51.01.6.04.14.03.26.12.36.24.09.13.14.29.14.49,0,.15-.03.28-.08.39s-.13.19-.21.25c-.09.06-.17.1-.26.12-.12.02-.3.03-.52.03h-.33v.94h-.51ZM83.11,40.16v.71h.28c.2,0,.33-.01.4-.04.07-.03.12-.07.16-.13s.06-.12.06-.2c0-.09-.03-.16-.08-.22s-.12-.1-.2-.11c-.06-.01-.18-.02-.36-.02h-.24ZM85.29,40.99l-.43-.08c.05-.18.13-.31.25-.4.12-.08.3-.13.54-.13.21,0,.37.02.48.08.1.05.18.11.22.19.04.08.06.22.06.43v.56c0,.16,0,.28.02.35.01.08.04.16.08.24h-.48s-.03-.08-.05-.14c0-.03-.01-.05-.02-.06-.08.08-.17.14-.26.18-.09.04-.19.06-.3.06-.19,0-.33-.05-.44-.15-.11-.1-.16-.23-.16-.38,0-.1.02-.2.07-.28s.12-.14.21-.18c.09-.05.21-.08.38-.11.22-.04.38-.08.47-.12v-.05c0-.09-.02-.16-.07-.2-.05-.04-.13-.06-.26-.06-.09,0-.15.02-.2.05-.05.03-.08.09-.12.18ZM85.93,41.37c-.06.02-.16.05-.29.07s-.22.06-.26.08c-.06.05-.09.1-.09.17s.02.13.08.17c.05.05.11.07.19.07.09,0,.17-.03.25-.08.06-.05.1-.1.12-.16.01-.04.02-.12.02-.23v-.09ZM86.7,41.73l.48-.07c.02.09.06.16.13.21.06.05.15.07.26.07.12,0,.22-.02.28-.07.04-.03.06-.07.06-.13,0-.04-.01-.07-.03-.09s-.08-.05-.16-.06c-.38-.09-.63-.16-.73-.23-.14-.1-.22-.24-.22-.41,0-.16.06-.29.19-.4.13-.11.32-.16.58-.16s.43.04.56.12c.12.08.2.2.25.36l-.45.08c-.02-.07-.06-.13-.11-.16-.05-.04-.13-.06-.23-.06-.13,0-.22.02-.27.05-.04.02-.06.06-.06.1,0,.03.02.06.05.09.04.03.19.08.45.14.26.06.44.13.54.21s.15.2.15.36c0,.16-.07.31-.21.43-.14.12-.34.18-.62.18-.25,0-.44-.05-.59-.15-.14-.1-.24-.23-.28-.41ZM88.65,41.73l.48-.07c.02.09.06.16.13.21.06.05.15.07.26.07.12,0,.22-.02.28-.07.04-.03.06-.07.06-.13,0-.04-.01-.07-.03-.09s-.08-.05-.16-.06c-.38-.09-.63-.16-.73-.23-.14-.1-.22-.24-.22-.41,0-.16.06-.29.19-.4.13-.11.32-.16.58-.16s.43.04.56.12c.12.08.2.2.25.36l-.45.08c-.02-.07-.06-.13-.11-.16-.05-.04-.13-.06-.23-.06-.13,0-.22.02-.27.05-.04.02-.06.06-.06.1,0,.03.02.06.05.09.04.03.19.08.45.14.26.06.44.13.54.21s.15.2.15.36c0,.16-.07.31-.21.43-.14.12-.34.18-.62.18-.25,0-.44-.05-.59-.15-.14-.1-.24-.23-.28-.41ZM90.77,40.18v-.44h.48v.44h-.48ZM90.77,42.24v-1.81h.48v1.81h-.48ZM91.54,40.43h.27v-.14c0-.15.02-.27.05-.34.03-.08.09-.14.18-.19.09-.05.2-.07.33-.07s.27.02.4.06l-.06.34c-.08-.02-.15-.03-.23-.03s-.12.02-.15.05c-.03.03-.05.09-.05.19v.13h.36v.38h-.36v1.44h-.48v-1.44h-.27v-.38ZM92.9,42.24v-2.5h.48v2.5h-.48ZM93.76,41.31c0-.16.04-.31.12-.46.08-.15.19-.27.33-.34.14-.08.3-.12.48-.12.28,0,.5.09.67.27.17.18.26.41.26.68s-.09.5-.27.68c-.17.18-.4.27-.67.27-.16,0-.33-.04-.48-.11-.15-.08-.27-.19-.34-.33-.08-.15-.12-.32-.12-.53ZM94.26,41.34c0,.18.04.32.13.42.08.09.19.14.31.14s.23-.05.31-.14c.08-.1.13-.23.13-.42,0-.17-.04-.31-.13-.41s-.19-.14-.31-.14-.23.05-.31.14c-.09.09-.13.23-.13.41ZM96.47,42.24h-.48v-1.81h.44v.26c.08-.12.15-.2.21-.24.06-.04.13-.06.21-.06.11,0,.21.03.31.09l-.15.42c-.08-.05-.16-.08-.23-.08s-.13.02-.17.06c-.05.03-.08.1-.11.2-.03.1-.04.3-.04.61v.56ZM97.73,40.99l-.43-.08c.05-.18.13-.31.25-.4.12-.08.3-.13.54-.13.21,0,.37.02.48.08.1.05.18.11.22.19.04.08.06.22.06.43v.56c0,.16,0,.28.02.35.01.08.04.16.08.24h-.48s-.03-.08-.05-.14c0-.03-.01-.05-.02-.06-.08.08-.17.14-.26.18-.09.04-.19.06-.3.06-.19,0-.33-.05-.44-.15-.11-.1-.16-.23-.16-.38,0-.1.02-.2.07-.28s.12-.14.21-.18c.09-.05.21-.08.38-.11.22-.04.38-.08.47-.12v-.05c0-.09-.02-.16-.07-.2-.05-.04-.13-.06-.26-.06-.09,0-.15.02-.2.05-.05.03-.08.09-.12.18ZM98.37,41.37c-.06.02-.16.05-.29.07s-.22.06-.26.08c-.06.05-.09.1-.09.17s.02.13.08.17c.05.05.11.07.19.07.09,0,.17-.03.25-.08.06-.05.1-.1.12-.16.01-.04.02-.12.02-.23v-.09ZM100.09,40.43h.27v-.14c0-.15.02-.27.05-.34.03-.08.09-.14.18-.19.09-.05.2-.07.33-.07s.27.02.4.06l-.06.34c-.08-.02-.15-.03-.23-.03s-.12.02-.15.05c-.03.03-.05.09-.05.19v.13h.36v.38h-.36v1.44h-.48v-1.44h-.27v-.38ZM101.45,42.24v-2.5h.48v2.5h-.48ZM102.31,41.31c0-.16.04-.31.12-.46.08-.15.19-.27.33-.34.14-.08.3-.12.48-.12.28,0,.5.09.67.27.17.18.26.41.26.68s-.09.5-.27.68c-.17.18-.4.27-.67.27-.16,0-.33-.04-.48-.11-.15-.08-.27-.19-.34-.33-.08-.15-.12-.32-.12-.53ZM102.81,41.34c0,.18.04.32.13.42.08.09.19.14.31.14s.23-.05.31-.14c.08-.1.13-.23.13-.42,0-.17-.04-.31-.13-.41s-.19-.14-.31-.14-.23.05-.31.14c-.09.09-.13.23-.13.41ZM104.9,42.24l-.57-1.81h.47l.34,1.19.31-1.19h.46l.3,1.19.35-1.19h.47l-.58,1.81h-.46l-.31-1.17-.31,1.17h-.47ZM108.33,41.67l.48.08c-.06.17-.16.31-.29.4-.13.09-.3.14-.5.14-.32,0-.55-.1-.7-.31-.12-.16-.18-.37-.18-.63,0-.3.08-.54.23-.71.16-.17.36-.26.6-.26.27,0,.48.09.64.27.16.18.23.45.22.82h-1.2c0,.14.04.25.12.33s.17.12.28.12c.07,0,.14-.02.19-.06.05-.04.09-.1.12-.2ZM108.36,41.18c0-.14-.04-.24-.11-.32-.07-.07-.15-.11-.25-.11-.1,0-.19.04-.26.12-.07.08-.1.18-.1.31h.71ZM109.69,42.24h-.48v-1.81h.44v.26c.08-.12.15-.2.21-.24.06-.04.13-.06.21-.06.11,0,.21.03.31.09l-.15.42c-.08-.05-.16-.08-.23-.08s-.13.02-.17.06c-.05.03-.08.1-.11.2-.03.1-.04.3-.04.61v.56ZM112.61,41.67l.48.08c-.06.17-.16.31-.29.4-.13.09-.3.14-.5.14-.32,0-.55-.1-.7-.31-.12-.16-.18-.37-.18-.63,0-.3.08-.54.23-.71.16-.17.36-.26.6-.26.27,0,.48.09.64.27.16.18.23.45.22.82h-1.2c0,.14.04.25.12.33s.17.12.28.12c.07,0,.14-.02.19-.06.05-.04.09-.1.12-.2ZM112.64,41.18c0-.14-.04-.24-.11-.32-.07-.07-.15-.11-.25-.11-.1,0-.19.04-.26.12-.07.08-.1.18-.1.31h.71ZM113.27,42.24l.65-.93-.63-.88h.58l.32.5.34-.5h.56l-.62.86.67.95h-.59l-.37-.56-.37.56h-.56ZM116.28,40.43v.38h-.33v.73c0,.15,0,.24.01.26s.02.04.04.06.05.02.08.02c.05,0,.11-.01.2-.05l.04.37c-.11.05-.24.07-.38.07-.09,0-.16-.01-.23-.04-.07-.03-.12-.07-.15-.12-.03-.05-.06-.11-.07-.19,0-.06-.01-.17-.01-.34v-.79h-.22v-.38h.22v-.36l.48-.28v.64h.33ZM117.07,42.24h-.48v-1.81h.44v.26c.08-.12.15-.2.21-.24.06-.04.13-.06.21-.06.11,0,.21.03.31.09l-.15.42c-.08-.05-.16-.08-.23-.08s-.13.02-.17.06c-.05.03-.08.1-.11.2-.03.1-.04.3-.04.61v.56ZM118.33,40.99l-.43-.08c.05-.18.13-.31.25-.4.12-.08.3-.13.54-.13.21,0,.37.02.48.08.1.05.18.11.22.19.04.08.06.22.06.43v.56c0,.16,0,.28.02.35.01.08.04.16.08.24h-.48s-.03-.08-.05-.14c0-.03-.01-.05-.02-.06-.08.08-.17.14-.26.18-.09.04-.19.06-.3.06-.19,0-.33-.05-.44-.15-.11-.1-.16-.23-.16-.38,0-.1.02-.2.07-.28.05-.08.12-.14.21-.18.09-.05.21-.08.38-.11.22-.04.38-.08.47-.12v-.05c0-.09-.02-.16-.07-.2-.05-.04-.13-.06-.26-.06-.09,0-.15.02-.2.05-.05.03-.08.09-.12.18ZM118.97,41.37c-.06.02-.16.05-.29.07-.13.03-.22.06-.26.08-.06.05-.09.1-.09.17s.02.13.08.17c.05.05.11.07.19.07.09,0,.17-.03.25-.08.06-.05.1-.1.12-.16.01-.04.02-.12.02-.23v-.09ZM121.5,40.96l-.47.08c-.01-.09-.05-.16-.11-.21-.06-.05-.13-.07-.22-.07-.12,0-.21.04-.28.12-.07.08-.11.22-.11.42,0,.22.03.37.11.46.07.09.17.13.29.13.09,0,.16-.03.22-.08.06-.05.1-.14.12-.27l.47.08c-.05.22-.14.38-.28.49-.14.11-.33.17-.56.17-.27,0-.48-.08-.63-.25s-.24-.4-.24-.7.08-.54.24-.7c.16-.17.37-.25.64-.25.22,0,.4.05.53.14s.22.24.28.43ZM122.69,40.43v.38h-.33v.73c0,.15,0,.24.01.26s.02.04.04.06.05.02.08.02c.05,0,.11-.01.2-.05l.04.37c-.11.05-.24.07-.38.07-.09,0-.16-.01-.23-.04-.07-.03-.12-.07-.15-.12-.03-.05-.06-.11-.07-.19,0-.06-.01-.17-.01-.34v-.79h-.22v-.38h.22v-.36l.48-.28v.64h.33ZM125.12,42.24h-.48v-1.81c-.17.16-.38.28-.62.36v-.44c.13-.04.26-.12.41-.23.15-.11.24-.25.3-.4h.39v2.52ZM126.65,39.72c.24,0,.43.09.57.26.16.21.24.55.24,1.02s-.08.81-.24,1.02c-.14.17-.33.26-.57.26s-.44-.09-.59-.28c-.15-.19-.22-.52-.22-1s.08-.81.24-1.02c.14-.17.33-.26.57-.26ZM126.65,40.12c-.06,0-.11.02-.15.06-.05.03-.08.1-.1.2-.03.12-.05.33-.05.63s.01.5.05.6c.03.11.06.19.11.22.05.04.09.06.15.06.06,0,.11-.02.15-.06.05-.04.08-.1.1-.2.03-.12.05-.33.05-.63s-.01-.5-.04-.61c-.03-.11-.07-.19-.11-.22-.05-.04-.09-.06-.15-.06ZM128.6,39.72c.24,0,.43.09.57.26.16.21.24.55.24,1.02s-.08.81-.24,1.02c-.14.17-.33.26-.57.26s-.44-.09-.59-.28c-.15-.19-.22-.52-.22-1s.08-.81.24-1.02c.14-.17.33-.26.57-.26ZM128.6,40.12c-.06,0-.11.02-.15.06-.05.03-.08.1-.1.2-.03.12-.05.33-.05.63s.01.5.05.6c.03.11.06.19.11.22.05.04.09.06.15.06.06,0,.11-.02.15-.06.05-.04.08-.1.1-.2.03-.12.05-.33.05-.63s-.01-.5-.04-.61c-.03-.11-.07-.19-.11-.22-.05-.04-.09-.06-.15-.06ZM129.8,40.43h.44v.25c.16-.19.35-.29.57-.29.12,0,.22.02.3.07.08.05.15.12.21.22.08-.09.16-.17.26-.22.09-.05.19-.07.29-.07.13,0,.24.03.34.08.09.06.16.13.21.24.03.08.05.2.05.38v1.16h-.48v-1.04c0-.18-.02-.3-.05-.35-.05-.07-.11-.1-.21-.1-.07,0-.13.02-.19.06-.06.04-.1.1-.13.18-.02.08-.04.2-.04.37v.87h-.48v-.99c0-.17,0-.29-.02-.34-.02-.05-.05-.09-.08-.11-.03-.03-.08-.04-.15-.04-.07,0-.14.02-.2.06s-.1.1-.13.17c-.02.08-.04.2-.04.37v.88h-.48v-1.81ZM132.9,42.36l.55.07c.01.07.03.11.06.13.05.03.12.05.22.05.13,0,.22-.02.28-.06.04-.02.08-.07.1-.12.01-.04.02-.11.02-.22v-.27c-.14.2-.33.3-.54.3-.24,0-.44-.1-.58-.31-.11-.16-.17-.37-.17-.61,0-.3.07-.54.22-.7s.33-.24.55-.24.41.1.56.29v-.26h.45v1.63c0,.22-.02.37-.05.48-.03.1-.08.19-.15.25-.06.06-.15.11-.26.14-.1.03-.24.05-.4.05-.31,0-.52-.05-.65-.16-.13-.11-.19-.24-.19-.4v-.06ZM133.33,41.3c0,.19.04.33.11.42.07.09.17.13.28.13.12,0,.21-.05.29-.14.08-.09.12-.23.12-.41s-.04-.33-.12-.42c-.08-.09-.17-.14-.29-.14s-.21.05-.28.13c-.07.09-.11.23-.11.41Z"/>
      <path d="M13.23,45.79v-.65h-.66v-.45h.66v-.65h.44v.65h.66v.45h-.66v.65h-.44ZM15.7,46.15v-2.5h.76l.45,1.71.44-1.71h.76v2.5h-.47v-1.97l-.5,1.97h-.49l-.49-1.97v1.97h-.47ZM19.66,45.57l.48.08c-.06.17-.16.31-.29.4-.13.09-.3.14-.5.14-.32,0-.55-.1-.7-.31-.12-.16-.18-.37-.18-.63,0-.3.08-.54.23-.71.16-.17.36-.26.6-.26.27,0,.48.09.64.27.16.18.23.45.22.82h-1.2c0,.14.04.25.12.33s.17.12.28.12c.07,0,.14-.02.19-.06.05-.04.09-.1.12-.2ZM19.69,45.09c0-.14-.04-.24-.11-.32-.07-.07-.15-.11-.25-.11-.1,0-.19.04-.26.12-.07.08-.1.18-.1.31h.71ZM20.56,46.15v-2.5h.48v2.5h-.48ZM21.53,44.09v-.44h.48v.44h-.48ZM21.53,46.15v-1.81h.48v1.81h-.48ZM22.33,45.64l.48-.07c.02.09.06.16.13.21.06.05.15.07.26.07.12,0,.22-.02.28-.07.04-.03.06-.07.06-.13,0-.04-.01-.07-.03-.09s-.08-.05-.16-.06c-.38-.09-.63-.16-.73-.23-.14-.1-.22-.24-.22-.41,0-.16.06-.29.19-.4.13-.11.32-.16.58-.16s.43.04.56.12c.12.08.2.2.25.36l-.45.08c-.02-.07-.06-.13-.11-.16-.05-.04-.13-.06-.23-.06-.13,0-.22.02-.27.05-.04.02-.06.06-.06.1,0,.03.02.06.05.09.04.03.19.08.45.14.26.06.44.13.54.21s.15.2.15.36c0,.16-.07.31-.21.43-.14.12-.34.18-.62.18-.25,0-.44-.05-.59-.15-.14-.1-.24-.23-.28-.41ZM24.27,45.64l.48-.07c.02.09.06.16.13.21.06.05.15.07.26.07.12,0,.22-.02.28-.07.04-.03.06-.07.06-.13,0-.04-.01-.07-.03-.09s-.08-.05-.16-.06c-.38-.09-.63-.16-.73-.23-.14-.1-.22-.24-.22-.41,0-.16.06-.29.19-.4.13-.11.32-.16.58-.16s.43.04.56.12c.12.08.2.2.25.36l-.45.08c-.02-.07-.06-.13-.11-.16-.05-.04-.13-.06-.23-.06-.13,0-.22.02-.27.05-.04.02-.06.06-.06.1,0,.03.02.06.05.09.04.03.19.08.45.14.26.06.44.13.54.21s.15.2.15.36c0,.16-.07.31-.21.43-.14.12-.34.18-.62.18-.25,0-.44-.05-.59-.15-.14-.1-.24-.23-.28-.41ZM26.75,44.89l-.43-.08c.05-.18.13-.31.25-.4.12-.08.3-.13.54-.13.21,0,.37.02.48.08.1.05.18.11.22.19.04.08.06.22.06.43v.56c0,.16,0,.28.02.35.01.08.04.16.08.24h-.48s-.03-.08-.05-.14c0-.03-.01-.05-.02-.06-.08.08-.17.14-.26.18-.09.04-.19.06-.3.06-.19,0-.33-.05-.44-.15-.11-.1-.16-.23-.16-.38,0-.1.02-.2.07-.28s.12-.14.21-.18c.09-.05.21-.08.38-.11.22-.04.38-.08.47-.12v-.05c0-.09-.02-.16-.07-.2-.05-.04-.13-.06-.26-.06-.09,0-.15.02-.2.05-.05.03-.08.09-.12.18ZM27.39,45.28c-.06.02-.16.05-.29.07s-.22.06-.26.08c-.06.05-.09.1-.09.17s.02.13.08.17c.05.05.11.07.19.07.09,0,.17-.03.25-.08.06-.05.1-.1.12-.16.01-.04.02-.12.02-.23v-.09ZM30.1,46.88h-.33c-.17-.26-.31-.54-.4-.82-.09-.28-.14-.56-.14-.83,0-.33.06-.64.17-.93.1-.25.22-.49.37-.7h.33c-.16.34-.27.64-.33.88-.06.24-.09.5-.09.77,0,.19.02.38.05.57s.08.38.14.56c.04.12.11.28.21.5ZM32.14,46.15h-.44v-.27c-.07.1-.16.18-.26.23s-.2.08-.3.08c-.21,0-.39-.08-.54-.25s-.22-.4-.22-.71.07-.54.22-.7c.15-.16.33-.24.55-.24.2,0,.38.08.53.25v-.9h.48v2.5ZM30.86,45.2c0,.2.03.34.08.42.08.13.19.19.33.19.11,0,.2-.05.28-.14s.12-.23.12-.42c0-.21-.04-.36-.11-.45-.08-.09-.17-.14-.29-.14s-.21.05-.29.14-.12.23-.12.41ZM33.07,46.15h-.48v-1.81h.44v.26c.08-.12.15-.2.21-.24.06-.04.13-.06.21-.06.11,0,.21.03.31.09l-.15.42c-.08-.05-.16-.08-.23-.08s-.13.02-.17.06c-.05.03-.08.1-.11.2-.03.1-.04.3-.04.61v.56ZM33.74,44.33h.51l.44,1.29.42-1.29h.5l-.64,1.75-.12.32c-.04.1-.08.19-.12.24-.03.06-.08.1-.13.14s-.11.06-.19.08c-.07.02-.15.03-.24.03s-.18-.01-.27-.03l-.04-.37c.08.01.14.02.2.02.11,0,.2-.03.25-.1.06-.07.1-.15.13-.25l-.69-1.82ZM37.93,45.57l.48.08c-.06.17-.16.31-.29.4-.13.09-.3.14-.5.14-.32,0-.55-.1-.7-.31-.12-.16-.18-.37-.18-.63,0-.3.08-.54.23-.71.16-.17.36-.26.6-.26.27,0,.48.09.64.27.16.18.23.45.22.82h-1.2c0,.14.04.25.12.33s.17.12.28.12c.07,0,.14-.02.19-.06.05-.04.09-.1.12-.2ZM37.96,45.09c0-.14-.04-.24-.11-.32-.07-.07-.15-.11-.25-.11-.1,0-.19.04-.26.12-.07.08-.1.18-.1.31h.71ZM38.6,46.15l.65-.93-.63-.88h.58l.32.5.34-.5h.56l-.62.86.67.95h-.59l-.37-.56-.37.56h-.56ZM41.6,44.33v.38h-.33v.73c0,.15,0,.24.01.26s.02.04.04.06.05.02.08.02c.05,0,.11-.01.2-.05l.04.37c-.11.05-.24.07-.38.07-.09,0-.16-.01-.23-.04-.07-.03-.12-.07-.15-.12-.03-.05-.06-.11-.07-.19,0-.06-.01-.17-.01-.34v-.79h-.22v-.38h.22v-.36l.48-.28v.64h.33ZM42.4,46.15h-.48v-1.81h.44v.26c.08-.12.15-.2.21-.24.06-.04.13-.06.21-.06.11,0,.21.03.31.09l-.15.42c-.08-.05-.16-.08-.23-.08s-.13.02-.17.06c-.05.03-.08.1-.11.2-.03.1-.04.3-.04.61v.56ZM43.66,44.89l-.43-.08c.05-.18.13-.31.25-.4.12-.08.3-.13.54-.13.21,0,.37.02.48.08.1.05.18.11.22.19.04.08.06.22.06.43v.56c0,.16,0,.28.02.35.01.08.04.16.08.24h-.48s-.03-.08-.05-.14c0-.03-.01-.05-.02-.06-.08.08-.17.14-.26.18-.09.04-.19.06-.3.06-.19,0-.33-.05-.44-.15-.11-.1-.16-.23-.16-.38,0-.1.02-.2.07-.28s.12-.14.21-.18c.09-.05.21-.08.38-.11.22-.04.38-.08.47-.12v-.05c0-.09-.02-.16-.07-.2-.05-.04-.13-.06-.26-.06-.09,0-.15.02-.2.05-.05.03-.08.09-.12.18ZM44.3,45.28c-.06.02-.16.05-.29.07s-.22.06-.26.08c-.06.05-.09.1-.09.17s.02.13.08.17c.05.05.11.07.19.07.09,0,.17-.03.25-.08.06-.05.1-.1.12-.16.01-.04.02-.12.02-.23v-.09ZM46.82,44.87l-.47.08c-.01-.09-.05-.16-.11-.21-.06-.05-.13-.07-.22-.07-.12,0-.21.04-.28.12-.07.08-.11.22-.11.42,0,.22.03.37.11.46.07.09.17.13.29.13.09,0,.16-.03.22-.08.06-.05.1-.14.12-.27l.47.08c-.05.22-.14.38-.28.49-.14.11-.33.17-.56.17-.27,0-.48-.08-.63-.25s-.24-.4-.24-.7.08-.54.24-.7c.16-.17.37-.25.64-.25.22,0,.4.05.53.14s.22.24.28.43ZM48.02,44.33v.38h-.33v.73c0,.15,0,.24.01.26s.02.04.04.06.05.02.08.02c.05,0,.11-.01.2-.05l.04.37c-.11.05-.24.07-.38.07-.09,0-.16-.01-.23-.04-.07-.03-.12-.07-.15-.12-.03-.05-.06-.11-.07-.19,0-.06-.01-.17-.01-.34v-.79h-.22v-.38h.22v-.36l.48-.28v.64h.33ZM49.21,45.22c0-.16.04-.31.12-.46.08-.15.19-.27.33-.34.14-.08.3-.12.48-.12.28,0,.5.09.67.27.17.18.26.41.26.68s-.09.5-.27.68c-.17.18-.4.27-.67.27-.16,0-.33-.04-.48-.11-.15-.08-.27-.19-.34-.33-.08-.15-.12-.32-.12-.53ZM49.71,45.24c0,.18.04.32.13.42.08.09.19.14.31.14s.23-.05.31-.14c.08-.1.13-.23.13-.42,0-.17-.04-.31-.13-.41s-.19-.14-.31-.14-.23.05-.31.14c-.09.09-.13.23-.13.41ZM51.25,44.33h.27v-.14c0-.15.02-.27.05-.34.03-.08.09-.14.18-.19.09-.05.2-.07.33-.07s.27.02.4.06l-.06.34c-.08-.02-.15-.03-.23-.03s-.12.02-.15.05c-.03.03-.05.09-.05.19v.13h.36v.38h-.36v1.44h-.48v-1.44h-.27v-.38ZM53.6,46.15v-2.5h.48v2.5h-.48ZM55.62,45.57l.48.08c-.06.17-.16.31-.29.4-.13.09-.3.14-.5.14-.32,0-.55-.1-.7-.31-.12-.16-.18-.37-.18-.63,0-.3.08-.54.23-.71.16-.17.36-.26.6-.26.27,0,.48.09.64.27.16.18.23.45.22.82h-1.2c0,.14.04.25.12.33s.17.12.28.12c.07,0,.14-.02.19-.06.05-.04.09-.1.12-.2ZM55.65,45.09c0-.14-.04-.24-.11-.32-.07-.07-.15-.11-.25-.11-.1,0-.19.04-.26.12-.07.08-.1.18-.1.31h.71ZM56.48,44.33h.44v.25c.16-.19.35-.29.57-.29.12,0,.22.02.3.07.08.05.15.12.21.22.08-.09.16-.17.26-.22.09-.05.19-.07.29-.07.13,0,.24.03.34.08.09.06.16.13.21.24.03.08.05.2.05.38v1.16h-.48v-1.04c0-.18-.02-.3-.05-.35-.05-.07-.11-.1-.21-.1-.07,0-.13.02-.19.06-.06.04-.1.1-.13.18-.02.08-.04.2-.04.37v.87h-.48v-.99c0-.17,0-.29-.02-.34-.02-.05-.05-.09-.08-.11-.03-.03-.08-.04-.15-.04-.07,0-.14.02-.2.06s-.1.1-.13.17c-.02.08-.04.2-.04.37v.88h-.48v-1.81ZM59.51,45.22c0-.16.04-.31.12-.46.08-.15.19-.27.33-.34.14-.08.3-.12.48-.12.28,0,.5.09.67.27.17.18.26.41.26.68s-.09.5-.27.68c-.17.18-.4.27-.67.27-.16,0-.33-.04-.48-.11-.15-.08-.27-.19-.34-.33-.08-.15-.12-.32-.12-.53ZM60.01,45.24c0,.18.04.32.13.42.08.09.19.14.31.14s.23-.05.31-.14c.08-.1.13-.23.13-.42,0-.17-.04-.31-.13-.41s-.19-.14-.31-.14-.23.05-.31.14c-.09.09-.13.23-.13.41ZM63.41,46.15h-.48v-.93c0-.2-.01-.32-.03-.38-.02-.06-.05-.1-.1-.13-.05-.03-.1-.05-.17-.05-.08,0-.16.02-.22.07s-.11.11-.14.18c-.02.08-.04.21-.04.42v.82h-.48v-1.81h.44v.27c.16-.2.36-.3.6-.3.1,0,.2.02.29.06.09.04.16.09.2.15.05.06.08.13.09.2.02.07.03.18.03.32v1.13ZM64.85,46.15v-2.5h.48v.9c.15-.17.32-.25.52-.25.22,0,.41.08.55.24.14.16.22.39.22.69s-.07.55-.22.72-.33.25-.54.25c-.1,0-.21-.03-.3-.08-.1-.05-.19-.13-.26-.23v.27h-.44ZM65.32,45.2c0,.19.03.33.09.42.08.13.19.19.33.19.11,0,.2-.05.27-.14s.11-.23.11-.43c0-.21-.04-.36-.11-.45-.08-.09-.17-.14-.29-.14s-.21.05-.29.13c-.08.09-.12.23-.12.41ZM67.36,44.89l-.43-.08c.05-.18.13-.31.25-.4.12-.08.3-.13.54-.13.21,0,.37.02.48.08.1.05.18.11.22.19.04.08.06.22.06.43v.56c0,.16,0,.28.02.35.01.08.04.16.08.24h-.48s-.03-.08-.05-.14c0-.03-.01-.05-.02-.06-.08.08-.17.14-.26.18-.09.04-.19.06-.3.06-.19,0-.33-.05-.44-.15-.11-.1-.16-.23-.16-.38,0-.1.02-.2.07-.28s.12-.14.21-.18c.09-.05.21-.08.38-.11.22-.04.38-.08.47-.12v-.05c0-.09-.02-.16-.07-.2-.05-.04-.13-.06-.26-.06-.09,0-.15.02-.2.05-.05.03-.08.09-.12.18ZM68.01,45.28c-.06.02-.16.05-.29.07s-.22.06-.26.08c-.06.05-.09.1-.09.17s.02.13.08.17c.05.05.11.07.19.07.09,0,.17-.03.25-.08.06-.05.1-.1.12-.16.01-.04.02-.12.02-.23v-.09ZM68.95,46.15v-2.5h.48v2.5h-.48ZM69.89,44.33h.44v.25c.16-.19.35-.29.57-.29.12,0,.22.02.3.07.08.05.15.12.21.22.08-.09.16-.17.26-.22.09-.05.19-.07.29-.07.13,0,.24.03.34.08.09.06.16.13.21.24.03.08.05.2.05.38v1.16h-.48v-1.04c0-.18-.02-.3-.05-.35-.05-.07-.11-.1-.21-.1-.07,0-.13.02-.19.06-.06.04-.1.1-.13.18-.02.08-.04.2-.04.37v.87h-.48v-.99c0-.17,0-.29-.02-.34-.02-.05-.05-.09-.08-.11-.03-.03-.08-.04-.15-.04-.07,0-.14.02-.2.06s-.1.1-.13.17c-.02.08-.04.2-.04.37v.88h-.48v-1.81ZM72.9,46.88c.09-.2.16-.36.2-.47s.08-.23.11-.37c.03-.14.06-.28.07-.4.02-.13.02-.26.02-.39,0-.27-.03-.52-.09-.77-.06-.24-.16-.54-.32-.88h.33c.17.24.31.5.4.78.09.28.14.55.14.84,0,.24-.04.49-.11.77-.09.3-.23.6-.42.9h-.33ZM76.29,46.15h-.48v-1.81c-.17.16-.38.28-.62.36v-.44c.13-.04.26-.12.41-.23.15-.11.24-.25.3-.4h.39v2.52ZM77.82,43.63c.24,0,.43.09.57.26.16.21.24.55.24,1.02s-.08.81-.24,1.02c-.14.17-.33.26-.57.26s-.44-.09-.59-.28c-.15-.19-.22-.52-.22-1s.08-.81.24-1.02c.14-.17.33-.26.57-.26ZM77.82,44.03c-.06,0-.11.02-.15.06-.05.03-.08.1-.1.2-.03.12-.05.33-.05.63s.01.5.05.6c.03.11.06.19.11.22.05.04.09.06.15.06.06,0,.11-.02.15-.06.05-.04.08-.1.1-.2.03-.12.05-.33.05-.63s-.01-.5-.04-.61c-.03-.11-.07-.19-.11-.22-.05-.04-.09-.06-.15-.06ZM79.77,43.63c.24,0,.43.09.57.26.16.21.24.55.24,1.02s-.08.81-.24,1.02c-.14.17-.33.26-.57.26s-.44-.09-.59-.28c-.15-.19-.22-.52-.22-1s.08-.81.24-1.02c.14-.17.33-.26.57-.26ZM79.77,44.03c-.06,0-.11.02-.15.06-.05.03-.08.1-.1.2-.03.12-.05.33-.05.63s.01.5.05.6c.03.11.06.19.11.22.05.04.09.06.15.06.06,0,.11-.02.15-.06.05-.04.08-.1.1-.2.03-.12.05-.33.05-.63s-.01-.5-.04-.61c-.03-.11-.07-.19-.11-.22-.05-.04-.09-.06-.15-.06ZM80.97,44.33h.44v.25c.16-.19.35-.29.57-.29.12,0,.22.02.3.07.08.05.15.12.21.22.08-.09.16-.17.26-.22.09-.05.19-.07.29-.07.13,0,.24.03.34.08.09.06.16.13.21.24.03.08.05.2.05.38v1.16h-.48v-1.04c0-.18-.02-.3-.05-.35-.05-.07-.11-.1-.21-.1-.07,0-.13.02-.19.06-.06.04-.1.1-.13.18-.02.08-.04.2-.04.37v.87h-.48v-.99c0-.17,0-.29-.02-.34-.02-.05-.05-.09-.08-.11-.03-.03-.08-.04-.15-.04-.07,0-.14.02-.2.06s-.1.1-.13.17c-.02.08-.04.2-.04.37v.88h-.48v-1.81ZM84.07,46.26l.55.07c.01.07.03.11.06.13.05.03.12.05.22.05.13,0,.22-.02.28-.06.04-.02.08-.07.1-.12.01-.04.02-.11.02-.22v-.27c-.14.2-.33.3-.54.3-.24,0-.44-.1-.58-.31-.11-.16-.17-.37-.17-.61,0-.3.07-.54.22-.7s.33-.24.55-.24.41.1.56.29v-.26h.45v1.63c0,.22-.02.37-.05.48-.03.1-.08.19-.15.25-.06.06-.15.11-.26.14-.1.03-.24.05-.4.05-.31,0-.52-.05-.65-.16-.13-.11-.19-.24-.19-.4v-.06ZM84.5,45.2c0,.19.04.33.11.42.07.09.17.13.28.13.12,0,.21-.05.29-.14.08-.09.12-.23.12-.41s-.04-.33-.12-.42-.17-.14-.29-.14-.21.05-.28.13c-.07.09-.11.23-.11.41ZM87.77,45.79v-.65h-.66v-.45h.66v-.65h.44v.65h.66v.45h-.66v.65h-.44ZM90.25,46.15v-2.48h.51v2.06h1.26v.42h-1.76ZM92.32,45.48v-.48h.94v.48h-.94ZM94.37,44.33v.38h-.33v.73c0,.15,0,.24.01.26s.02.04.04.06.05.02.08.02c.05,0,.11-.01.2-.05l.04.37c-.11.05-.24.07-.38.07-.09,0-.16-.01-.23-.04-.07-.03-.12-.07-.15-.12-.03-.05-.06-.11-.07-.19,0-.06-.01-.17-.01-.34v-.79h-.22v-.38h.22v-.36l.48-.28v.64h.33ZM95.16,46.15h-.48v-1.81h.44v.26c.08-.12.15-.2.21-.24.06-.04.13-.06.21-.06.11,0,.21.03.31.09l-.15.42c-.08-.05-.16-.08-.23-.08s-.13.02-.17.06c-.05.03-.08.1-.11.2-.03.1-.04.3-.04.61v.56ZM95.83,44.33h.51l.44,1.29.42-1.29h.5l-.64,1.75-.12.32c-.04.1-.08.19-.12.24-.03.06-.08.1-.13.14s-.11.06-.19.08c-.07.02-.15.03-.24.03s-.18-.01-.27-.03l-.04-.37c.08.01.14.02.2.02.11,0,.2-.03.25-.1.06-.07.1-.15.13-.25l-.69-1.82ZM97.99,44.33h.45v.27c.06-.09.14-.16.23-.22.1-.06.21-.08.33-.08.21,0,.39.08.54.25s.22.4.22.69-.07.54-.22.71c-.15.17-.33.25-.54.25-.1,0-.19-.02-.27-.06-.08-.04-.17-.11-.26-.21v.91h-.48v-2.5ZM98.46,45.21c0,.21.04.36.12.45s.18.15.29.15.2-.05.28-.14c.08-.09.11-.23.11-.44,0-.19-.04-.33-.12-.42-.07-.09-.17-.14-.28-.14-.12,0-.22.05-.29.14s-.12.22-.12.4ZM100.97,44.33v.38h-.33v.73c0,.15,0,.24.01.26s.02.04.04.06.05.02.08.02c.05,0,.11-.01.2-.05l.04.37c-.11.05-.24.07-.38.07-.09,0-.16-.01-.23-.04-.07-.03-.12-.07-.15-.12-.03-.05-.06-.11-.07-.19,0-.06-.01-.17-.01-.34v-.79h-.22v-.38h.22v-.36l.48-.28v.64h.33ZM101.2,45.22c0-.16.04-.31.12-.46.08-.15.19-.27.33-.34.14-.08.3-.12.48-.12.28,0,.5.09.67.27.17.18.26.41.26.68s-.09.5-.27.68c-.17.18-.4.27-.67.27-.16,0-.33-.04-.48-.11-.15-.08-.27-.19-.34-.33-.08-.15-.12-.32-.12-.53ZM101.69,45.24c0,.18.04.32.13.42.08.09.19.14.31.14s.23-.05.31-.14c.08-.1.13-.23.13-.42,0-.17-.04-.31-.13-.41s-.19-.14-.31-.14-.23.05-.31.14c-.09.09-.13.23-.13.41ZM103.43,44.33h.45v.27c.06-.09.14-.16.23-.22.1-.06.21-.08.33-.08.21,0,.39.08.54.25s.22.4.22.69-.07.54-.22.71c-.15.17-.33.25-.54.25-.1,0-.19-.02-.27-.06-.08-.04-.17-.11-.26-.21v.91h-.48v-2.5ZM103.9,45.21c0,.21.04.36.12.45s.18.15.29.15.2-.05.28-.14c.08-.09.11-.23.11-.44,0-.19-.04-.33-.12-.42-.07-.09-.17-.14-.28-.14-.12,0-.22.05-.29.14s-.12.22-.12.4ZM106.05,43.64v.93c.16-.19.34-.28.56-.28.11,0,.21.02.3.06.09.04.15.09.2.16.05.07.08.14.09.21s.02.2.02.36v1.06h-.48v-.96c0-.19-.01-.31-.03-.36-.02-.05-.05-.09-.1-.12-.05-.03-.1-.05-.17-.05-.08,0-.15.02-.22.06-.06.04-.11.09-.14.17-.03.08-.05.19-.05.34v.91h-.48v-2.5h.48ZM108.08,44.89l-.43-.08c.05-.18.13-.31.25-.4.12-.08.3-.13.54-.13.21,0,.37.02.48.08.1.05.18.11.22.19.04.08.06.22.06.43v.56c0,.16,0,.28.02.35.01.08.04.16.08.24h-.48s-.03-.08-.05-.14c0-.03-.01-.05-.02-.06-.08.08-.17.14-.26.18-.09.04-.19.06-.3.06-.19,0-.33-.05-.44-.15-.11-.1-.16-.23-.16-.38,0-.1.02-.2.07-.28s.12-.14.21-.18c.09-.05.21-.08.38-.11.22-.04.38-.08.47-.12v-.05c0-.09-.02-.16-.07-.2-.05-.04-.13-.06-.26-.06-.09,0-.15.02-.2.05-.05.03-.08.09-.12.18ZM108.72,45.28c-.06.02-.16.05-.29.07s-.22.06-.26.08c-.06.05-.09.1-.09.17s.02.13.08.17c.05.05.11.07.19.07.09,0,.17-.03.25-.08.06-.05.1-.1.12-.16.01-.04.02-.12.02-.23v-.09ZM111.31,46.15h-.48v-.93c0-.2-.01-.32-.03-.38-.02-.06-.05-.1-.1-.13-.05-.03-.1-.05-.17-.05-.08,0-.16.02-.22.07-.07.05-.11.11-.14.18-.02.08-.04.21-.04.42v.82h-.48v-1.81h.44v.27c.16-.2.36-.3.6-.3.1,0,.2.02.29.06.09.04.16.09.2.15.05.06.08.13.09.2.02.07.03.18.03.32v1.13ZM113.89,46.15h-.48v-1.81c-.17.16-.38.28-.62.36v-.44c.13-.04.26-.12.41-.23.15-.11.24-.25.3-.4h.39v2.52ZM115.43,43.63c.24,0,.43.09.57.26.16.21.24.55.24,1.02s-.08.81-.24,1.02c-.14.17-.33.26-.57.26s-.44-.09-.59-.28c-.15-.19-.22-.52-.22-1s.08-.81.24-1.02c.14-.17.33-.26.57-.26ZM115.43,44.03c-.06,0-.11.02-.15.06-.05.03-.08.1-.1.2-.03.12-.05.33-.05.63s.01.5.05.6c.03.11.06.19.11.22.05.04.09.06.15.06.06,0,.11-.02.15-.06.05-.04.08-.1.1-.2.03-.12.05-.33.05-.63s-.01-.5-.04-.61c-.03-.11-.07-.19-.11-.22-.05-.04-.09-.06-.15-.06ZM117.37,43.63c.24,0,.43.09.57.26.16.21.24.55.24,1.02s-.08.81-.24,1.02c-.14.17-.33.26-.57.26s-.44-.09-.59-.28c-.15-.19-.22-.52-.22-1s.08-.81.24-1.02c.14-.17.33-.26.57-.26ZM117.37,44.03c-.06,0-.11.02-.15.06-.05.03-.08.1-.1.2-.03.12-.05.33-.05.63s.01.5.05.6c.03.11.06.19.11.22.05.04.09.06.15.06.06,0,.11-.02.15-.06.05-.04.08-.1.1-.2.03-.12.05-.33.05-.63s-.01-.5-.04-.61c-.03-.11-.07-.19-.11-.22-.05-.04-.09-.06-.15-.06ZM118.57,44.33h.44v.25c.16-.19.35-.29.57-.29.12,0,.22.02.3.07.08.05.15.12.21.22.08-.09.16-.17.26-.22.09-.05.19-.07.29-.07.13,0,.24.03.34.08.09.06.16.13.21.24.03.08.05.2.05.38v1.16h-.48v-1.04c0-.18-.02-.3-.05-.35-.05-.07-.11-.1-.21-.1-.07,0-.13.02-.19.06-.06.04-.1.1-.13.18-.02.08-.04.2-.04.37v.87h-.48v-.99c0-.17,0-.29-.02-.34-.02-.05-.05-.09-.08-.11-.03-.03-.08-.04-.15-.04-.07,0-.14.02-.2.06s-.1.1-.13.17c-.02.08-.04.2-.04.37v.88h-.48v-1.81ZM121.67,46.26l.55.07c.01.07.03.11.06.13.05.03.12.05.22.05.13,0,.22-.02.28-.06.04-.02.08-.07.1-.12.01-.04.02-.11.02-.22v-.27c-.14.2-.33.3-.54.3-.24,0-.44-.1-.58-.31-.11-.16-.17-.37-.17-.61,0-.3.07-.54.22-.7s.33-.24.55-.24.41.1.56.29v-.26h.45v1.63c0,.22-.02.37-.05.48-.03.1-.08.19-.15.25-.06.06-.15.11-.26.14-.1.03-.24.05-.4.05-.31,0-.52-.05-.65-.16-.13-.11-.19-.24-.19-.4v-.06ZM122.1,45.2c0,.19.04.33.11.42.07.09.17.13.28.13.12,0,.21-.05.29-.14.08-.09.12-.23.12-.41s-.04-.33-.12-.42c-.08-.09-.17-.14-.29-.14s-.21.05-.28.13c-.07.09-.11.23-.11.41ZM125.37,45.79v-.65h-.66v-.45h.66v-.65h.44v.65h.66v.45h-.66v.65h-.44Z"/>
      <polygon points="27.45 50.06 26.55 47.55 27.1 47.55 27.74 49.4 28.35 47.55 28.89 47.55 27.99 50.06 27.45 50.06"/>
      <path d="M29.07,48v-.44h.48v.44h-.48ZM29.07,50.06v-1.81h.48v1.81h-.48ZM30.88,48.24v.38h-.33v.73c0,.15,0,.24.01.26s.02.04.04.06.05.02.08.02c.05,0,.11-.01.2-.05l.04.37c-.11.05-.24.07-.38.07-.09,0-.16-.01-.23-.04-.07-.03-.12-.07-.15-.12-.03-.05-.06-.11-.07-.19,0-.06-.01-.17-.01-.34v-.79h-.22v-.38h.22v-.36l.48-.28v.64h.33ZM31.57,48.8l-.43-.08c.05-.18.13-.31.25-.4.12-.08.3-.13.54-.13.21,0,.37.02.48.08.1.05.18.11.22.19.04.08.06.22.06.43v.56c0,.16,0,.28.02.35.01.08.04.16.08.24h-.48s-.03-.08-.05-.14c0-.03-.01-.05-.02-.06-.08.08-.17.14-.26.18-.09.04-.19.06-.3.06-.19,0-.33-.05-.44-.15-.11-.1-.16-.23-.16-.38,0-.1.02-.2.07-.28s.12-.14.21-.18c.09-.05.21-.08.38-.11.22-.04.38-.08.47-.12v-.05c0-.09-.02-.16-.07-.2-.05-.04-.13-.06-.26-.06-.09,0-.15.02-.2.05-.05.03-.08.09-.12.18ZM32.21,49.19c-.06.02-.16.05-.29.07s-.22.06-.26.08c-.06.05-.09.1-.09.17s.02.13.08.17c.05.05.11.07.19.07.09,0,.17-.03.25-.08.06-.05.1-.1.12-.16.01-.04.02-.12.02-.23v-.09ZM33.12,48.24h.44v.25c.16-.19.35-.29.57-.29.12,0,.22.02.3.07.08.05.15.12.21.22.08-.09.16-.17.26-.22.09-.05.19-.07.29-.07.13,0,.24.03.34.08.09.06.16.13.21.24.03.08.05.2.05.38v1.16h-.48v-1.04c0-.18-.02-.3-.05-.35-.05-.07-.11-.1-.21-.1-.07,0-.13.02-.19.06-.06.04-.1.1-.13.18-.02.08-.04.2-.04.37v.87h-.48v-.99c0-.17,0-.29-.02-.34-.02-.05-.05-.09-.08-.11-.03-.03-.08-.04-.15-.04-.07,0-.14.02-.2.06s-.1.1-.13.17c-.02.08-.04.2-.04.37v.88h-.48v-1.81ZM36.26,48v-.44h.48v.44h-.48ZM36.26,50.06v-1.81h.48v1.81h-.48ZM38.89,50.06h-.48v-.93c0-.2-.01-.32-.03-.38-.02-.06-.05-.1-.1-.13-.05-.03-.1-.05-.17-.05-.08,0-.16.02-.22.07s-.11.11-.14.18c-.02.08-.04.21-.04.42v.82h-.48v-1.81h.44v.27c.16-.2.36-.3.6-.3.1,0,.2.02.29.06.09.04.16.09.2.15.05.06.08.13.09.2.02.07.03.18.03.32v1.13ZM40.35,47.55h1c.2,0,.35,0,.44.02s.19.05.26.1c.08.05.14.12.19.21s.08.19.08.29c0,.12-.03.22-.09.32s-.15.17-.26.22c.15.04.27.12.35.23.08.1.12.23.12.38,0,.12-.02.22-.08.33-.05.11-.12.2-.22.26-.09.06-.2.1-.34.12-.08.01-.29.01-.61.02h-.85v-2.5ZM40.86,47.97v.58h.33c.2,0,.32,0,.37-.01.08,0,.15-.04.2-.09s.07-.12.07-.2-.02-.14-.06-.19c-.04-.05-.11-.08-.19-.09-.05,0-.19,0-.43,0h-.29ZM40.86,48.96v.67h.47c.18,0,.3,0,.35-.01.08-.01.14-.05.19-.1.05-.05.07-.13.07-.21,0-.08-.02-.14-.06-.19-.03-.05-.09-.09-.16-.12-.07-.02-.22-.03-.45-.03h-.41ZM44.39,48.16l-.47.05c-.01-.09-.04-.17-.09-.21-.05-.05-.11-.07-.19-.07-.1,0-.19.05-.26.14s-.11.28-.13.57c.12-.14.27-.21.45-.21.2,0,.37.08.51.23.14.15.21.35.21.59,0,.26-.07.46-.22.62-.15.16-.35.23-.58.23-.25,0-.46-.1-.62-.3-.16-.2-.24-.52-.24-.97s.08-.79.26-1c.17-.2.39-.3.66-.3.19,0,.35.05.47.16.13.1.2.26.24.47ZM43.3,49.21c0,.16.03.28.11.36.07.09.15.13.24.13s.16-.03.22-.1.09-.19.09-.34-.03-.28-.09-.36c-.07-.07-.14-.11-.24-.11-.09,0-.17.03-.23.11-.06.07-.09.18-.09.32ZM45.67,49.39l.47-.06c.01.12.06.21.12.27.07.06.14.09.23.09.1,0,.18-.04.25-.11.07-.08.1-.18.1-.31,0-.12-.03-.22-.1-.29-.06-.07-.14-.1-.23-.1-.06,0-.14.01-.22.03l.05-.39c.13,0,.23-.02.3-.08.07-.06.1-.14.1-.24,0-.08-.02-.15-.07-.2-.05-.05-.12-.07-.2-.07s-.15.03-.21.08c-.06.06-.09.14-.1.25l-.44-.08c.03-.15.08-.27.14-.36s.15-.16.26-.22.23-.08.37-.08c.23,0,.42.07.57.23.12.12.17.26.17.42,0,.22-.12.4-.36.53.14.03.26.1.34.21.09.1.13.23.13.39,0,.22-.08.41-.24.56-.16.16-.36.23-.6.23s-.41-.07-.56-.2c-.15-.13-.23-.3-.26-.51ZM47.7,48.24h.44v.25c.16-.19.35-.29.57-.29.12,0,.22.02.3.07.08.05.15.12.21.22.08-.09.16-.17.26-.22.09-.05.19-.07.29-.07.13,0,.24.03.34.08.09.06.16.13.21.24.03.08.05.2.05.38v1.16h-.48v-1.04c0-.18-.02-.3-.05-.35-.05-.07-.11-.1-.21-.1-.07,0-.13.02-.19.06-.06.04-.1.1-.13.18-.02.08-.04.2-.04.37v.87h-.48v-.99c0-.17,0-.29-.02-.34-.02-.05-.05-.09-.08-.11-.03-.03-.08-.04-.15-.04-.07,0-.14.02-.2.06s-.1.1-.13.17c-.02.08-.04.2-.04.37v.88h-.48v-1.81ZM50.8,50.17l.55.07c.01.07.03.11.06.13.05.03.12.05.22.05.13,0,.22-.02.28-.06.04-.02.08-.07.1-.12.01-.04.02-.11.02-.22v-.27c-.14.2-.33.3-.54.3-.24,0-.44-.1-.58-.31-.11-.16-.17-.37-.17-.61,0-.3.07-.54.22-.7s.33-.24.55-.24.41.1.56.29v-.26h.45v1.63c0,.22-.02.37-.05.48-.03.1-.08.19-.15.25-.06.06-.15.11-.26.14-.1.03-.24.05-.4.05-.31,0-.52-.05-.65-.16-.13-.11-.19-.24-.19-.4v-.06ZM51.23,49.11c0,.19.04.33.11.42.07.09.17.13.28.13.12,0,.21-.05.29-.14.08-.09.12-.23.12-.41s-.04-.33-.12-.42-.17-.14-.29-.14-.21.05-.28.13c-.07.09-.11.23-.11.41ZM54.5,49.7v-.65h-.66v-.45h.66v-.65h.44v.65h.66v.45h-.66v.65h-.44ZM56.96,50.06v-2.5h.76l.45,1.71.44-1.71h.76v2.5h-.47v-1.97l-.5,1.97h-.49l-.49-1.97v1.97h-.47ZM60.23,48.8l-.43-.08c.05-.18.13-.31.25-.4.12-.08.3-.13.54-.13.21,0,.37.02.48.08.1.05.18.11.22.19.04.08.06.22.06.43v.56c0,.16,0,.28.02.35.01.08.04.16.08.24h-.48s-.03-.08-.05-.14c0-.03-.01-.05-.02-.06-.08.08-.17.14-.26.18-.09.04-.19.06-.3.06-.19,0-.33-.05-.44-.15-.11-.1-.16-.23-.16-.38,0-.1.02-.2.07-.28s.12-.14.21-.18c.09-.05.21-.08.38-.11.22-.04.38-.08.47-.12v-.05c0-.09-.02-.16-.07-.2-.05-.04-.13-.06-.26-.06-.09,0-.15.02-.2.05-.05.03-.08.09-.12.18ZM60.88,49.19c-.06.02-.16.05-.29.07s-.22.06-.26.08c-.06.05-.09.1-.09.17s.02.13.08.17c.05.05.11.07.19.07.09,0,.17-.03.25-.08.06-.05.1-.1.12-.16.01-.04.02-.12.02-.23v-.09ZM61.78,50.17l.55.07c.01.07.03.11.06.13.05.03.12.05.22.05.13,0,.22-.02.28-.06.04-.02.08-.07.1-.12.01-.04.02-.11.02-.22v-.27c-.14.2-.33.3-.54.3-.24,0-.44-.1-.58-.31-.11-.16-.17-.37-.17-.61,0-.3.07-.54.22-.7s.33-.24.55-.24.41.1.56.29v-.26h.45v1.63c0,.22-.02.37-.05.48-.03.1-.08.19-.15.25-.06.06-.15.11-.26.14-.1.03-.24.05-.4.05-.31,0-.52-.05-.65-.16-.13-.11-.19-.24-.19-.4v-.06ZM62.21,49.11c0,.19.04.33.11.42.07.09.17.13.28.13.12,0,.21-.05.29-.14.08-.09.12-.23.12-.41s-.04-.33-.12-.42-.17-.14-.29-.14-.21.05-.28.13c-.07.09-.11.23-.11.41ZM65.61,50.06h-.48v-.93c0-.2-.01-.32-.03-.38-.02-.06-.05-.1-.1-.13-.05-.03-.1-.05-.17-.05-.08,0-.16.02-.22.07s-.11.11-.14.18c-.02.08-.04.21-.04.42v.82h-.48v-1.81h.44v.27c.16-.2.36-.3.6-.3.1,0,.2.02.29.06.09.04.16.09.2.15.05.06.08.13.09.2.02.07.03.18.03.32v1.13ZM67.15,49.48l.48.08c-.06.17-.16.31-.29.4-.13.09-.3.14-.5.14-.32,0-.55-.1-.7-.31-.12-.16-.18-.37-.18-.63,0-.3.08-.54.23-.71.16-.17.36-.26.6-.26.27,0,.48.09.64.27.16.18.23.45.22.82h-1.2c0,.14.04.25.12.33s.17.12.28.12c.07,0,.14-.02.19-.06.05-.04.09-.1.12-.2ZM67.17,49c0-.14-.04-.24-.11-.32-.07-.07-.15-.11-.25-.11-.1,0-.19.04-.26.12-.07.08-.1.18-.1.31h.71ZM67.87,49.54l.48-.07c.02.09.06.16.13.21.06.05.15.07.26.07.12,0,.22-.02.28-.07.04-.03.06-.07.06-.13,0-.04-.01-.07-.03-.09s-.08-.05-.16-.06c-.38-.09-.63-.16-.73-.23-.14-.1-.22-.24-.22-.41,0-.16.06-.29.19-.4.13-.11.32-.16.58-.16s.43.04.56.12c.12.08.2.2.25.36l-.45.08c-.02-.07-.06-.13-.11-.16-.05-.04-.13-.06-.23-.06-.13,0-.22.02-.27.05-.04.02-.06.06-.06.1,0,.03.02.06.05.09.04.03.19.08.45.14.26.06.44.13.54.21s.15.2.15.36c0,.16-.07.31-.21.43-.14.12-.34.18-.62.18-.25,0-.44-.05-.59-.15-.14-.1-.24-.23-.28-.41ZM69.99,48v-.44h.48v.44h-.48ZM69.99,50.06v-1.81h.48v1.81h-.48ZM72.16,50.06v-.27c-.07.1-.15.17-.26.23-.1.06-.22.09-.34.09s-.23-.03-.33-.08-.17-.13-.21-.23c-.05-.1-.07-.23-.07-.4v-1.15h.48v.84c0,.26.01.41.03.47.02.06.05.1.09.14.05.03.11.05.18.05.08,0,.16-.02.22-.07.06-.05.11-.1.13-.17.02-.07.03-.23.03-.49v-.77h.48v1.81h-.44ZM73.06,48.24h.44v.25c.16-.19.35-.29.57-.29.12,0,.22.02.3.07.08.05.15.12.21.22.08-.09.16-.17.26-.22.09-.05.19-.07.29-.07.13,0,.24.03.34.08.09.06.16.13.21.24.03.08.05.2.05.38v1.16h-.48v-1.04c0-.18-.02-.3-.05-.35-.05-.07-.11-.1-.21-.1-.07,0-.13.02-.19.06-.06.04-.1.1-.13.18-.02.08-.04.2-.04.37v.87h-.48v-.99c0-.17,0-.29-.02-.34-.02-.05-.05-.09-.08-.11-.03-.03-.08-.04-.15-.04-.07,0-.14.02-.2.06s-.1.1-.13.17c-.02.08-.04.2-.04.37v.88h-.48v-1.81ZM77.53,48.8l-.43-.08c.05-.18.13-.31.25-.4.12-.08.3-.13.54-.13.21,0,.37.02.48.08.1.05.18.11.22.19.04.08.06.22.06.43v.56c0,.16,0,.28.02.35.01.08.04.16.08.24h-.48s-.03-.08-.05-.14c0-.03-.01-.05-.02-.06-.08.08-.17.14-.26.18-.09.04-.19.06-.3.06-.19,0-.33-.05-.44-.15-.11-.1-.16-.23-.16-.38,0-.1.02-.2.07-.28s.12-.14.21-.18c.09-.05.21-.08.38-.11.22-.04.38-.08.47-.12v-.05c0-.09-.02-.16-.07-.2-.05-.04-.13-.06-.26-.06-.09,0-.15.02-.2.05-.05.03-.08.09-.12.18ZM78.18,49.19c-.06.02-.16.05-.29.07s-.22.06-.26.08c-.06.05-.09.1-.09.17s.02.13.08.17c.05.05.11.07.19.07.09,0,.17-.03.25-.08.06-.05.1-.1.12-.16.01-.04.02-.12.02-.23v-.09ZM78.95,49.54l.48-.07c.02.09.06.16.13.21.06.05.15.07.26.07.12,0,.22-.02.28-.07.04-.03.06-.07.06-.13,0-.04-.01-.07-.03-.09s-.08-.05-.16-.06c-.38-.09-.63-.16-.73-.23-.14-.1-.22-.24-.22-.41,0-.16.06-.29.19-.4.13-.11.32-.16.58-.16s.43.04.56.12c.12.08.2.2.25.36l-.45.08c-.02-.07-.06-.13-.11-.16-.05-.04-.13-.06-.23-.06-.13,0-.22.02-.27.05-.04.02-.06.06-.06.1,0,.03.02.06.05.09.04.03.19.08.45.14.26.06.44.13.54.21s.15.2.15.36c0,.16-.07.31-.21.43-.14.12-.34.18-.62.18-.25,0-.44-.05-.59-.15-.14-.1-.24-.23-.28-.41ZM82.04,47.55h1c.2,0,.35,0,.44.02s.19.05.26.1c.08.05.14.12.19.21s.08.19.08.29c0,.12-.03.22-.09.32s-.15.17-.26.22c.15.04.27.12.35.23.08.1.12.23.12.38,0,.12-.02.22-.08.33-.05.11-.12.2-.22.26-.09.06-.2.1-.34.12-.08.01-.29.01-.61.02h-.85v-2.5ZM82.55,47.97v.58h.33c.2,0,.32,0,.37-.01.08,0,.15-.04.2-.09s.07-.12.07-.2-.02-.14-.06-.19c-.04-.05-.11-.08-.19-.09-.05,0-.19,0-.43,0h-.29ZM82.55,48.96v.67h.47c.18,0,.3,0,.35-.01.08-.01.14-.05.19-.1.05-.05.07-.13.07-.21,0-.08-.02-.14-.06-.19-.03-.05-.09-.09-.16-.12-.07-.02-.22-.03-.45-.03h-.41ZM84.56,48v-.44h.48v.44h-.48ZM84.56,50.06v-1.81h.48v1.81h-.48ZM85.36,49.54l.48-.07c.02.09.06.16.13.21.06.05.15.07.26.07.12,0,.22-.02.28-.07.04-.03.06-.07.06-.13,0-.04-.01-.07-.03-.09s-.08-.05-.16-.06c-.38-.09-.63-.16-.73-.23-.14-.1-.22-.24-.22-.41,0-.16.06-.29.19-.4.13-.11.32-.16.58-.16s.43.04.56.12c.12.08.2.2.25.36l-.45.08c-.02-.07-.06-.13-.11-.16-.05-.04-.13-.06-.23-.06-.13,0-.22.02-.27.05-.04.02-.06.06-.06.1,0,.03.02.06.05.09.04.03.19.08.45.14.26.06.44.13.54.21s.15.2.15.36c0,.16-.07.31-.21.43-.14.12-.34.18-.62.18-.25,0-.44-.05-.59-.15-.14-.1-.24-.23-.28-.41ZM87.43,50.17l.55.07c.01.07.03.11.06.13.05.03.12.05.22.05.13,0,.22-.02.28-.06.04-.02.08-.07.1-.12.01-.04.02-.11.02-.22v-.27c-.14.2-.33.3-.54.3-.24,0-.44-.1-.58-.31-.11-.16-.17-.37-.17-.61,0-.3.07-.54.22-.7s.33-.24.55-.24.41.1.56.29v-.26h.45v1.63c0,.22-.02.37-.05.48-.03.1-.08.19-.15.25-.06.06-.15.11-.26.14-.1.03-.24.05-.4.05-.31,0-.52-.05-.65-.16-.13-.11-.19-.24-.19-.4v-.06ZM87.86,49.11c0,.19.04.33.11.42.07.09.17.13.28.13.12,0,.21-.05.29-.14.08-.09.12-.23.12-.41s-.04-.33-.12-.42-.17-.14-.29-.14-.21.05-.28.13c-.07.09-.11.23-.11.41ZM89.62,50.06v-2.5h.48v2.5h-.48ZM90.36,48.24h.51l.44,1.29.42-1.29h.5l-.64,1.75-.12.32c-.04.1-.08.19-.12.24-.03.06-.08.1-.13.14s-.11.06-.19.08c-.07.02-.15.03-.24.03s-.18-.01-.27-.03l-.04-.37c.08.01.14.02.2.02.11,0,.2-.03.25-.1.06-.07.1-.15.13-.25l-.69-1.82ZM94.11,48.78l-.47.08c-.01-.09-.05-.16-.11-.21-.06-.05-.13-.07-.22-.07-.12,0-.21.04-.28.12-.07.08-.11.22-.11.42,0,.22.03.37.11.46.07.09.17.13.29.13.09,0,.16-.03.22-.08.06-.05.1-.14.12-.27l.47.08c-.05.22-.14.38-.28.49-.14.11-.33.17-.56.17-.27,0-.48-.08-.63-.25s-.24-.4-.24-.7.08-.54.24-.7c.16-.17.37-.25.64-.25.22,0,.4.05.53.14s.22.24.28.43ZM94.48,48v-.44h.48v.44h-.48ZM94.48,50.06v-1.81h.48v1.81h-.48ZM97.1,50.06h-.48v-.93c0-.2-.01-.32-.03-.38-.02-.06-.05-.1-.1-.13-.05-.03-.1-.05-.17-.05-.08,0-.16.02-.22.07s-.11.11-.14.18c-.02.08-.04.21-.04.42v.82h-.48v-1.81h.44v.27c.16-.2.36-.3.6-.3.1,0,.2.02.29.06.09.04.16.09.2.15.05.06.08.13.09.2.02.07.03.18.03.32v1.13ZM97.94,48.8l-.43-.08c.05-.18.13-.31.25-.4.12-.08.3-.13.54-.13.21,0,.37.02.48.08.1.05.18.11.22.19.04.08.06.22.06.43v.56c0,.16,0,.28.02.35.01.08.04.16.08.24h-.48s-.03-.08-.05-.14c0-.03-.01-.05-.02-.06-.08.08-.17.14-.26.18-.09.04-.19.06-.3.06-.19,0-.33-.05-.44-.15-.11-.1-.16-.23-.16-.38,0-.1.02-.2.07-.28s.12-.14.21-.18c.09-.05.21-.08.38-.11.22-.04.38-.08.47-.12v-.05c0-.09-.02-.16-.07-.2-.05-.04-.13-.06-.26-.06-.09,0-.15.02-.2.05-.05.03-.08.09-.12.18ZM98.59,49.19c-.06.02-.16.05-.29.07s-.22.06-.26.08c-.06.05-.09.1-.09.17s.02.13.08.17c.05.05.11.07.19.07.09,0,.17-.03.25-.08.06-.05.1-.1.12-.16.01-.04.02-.12.02-.23v-.09ZM100.36,48.24v.38h-.33v.73c0,.15,0,.24.01.26s.02.04.04.06.05.02.08.02c.05,0,.11-.01.2-.05l.04.37c-.11.05-.24.07-.38.07-.09,0-.16-.01-.23-.04-.07-.03-.12-.07-.15-.12-.03-.05-.06-.11-.07-.19,0-.06-.01-.17-.01-.34v-.79h-.22v-.38h.22v-.36l.48-.28v.64h.33ZM101.74,49.48l.48.08c-.06.17-.16.31-.29.4-.13.09-.3.14-.5.14-.32,0-.55-.1-.7-.31-.12-.16-.18-.37-.18-.63,0-.3.08-.54.23-.71.16-.17.36-.26.6-.26.27,0,.48.09.64.27.16.18.23.45.22.82h-1.2c0,.14.04.25.12.33s.17.12.28.12c.07,0,.14-.02.19-.06.05-.04.09-.1.12-.2ZM101.77,49c0-.14-.04-.24-.11-.32-.07-.07-.15-.11-.25-.11-.1,0-.19.04-.26.12-.07.08-.1.18-.1.31h.71ZM105.13,48.16l-.47.05c-.01-.09-.04-.17-.09-.21-.05-.05-.11-.07-.19-.07-.1,0-.19.05-.26.14s-.11.28-.13.57c.12-.14.27-.21.45-.21.2,0,.37.08.51.23.14.15.21.35.21.59,0,.26-.07.46-.22.62-.15.16-.35.23-.58.23-.25,0-.46-.1-.62-.3-.16-.2-.24-.52-.24-.97s.08-.79.26-1c.17-.2.39-.3.66-.3.19,0,.35.05.47.16.13.1.2.26.24.47ZM104.04,49.21c0,.16.03.28.11.36.07.09.15.13.24.13s.16-.03.22-.1.09-.19.09-.34-.03-.28-.09-.36c-.07-.07-.14-.11-.24-.11-.09,0-.17.03-.23.11-.06.07-.09.18-.09.32ZM106.27,47.54c.24,0,.43.09.57.26.16.21.24.55.24,1.02s-.08.81-.24,1.02c-.14.17-.33.26-.57.26s-.44-.09-.59-.28c-.15-.19-.22-.52-.22-1s.08-.81.24-1.02c.14-.17.33-.26.57-.26ZM106.27,47.94c-.06,0-.11.02-.15.06-.05.03-.08.1-.1.2-.03.12-.05.33-.05.63s.01.5.05.6c.03.11.06.19.11.22.05.04.09.06.15.06.06,0,.11-.02.15-.06.05-.04.08-.1.1-.2.03-.12.05-.33.05-.63s-.01-.5-.04-.61c-.03-.11-.07-.19-.11-.22-.05-.04-.09-.06-.15-.06ZM107.47,48.24h.44v.25c.16-.19.35-.29.57-.29.12,0,.22.02.3.07.08.05.15.12.21.22.08-.09.16-.17.26-.22.09-.05.19-.07.29-.07.13,0,.24.03.34.08.09.06.16.13.21.24.03.08.05.2.05.38v1.16h-.48v-1.04c0-.18-.02-.3-.05-.35-.05-.07-.11-.1-.21-.1-.07,0-.13.02-.19.06-.06.04-.1.1-.13.18-.02.08-.04.2-.04.37v.87h-.48v-.99c0-.17,0-.29-.02-.34-.02-.05-.05-.09-.08-.11-.03-.03-.08-.04-.15-.04-.07,0-.14.02-.2.06s-.1.1-.13.17c-.02.08-.04.2-.04.37v.88h-.48v-1.81ZM110.56,50.17l.55.07c.01.07.03.11.06.13.05.03.12.05.22.05.13,0,.22-.02.28-.06.04-.02.08-.07.1-.12.01-.04.02-.11.02-.22v-.27c-.14.2-.33.3-.54.3-.24,0-.44-.1-.58-.31-.11-.16-.17-.37-.17-.61,0-.3.07-.54.22-.7s.33-.24.55-.24.41.1.56.29v-.26h.45v1.63c0,.22-.02.37-.05.48-.03.1-.08.19-.15.25-.06.06-.15.11-.26.14-.1.03-.24.05-.4.05-.31,0-.52-.05-.65-.16-.13-.11-.19-.24-.19-.4v-.06ZM110.99,49.11c0,.19.04.33.11.42.07.09.17.13.28.13.12,0,.21-.05.29-.14.08-.09.12-.23.12-.41s-.04-.33-.12-.42c-.08-.09-.17-.14-.29-.14s-.21.05-.28.13c-.07.09-.11.23-.11.41Z"/>
      <path class="cls-2" d="M22.75,17.84c0,.66-.03,1.35-.12,2.03-.09.69-.15,1.38-.21,2.03-.09,1.41-.15,2.78-.18,4.19-.03,1.41-.03,2.84-.03,4.25,0,.9.03,1.77.09,2.6.03.87.12,1.74.24,2.6-.39.21-.75.39-1.11.51-.39.15-.81.21-1.26.21-.69,0-1.23-.15-1.62-.48-.39-.3-.72-.72-1.05-1.29-1.41-2.48-2.78-4.79-4.13-6.91-1.38-2.12-2.75-4.22-4.1-6.31,0,1.02,0,2.03-.03,3.05-.03,1.02-.03,2.03-.03,3.08,0,.63,0,1.32.03,2.06.03.75.06,1.53.12,2.27.03.78.12,1.53.21,2.27.09.75.21,1.41.36,2.03-.48.12-.96.18-1.47.18-.63,0-1.14-.12-1.47-.39-.36-.24-.54-.69-.54-1.38s.06-1.44.15-2.18.15-1.47.21-2.15c.12-1.41.18-2.81.18-4.22v-5.92c-.03-.57-.03-1.17-.03-1.74-.39-.54-.81-1.02-1.32-1.41.96-.57,2-.87,3.11-.87.84,0,1.53.18,2.03.54s.96.9,1.38,1.62c1.14,1.92,2.39,3.92,3.74,6.01,1.35,2.12,2.66,4.19,4.01,6.19v-4.67c0-1.56,0-3.14-.03-4.76-.03-1.59-.24-3.14-.6-4.64.24-.03.48-.09.72-.12s.48-.06.75-.06c.63,0,1.14.12,1.47.36s.51.69.51,1.38ZM38.67,29.18c0,1.08-.15,2.06-.45,2.96-.3.93-.75,1.71-1.32,2.33-.57.66-1.29,1.17-2.15,1.53-.87.39-1.86.57-2.96.57-.99,0-1.92-.15-2.72-.48-.81-.3-1.5-.75-2.06-1.32-.57-.57-1.02-1.29-1.32-2.09-.33-.81-.48-1.74-.48-2.72,0-1.05.15-2.03.45-2.93.3-.87.75-1.65,1.35-2.3.57-.63,1.29-1.14,2.15-1.5.84-.36,1.8-.54,2.9-.54,2.03,0,3.65.57,4.85,1.71,1.17,1.14,1.77,2.72,1.77,4.79ZM34.51,29.66c0-.45-.03-.93-.06-1.47-.06-.54-.18-1.05-.33-1.53-.18-.48-.45-.9-.78-1.23-.33-.33-.81-.48-1.38-.48-.6,0-1.08.15-1.41.45-.36.33-.63.72-.81,1.17-.18.45-.3.96-.33,1.5-.06.54-.09,1.02-.09,1.47s.03.96.06,1.53c.03.57.15,1.08.33,1.56.18.51.45.9.81,1.23.33.33.81.51,1.44.51.57,0,1.05-.18,1.38-.51.33-.33.6-.72.78-1.2.15-.48.27-.99.33-1.56.03-.54.06-1.02.06-1.44ZM63.99,24.99c0,3.86-.93,6.7-2.81,8.56-1.89,1.89-4.7,2.81-8.44,2.81-.54,0-1.05,0-1.56-.03-.51-.03-.93-.15-1.29-.3-.39-.15-.69-.42-.9-.78-.24-.36-.36-.87-.36-1.53,0-1.26.03-2.51.12-3.74.09-1.23.12-2.48.12-3.74,0-.81,0-1.65.03-2.48,0-.84,0-1.68-.03-2.54-.03-.84-.12-1.68-.24-2.51-.12-.81-.3-1.62-.54-2.39.36-.09.72-.18,1.05-.24.33-.06.66-.09,1.05-.09.48,0,.9.03,1.23.09.33.09.66.33.93.75.39-.24.72-.42,1.02-.57.3-.15.6-.24.9-.33.3-.09.63-.15.96-.18.33-.03.72-.03,1.17-.03,1.35,0,2.51.24,3.5.75.96.51,1.74,1.2,2.36,2.06.6.87,1.05,1.86,1.32,2.96.27,1.11.42,2.27.42,3.5ZM59.62,25.62c0-.72-.06-1.53-.18-2.39-.15-.87-.39-1.71-.72-2.48-.33-.78-.81-1.44-1.41-1.97-.6-.51-1.35-.78-2.27-.78-.42,0-.78.03-1.05.12-.27.09-.6.21-.99.42.09.63.12,1.26.15,1.89v1.89c0,1.38-.03,2.75-.06,4.1-.03,1.35-.06,2.72-.06,4.1v.78c-.03.36-.03.72,0,1.11.03.39.06.75.15,1.08.06.33.18.57.33.69.15.09.3.15.45.15.15.03.33.03.48.03.99,0,1.8-.33,2.45-.96.66-.63,1.2-1.38,1.59-2.3.39-.9.69-1.86.87-2.84.18-.99.27-1.86.27-2.6ZM70.72,35.98c-.33.09-.63.18-.9.21-.3.03-.63.06-.96.06-.51,0-.93-.03-1.26-.12-.33-.09-.57-.21-.75-.42-.21-.21-.33-.48-.39-.81-.09-.33-.12-.75-.12-1.26,0-.93.03-1.86.09-2.78.06-.9.09-1.83.09-2.75,0-.84-.03-1.68-.06-2.51-.03-.84-.21-1.65-.48-2.45.36-.09.72-.15,1.08-.21.33-.06.69-.09,1.05-.09.45,0,.84.06,1.14.21.27.15.51.33.66.57s.27.54.33.87c.06.33.09.72.09,1.14,0,.75-.03,1.47-.06,2.21-.06.75-.09,1.47-.09,2.21,0,.99.03,2,.09,2.99.06.99.21,1.97.45,2.93ZM70.45,20.92c-.15.06-.33.12-.51.15-.18.06-.36.09-.54.09-.36,0-.72-.06-1.11-.18-.39-.09-.72-.27-1.02-.48-.33-.21-.57-.45-.78-.78-.21-.33-.33-.69-.33-1.08,0-.6.21-1.08.63-1.47.39-.36.9-.54,1.47-.54.66,0,1.11.15,1.32.42.21.27.36.63.39,1.05.03.45.06.9.09,1.41,0,.51.12.96.39,1.41ZM82.93,32.06c0,.78-.18,1.44-.51,2-.33.57-.78,1.05-1.32,1.41-.57.39-1.17.66-1.86.87-.69.18-1.38.27-2.06.27-.33,0-.78-.03-1.29-.06-.54-.03-1.08-.12-1.59-.27-.51-.18-.96-.39-1.32-.69-.39-.27-.57-.66-.57-1.14,0-.3.06-.6.21-.87.15-.27.3-.54.45-.78.45.48.96.87,1.53,1.14.57.27,1.17.42,1.83.42.24,0,.48-.03.75-.09.24-.06.48-.15.69-.27s.39-.27.54-.48c.15-.21.21-.45.21-.72,0-.36-.12-.69-.39-.96-.27-.27-.63-.51-1.02-.75-.42-.21-.87-.45-1.35-.69s-.93-.54-1.32-.87c-.42-.33-.75-.69-1.02-1.14-.27-.42-.42-.93-.42-1.56,0-.75.18-1.41.51-1.94.33-.54.75-.99,1.29-1.32.51-.33,1.11-.6,1.77-.75.66-.15,1.32-.24,1.97-.24.33,0,.72.03,1.2.06.45.03.93.12,1.38.27.45.15.81.36,1.14.63.33.27.48.63.48,1.08,0,.3-.06.57-.21.81-.15.24-.33.48-.51.69-.48-.39-.93-.69-1.32-.93-.42-.24-.96-.36-1.59-.36-.45,0-.87.12-1.26.33-.42.21-.63.57-.63,1.08,0,.33.15.63.42.87.27.24.63.48,1.05.69.39.21.84.45,1.35.66.48.24.93.51,1.35.84.39.33.75.69,1.02,1.14.27.45.42.99.42,1.62ZM92.29,24.43v.33c-.03.12-.03.24-.03.33-.36-.09-.72-.15-1.05-.18h-1.41c-.09,0-.21,0-.3.03,0,1.05,0,2.06-.03,3.08-.03,1.05-.06,2.06-.06,3.11,0,.33,0,.63.03.93,0,.33.06.6.15.84.09.27.24.45.45.6.21.15.51.24.9.24.27,0,.48-.03.69-.09.18-.06.39-.15.6-.24,0,.09,0,.15.03.24v.24c0,.93-.3,1.59-.87,1.94-.57.39-1.29.57-2.15.57-1.26,0-2.15-.27-2.72-.84-.57-.57-.84-1.47-.84-2.72,0-.96.03-1.92.06-2.87.03-.93.06-1.89.06-2.84v-2.06c-.33,0-.63,0-.9-.03-.27,0-.48-.06-.69-.15-.21-.09-.36-.27-.45-.48s-.15-.54-.15-.96v-.27c.03-.06.03-.15.03-.24.33.03.6.06.81.06h1.32v-.42c0-.54-.03-1.05-.06-1.56-.03-.51-.12-1.02-.24-1.53.33-.09.66-.15.99-.18.33-.03.66-.06.99-.06.63,0,1.11.09,1.44.3.3.21.51.48.63.81.09.33.15.75.12,1.2s-.03.93-.03,1.44c.27,0,.51,0,.75-.03s.48-.03.75-.03c.51,0,.84.12.99.39.15.27.21.66.21,1.11ZM107.22,35.98c-.66.18-1.29.27-1.92.27-.57,0-1.02-.06-1.35-.15-.33-.09-.57-.27-.72-.51-.15-.21-.27-.51-.33-.87-.06-.36-.12-.81-.15-1.35-.51.96-1.2,1.71-2.03,2.21-.87.54-1.83.81-2.93.81-.81,0-1.44-.12-1.92-.39-.48-.27-.84-.63-1.08-1.08s-.39-.96-.45-1.53c-.09-.57-.12-1.2-.12-1.83,0-.72,0-1.44.03-2.18v-2.15c0-.72-.03-1.41-.09-2.06-.06-.66-.18-1.35-.33-2.03.66-.18,1.32-.27,1.94-.27.9,0,1.53.18,1.92.51s.57.96.57,1.86c0,.75-.03,1.5-.09,2.21-.06.75-.09,1.5-.09,2.24v1.17c-.03.45,0,.84.09,1.23s.24.72.48.99.6.42,1.08.42c.69,0,1.23-.21,1.62-.63.39-.42.72-.93.93-1.53.21-.6.33-1.23.39-1.89.06-.66.09-1.23.09-1.71,0-.75,0-1.53-.03-2.33-.03-.78-.12-1.56-.27-2.3.3-.06.6-.12.9-.15.3-.03.6-.06.93-.06.54,0,.96.06,1.29.15.33.12.57.3.75.51.18.24.3.54.36.9s.09.78.09,1.29c0,.78-.03,1.56-.09,2.3-.06.78-.09,1.56-.09,2.33,0,.96.06,1.89.15,2.81.09.93.24,1.86.48,2.78ZM118.98,24.73c0,.3-.03.6-.12.9-.09.33-.18.63-.27.9-.24-.18-.45-.33-.66-.42-.21-.09-.48-.12-.78-.12-.48,0-.93.15-1.35.45-.42.33-.75.69-1.02,1.08-.45.63-.72,1.32-.84,2.06-.12.75-.18,1.53-.18,2.27,0,.69.03,1.41.09,2.09.03.69.18,1.38.39,2.06-.27.06-.54.12-.81.18-.27.03-.57.06-.84.06-.75,0-1.35-.15-1.8-.42-.45-.27-.66-.84-.66-1.65s.03-1.68.09-2.48c.03-.81.06-1.65.06-2.48,0-1.02-.03-2.03-.09-3.05-.06-1.02-.24-2-.51-2.99.3-.09.6-.15.9-.21.3-.03.6-.06.93-.06.63,0,1.14.12,1.47.33.33.21.54.51.69.87s.21.78.21,1.23c-.03.45-.03.93-.06,1.41.15-.33.33-.72.57-1.17.21-.45.48-.87.78-1.26.27-.39.6-.75.99-1.02.36-.27.75-.42,1.2-.42.51,0,.93.18,1.2.54.27.39.42.81.42,1.32ZM133.41,28.23c0,1.2-.18,2.3-.54,3.29-.39,1.02-.9,1.89-1.59,2.63-.69.75-1.53,1.35-2.51,1.77s-2.06.63-3.29.63c-.72,0-1.38-.06-1.95-.15-.6-.12-1.11-.33-1.56-.6-.45-.27-.78-.66-1.02-1.14s-.36-1.11-.36-1.86c0-.51.03-.99.06-1.5.03-.51.06-.99.06-1.5v-4.19c0-.81,0-1.65.03-2.51,0-.87,0-1.74-.03-2.63-.03-.87-.06-1.77-.15-2.63s-.24-1.68-.42-2.48c.36-.03.72-.09,1.08-.12.36-.03.72-.06,1.08-.06.87,0,1.5.18,1.89.54.36.39.54,1.02.54,1.89,0,1.23-.03,2.42-.12,3.62-.09,1.23-.12,2.42-.12,3.65.57-.69,1.2-1.23,1.89-1.62.69-.36,1.47-.54,2.36-.54.81,0,1.5.15,2.09.45.57.3,1.05.69,1.44,1.2.39.51.66,1.11.87,1.77.18.66.27,1.35.27,2.09ZM129.31,29.06c0-.39-.03-.78-.06-1.23-.03-.42-.12-.81-.27-1.2-.15-.39-.39-.69-.66-.96-.27-.24-.66-.36-1.17-.36-.69,0-1.23.21-1.59.66-.39.45-.66,1.02-.81,1.65-.18.63-.27,1.29-.3,1.97-.03.69-.06,1.29-.06,1.77,0,.36,0,.72.03,1.05.03.36.09.69.21.96.09.27.27.51.51.66.24.18.6.27,1.05.27.63,0,1.17-.18,1.59-.54.39-.36.72-.81.96-1.35.21-.51.36-1.08.45-1.71.09-.6.12-1.14.12-1.65Z"/>
      <path class="cls-4" d="M138.02,4.17c-.59.29-1.88,1.66-2.33,2.24-2.41,3.07-2.54,7.23-.47,10.39,2.38,3.65,7.96,5.66,12.65,2.32,1.53-1.09,4.15-4.46,3.07-4.35-.14.01-.53.32-.71.42-6.22,3.6-13.12-1.37-12.63-7.74.05-.68.18-1.33.36-1.91.08-.24.81-1.74.05-1.37"/>
      <path class="cls-5" d="M157.58,1.55c-.27.41-1.53,1.55-1.98,2-.47.47-1.98,1.55-1.48,2.42.33.46,2.69.28,3.62.28,1.25,0,3.09.31,2.32-1.31-1.01-.33-2.42,0-3.57-.15.36-.33,3.52-3.37,3.61-3.8.2-.95-.78-.93-1.53-.93-.96,0-4.27-.28-4.65.4-.84,1.48,2.25.99,3.65,1.09"/>
      <path class="cls-5" d="M147.52,5.37c.73.22,1.88.09,2.75.13-.26.66-2.72,2.49-2.81,3.1-.15,1.01,1.51.75,2.26.75.86,0,2.22.1,2.89-.16.12-.41.11-.6,0-1-.78-.28-1.89-.11-2.82-.17.09-.24,1.32-1.41,1.56-1.65.32-.32,1.68-1.32,1.13-2-.31-.38-2.46-.21-3.12-.21-1.17,0-2.5-.24-1.84,1.2"/>
      <path class="cls-5" d="M141.52,8.98c.64.21,1.61.08,2.39.14-.1.21-1.2,1.25-1.41,1.46-.49.48-1.28.95-.85,1.87.73.2,2.89.11,3.76.11,1.06,0,1.1-.93.59-1.21-.24-.13-1.82-.08-2.22-.08,1.03-1.55,2.82-1.99,2.27-3.32-.75-.28-2-.12-2.91-.13-1.18,0-2.14-.18-1.61,1.17"/>
      <path class="cls-3" d="M126.09,14.65v-2.44h-.87v-.5h2.33v.5h-.86v2.44h-.59ZM127.92,14.65v-2.93h.89l.53,2,.52-2h.89v2.93h-.55v-2.31l-.58,2.31h-.57l-.57-2.31v2.31h-.55Z"/>
      <path d="M.98,19.22h-.34l1-1.57-.99-1.56h.28c.18,0,.33-.06.44-.18.12-.11.18-.25.18-.44,0-.1-.02-.2-.06-.3-.04-.09-.09-.17-.16-.24-.04-.05-.11-.09-.2-.12-.08-.03-.23-.04-.43-.04h-.43v2.83h-.28v-3.13h.78c.17,0,.31.01.41.04.09.03.19.07.28.14.12.09.21.21.27.35.06.13.1.28.1.46,0,.24-.07.46-.2.63-.13.17-.29.26-.5.29l.66,1,.79-1.29h.34l-.97,1.56,1,1.57h-.35l-.8-1.32-.83,1.32Z"/>
      <text class="cls-1" transform="translate(134.77 38.69)"><tspan x="0" y="0">Tablets</tspan></text>
    </g>
  </g>
</svg>