<?xml version="1.0" encoding="UTF-8"?>
<svg id="Layer_2" data-name="Layer 2" xmlns="http://www.w3.org/2000/svg" viewBox="0 0 159.36 48.81">
  <defs>
    <style>
      .cls-1 {
        fill-rule: evenodd;
      }
    </style>
  </defs>
  <g id="Layer_1-2" data-name="Layer 1">
    <g>
      <path d="M1.13,6.75h-.4l1.16-1.88-1.14-1.86h.32c.21,0,.38-.07.51-.22.14-.13.21-.3.21-.52,0-.12-.02-.24-.07-.36-.04-.11-.11-.21-.18-.28-.05-.06-.13-.1-.23-.14-.1-.03-.26-.05-.49-.05h-.49v3.38h-.33V1.07h.9c.19,0,.36.02.48.05.11.03.22.09.33.17.14.11.24.25.31.41.07.15.11.34.11.55,0,.29-.08.55-.23.76-.15.2-.34.32-.58.35l.76,1.2.92-1.55h.39l-1.13,1.86,1.16,1.88h-.41l-.93-1.58-.96,1.58Z"/>
      <polygon points="106.28 4.83 106.28 .97 104.88 .97 104.88 .46 108.24 .46 108.24 .97 106.84 .97 106.84 4.83 106.28 4.83"/>
      <path d="M110.11,4.44c-.2.17-.38.29-.56.36-.18.07-.37.1-.58.1-.34,0-.6-.09-.78-.26-.18-.16-.27-.38-.27-.65,0-.15.04-.3.1-.43.07-.13.16-.23.27-.31.11-.08.24-.13.37-.18.11-.02.26-.05.47-.08.42-.05.73-.11.93-.18v-.14c0-.22-.05-.37-.15-.46-.13-.12-.33-.18-.59-.18s-.43.04-.55.13c-.12.09-.2.24-.26.47l-.51-.07c.05-.23.12-.41.23-.54.11-.14.26-.24.46-.32.2-.07.43-.11.7-.11s.47.03.64.1c.17.06.28.14.36.24s.13.22.17.37c.02.09.02.26.02.49v.71c0,.5.01.81.04.95.02.13.06.26.12.38h-.55c-.05-.12-.08-.24-.1-.4ZM110.06,3.24c-.19.08-.47.15-.85.2-.21.03-.37.07-.46.1-.09.04-.15.1-.21.18-.05.07-.07.16-.07.25,0,.15.05.26.16.36.11.09.26.14.46.14s.38-.04.53-.13c.16-.09.27-.21.34-.37.06-.12.09-.3.09-.53v-.2ZM111.87,4.83h-.49V.46h.52v1.56c.22-.28.5-.42.84-.42.19,0,.37.04.54.12.17.08.31.19.42.33.11.15.2.32.25.51.07.2.09.42.09.65,0,.54-.13.96-.39,1.25-.26.3-.57.45-.94.45s-.65-.16-.85-.46v.4ZM111.87,3.23c0,.38.05.65.15.82.17.27.39.42.67.42.23,0,.42-.1.59-.31.17-.2.25-.51.25-.91s-.08-.72-.24-.92-.35-.29-.58-.29-.43.1-.59.31-.25.49-.25.89ZM114.68,4.83V.46h.52v4.37h-.52ZM118.1,3.81l.54.07c-.08.32-.24.57-.47.75-.23.18-.52.27-.88.27-.45,0-.81-.14-1.07-.43-.27-.29-.4-.68-.4-1.2s.13-.95.4-1.24.61-.44,1.04-.44.74.14,1,.43c.26.29.39.69.39,1.22v.14h-2.29c.02.35.11.61.28.8.17.18.39.27.65.27.19,0,.35-.05.49-.16.14-.1.24-.27.32-.49ZM116.4,2.95h1.71c-.02-.27-.09-.46-.2-.6-.17-.21-.38-.31-.65-.31-.24,0-.44.08-.6.24-.17.16-.25.39-.27.67ZM120.43,4.35l.07.48c-.15.03-.28.05-.39.05-.19,0-.34-.03-.44-.09-.11-.06-.18-.15-.22-.24-.04-.1-.07-.31-.07-.64v-1.83h-.39v-.42h.39v-.78l.52-.32v1.11h.52v.42h-.52v1.86c0,.15.01.25.03.29.02.05.05.08.09.11.04.02.1.04.18.04.05,0,.13,0,.23-.02ZM120.74,3.89l.52-.09c.03.21.11.37.24.49.13.12.32.17.56.17s.42-.05.53-.15c.11-.1.17-.21.17-.35,0-.12-.05-.21-.15-.28-.08-.05-.25-.11-.53-.18-.39-.1-.65-.18-.79-.26s-.26-.18-.34-.31c-.07-.12-.11-.27-.11-.42,0-.14.03-.27.09-.39s.15-.22.25-.3c.08-.06.19-.12.33-.16s.29-.06.45-.06c.24,0,.45.04.63.11.18.07.31.16.4.29.08.12.15.29.18.49l-.51.07c-.02-.16-.09-.29-.2-.38-.11-.1-.27-.14-.47-.14-.24,0-.41.04-.51.12s-.15.18-.15.29c0,.07.02.13.07.19.04.05.11.1.2.14.05.02.21.07.46.13.37.1.62.19.77.25.15.07.26.16.34.28s.12.27.12.46-.05.35-.15.51c-.1.16-.24.28-.44.37-.19.09-.4.13-.65.13-.4,0-.71-.09-.91-.26-.21-.17-.34-.42-.4-.76Z"/>
      <path class="cls-1" d="M104.25,25.22l24.88.99c-.09-1.13-.07-1.12.21-2.08-2.73.11-24.36.82-25.09,1.09"/>
      <path class="cls-1" d="M123.57,7.96c4.7.26,9.46.41,14.19.59,2.36.09,4.73.19,7.09.28,3.71.15,2.74.5,4.56-.99.34-.28.84-.61,1.05-.94l-26.89,1.06Z"/>
      <path class="cls-1" d="M117.18,13.68c4.59.3,9.22.41,13.83.6,2.33.1,4.65.19,6.98.28,4.05.15,2.39.41,4.43-.89.54-.34.66-.27.79-.99l-26.02,1Z"/>
      <path class="cls-1" d="M110.24,19.43l24.35,1c.2-.46.59-.87.99-1.19.4-.33.99-.53,1.44-.84l-26.78,1.03Z"/>
      <path class="cls-1" d="M141.17,4.12c.25.7.57.19.73,1.11-.59-.07-1.2-.66-1.71-.46.28.63.92.31,1.25.94-.5.01-1.17-.11-1.62.07.14.4.65.25,1.17.29.12,0,.16,0,.28.04.23.06.1,0,.24.12l-1.01.18c-.43.12.1-.07-.15.05-.22.1-.04-.04-.18.14.11.08.05.06.24.11.13.03.14.03.28.04.52.02.66-.15,1.36-.02l.53.18c-.43.43-.81.23-.83,1.04.44-.12.31-.18.67-.38.28-.16.5-.14.78-.31.48-.29.43-.74,1.15-1.05.82-.34,3.08-.42,4.05-.33.13.36.26.69.46,1.03.61,1.02,1.21,1.02-.9,2.32-.63.39-1.14.79-1.67,1.22-.56.45-1.02.86-1.57,1.32-2.25,1.86-2.4.45-3.87,1.98-.83.87-.53,1.38-.95,2.07-.2.33-2.3,1.37-3.09,2.78-1.05,1.88-1.78,1.6-3.37,2.51-.91.52-.9.71-1.46,1.44l-1.51,1.48c-.54.54-.62.95-1.6,1.3-.95.34-1.66-.08-1.72,1.25-.02.45.09.85.09,1.31,0,.49-.09.95-.08,1.42,0,.81.65,1.75,1.35,1.42.37-.3-.11-.36.48-1.54.6-1.19.49-2.04,2.58-3.42.93-.61,2.71-1.74,3.48-2.49.71-.7,1.7-.62,2.55-1.42.57-.53,1.5-.48,3.65-2.32.25-.21.82-.67,1.17-.83.71-.34,1.19.96,2.8,1.89,1.24.72-.07.83-.79,1.3-.6.4-.68.43-1.49.7-.51.17-1.13.38-1.67.5-.75.16-1.26-.09-1.89.28-.51.3-.65.86-.24,1.46.43.63.57.12.91,1.29.16.55.29,1.16.58,1.63.8,1.32,1.96.92,1.31-.33-.34-.64-.21-.68-.1-1.41.21-1.38.13-1.37,1.64-1.64,1.33-.25,7.42,0,6.67-2.76-.53-1.95-1.19-2.76-2.36-4.16-.63-.75-1.39-1.38-1.43-1.8.59-.67,2.31-.88,3.2-1.34.69-.36.84-.41,1.69-.58.9-.18,1.19-.67,1.65-.75.36.35.55,1.12.89,1.52.29.33.3.24.5.7.12.27.25.56.4.8,1.77,2.79,3.21-3.31,3.98-4.15.24-.27.96-.89.61-1.59-.45-.91-1.01-.76-1.57-.72-.22.5-.38.64-.18,1.3.21.68.17.58-.16,1.18-.2.37-.42.73-.64,1.06-1.12,1.66-.96.28-1.32-.25-.21-.31-.48-.49-.54-.87-.16-1.09.75-1.08,1.42-1.45.25-1.08-.05-.47.57-1.04.19-.17.17-.29.34-.46.28-.28.25-.02.53-.38.42-1.43-.79-2.67-1.77-2.96-2.15-.65-2.92,1.28-3.21,1.6-.23-.02-.45-.17-.72-.29-.81-.38-.22-.92-1.48-1.82-.45-.32-.91-.55-1.26-.93-.55-.6-.48-.64-1.56-.49-1.21.17-2.4.45-3.36.99-.85.48-.56.31-1.72.24-.76-.04-.59-.77-1.48-.84"/>
      <path d="M11.86,23.5c0,.41-.16.75-.47,1.02s-.73.39-1.22.39H2.94c-.68,0-1.15-.17-1.44-.53-.21-.27-.31-.61-.31-1.02.02-.22.02-.34.02-.39l2.07-13.5c.07-.46.28-.85.59-1.12.31-.27.71-.41,1.15-.41.4,0,.71.07.92.22.35.24.54.63.54,1.19,0,.1-.02.27-.05.48l-1.88,12.27h6.02c.38,0,.68.12.92.39s.35.61.35,1.02Z"/>
      <path d="M20.03,10.05l-2.02,13.21c-.05.46-.21.85-.52,1.16s-.73.48-1.22.48c-.56,0-.94-.15-1.15-.41s-.33-.63-.33-1.07c0-.15,0-.27.02-.36,0-.07.02-.22.07-.44l2-13.04c.07-.48.28-.87.59-1.19s.68-.46,1.18-.46c.54,0,.94.17,1.18.48.19.27.28.58.28.99,0,.12,0,.24-.02.36s-.05.22-.05.27Z"/>
      <path d="M38.79,9.34c0,.39-.14.73-.45.99s-.68.41-1.15.41h-5.58c-1.58,0-2.78.53-3.62,1.62-.73.95-1.11,2.16-1.11,3.61,0,2.04.78,3.64,2.33,4.8,1.32.99,2.87,1.48,4.66,1.48l1.08-7.01h-3.11c-.45,0-.78-.12-1.01-.36-.24-.24-.35-.56-.35-.97,0-.44.16-.78.47-1.02.31-.22.64-.34,1.01-.34h5.04c.35,0,.64.07.85.24.33.24.49.63.49,1.19,0,.07-.02.24-.05.51l-1.29,8.46c-.12.9-.47,1.48-1.01,1.77-.4.22-1.13.34-2.16.34-3.06,0-5.53-.73-7.39-2.21-2-1.58-2.99-3.73-2.99-6.47,0-2.42.71-4.39,2.09-5.92,1.55-1.7,3.72-2.55,6.52-2.55h5.34c.42,0,.75.12,1.01.39s.38.61.38,1.02Z"/>
      <path d="M55.57,22.17c0,.99-.19,1.72-.59,2.18-.33.36-.75.56-1.27.56-.4,0-.73-.1-.99-.29-.33-.24-.49-.61-.49-1.09v-.9c0-1.5-.56-2.76-1.72-3.78-1.13-.99-2.59-1.5-4.33-1.5-.54.97-1.01,1.99-1.39,3.03-.38,1.04-.73,2.08-1.11,3.13-.14.41-.33.7-.52.9-.33.34-.75.51-1.29.51-.49,0-.85-.12-1.06-.36-.21-.24-.31-.56-.31-.97,0-.27.02-.56.09-.85.02-.1.09-.36.24-.78.82-2.45,1.88-4.85,3.18-7.25,1.27-2.38,2.59-4.34,3.95-5.87.31-.34.56-.58.78-.73.35-.22.75-.34,1.25-.34s.87.1,1.18.32c.19.12.4.36.64.73.87,1.33,1.72,3.44,2.54,6.35s1.22,5.24,1.22,7.01ZM51.6,16.52c-.24-1.16-.56-2.28-.96-3.32-.28-.73-.59-1.41-.92-2.01-.52.65-.99,1.33-1.41,1.99-.35.53-.66,1.09-.96,1.7.54,0,1.11.07,1.69.24.96.27,1.84.75,2.56,1.41Z"/>
      <path d="M77.65,9.34c0,.36-.14.68-.42.97-.28.29-.68.44-1.18.44h-6.35l-.26,1.82h6.12c.42,0,.75.12.96.36.21.27.31.58.31.99,0,.36-.12.65-.38.92s-.64.41-1.08.41h-6.35l-1.25,8.12c-.07.46-.28.85-.59,1.12s-.68.41-1.13.41c-.56,0-.96-.17-1.2-.53-.16-.27-.26-.61-.26-1.02,0-.22.02-.41.05-.53l2.02-13.19c.07-.51.31-.92.66-1.24s.85-.46,1.46-.46h7.48c.4,0,.73.12.99.39s.4.61.4,1.02Z"/>
      <path d="M93.23,22.17c0,.99-.19,1.72-.59,2.18-.33.36-.75.56-1.27.56-.4,0-.73-.1-.99-.29-.33-.24-.49-.61-.49-1.09v-.9c0-1.5-.56-2.76-1.72-3.78-1.13-.99-2.59-1.5-4.33-1.5-.54.97-1.01,1.99-1.39,3.03-.38,1.04-.73,2.08-1.11,3.13-.14.41-.33.7-.52.9-.33.34-.75.51-1.29.51-.49,0-.85-.12-1.06-.36-.21-.24-.31-.56-.31-.97,0-.27.02-.56.09-.85.02-.1.09-.36.24-.78.82-2.45,1.88-4.85,3.18-7.25,1.27-2.38,2.59-4.34,3.95-5.87.31-.34.56-.58.78-.73.35-.22.75-.34,1.25-.34s.87.1,1.18.32c.19.12.4.36.64.73.87,1.33,1.72,3.44,2.54,6.35s1.22,5.24,1.22,7.01ZM89.26,16.52c-.24-1.16-.56-2.28-.96-3.32-.28-.73-.59-1.41-.92-2.01-.52.65-.99,1.33-1.41,1.99-.35.53-.66,1.09-.96,1.7.54,0,1.11.07,1.69.24.96.27,1.84.75,2.56,1.41Z"/>
      <path d="M110.13,17.68c0,2.01-.75,3.71-2.24,5.12-1.48,1.41-3.32,2.11-5.51,2.11h-5.34c-.42,0-.75-.12-1.01-.36-.26-.22-.38-.58-.38-1.04,0-.41.14-.75.4-1.02.28-.27.68-.39,1.18-.39h4.78c1.76,0,3.06-.53,3.86-1.58.54-.73.82-1.58.82-2.55,0-.63-.14-1.12-.45-1.43-.35-.41-1.01-.68-1.95-.82l-1.76-.29c-1.53-.27-2.56-.51-3.08-.75-1.2-.56-1.79-1.5-1.79-2.81,0-.99.31-1.82.94-2.52.85-.95,2.12-1.41,3.84-1.41h5.79c.45,0,.78.12,1.04.39.24.27.35.61.35,1.02,0,.39-.14.73-.42.99s-.68.41-1.18.41h-5.6c-.42,0-.73.02-.92.1-.35.12-.54.39-.54.75,0,.39.16.65.52.8.21.07.64.17,1.32.24l1.79.22c1.65.22,2.85.56,3.62,1.02,1.29.78,1.93,2.04,1.93,3.81Z"/>
      <path d="M126.33,9.34c0,.41-.14.73-.42.99-.31.27-.68.41-1.18.41h-3.13l-1.93,12.63c-.07.44-.26.8-.59,1.09-.33.29-.71.44-1.15.44-.56,0-.96-.19-1.2-.56-.16-.27-.26-.61-.26-.99.02-.22.02-.36.02-.39l1.86-12.22h-3.11c-.42,0-.75-.15-1.01-.41s-.38-.61-.38-.99c0-.44.16-.78.49-1.04.33-.24.71-.36,1.11-.36h9.48c.4,0,.75.12,1.01.36.26.27.38.61.38,1.04Z"/>
      <path d="M127.13,4.97V.84h-1.43v-.84h3.83v.84h-1.42v4.13h-.98ZM130.15,4.97V0h1.46l.87,3.39.85-3.39h1.47v4.97h-.9V1.06l-.96,3.92h-.94l-.94-3.92v3.92h-.91Z"/>
      <path d="M3.02,36.8l.41.11c-.09.35-.24.61-.46.79-.22.18-.49.27-.82.27s-.61-.07-.81-.21c-.21-.14-.37-.34-.48-.61-.11-.26-.16-.55-.16-.85,0-.33.06-.62.19-.87.12-.25.3-.44.52-.57.23-.13.48-.19.75-.19.31,0,.57.08.78.25.21.16.36.39.44.68l-.4.1c-.07-.23-.18-.4-.31-.5-.14-.11-.31-.16-.51-.16-.24,0-.44.06-.6.17-.16.12-.27.28-.33.48-.06.2-.1.4-.1.61,0,.27.04.51.12.71.07.2.19.36.35.45.16.1.34.15.52.15.23,0,.42-.07.58-.21.16-.14.26-.34.32-.61ZM3.75,36.76c0-.42.12-.74.35-.95.19-.17.43-.25.7-.25.31,0,.56.1.76.31.19.21.29.49.29.86,0,.3-.04.53-.13.7-.09.17-.21.3-.38.4-.17.1-.35.14-.54.14-.31,0-.57-.1-.76-.31-.19-.2-.29-.5-.29-.9ZM4.14,36.77c0,.29.06.52.19.66.13.15.28.22.47.22s.35-.08.48-.22c.13-.15.19-.37.19-.67,0-.29-.06-.5-.19-.65s-.28-.22-.47-.22-.35.07-.47.22-.19.37-.19.66ZM6.28,37.92v-3.19h.38v3.19h-.38ZM7.24,37.92v-3.19h.38v3.19h-.38ZM9.68,37.63c-.14.12-.28.21-.41.26-.13.05-.27.08-.42.08-.25,0-.44-.06-.57-.19-.13-.12-.2-.28-.2-.47,0-.11.03-.22.07-.31.05-.09.12-.16.2-.22s.17-.1.27-.13c.08-.02.19-.04.34-.06.31-.04.53-.08.68-.13v-.1c0-.16-.03-.27-.11-.33-.1-.09-.24-.13-.43-.13s-.31.03-.4.1c-.09.06-.15.18-.19.34l-.37-.05c.03-.16.09-.3.17-.4.08-.1.19-.18.34-.24.15-.05.32-.08.51-.08s.35.02.47.07c.12.04.21.1.26.17s.1.16.12.27c.01.07.02.19.02.36v.52c0,.37,0,.59.03.69.01.1.04.19.09.28h-.4c-.04-.08-.06-.18-.07-.29ZM9.65,36.76c-.14.06-.35.11-.62.15-.16.02-.27.05-.33.08-.06.03-.11.07-.15.13-.03.05-.05.12-.05.18,0,.11.04.19.12.26.08.07.19.1.34.1s.28-.03.39-.1c.12-.07.2-.16.25-.27.04-.08.06-.22.06-.39v-.14ZM10.55,38.11l.37.05c.01.12.06.2.13.26.1.07.22.11.38.11.18,0,.31-.04.41-.11.1-.07.16-.17.19-.3.02-.08.03-.25.03-.5-.17.2-.37.3-.62.3-.31,0-.54-.12-.71-.34-.17-.23-.26-.5-.26-.82,0-.22.04-.42.12-.61.08-.19.19-.33.34-.43s.32-.15.52-.15c.26,0,.48.11.65.33v-.29h.35v2c0,.36-.03.62-.11.77-.07.15-.18.27-.34.36-.15.08-.34.13-.57.13-.27,0-.48-.06-.65-.19-.16-.12-.24-.31-.24-.56ZM10.86,36.73c0,.3.06.52.17.66.12.14.26.21.44.21s.32-.07.44-.21c.12-.14.18-.35.18-.65,0-.28-.06-.49-.18-.64-.13-.14-.27-.21-.44-.21s-.32.07-.43.21c-.12.14-.18.35-.18.63ZM14.55,37.17l.39.05c-.06.24-.18.42-.34.55-.17.13-.38.2-.64.2-.33,0-.59-.1-.78-.31-.19-.21-.29-.5-.29-.87s.1-.69.29-.9.45-.32.76-.32.54.1.73.32c.19.21.29.5.29.89v.1h-1.67c.01.25.08.45.21.58.13.13.28.2.47.2.14,0,.26-.04.35-.12.1-.08.18-.2.23-.36ZM13.3,36.55h1.25c-.02-.2-.06-.34-.14-.44-.12-.15-.28-.23-.47-.23-.17,0-.32.06-.44.18-.12.12-.19.29-.2.49ZM15.42,37.92v-2.31h.34v.33c.16-.25.4-.38.71-.38.13,0,.26.03.37.08s.2.12.26.2c.06.08.1.18.12.29.01.07.02.2.02.38v1.42h-.38v-1.4c0-.16-.01-.28-.04-.36-.03-.08-.08-.14-.16-.19-.08-.05-.16-.07-.27-.07-.16,0-.3.05-.42.16-.12.1-.18.3-.18.6v1.26h-.38ZM19.03,38.81v-3.2h.35v.3c.08-.12.17-.2.28-.26.1-.06.23-.09.37-.09.19,0,.36.05.51.15.14.1.26.25.33.43.07.19.11.39.11.61s-.04.45-.12.64c-.08.19-.2.33-.36.43-.16.1-.32.15-.5.15-.13,0-.24-.03-.34-.08-.1-.05-.18-.12-.25-.2v1.13h-.38ZM19.37,36.78c0,.29.06.51.17.66.12.14.26.21.42.21s.32-.08.43-.22c.12-.15.18-.37.18-.68s-.06-.51-.18-.66c-.12-.15-.26-.22-.42-.22s-.3.08-.43.23-.19.38-.19.68ZM22.96,37.17l.39.05c-.06.24-.18.42-.34.55-.17.13-.38.2-.64.2-.33,0-.59-.1-.78-.31-.19-.21-.29-.5-.29-.87s.1-.69.29-.9.45-.32.76-.32.54.1.73.32c.19.21.29.5.29.89v.1h-1.67c.01.25.08.45.21.58.13.13.28.2.47.2.14,0,.26-.04.35-.12.1-.08.18-.2.23-.36ZM21.72,36.55h1.25c-.02-.2-.06-.34-.14-.44-.12-.15-.28-.23-.47-.23-.17,0-.32.06-.44.18-.12.12-.19.29-.2.49ZM23.84,38.81v-3.2h.35v.3c.08-.12.17-.2.28-.26.1-.06.23-.09.37-.09.19,0,.36.05.51.15.14.1.26.25.33.43.07.19.11.39.11.61s-.04.45-.12.64c-.08.19-.2.33-.36.43-.16.1-.32.15-.5.15-.13,0-.24-.03-.34-.08-.1-.05-.18-.12-.25-.2v1.13h-.38ZM24.18,36.78c0,.29.06.51.17.66.12.14.26.21.42.21s.32-.08.43-.22c.12-.15.18-.37.18-.68s-.06-.51-.18-.66c-.12-.15-.26-.22-.42-.22s-.3.08-.43.23-.19.38-.19.68ZM27.07,37.57l.05.35c-.11.02-.2.04-.29.04-.14,0-.25-.02-.32-.07-.08-.04-.13-.11-.16-.18-.03-.08-.05-.23-.05-.46v-1.33h-.28v-.3h.28v-.57l.38-.24v.81h.38v.3h-.38v1.35c0,.11,0,.18.02.21.01.04.03.06.06.08.03.02.07.03.13.03.04,0,.1,0,.16-.02ZM27.44,35.18v-.45h.38v.45h-.38ZM27.44,37.92v-2.31h.38v2.31h-.38ZM29.85,37.92v-.29c-.14.23-.35.34-.63.34-.18,0-.34-.05-.49-.15-.15-.1-.26-.25-.35-.42-.08-.18-.13-.39-.13-.63s.04-.44.11-.63.19-.33.34-.43c.15-.1.32-.15.5-.15.13,0,.26.03.36.09.1.06.19.13.26.23v-1.15h.38v3.19h-.35ZM28.65,36.77c0,.29.06.52.18.66.12.15.26.22.43.22s.31-.07.42-.21.17-.35.17-.64c0-.31-.06-.54-.18-.69-.12-.15-.26-.22-.44-.22s-.31.07-.43.21c-.11.14-.17.37-.17.67ZM32.34,37.17l.39.05c-.06.24-.18.42-.34.55-.17.13-.38.2-.64.2-.33,0-.59-.1-.78-.31-.19-.21-.29-.5-.29-.87s.1-.69.29-.9.45-.32.76-.32.54.1.73.32c.19.21.29.5.29.89v.1h-1.67c.01.25.08.45.21.58.13.13.28.2.47.2.14,0,.26-.04.35-.12.1-.08.18-.2.23-.36ZM31.09,36.55h1.25c-.02-.2-.06-.34-.14-.44-.12-.15-.28-.23-.47-.23-.17,0-.32.06-.44.18-.12.12-.19.29-.2.49ZM35.24,37.57l.05.35c-.11.02-.2.04-.29.04-.14,0-.25-.02-.32-.07-.08-.04-.13-.11-.16-.18-.03-.08-.05-.23-.05-.46v-1.33h-.28v-.3h.28v-.57l.38-.24v.81h.38v.3h-.38v1.35c0,.11,0,.18.02.21.01.04.03.06.06.08.03.02.07.03.13.03.04,0,.1,0,.16-.02ZM35.6,38.81l-.04-.37c.08.02.16.04.22.04.09,0,.16-.01.2-.04.05-.03.1-.07.13-.12.03-.04.06-.14.12-.29,0-.02.02-.05.03-.09l-.85-2.32h.41l.47,1.34c.06.16.12.34.16.53.04-.17.1-.35.16-.52l.48-1.35h.38l-.85,2.35c-.09.25-.16.43-.22.52-.06.13-.14.22-.23.29-.09.06-.19.09-.31.09-.07,0-.16-.01-.25-.04ZM37.77,38.81v-3.2h.35v.3c.08-.12.17-.2.28-.26.1-.06.23-.09.37-.09.19,0,.36.05.51.15.14.1.26.25.33.43.07.19.11.39.11.61s-.04.45-.12.64c-.08.19-.2.33-.36.43-.16.1-.32.15-.5.15-.13,0-.24-.03-.34-.08-.1-.05-.18-.12-.25-.2v1.13h-.38ZM38.12,36.78c0,.29.06.51.17.66.12.14.26.21.42.21s.32-.08.43-.22c.12-.15.18-.37.18-.68s-.06-.51-.18-.66c-.12-.15-.26-.22-.42-.22s-.3.08-.43.23-.19.38-.19.68ZM41.71,37.17l.39.05c-.06.24-.18.42-.34.55-.17.13-.38.2-.64.2-.33,0-.59-.1-.78-.31-.19-.21-.29-.5-.29-.87s.1-.69.29-.9.45-.32.76-.32.54.1.73.32c.19.21.29.5.29.89v.1h-1.67c.01.25.08.45.21.58.13.13.28.2.47.2.14,0,.26-.04.35-.12.1-.08.18-.2.23-.36ZM40.46,36.55h1.25c-.02-.2-.06-.34-.14-.44-.12-.15-.28-.23-.47-.23-.17,0-.32.06-.44.18-.12.12-.19.29-.2.49ZM43.9,37.92v-3.19h.41v3.19h-.41ZM45.1,37.92v-3.19h.41v3.19h-.41ZM47.28,37.08l.4-.03c.03.2.1.35.2.45.11.1.24.15.39.15.19,0,.34-.07.47-.21.13-.14.19-.33.19-.57,0-.22-.06-.4-.18-.53-.12-.13-.28-.19-.48-.19-.13,0-.23.03-.33.08-.1.06-.17.13-.23.23l-.36-.05.3-1.64h1.54v.37h-1.23l-.16.86c.19-.13.38-.2.58-.2.27,0,.5.1.68.29.19.19.28.44.28.74s-.08.54-.24.75c-.2.26-.47.39-.81.39-.28,0-.51-.08-.69-.25-.18-.16-.28-.38-.31-.65ZM49.69,36.35c0-.38.04-.68.11-.91.08-.23.19-.41.34-.53.15-.12.33-.19.56-.19.16,0,.31.04.44.1.13.07.23.17.31.3.08.13.14.29.19.47.05.19.07.44.07.76,0,.37-.04.68-.11.9-.07.23-.19.41-.33.53-.15.12-.34.19-.56.19-.3,0-.53-.11-.7-.33-.2-.27-.31-.7-.31-1.3ZM50.08,36.35c0,.53.06.87.18,1.05.12.17.27.26.44.26s.32-.09.44-.26c.12-.17.18-.53.18-1.05s-.06-.87-.18-1.05c-.12-.17-.27-.26-.45-.26s-.32.08-.42.23c-.13.2-.19.55-.19,1.08ZM52.2,37.92v-2.31h.34v.33c.07-.11.16-.21.28-.27s.25-.1.4-.1c.16,0,.3.04.41.11.11.07.18.17.22.3.18-.27.41-.41.7-.41.22,0,.4.06.51.19.12.12.18.32.18.58v1.59h-.38v-1.46c0-.16-.01-.27-.04-.34-.02-.07-.07-.12-.13-.16-.06-.04-.14-.06-.23-.06-.16,0-.29.05-.39.16-.1.11-.16.28-.16.52v1.34h-.38v-1.5c0-.17-.03-.3-.09-.39-.06-.08-.16-.13-.31-.13-.1,0-.2.03-.29.08-.09.06-.16.14-.2.26-.04.11-.06.27-.06.48v1.2h-.38ZM55.73,38.11l.37.05c.01.12.06.2.13.26.1.07.22.11.38.11.18,0,.31-.04.41-.11.1-.07.16-.17.19-.3.02-.08.03-.25.03-.5-.17.2-.37.3-.62.3-.31,0-.54-.12-.71-.34-.17-.23-.26-.5-.26-.82,0-.22.04-.42.12-.61.08-.19.19-.33.34-.43.15-.1.32-.15.52-.15.26,0,.48.11.65.33v-.29h.35v2c0,.36-.03.62-.11.77-.07.15-.18.27-.34.36-.15.08-.34.13-.57.13-.27,0-.48-.06-.65-.19-.16-.12-.24-.31-.24-.56ZM56.04,36.73c0,.3.06.52.17.66.12.14.26.21.44.21s.32-.07.44-.21c.12-.14.18-.35.18-.65,0-.28-.06-.49-.18-.64-.13-.14-.27-.21-.44-.21s-.32.07-.43.21c-.12.14-.18.35-.18.63ZM60.2,37.41v-.87h-.84v-.37h.84v-.87h.36v.87h.84v.37h-.84v.87h-.36ZM63.16,37.92v-3.19h1.16c.23,0,.42.03.57.1.14.06.26.16.34.3.08.13.12.27.12.42,0,.14-.03.26-.11.38-.07.12-.18.22-.32.29.19.06.33.15.43.29.1.13.15.3.15.48,0,.15-.03.29-.09.42-.06.13-.14.23-.23.3-.09.07-.2.12-.34.16-.14.04-.3.05-.5.05h-1.18ZM63.57,36.07h.67c.18,0,.31-.01.39-.04.1-.04.19-.09.24-.16.05-.08.08-.17.08-.28s-.03-.2-.07-.28c-.05-.08-.12-.13-.21-.16-.09-.03-.25-.04-.47-.04h-.62v.97ZM63.57,37.55h.77c.13,0,.23,0,.28-.02.1-.01.17-.04.24-.08.06-.04.11-.1.16-.18.04-.08.06-.17.06-.27,0-.12-.03-.22-.09-.31-.06-.09-.14-.15-.25-.19-.1-.04-.26-.05-.45-.05h-.72v1.1ZM65.87,36.76c0-.42.12-.74.35-.95.19-.17.43-.25.7-.25.31,0,.56.1.76.31.19.21.29.49.29.86,0,.3-.04.53-.13.7-.09.17-.21.3-.38.4-.17.1-.35.14-.54.14-.31,0-.57-.1-.76-.31-.19-.2-.29-.5-.29-.9ZM66.26,36.77c0,.29.06.52.19.66.13.15.28.22.47.22s.35-.08.48-.22c.13-.15.19-.37.19-.67,0-.29-.06-.5-.19-.65-.13-.15-.28-.22-.47-.22s-.35.07-.47.22c-.13.15-.19.37-.19.66ZM68.27,37.23l.38-.06c.02.16.08.27.18.36.1.08.23.12.41.12s.3-.04.39-.11c.08-.07.13-.16.13-.26,0-.08-.04-.16-.11-.2-.06-.04-.19-.08-.39-.13-.28-.07-.47-.13-.58-.19-.11-.05-.19-.13-.25-.22-.05-.09-.08-.2-.08-.31,0-.1.02-.2.07-.29s.11-.16.19-.22c.06-.04.14-.08.24-.12s.21-.04.33-.04c.17,0,.33.03.46.08.13.05.23.12.29.21.06.09.11.21.13.36l-.37.05c-.02-.12-.06-.21-.15-.28-.08-.07-.19-.1-.34-.1-.17,0-.3.03-.37.09-.07.06-.11.13-.11.21,0,.05.02.09.05.14.03.04.08.08.14.1.04.01.15.05.34.1.27.08.45.14.56.18.11.05.19.12.25.21.06.09.09.2.09.33s-.03.25-.11.37c-.07.12-.18.2-.32.27-.14.06-.29.09-.47.09-.29,0-.51-.06-.67-.19-.16-.12-.25-.31-.29-.55ZM70.98,37.92l-.67-2.31h.4l.35,1.33.13.5s.04-.18.12-.48l.35-1.35h.39l.34,1.34.11.44.13-.45.39-1.34h.37l-.7,2.31h-.39l-.36-1.39-.09-.39-.45,1.78h-.41ZM75.23,37.17l.39.05c-.06.24-.18.42-.34.55-.17.13-.38.2-.64.2-.33,0-.59-.1-.78-.31-.19-.21-.29-.5-.29-.87s.1-.69.29-.9.45-.32.76-.32.54.1.73.32c.19.21.29.5.29.89v.1h-1.67c.01.25.08.45.21.58.13.13.28.2.47.2.14,0,.26-.04.35-.12.1-.08.18-.2.23-.36ZM73.99,36.55h1.25c-.02-.2-.06-.34-.14-.44-.12-.15-.28-.23-.47-.23-.17,0-.32.06-.44.18-.12.12-.19.29-.2.49ZM76.09,37.92v-3.19h.38v3.19h-.38ZM77.05,37.92v-3.19h.38v3.19h-.38ZM78.02,35.18v-.45h.38v.45h-.38ZM78.02,37.92v-2.31h.38v2.31h-.38ZM80.45,37.63c-.14.12-.28.21-.41.26-.13.05-.27.08-.42.08-.25,0-.44-.06-.57-.19-.13-.12-.2-.28-.2-.47,0-.11.03-.22.07-.31.05-.09.12-.16.2-.22.08-.06.17-.1.27-.13.08-.02.19-.04.34-.06.31-.04.53-.08.68-.13v-.1c0-.16-.03-.27-.11-.33-.1-.09-.24-.13-.43-.13s-.31.03-.4.1c-.09.06-.15.18-.19.34l-.37-.05c.03-.16.09-.3.17-.4.08-.1.19-.18.34-.24.15-.05.32-.08.51-.08s.35.02.47.07c.12.04.21.1.26.17.06.07.1.16.12.27.01.07.02.19.02.36v.52c0,.37,0,.59.03.69.01.1.04.19.09.28h-.4c-.04-.08-.06-.18-.07-.29ZM80.42,36.76c-.14.06-.35.11-.62.15-.16.02-.27.05-.33.08-.06.03-.11.07-.15.13-.03.05-.05.12-.05.18,0,.11.04.19.12.26.08.07.19.1.34.1s.28-.03.39-.1c.12-.07.2-.16.25-.27.04-.08.06-.22.06-.39v-.14ZM82.44,37.23l.38-.06c.02.16.08.27.18.36.1.08.23.12.41.12s.3-.04.39-.11c.08-.07.13-.16.13-.26,0-.08-.04-.16-.11-.2-.06-.04-.19-.08-.39-.13-.28-.07-.47-.13-.58-.19-.11-.05-.19-.13-.25-.22-.05-.09-.08-.2-.08-.31,0-.1.02-.2.07-.29s.11-.16.19-.22c.06-.04.14-.08.24-.12s.21-.04.33-.04c.17,0,.33.03.46.08.13.05.23.12.29.21.06.09.11.21.13.36l-.37.05c-.02-.12-.06-.21-.15-.28-.08-.07-.19-.1-.34-.1-.17,0-.3.03-.37.09-.07.06-.11.13-.11.21,0,.05.02.09.05.14.03.04.08.08.14.1.04.01.15.05.34.1.27.08.45.14.56.18.11.05.19.12.25.21.06.09.09.2.09.33s-.03.25-.11.37c-.07.12-.18.2-.32.27-.14.06-.29.09-.47.09-.29,0-.51-.06-.67-.19-.16-.12-.25-.31-.29-.55ZM86.28,37.17l.39.05c-.06.24-.18.42-.34.55-.17.13-.38.2-.64.2-.33,0-.59-.1-.78-.31-.19-.21-.29-.5-.29-.87s.1-.69.29-.9.45-.32.76-.32.54.1.73.32c.19.21.29.5.29.89v.1h-1.67c.01.25.08.45.21.58.13.13.28.2.47.2.14,0,.26-.04.35-.12.1-.08.18-.2.23-.36ZM85.04,36.55h1.25c-.02-.2-.06-.34-.14-.44-.12-.15-.28-.23-.47-.23-.17,0-.32.06-.44.18-.12.12-.19.29-.2.49ZM87.15,37.92v-2.31h.34v.35c.09-.16.17-.27.24-.32.07-.05.16-.08.25-.08.13,0,.26.04.39.12l-.13.36c-.1-.05-.19-.08-.28-.08-.08,0-.16.03-.22.08-.06.05-.11.12-.14.21-.04.14-.06.29-.06.46v1.21h-.38ZM88.59,37.92v-2.31h.34v.35c.09-.16.17-.27.24-.32.07-.05.16-.08.25-.08.13,0,.26.04.39.12l-.13.36c-.1-.05-.19-.08-.28-.08-.08,0-.16.03-.22.08-.06.05-.11.12-.14.21-.04.14-.06.29-.06.46v1.21h-.38ZM91.5,37.63c-.14.12-.28.21-.41.26-.13.05-.27.08-.42.08-.25,0-.44-.06-.57-.19-.13-.12-.2-.28-.2-.47,0-.11.03-.22.07-.31.05-.09.12-.16.2-.22.08-.06.17-.1.27-.13.08-.02.19-.04.34-.06.31-.04.53-.08.68-.13v-.1c0-.16-.03-.27-.11-.33-.1-.09-.24-.13-.43-.13s-.31.03-.4.1c-.09.06-.15.18-.19.34l-.37-.05c.03-.16.09-.3.17-.4.08-.1.19-.18.34-.24.15-.05.32-.08.51-.08s.35.02.47.07c.12.04.21.1.26.17.06.07.1.16.12.27.01.07.02.19.02.36v.52c0,.37,0,.59.03.69.01.1.04.19.09.28h-.4c-.04-.08-.06-.18-.07-.29ZM91.47,36.76c-.14.06-.35.11-.62.15-.16.02-.27.05-.33.08-.06.03-.11.07-.15.13-.03.05-.05.12-.05.18,0,.11.04.19.12.26.08.07.19.1.34.1s.28-.03.39-.1c.12-.07.2-.16.25-.27.04-.08.06-.22.06-.39v-.14ZM93.26,37.57l.05.35c-.11.02-.2.04-.29.04-.14,0-.25-.02-.32-.07-.08-.04-.13-.11-.16-.18-.03-.08-.05-.23-.05-.46v-1.33h-.28v-.3h.28v-.57l.38-.24v.81h.38v.3h-.38v1.35c0,.11,0,.18.02.21.01.04.03.06.06.08.03.02.07.03.13.03.04,0,.1,0,.16-.02ZM95.1,37.63c-.14.12-.28.21-.41.26-.13.05-.27.08-.42.08-.25,0-.44-.06-.57-.19-.13-.12-.2-.28-.2-.47,0-.11.03-.22.07-.31.05-.09.12-.16.2-.22.08-.06.17-.1.27-.13.08-.02.19-.04.34-.06.31-.04.53-.08.68-.13v-.1c0-.16-.03-.27-.11-.33-.1-.09-.24-.13-.43-.13s-.31.03-.4.1c-.09.06-.15.18-.19.34l-.37-.05c.03-.16.09-.3.17-.4.08-.1.19-.18.34-.24.15-.05.32-.08.51-.08s.35.02.47.07c.12.04.21.1.26.17.06.07.1.16.12.27.01.07.02.19.02.36v.52c0,.37,0,.59.03.69.01.1.04.19.09.28h-.4c-.04-.08-.06-.18-.07-.29ZM95.07,36.76c-.14.06-.35.11-.62.15-.16.02-.27.05-.33.08-.06.03-.11.07-.15.13-.03.05-.05.12-.05.18,0,.11.04.19.12.26.08.07.19.1.34.1s.28-.03.39-.1c.12-.07.2-.16.25-.27.04-.08.06-.22.06-.39v-.14ZM98.77,37.17l.39.05c-.06.24-.18.42-.34.55-.17.13-.38.2-.64.2-.33,0-.59-.1-.78-.31-.19-.21-.29-.5-.29-.87s.1-.69.29-.9.45-.32.76-.32.54.1.73.32c.19.21.29.5.29.89v.1h-1.67c.01.25.08.45.21.58.13.13.28.2.47.2.14,0,.26-.04.35-.12.1-.08.18-.2.23-.36ZM97.53,36.55h1.25c-.02-.2-.06-.34-.14-.44-.12-.15-.28-.23-.47-.23-.17,0-.32.06-.44.18-.12.12-.19.29-.2.49ZM99.39,37.92l.82-1.2-.76-1.11h.47l.35.54c.06.1.12.19.16.25.06-.09.12-.18.17-.25l.37-.54h.47l-.77,1.11.81,1.2h-.46l-.46-.71-.11-.17-.6.89h-.47ZM102.63,37.57l.05.35c-.11.02-.2.04-.29.04-.14,0-.25-.02-.32-.07-.08-.04-.13-.11-.16-.18-.03-.08-.05-.23-.05-.46v-1.33h-.28v-.3h.28v-.57l.38-.24v.81h.38v.3h-.38v1.35c0,.11,0,.18.02.21.01.04.03.06.06.08.03.02.07.03.13.03.04,0,.1,0,.16-.02ZM103.01,37.92v-2.31h.34v.35c.09-.16.17-.27.24-.32.07-.05.16-.08.25-.08.13,0,.26.04.39.12l-.13.36c-.1-.05-.19-.08-.28-.08-.08,0-.16.03-.22.08-.06.05-.11.12-.14.21-.04.14-.06.29-.06.46v1.21h-.38ZM105.92,37.63c-.14.12-.28.21-.41.26-.13.05-.27.08-.42.08-.25,0-.44-.06-.57-.19-.13-.12-.2-.28-.2-.47,0-.11.03-.22.07-.31.05-.09.12-.16.2-.22.08-.06.17-.1.27-.13.08-.02.19-.04.34-.06.31-.04.53-.08.68-.13v-.1c0-.16-.03-.27-.11-.33-.1-.09-.24-.13-.43-.13s-.31.03-.4.1c-.09.06-.15.18-.19.34l-.37-.05c.03-.16.09-.3.17-.4.08-.1.19-.18.34-.24.15-.05.32-.08.51-.08s.35.02.47.07c.12.04.21.1.26.17.06.07.1.16.12.27.01.07.02.19.02.36v.52c0,.37,0,.59.03.69.01.1.04.19.09.28h-.4c-.04-.08-.06-.18-.07-.29ZM105.89,36.76c-.14.06-.35.11-.62.15-.16.02-.27.05-.33.08-.06.03-.11.07-.15.13-.03.05-.05.12-.05.18,0,.11.04.19.12.26.08.07.19.1.34.1s.28-.03.39-.1c.12-.07.2-.16.25-.27.04-.08.06-.22.06-.39v-.14ZM108.32,37.08l.37.05c-.04.26-.14.47-.31.62-.17.15-.38.22-.62.22-.31,0-.55-.1-.74-.31-.19-.2-.28-.5-.28-.89,0-.25.04-.46.12-.65.08-.19.2-.33.37-.42.16-.09.34-.14.53-.14.24,0,.45.06.6.19.16.12.26.31.3.54l-.37.06c-.03-.16-.1-.27-.19-.35-.09-.08-.2-.12-.32-.12-.19,0-.35.07-.47.21-.12.14-.18.37-.18.67s.06.53.17.68c.12.14.27.21.45.21.15,0,.27-.05.37-.14.1-.09.16-.24.19-.43ZM109.84,37.57l.05.35c-.11.02-.2.04-.29.04-.14,0-.25-.02-.32-.07-.08-.04-.13-.11-.16-.18-.03-.08-.05-.23-.05-.46v-1.33h-.28v-.3h.28v-.57l.38-.24v.81h.38v.3h-.38v1.35c0,.11,0,.18.02.21.01.04.03.06.06.08.03.02.07.03.13.03.04,0,.1,0,.16-.02ZM111.32,37.08l.4-.03c.03.2.1.35.2.45.11.1.24.15.39.15.19,0,.34-.07.47-.21.13-.14.19-.33.19-.57,0-.22-.06-.4-.18-.53-.12-.13-.28-.19-.48-.19-.13,0-.23.03-.33.08-.1.06-.17.13-.23.23l-.36-.05.3-1.64h1.54v.37h-1.23l-.16.86c.19-.13.38-.2.58-.2.27,0,.5.1.68.29.19.19.28.44.28.74s-.08.54-.24.75c-.2.26-.47.39-.81.39-.28,0-.51-.08-.69-.25-.18-.16-.28-.38-.31-.65ZM113.72,36.35c0-.38.04-.68.11-.91.08-.23.19-.41.34-.53.15-.12.33-.19.56-.19.16,0,.31.04.44.1.13.07.23.17.31.3.08.13.14.29.19.47.05.19.07.44.07.76,0,.37-.04.68-.11.9-.07.23-.19.41-.33.53-.15.12-.34.19-.56.19-.3,0-.53-.11-.7-.33-.2-.27-.31-.7-.31-1.3ZM114.11,36.35c0,.53.06.87.18,1.05.12.17.27.26.44.26s.32-.09.44-.26c.12-.17.18-.53.18-1.05s-.06-.87-.18-1.05c-.12-.17-.27-.26-.45-.26s-.32.08-.42.23c-.13.2-.19.55-.19,1.08ZM116.23,37.92v-2.31h.34v.33c.07-.11.16-.21.28-.27s.25-.1.4-.1c.16,0,.3.04.41.11.11.07.18.17.22.3.18-.27.41-.41.7-.41.22,0,.4.06.51.19.12.12.18.32.18.58v1.59h-.38v-1.46c0-.16-.01-.27-.04-.34-.02-.07-.07-.12-.13-.16-.06-.04-.14-.06-.23-.06-.16,0-.29.05-.39.16-.1.11-.16.28-.16.52v1.34h-.38v-1.5c0-.17-.03-.3-.09-.39-.06-.08-.16-.13-.31-.13-.1,0-.2.03-.29.08-.09.06-.16.14-.2.26-.04.11-.06.27-.06.48v1.2h-.38ZM119.76,38.11l.37.05c.01.12.06.2.13.26.1.07.22.11.38.11.18,0,.31-.04.41-.11.1-.07.16-.17.19-.3.02-.08.03-.25.03-.5-.17.2-.37.3-.62.3-.31,0-.54-.12-.71-.34-.17-.23-.26-.5-.26-.82,0-.22.04-.42.12-.61.08-.19.19-.33.34-.43.15-.1.32-.15.52-.15.26,0,.48.11.65.33v-.29h.35v2c0,.36-.03.62-.11.77-.07.15-.18.27-.34.36-.15.08-.34.13-.57.13-.27,0-.48-.06-.65-.19-.16-.12-.24-.31-.24-.56ZM120.07,36.73c0,.3.06.52.17.66.12.14.26.21.44.21s.32-.07.44-.21c.12-.14.18-.35.18-.65,0-.28-.06-.49-.18-.64-.13-.14-.27-.21-.44-.21s-.32.07-.43.21c-.12.14-.18.35-.18.63ZM124.23,37.41v-.87h-.84v-.37h.84v-.87h.36v.87h.84v.37h-.84v.87h-.36ZM127.2,37.92v-3.19h.61l.73,2.26c.07.21.12.37.15.47.03-.12.09-.29.16-.51l.74-2.22h.55v3.19h-.39v-2.67l-.9,2.67h-.37l-.9-2.72v2.72h-.39ZM130.67,36.9l.38-.04c.02.16.06.29.13.4.06.1.17.18.31.25.14.06.3.09.47.09.16,0,.29-.02.42-.07.12-.05.21-.12.27-.2.06-.08.09-.17.09-.27s-.03-.19-.08-.26c-.06-.07-.15-.13-.28-.19-.08-.03-.27-.08-.55-.16-.29-.07-.48-.13-.6-.2-.15-.08-.26-.18-.33-.3-.07-.12-.11-.25-.11-.4,0-.16.04-.32.13-.45.09-.14.22-.25.39-.32.17-.07.36-.11.57-.11.23,0,.43.04.61.12.18.08.31.19.41.33.1.15.14.32.15.5l-.39.03c-.02-.2-.09-.35-.21-.45-.13-.11-.3-.16-.54-.16-.25,0-.43.04-.54.14-.11.09-.17.21-.17.34,0,.12.04.21.12.29.08.07.29.15.62.23.33.08.56.15.68.2.18.08.32.19.4.32.09.13.13.29.13.45s-.05.33-.14.48c-.09.15-.23.27-.4.35-.18.08-.38.12-.6.12-.28,0-.51-.04-.7-.12s-.34-.21-.45-.38c-.11-.16-.16-.36-.17-.57ZM133.68,37.92v-3.19h.61l.73,2.26c.07.21.12.37.15.47.03-.12.09-.29.16-.51l.74-2.22h.55v3.19h-.39v-2.67l-.9,2.67h-.37l-.9-2.72v2.72h-.39ZM140.34,37.55v.37h-2.05c0-.09.01-.19.04-.27.06-.14.14-.29.26-.42.12-.14.28-.3.5-.48.33-.29.56-.51.68-.68.12-.16.18-.33.18-.47,0-.16-.05-.29-.16-.39-.11-.11-.25-.16-.42-.16-.19,0-.33.06-.44.17-.11.11-.17.27-.17.47l-.39-.04c.03-.3.13-.53.3-.69.17-.16.41-.24.7-.24s.53.08.7.25c.17.17.26.38.26.63,0,.13-.03.25-.08.37-.05.12-.13.25-.25.39-.12.14-.31.33-.58.56-.23.2-.38.33-.44.4s-.12.14-.16.21h1.52ZM140.75,36.35c0-.38.04-.68.11-.91.08-.23.19-.41.34-.53.15-.12.33-.19.56-.19.16,0,.31.04.44.1.13.07.23.17.31.3.08.13.14.29.19.47.05.19.07.44.07.76,0,.37-.04.68-.11.9-.07.23-.19.41-.33.53-.15.12-.34.19-.56.19-.3,0-.53-.11-.7-.33-.2-.27-.31-.7-.31-1.3ZM141.14,36.35c0,.53.06.87.18,1.05.12.17.27.26.44.26s.32-.09.44-.26c.12-.17.18-.53.18-1.05s-.06-.87-.18-1.05-.27-.26-.45-.26-.32.08-.42.23c-.13.2-.19.55-.19,1.08ZM143.15,36.35c0-.38.04-.68.11-.91.08-.23.19-.41.34-.53.15-.12.33-.19.56-.19.16,0,.31.04.44.1.13.07.23.17.31.3.08.13.14.29.19.47.05.19.07.44.07.76,0,.37-.04.68-.11.9-.07.23-.19.41-.33.53-.15.12-.34.19-.56.19-.3,0-.53-.11-.7-.33-.2-.27-.31-.7-.31-1.3ZM143.54,36.35c0,.53.06.87.18,1.05.12.17.27.26.44.26s.32-.09.44-.26c.12-.17.18-.53.18-1.05s-.06-.87-.18-1.05c-.12-.17-.27-.26-.45-.26s-.32.08-.42.23c-.13.2-.19.55-.19,1.08ZM145.66,37.92v-2.31h.34v.33c.07-.11.16-.21.28-.27.12-.07.25-.1.4-.1.16,0,.3.04.41.11.11.07.18.17.22.3.18-.27.41-.41.7-.41.22,0,.4.06.51.19.12.12.18.32.18.58v1.59h-.38v-1.46c0-.16-.01-.27-.04-.34-.02-.07-.07-.12-.13-.16-.06-.04-.14-.06-.23-.06-.16,0-.29.05-.39.16-.1.11-.16.28-.16.52v1.34h-.38v-1.5c0-.17-.03-.3-.09-.39-.06-.08-.16-.13-.31-.13-.1,0-.2.03-.29.08-.09.06-.16.14-.2.26-.04.11-.06.27-.06.48v1.2h-.38ZM149.19,38.11l.37.05c.01.12.06.2.13.26.1.07.22.11.38.11.18,0,.31-.04.41-.11.1-.07.16-.17.19-.3.02-.08.03-.25.03-.5-.17.2-.37.3-.62.3-.31,0-.54-.12-.71-.34-.17-.23-.26-.5-.26-.82,0-.22.04-.42.12-.61.08-.19.19-.33.34-.43.15-.1.32-.15.52-.15.26,0,.48.11.65.33v-.29h.35v2c0,.36-.03.62-.11.77-.07.15-.18.27-.34.36-.15.08-.34.13-.57.13-.27,0-.48-.06-.65-.19-.16-.12-.24-.31-.24-.56ZM149.5,36.73c0,.3.06.52.17.66.12.14.26.21.44.21s.32-.07.44-.21c.12-.14.18-.35.18-.65,0-.28-.06-.49-.18-.64-.13-.14-.27-.21-.44-.21s-.32.07-.43.21c-.12.14-.18.35-.18.63Z"/>
      <path d="M.83,42.9v-3.19h.41v1.31h1.6v-1.31h.41v3.19h-.41v-1.5h-1.6v1.5h-.41ZM3.87,43.79l-.04-.37c.08.02.16.04.22.04.09,0,.16-.01.2-.04.05-.03.1-.07.13-.12.03-.04.06-.14.12-.29,0-.02.02-.05.03-.09l-.85-2.32h.41l.47,1.34c.06.16.12.34.16.53.04-.17.1-.35.16-.52l.48-1.35h.38l-.85,2.35c-.09.25-.16.43-.22.52-.06.13-.14.22-.23.29-.09.06-.19.09-.31.09-.07,0-.16-.01-.25-.04ZM7.52,42.61c-.14.12-.28.21-.41.26-.13.05-.27.08-.42.08-.25,0-.44-.06-.57-.19-.13-.12-.2-.28-.2-.47,0-.11.03-.22.07-.31.05-.09.12-.16.2-.22s.17-.1.27-.13c.08-.02.19-.04.34-.06.31-.04.53-.08.68-.13v-.1c0-.16-.03-.27-.11-.33-.1-.09-.24-.13-.43-.13s-.31.03-.4.1c-.09.06-.15.18-.19.34l-.37-.05c.03-.16.09-.3.17-.4.08-.1.19-.18.34-.24.15-.05.32-.08.51-.08s.35.02.47.07c.12.04.21.1.26.17s.1.16.12.27c.01.07.02.19.02.36v.52c0,.37,0,.59.03.69.01.1.04.19.09.28h-.4c-.04-.08-.06-.18-.07-.29ZM7.49,41.74c-.14.06-.35.11-.62.15-.16.02-.27.05-.33.08-.06.03-.11.07-.15.13-.03.05-.05.12-.05.18,0,.11.04.19.12.26.08.07.19.1.34.1s.28-.03.39-.1c.12-.07.2-.16.25-.27.04-.08.06-.22.06-.39v-.14ZM8.45,42.9v-3.19h.38v3.19h-.38ZM10.88,42.9v-.34c-.17.26-.41.39-.71.39-.13,0-.26-.03-.37-.08-.11-.05-.2-.12-.26-.2-.05-.08-.09-.17-.12-.29-.01-.08-.02-.2-.02-.37v-1.43h.38v1.28c0,.2,0,.34.02.41.03.1.08.18.16.24.07.06.17.09.29.09s.22-.03.32-.09c.1-.06.17-.14.21-.25.04-.11.06-.25.06-.45v-1.23h.38v2.31h-.34ZM11.81,42.9v-2.31h.34v.35c.09-.16.17-.27.24-.32.07-.05.16-.08.25-.08.13,0,.26.04.39.12l-.13.36c-.1-.05-.19-.08-.28-.08-.08,0-.16.03-.22.08-.06.05-.11.12-.14.21-.04.14-.06.29-.06.46v1.21h-.38ZM13.11,41.74c0-.42.12-.74.35-.95.19-.17.43-.25.7-.25.31,0,.56.1.76.31.19.21.29.49.29.86,0,.3-.04.53-.13.7-.09.17-.21.3-.38.4-.17.1-.35.14-.54.14-.31,0-.57-.1-.76-.31-.19-.2-.29-.5-.29-.9ZM13.5,41.74c0,.29.06.52.19.66.13.15.28.22.47.22s.35-.08.48-.22c.13-.15.19-.37.19-.67,0-.29-.06-.5-.19-.65s-.28-.22-.47-.22-.35.07-.47.22-.19.37-.19.66ZM15.66,42.9v-2.31h.34v.33c.16-.25.4-.38.71-.38.13,0,.26.03.37.08s.2.12.26.2c.06.08.1.18.12.29.01.07.02.2.02.38v1.42h-.38v-1.4c0-.16-.01-.28-.04-.36-.03-.08-.08-.14-.16-.19-.08-.05-.16-.07-.27-.07-.16,0-.3.05-.42.16-.12.1-.18.3-.18.6v1.26h-.38ZM18.06,40.15v-.45h.38v.45h-.38ZM18.06,42.9v-2.31h.38v2.31h-.38ZM20.49,42.05l.37.05c-.04.26-.14.47-.31.62-.17.15-.38.22-.62.22-.31,0-.55-.1-.74-.31-.19-.2-.28-.5-.28-.89,0-.25.04-.46.12-.65.08-.19.2-.33.37-.42.16-.09.34-.14.53-.14.24,0,.45.06.6.19.16.12.26.31.3.54l-.37.06c-.03-.16-.1-.27-.19-.35-.09-.08-.2-.12-.32-.12-.19,0-.35.07-.47.21-.12.14-.18.37-.18.67s.06.53.17.68c.12.14.27.21.45.21.15,0,.27-.05.37-.14.1-.09.16-.24.19-.43ZM23.85,42.61c-.14.12-.28.21-.41.26-.13.05-.27.08-.42.08-.25,0-.44-.06-.57-.19-.13-.12-.2-.28-.2-.47,0-.11.03-.22.07-.31.05-.09.12-.16.2-.22s.17-.1.27-.13c.08-.02.19-.04.34-.06.31-.04.53-.08.68-.13v-.1c0-.16-.03-.27-.11-.33-.1-.09-.24-.13-.43-.13s-.31.03-.4.1c-.09.06-.15.18-.19.34l-.37-.05c.03-.16.09-.3.17-.4.08-.1.19-.18.34-.24.15-.05.32-.08.51-.08s.35.02.47.07c.12.04.21.1.26.17s.1.16.12.27c.01.07.02.19.02.36v.52c0,.37,0,.59.03.69.01.1.04.19.09.28h-.4c-.04-.08-.06-.18-.07-.29ZM23.82,41.74c-.14.06-.35.11-.62.15-.16.02-.27.05-.33.08-.06.03-.11.07-.15.13-.03.05-.05.12-.05.18,0,.11.04.19.12.26.08.07.19.1.34.1s.28-.03.39-.1c.12-.07.2-.16.25-.27.04-.08.06-.22.06-.39v-.14ZM26.26,42.05l.37.05c-.04.26-.14.47-.31.62-.17.15-.38.22-.62.22-.31,0-.55-.1-.74-.31-.19-.2-.28-.5-.28-.89,0-.25.04-.46.12-.65.08-.19.2-.33.37-.42.16-.09.34-.14.53-.14.24,0,.45.06.6.19.16.12.26.31.3.54l-.37.06c-.03-.16-.1-.27-.19-.35-.09-.08-.2-.12-.32-.12-.19,0-.35.07-.47.21-.12.14-.18.37-.18.67s.06.53.17.68c.12.14.27.21.45.21.15,0,.27-.05.37-.14.1-.09.16-.24.19-.43ZM26.95,40.15v-.45h.38v.45h-.38ZM26.95,42.9v-2.31h.38v2.31h-.38ZM29.36,42.9v-.29c-.14.23-.35.34-.63.34-.18,0-.34-.05-.49-.15-.15-.1-.26-.25-.35-.42-.08-.18-.13-.39-.13-.63s.04-.44.11-.63.19-.33.34-.43c.15-.1.32-.15.5-.15.13,0,.26.03.36.09.1.06.19.13.26.23v-1.15h.38v3.19h-.35ZM28.16,41.74c0,.29.06.52.18.66.12.15.26.22.43.22s.31-.07.42-.21.17-.35.17-.64c0-.31-.06-.54-.18-.69-.12-.15-.26-.22-.44-.22s-.31.07-.43.21c-.11.14-.17.37-.17.67ZM32.84,42.9h-.38v-2.5c-.09.09-.21.18-.36.27-.15.09-.29.16-.4.21v-.38c.21-.1.4-.23.56-.37.16-.15.27-.29.34-.43h.25v3.2ZM33.82,41.33c0-.38.04-.68.11-.91.08-.23.19-.41.34-.53.15-.12.33-.19.56-.19.16,0,.31.04.44.1.13.07.23.17.31.3.08.13.14.29.19.47.05.19.07.44.07.76,0,.37-.04.68-.11.9-.07.23-.19.41-.33.53-.15.12-.34.19-.56.19-.3,0-.53-.11-.7-.33-.2-.27-.31-.7-.31-1.3ZM34.21,41.33c0,.53.06.87.18,1.05.12.17.27.26.44.26s.32-.09.44-.26c.12-.17.18-.53.18-1.05s-.06-.87-.18-1.05-.27-.26-.45-.26-.32.08-.42.23c-.13.2-.19.55-.19,1.08ZM36.33,42.9v-2.31h.34v.33c.07-.11.16-.21.28-.27s.25-.1.4-.1c.16,0,.3.04.41.11.11.07.18.17.22.3.18-.27.41-.41.7-.41.22,0,.4.06.51.19.12.12.18.32.18.58v1.59h-.38v-1.46c0-.16-.01-.27-.04-.34-.02-.07-.07-.12-.13-.16-.06-.04-.14-.06-.23-.06-.16,0-.29.05-.39.16-.1.11-.16.28-.16.52v1.34h-.38v-1.5c0-.17-.03-.3-.09-.39-.06-.08-.16-.13-.31-.13-.1,0-.2.03-.29.08-.09.06-.16.14-.2.26-.04.11-.06.27-.06.48v1.2h-.38ZM39.86,43.09l.37.05c.01.12.06.2.13.26.1.07.22.11.38.11.18,0,.31-.04.41-.11.1-.07.16-.17.19-.3.02-.08.03-.25.03-.5-.17.2-.37.3-.62.3-.31,0-.54-.12-.71-.34-.17-.23-.26-.5-.26-.82,0-.22.04-.42.12-.61.08-.19.19-.33.34-.43s.32-.15.52-.15c.26,0,.48.11.65.33v-.29h.35v2c0,.36-.03.62-.11.77-.07.15-.18.27-.34.36-.15.08-.34.13-.57.13-.27,0-.48-.06-.65-.19-.16-.12-.24-.31-.24-.56ZM40.17,41.7c0,.3.06.52.17.66.12.14.26.21.44.21s.32-.07.44-.21c.12-.14.18-.35.18-.65,0-.28-.06-.49-.18-.64-.13-.14-.27-.21-.44-.21s-.32.07-.43.21c-.12.14-.18.35-.18.63ZM44.33,42.38v-.87h-.84v-.37h.84v-.87h.36v.87h.84v.37h-.84v.87h-.36ZM48.76,41.65v-.37h1.31v1.18c-.2.16-.41.29-.62.37-.21.08-.43.12-.66.12-.31,0-.58-.07-.83-.2-.25-.13-.44-.33-.56-.58-.13-.25-.19-.53-.19-.85s.06-.6.19-.87c.13-.27.31-.47.54-.6.24-.13.51-.2.82-.2.22,0,.43.04.61.11.18.08.32.18.42.31.1.13.18.31.23.52l-.37.11c-.05-.16-.1-.29-.17-.38-.07-.09-.17-.17-.3-.22-.13-.06-.27-.08-.42-.08-.19,0-.35.03-.48.09-.14.06-.25.13-.33.23-.08.09-.15.2-.19.32-.08.2-.12.41-.12.64,0,.29.05.53.14.72s.23.33.42.43c.18.09.37.14.58.14.18,0,.35-.04.52-.11.17-.07.3-.15.38-.23v-.6h-.91ZM50.61,42.9v-3.19h.38v3.19h-.38ZM53.05,42.9v-.34c-.17.26-.41.39-.71.39-.13,0-.26-.03-.37-.08-.11-.05-.2-.12-.26-.2-.05-.08-.09-.17-.12-.29-.01-.08-.02-.2-.02-.37v-1.43h.38v1.28c0,.2,0,.34.02.41.03.1.08.18.16.24.07.06.17.09.29.09s.22-.03.32-.09c.1-.06.17-.14.21-.25.04-.11.06-.25.06-.45v-1.23h.38v2.31h-.34ZM55.45,42.05l.37.05c-.04.26-.14.47-.31.62-.17.15-.38.22-.62.22-.31,0-.55-.1-.74-.31-.19-.2-.28-.5-.28-.89,0-.25.04-.46.12-.65.08-.19.2-.33.37-.42.16-.09.34-.14.53-.14.24,0,.45.06.6.19.16.12.26.31.3.54l-.37.06c-.03-.16-.1-.27-.19-.35-.09-.08-.2-.12-.32-.12-.19,0-.35.07-.47.21-.12.14-.18.37-.18.67s.06.53.17.68c.12.14.27.21.45.21.15,0,.27-.05.37-.14.1-.09.16-.24.19-.43ZM56,41.74c0-.42.12-.74.35-.95.19-.17.43-.25.7-.25.31,0,.56.1.76.31.19.21.29.49.29.86,0,.3-.04.53-.13.7-.09.17-.21.3-.38.4-.17.1-.35.14-.54.14-.31,0-.57-.1-.76-.31-.19-.2-.29-.5-.29-.9ZM56.39,41.74c0,.29.06.52.19.66.13.15.28.22.47.22s.35-.08.48-.22c.13-.15.19-.37.19-.67,0-.29-.06-.5-.19-.65-.13-.15-.28-.22-.47-.22s-.35.07-.47.22c-.13.15-.19.37-.19.66ZM58.4,42.21l.38-.06c.02.16.08.27.18.36.1.08.23.12.41.12s.3-.04.39-.11c.08-.07.13-.16.13-.26,0-.08-.04-.16-.11-.2-.06-.04-.19-.08-.39-.13-.28-.07-.47-.13-.58-.19-.11-.05-.19-.13-.25-.22-.05-.09-.08-.2-.08-.31,0-.1.02-.2.07-.29s.11-.16.19-.22c.06-.04.14-.08.24-.12s.21-.04.33-.04c.17,0,.33.03.46.08.13.05.23.12.29.21.06.09.11.21.13.36l-.37.05c-.02-.12-.06-.21-.15-.28-.08-.07-.19-.1-.34-.1-.17,0-.3.03-.37.09-.07.06-.11.13-.11.21,0,.05.02.09.05.14.03.04.08.08.14.1.04.01.15.05.34.1.27.08.45.14.56.18.11.05.19.12.25.21.06.09.09.2.09.33s-.03.25-.11.37c-.07.12-.18.2-.32.27-.14.06-.29.09-.47.09-.29,0-.51-.06-.67-.19-.16-.12-.25-.31-.29-.55ZM62.18,42.61c-.14.12-.28.21-.41.26-.13.05-.27.08-.42.08-.25,0-.44-.06-.57-.19-.13-.12-.2-.28-.2-.47,0-.11.03-.22.07-.31.05-.09.12-.16.2-.22.08-.06.17-.1.27-.13.08-.02.19-.04.34-.06.31-.04.53-.08.68-.13v-.1c0-.16-.03-.27-.11-.33-.1-.09-.24-.13-.43-.13s-.31.03-.4.1c-.09.06-.15.18-.19.34l-.37-.05c.03-.16.09-.3.17-.4.08-.1.19-.18.34-.24.15-.05.32-.08.51-.08s.35.02.47.07c.12.04.21.1.26.17.06.07.1.16.12.27.01.07.02.19.02.36v.52c0,.37,0,.59.03.69.01.1.04.19.09.28h-.4c-.04-.08-.06-.18-.07-.29ZM62.15,41.74c-.14.06-.35.11-.62.15-.16.02-.27.05-.33.08-.06.03-.11.07-.15.13-.03.05-.05.12-.05.18,0,.11.04.19.12.26.08.07.19.1.34.1s.28-.03.39-.1c.12-.07.2-.16.25-.27.04-.08.06-.22.06-.39v-.14ZM63.12,42.9v-2.31h.34v.33c.07-.11.16-.21.28-.27s.25-.1.4-.1c.16,0,.3.04.41.11.11.07.18.17.22.3.18-.27.41-.41.7-.41.22,0,.4.06.51.19.12.12.18.32.18.58v1.59h-.38v-1.46c0-.16-.01-.27-.04-.34-.02-.07-.07-.12-.13-.16-.06-.04-.14-.06-.23-.06-.16,0-.29.05-.39.16-.1.11-.16.28-.16.52v1.34h-.38v-1.5c0-.17-.03-.3-.09-.39-.06-.08-.16-.13-.31-.13-.1,0-.2.03-.29.08-.09.06-.16.14-.2.26-.04.11-.06.27-.06.48v1.2h-.38ZM66.72,40.15v-.45h.38v.45h-.38ZM66.72,42.9v-2.31h.38v2.31h-.38ZM67.68,42.9v-2.31h.34v.33c.16-.25.4-.38.71-.38.13,0,.26.03.37.08s.2.12.26.2c.06.08.1.18.12.29.01.07.02.2.02.38v1.42h-.38v-1.4c0-.16-.01-.28-.04-.36-.03-.08-.08-.14-.16-.19-.08-.05-.16-.07-.27-.07-.16,0-.3.05-.42.16-.12.1-.18.3-.18.6v1.26h-.38ZM71.61,42.15l.39.05c-.06.24-.18.42-.34.55-.17.13-.38.2-.64.2-.33,0-.59-.1-.78-.31-.19-.21-.29-.5-.29-.87s.1-.69.29-.9.45-.32.76-.32.54.1.73.32c.19.21.29.5.29.89v.1h-1.67c.01.25.08.45.21.58.13.13.28.2.47.2.14,0,.26-.04.35-.12.1-.08.18-.2.23-.36ZM70.37,41.52h1.25c-.02-.2-.06-.34-.14-.44-.12-.15-.28-.23-.47-.23-.17,0-.32.06-.44.18-.12.12-.19.29-.2.49ZM73.54,42.21l.38-.06c.02.16.08.27.18.36.1.08.23.12.41.12s.3-.04.39-.11c.08-.07.13-.16.13-.26,0-.08-.04-.16-.11-.2-.06-.04-.19-.08-.39-.13-.28-.07-.47-.13-.58-.19-.11-.05-.19-.13-.25-.22-.05-.09-.08-.2-.08-.31,0-.1.02-.2.07-.29s.11-.16.19-.22c.06-.04.14-.08.24-.12s.21-.04.33-.04c.17,0,.33.03.46.08.13.05.23.12.29.21.06.09.11.21.13.36l-.37.05c-.02-.12-.06-.21-.15-.28-.08-.07-.19-.1-.34-.1-.17,0-.3.03-.37.09-.07.06-.11.13-.11.21,0,.05.02.09.05.14.03.04.08.08.14.1.04.01.15.05.34.1.27.08.45.14.56.18.11.05.19.12.25.21.06.09.09.2.09.33s-.03.25-.11.37c-.07.12-.18.2-.32.27-.14.06-.29.09-.47.09-.29,0-.51-.06-.67-.19-.16-.12-.25-.31-.29-.55ZM77.31,42.9v-.34c-.17.26-.41.39-.71.39-.13,0-.26-.03-.37-.08-.11-.05-.2-.12-.26-.2-.05-.08-.09-.17-.12-.29-.01-.08-.02-.2-.02-.37v-1.43h.38v1.28c0,.2,0,.34.02.41.03.1.08.18.16.24.07.06.17.09.29.09s.22-.03.32-.09c.1-.06.17-.14.21-.25.04-.11.06-.25.06-.45v-1.23h.38v2.31h-.34ZM78.24,42.9v-3.19h.38v3.19h-.38ZM79.21,43.79v-3.2h.35v.3c.08-.12.17-.2.28-.26.1-.06.23-.09.37-.09.19,0,.36.05.51.15.14.1.26.25.33.43.07.19.11.39.11.61s-.04.45-.12.64c-.08.19-.2.33-.36.43-.16.1-.32.15-.5.15-.13,0-.24-.03-.34-.08-.1-.05-.18-.12-.25-.2v1.13h-.38ZM79.56,41.76c0,.29.06.51.17.66.12.14.26.21.42.21s.32-.08.43-.22c.12-.15.18-.37.18-.68s-.06-.51-.18-.66c-.12-.15-.26-.22-.42-.22s-.3.08-.43.23c-.13.16-.19.38-.19.68ZM81.62,42.9v-3.19h.38v1.15c.18-.21.4-.32.67-.32.16,0,.31.03.43.1.13.07.21.16.26.28.05.12.08.29.08.52v1.47h-.38v-1.46c0-.2-.04-.34-.12-.43-.08-.09-.2-.13-.35-.13-.11,0-.22.03-.32.09-.1.06-.17.14-.21.25-.04.1-.06.25-.06.43v1.26h-.38ZM85.48,42.61c-.14.12-.28.21-.41.26-.13.05-.27.08-.42.08-.25,0-.44-.06-.57-.19-.13-.12-.2-.28-.2-.47,0-.11.03-.22.07-.31.05-.09.12-.16.2-.22.08-.06.17-.1.27-.13.08-.02.19-.04.34-.06.31-.04.53-.08.68-.13v-.1c0-.16-.03-.27-.11-.33-.1-.09-.24-.13-.43-.13s-.31.03-.4.1c-.09.06-.15.18-.19.34l-.37-.05c.03-.16.09-.3.17-.4.08-.1.19-.18.34-.24.15-.05.32-.08.51-.08s.35.02.47.07c.12.04.21.1.26.17.06.07.1.16.12.27.01.07.02.19.02.36v.52c0,.37,0,.59.03.69.01.1.04.19.09.28h-.4c-.04-.08-.06-.18-.07-.29ZM85.45,41.74c-.14.06-.35.11-.62.15-.16.02-.27.05-.33.08-.06.03-.11.07-.15.13-.03.05-.05.12-.05.18,0,.11.04.19.12.26.08.07.19.1.34.1s.28-.03.39-.1c.12-.07.2-.16.25-.27.04-.08.06-.22.06-.39v-.14ZM87.25,42.55l.05.35c-.11.02-.2.04-.29.04-.14,0-.25-.02-.32-.07-.08-.04-.13-.11-.16-.18-.03-.08-.05-.23-.05-.46v-1.33h-.28v-.3h.28v-.57l.38-.24v.81h.38v.3h-.38v1.35c0,.11,0,.18.02.21.01.04.03.06.06.08.03.02.07.03.13.03.04,0,.1,0,.16-.02ZM89.16,42.15l.39.05c-.06.24-.18.42-.34.55-.17.13-.38.2-.64.2-.33,0-.59-.1-.78-.31-.19-.21-.29-.5-.29-.87s.1-.69.29-.9.45-.32.76-.32.54.1.73.32c.19.21.29.5.29.89v.1h-1.67c.01.25.08.45.21.58.13.13.28.2.47.2.14,0,.26-.04.35-.12.1-.08.18-.2.23-.36ZM87.91,41.52h1.25c-.02-.2-.06-.34-.14-.44-.12-.15-.28-.23-.47-.23-.17,0-.32.06-.44.18-.12.12-.19.29-.2.49ZM91.13,42.06l.4-.03c.03.2.1.35.2.45.11.1.24.15.39.15.19,0,.34-.07.47-.21.13-.14.19-.33.19-.57,0-.22-.06-.4-.18-.53-.12-.13-.28-.19-.48-.19-.13,0-.23.03-.33.08-.1.06-.17.13-.23.23l-.36-.05.3-1.64h1.54v.37h-1.23l-.16.86c.19-.13.38-.2.58-.2.27,0,.5.1.68.29.19.19.28.44.28.74s-.08.54-.24.75c-.2.26-.47.39-.81.39-.28,0-.51-.08-.69-.25-.18-.16-.28-.38-.31-.65ZM93.53,41.33c0-.38.04-.68.11-.91.08-.23.19-.41.34-.53.15-.12.33-.19.56-.19.16,0,.31.04.44.1.13.07.23.17.31.3.08.13.14.29.19.47.05.19.07.44.07.76,0,.37-.04.68-.11.9-.07.23-.19.41-.33.53-.15.12-.34.19-.56.19-.3,0-.53-.11-.7-.33-.2-.27-.31-.7-.31-1.3ZM93.92,41.33c0,.53.06.87.18,1.05.12.17.27.26.44.26s.32-.09.44-.26c.12-.17.18-.53.18-1.05s-.06-.87-.18-1.05c-.12-.17-.27-.26-.45-.26s-.32.08-.42.23c-.13.2-.19.55-.19,1.08ZM95.93,41.33c0-.38.04-.68.11-.91.08-.23.19-.41.34-.53.15-.12.33-.19.56-.19.16,0,.31.04.44.1.13.07.23.17.31.3.08.13.14.29.19.47.05.19.07.44.07.76,0,.37-.04.68-.11.9-.07.23-.19.41-.33.53-.15.12-.34.19-.56.19-.3,0-.53-.11-.7-.33-.2-.27-.31-.7-.31-1.3ZM96.32,41.33c0,.53.06.87.18,1.05.12.17.27.26.44.26s.32-.09.44-.26c.12-.17.18-.53.18-1.05s-.06-.87-.18-1.05c-.12-.17-.27-.26-.45-.26s-.32.08-.42.23c-.13.2-.19.55-.19,1.08ZM98.44,42.9v-2.31h.34v.33c.07-.11.16-.21.28-.27s.25-.1.4-.1c.16,0,.3.04.41.11.11.07.18.17.22.3.18-.27.41-.41.7-.41.22,0,.4.06.51.19.12.12.18.32.18.58v1.59h-.38v-1.46c0-.16-.01-.27-.04-.34-.02-.07-.07-.12-.13-.16-.06-.04-.14-.06-.23-.06-.16,0-.29.05-.39.16-.1.11-.16.28-.16.52v1.34h-.38v-1.5c0-.17-.03-.3-.09-.39-.06-.08-.16-.13-.31-.13-.1,0-.2.03-.29.08-.09.06-.16.14-.2.26-.04.11-.06.27-.06.48v1.2h-.38ZM101.97,43.09l.37.05c.01.12.06.2.13.26.1.07.22.11.38.11.18,0,.31-.04.41-.11.1-.07.16-.17.19-.3.02-.08.03-.25.03-.5-.17.2-.37.3-.62.3-.31,0-.54-.12-.71-.34-.17-.23-.26-.5-.26-.82,0-.22.04-.42.12-.61.08-.19.19-.33.34-.43.15-.1.32-.15.52-.15.26,0,.48.11.65.33v-.29h.35v2c0,.36-.03.62-.11.77-.07.15-.18.27-.34.36-.15.08-.34.13-.57.13-.27,0-.48-.06-.65-.19-.16-.12-.24-.31-.24-.56ZM102.28,41.7c0,.3.06.52.17.66.12.14.26.21.44.21s.32-.07.44-.21c.12-.14.18-.35.18-.65,0-.28-.06-.49-.18-.64-.13-.14-.27-.21-.44-.21s-.32.07-.43.21c-.12.14-.18.35-.18.63ZM106.45,42.38v-.87h-.84v-.37h.84v-.87h.36v.87h.84v.37h-.84v.87h-.36Z"/>
      <path d="M3.02,46.76l.41.11c-.09.35-.24.61-.46.79-.22.18-.49.27-.82.27s-.61-.07-.81-.21c-.21-.14-.37-.34-.48-.61-.11-.26-.16-.55-.16-.85,0-.33.06-.62.19-.87.12-.25.3-.44.52-.57.23-.13.48-.19.75-.19.31,0,.57.08.78.25.21.16.36.39.44.68l-.4.1c-.07-.23-.18-.4-.31-.5-.14-.11-.31-.16-.51-.16-.24,0-.44.06-.6.17-.16.12-.27.28-.33.48-.06.2-.1.4-.1.61,0,.27.04.51.12.71.07.2.19.36.35.45.16.1.34.15.52.15.23,0,.42-.07.58-.21.16-.14.26-.34.32-.61ZM5.35,47.88v-.34c-.17.26-.41.39-.71.39-.13,0-.26-.03-.37-.08-.11-.05-.2-.12-.26-.2-.05-.08-.09-.17-.12-.29-.01-.08-.02-.2-.02-.37v-1.43h.38v1.28c0,.2,0,.34.02.41.03.1.08.18.16.24.07.06.17.09.29.09s.22-.03.32-.09c.1-.06.17-.14.21-.25.04-.11.06-.25.06-.45v-1.23h.38v2.31h-.34ZM6.29,47.88v-2.31h.34v.35c.09-.16.17-.27.24-.32.07-.05.16-.08.25-.08.13,0,.26.04.39.12l-.13.36c-.1-.05-.19-.08-.28-.08-.08,0-.16.03-.22.08-.06.05-.11.12-.14.21-.04.14-.06.29-.06.46v1.21h-.38ZM9.2,47.03l.37.05c-.04.26-.14.47-.31.62-.17.15-.38.22-.62.22-.31,0-.55-.1-.74-.31-.19-.2-.28-.5-.28-.89,0-.25.04-.46.12-.65.08-.19.2-.33.37-.42.16-.09.34-.14.53-.14.24,0,.45.06.6.19.16.12.26.31.3.54l-.37.06c-.03-.16-.1-.27-.19-.35-.09-.08-.2-.12-.32-.12-.19,0-.35.07-.47.21-.12.14-.18.37-.18.67s.06.53.17.68c.12.14.27.21.45.21.15,0,.27-.05.37-.14.1-.09.16-.24.19-.43ZM11.36,47.88v-.34c-.17.26-.41.39-.71.39-.13,0-.26-.03-.37-.08-.11-.05-.2-.12-.26-.2-.05-.08-.09-.17-.12-.29-.01-.08-.02-.2-.02-.37v-1.43h.38v1.28c0,.2,0,.34.02.41.03.1.08.18.16.24.07.06.17.09.29.09s.22-.03.32-.09c.1-.06.17-.14.21-.25.04-.11.06-.25.06-.45v-1.23h.38v2.31h-.34ZM12.3,47.88v-2.31h.34v.33c.07-.11.16-.21.28-.27s.25-.1.4-.1c.16,0,.3.04.41.11.11.07.18.17.22.3.18-.27.41-.41.7-.41.22,0,.4.06.51.19.12.12.18.32.18.58v1.59h-.38v-1.46c0-.16-.01-.27-.04-.34-.02-.07-.07-.12-.13-.16-.06-.04-.14-.06-.23-.06-.16,0-.29.05-.39.16-.1.11-.16.28-.16.52v1.34h-.38v-1.5c0-.17-.03-.3-.09-.39-.06-.08-.16-.13-.31-.13-.1,0-.2.03-.29.08-.09.06-.16.14-.2.26-.04.11-.06.27-.06.48v1.2h-.38ZM15.9,45.13v-.45h.38v.45h-.38ZM15.9,47.88v-2.31h.38v2.31h-.38ZM16.86,47.88v-2.31h.34v.33c.16-.25.4-.38.71-.38.13,0,.26.03.37.08s.2.12.26.2c.06.08.1.18.12.29.01.07.02.2.02.38v1.42h-.38v-1.4c0-.16-.01-.28-.04-.36-.03-.08-.08-.14-.16-.19-.08-.05-.16-.07-.27-.07-.16,0-.3.05-.42.16-.12.1-.18.3-.18.6v1.26h-.38ZM21.99,47.13l.39.05c-.06.24-.18.42-.34.55-.17.13-.38.2-.64.2-.33,0-.59-.1-.78-.31-.19-.21-.29-.5-.29-.87s.1-.69.29-.9.45-.32.76-.32.54.1.73.32c.19.21.29.5.29.89v.1h-1.67c.01.25.08.45.21.58.13.13.28.2.47.2.14,0,.26-.04.35-.12.1-.08.18-.2.23-.36ZM20.75,46.5h1.25c-.02-.2-.06-.34-.14-.44-.12-.15-.28-.23-.47-.23-.17,0-.32.06-.44.18-.12.12-.19.29-.2.49ZM22.61,47.88l.82-1.2-.76-1.11h.47l.35.54c.06.1.12.19.16.25.06-.09.12-.18.17-.25l.37-.54h.47l-.77,1.11.81,1.2h-.46l-.46-.71-.11-.17-.6.89h-.47ZM25.86,47.52l.05.35c-.11.02-.2.04-.29.04-.14,0-.25-.02-.32-.07-.08-.04-.13-.11-.16-.18-.03-.08-.05-.23-.05-.46v-1.33h-.28v-.3h.28v-.57l.38-.24v.81h.38v.3h-.38v1.35c0,.11,0,.18.02.21.01.04.03.06.06.08.03.02.07.03.13.03.04,0,.1,0,.16-.02ZM26.23,47.88v-2.31h.34v.35c.09-.16.17-.27.24-.32.07-.05.16-.08.25-.08.13,0,.26.04.39.12l-.13.36c-.1-.05-.19-.08-.28-.08-.08,0-.16.03-.22.08-.06.05-.11.12-.14.21-.04.14-.06.29-.06.46v1.21h-.38ZM29.14,47.59c-.14.12-.28.21-.41.26-.13.05-.27.08-.42.08-.25,0-.44-.06-.57-.19-.13-.12-.2-.28-.2-.47,0-.11.03-.22.07-.31.05-.09.12-.16.2-.22s.17-.1.27-.13c.08-.02.19-.04.34-.06.31-.04.53-.08.68-.13v-.1c0-.16-.03-.27-.11-.33-.1-.09-.24-.13-.43-.13s-.31.03-.4.1c-.09.06-.15.18-.19.34l-.37-.05c.03-.16.09-.3.17-.4.08-.1.19-.18.34-.24.15-.05.32-.08.51-.08s.35.02.47.07c.12.04.21.1.26.17s.1.16.12.27c.01.07.02.19.02.36v.52c0,.37,0,.59.03.69.01.1.04.19.09.28h-.4c-.04-.08-.06-.18-.07-.29ZM29.11,46.72c-.14.06-.35.11-.62.15-.16.02-.27.05-.33.08-.06.03-.11.07-.15.13-.03.05-.05.12-.05.18,0,.11.04.19.12.26.08.07.19.1.34.1s.28-.03.39-.1c.12-.07.2-.16.25-.27.04-.08.06-.22.06-.39v-.14ZM31.54,47.03l.37.05c-.04.26-.14.47-.31.62-.17.15-.38.22-.62.22-.31,0-.55-.1-.74-.31-.19-.2-.28-.5-.28-.89,0-.25.04-.46.12-.65.08-.19.2-.33.37-.42.16-.09.34-.14.53-.14.24,0,.45.06.6.19.16.12.26.31.3.54l-.37.06c-.03-.16-.1-.27-.19-.35-.09-.08-.2-.12-.32-.12-.19,0-.35.07-.47.21-.12.14-.18.37-.18.67s.06.53.17.68c.12.14.27.21.45.21.15,0,.27-.05.37-.14.1-.09.16-.24.19-.43ZM33.06,47.52l.05.35c-.11.02-.2.04-.29.04-.14,0-.25-.02-.32-.07-.08-.04-.13-.11-.16-.18-.03-.08-.05-.23-.05-.46v-1.33h-.28v-.3h.28v-.57l.38-.24v.81h.38v.3h-.38v1.35c0,.11,0,.18.02.21.01.04.03.06.06.08.03.02.07.03.13.03.04,0,.1,0,.16-.02ZM35.37,48.81c-.21-.27-.38-.59-.53-.96-.14-.37-.22-.74-.22-1.14,0-.34.06-.67.16-.99.13-.37.32-.73.58-1.1h.27c-.17.3-.28.52-.34.65-.09.2-.16.41-.2.62-.06.27-.09.54-.09.82,0,.7.21,1.39.63,2.09h-.27ZM36.03,47.14l.36-.03c.03.18.09.3.18.38.09.08.2.12.34.12.12,0,.22-.03.31-.08.09-.05.16-.13.22-.22.06-.09.1-.22.14-.37.04-.16.06-.32.06-.48,0-.02,0-.04,0-.08-.07.12-.18.22-.31.3-.13.08-.27.12-.42.12-.26,0-.48-.1-.65-.29-.17-.19-.26-.44-.26-.75s.09-.58.28-.78c.19-.2.42-.29.7-.29.2,0,.38.05.55.17.17.11.29.27.38.48.09.2.13.5.13.9s-.04.73-.13.98c-.08.24-.21.42-.38.55-.17.13-.37.19-.6.19-.24,0-.44-.07-.59-.21s-.25-.33-.28-.58ZM37.58,45.73c0-.22-.06-.4-.17-.53-.11-.13-.26-.2-.42-.2s-.32.07-.44.21c-.13.14-.19.33-.19.55,0,.21.06.37.18.49.12.13.26.19.44.19s.32-.06.43-.19c.11-.12.17-.3.17-.53ZM38.38,47.04l.4-.03c.03.2.1.35.2.45.11.1.24.15.39.15.19,0,.34-.07.47-.21.13-.14.19-.33.19-.57,0-.22-.06-.4-.18-.53-.12-.13-.28-.19-.48-.19-.13,0-.23.03-.33.08-.1.06-.17.13-.23.23l-.36-.05.3-1.64h1.54v.37h-1.23l-.16.86c.19-.13.38-.2.58-.2.27,0,.5.1.68.29.19.19.28.44.28.74s-.08.54-.24.75c-.2.26-.47.39-.81.39-.28,0-.51-.08-.69-.25-.18-.16-.28-.38-.31-.65ZM40.85,45.45c0-.23.06-.42.17-.58.11-.16.27-.24.48-.24.19,0,.35.07.48.21.13.14.19.35.19.63s-.06.48-.19.62c-.13.15-.29.22-.48.22s-.35-.07-.47-.21c-.12-.15-.19-.36-.19-.65ZM41.51,44.9c-.09,0-.17.04-.23.12-.06.08-.1.24-.1.46,0,.2.03.34.1.43s.14.12.23.12c.1,0,.18-.04.24-.12.06-.08.1-.24.1-.46,0-.21-.03-.35-.1-.43-.06-.08-.14-.12-.24-.12ZM41.52,47.99l1.69-3.36h.31l-1.68,3.36h-.32ZM42.85,47.13c0-.23.06-.42.17-.58.11-.16.27-.24.48-.24.19,0,.35.07.48.21.13.14.19.35.19.63s-.06.48-.19.62c-.13.15-.29.22-.48.22s-.35-.07-.47-.22c-.12-.14-.19-.36-.19-.65ZM43.52,46.58c-.1,0-.18.04-.24.12-.06.08-.1.24-.1.46,0,.2.03.34.1.43s.14.12.23.12c.1,0,.18-.04.24-.12.06-.08.1-.24.1-.46,0-.21-.03-.35-.1-.43-.06-.08-.14-.12-.23-.12ZM44.98,48.81h-.27c.42-.7.63-1.39.63-2.09,0-.27-.03-.54-.09-.81-.05-.22-.11-.43-.2-.63-.06-.13-.17-.35-.34-.65h.27c.26.37.46.73.59,1.1.11.32.16.65.16.99,0,.39-.07.77-.22,1.14-.15.37-.32.69-.53.96ZM48.69,47.88h-.38v-2.5c-.09.09-.21.18-.36.27-.15.09-.29.16-.4.21v-.38c.21-.1.4-.23.56-.37.16-.15.27-.29.34-.43h.25v3.2ZM49.67,46.3c0-.38.04-.68.11-.91.08-.23.19-.41.34-.53.15-.12.33-.19.56-.19.16,0,.31.04.44.1.13.07.23.17.31.3.08.13.14.29.19.47.05.19.07.44.07.76,0,.37-.04.68-.11.9-.07.23-.19.41-.33.53-.15.12-.34.19-.56.19-.3,0-.53-.11-.7-.33-.2-.27-.31-.7-.31-1.3ZM50.06,46.3c0,.53.06.87.18,1.05.12.17.27.26.44.26s.32-.09.44-.26c.12-.17.18-.53.18-1.05s-.06-.87-.18-1.05c-.12-.17-.27-.26-.45-.26s-.32.08-.42.23c-.13.2-.19.55-.19,1.08ZM52.07,46.3c0-.38.04-.68.11-.91.08-.23.19-.41.34-.53.15-.12.33-.19.56-.19.16,0,.31.04.44.1.13.07.23.17.31.3.08.13.14.29.19.47.05.19.07.44.07.76,0,.37-.04.68-.11.9-.07.23-.19.41-.33.53-.15.12-.34.19-.56.19-.3,0-.53-.11-.7-.33-.2-.27-.31-.7-.31-1.3ZM52.46,46.3c0,.53.06.87.18,1.05.12.17.27.26.44.26s.32-.09.44-.26c.12-.17.18-.53.18-1.05s-.06-.87-.18-1.05c-.12-.17-.27-.26-.45-.26s-.32.08-.42.23c-.13.2-.19.55-.19,1.08ZM54.58,47.88v-2.31h.34v.33c.07-.11.16-.21.28-.27s.25-.1.4-.1c.16,0,.3.04.41.11.11.07.18.17.22.3.18-.27.41-.41.7-.41.22,0,.4.06.51.19.12.12.18.32.18.58v1.59h-.38v-1.46c0-.16-.01-.27-.04-.34-.02-.07-.07-.12-.13-.16-.06-.04-.14-.06-.23-.06-.16,0-.29.05-.39.16-.1.11-.16.28-.16.52v1.34h-.38v-1.5c0-.17-.03-.3-.09-.39-.06-.08-.16-.13-.31-.13-.1,0-.2.03-.29.08-.09.06-.16.14-.2.26-.04.11-.06.27-.06.48v1.2h-.38ZM58.11,48.07l.37.05c.01.12.06.2.13.26.1.07.22.11.38.11.18,0,.31-.04.41-.11.1-.07.16-.17.19-.3.02-.08.03-.25.03-.5-.17.2-.37.3-.62.3-.31,0-.54-.12-.71-.34-.17-.23-.26-.5-.26-.82,0-.22.04-.42.12-.61.08-.19.19-.33.34-.43.15-.1.32-.15.52-.15.26,0,.48.11.65.33v-.29h.35v2c0,.36-.03.62-.11.77-.07.15-.18.27-.34.36-.15.08-.34.13-.57.13-.27,0-.48-.06-.65-.19-.16-.12-.24-.31-.24-.56ZM58.43,46.68c0,.3.06.52.17.66.12.14.26.21.44.21s.32-.07.44-.21c.12-.14.18-.35.18-.65,0-.28-.06-.49-.18-.64-.13-.14-.27-.21-.44-.21s-.32.07-.43.21c-.12.14-.18.35-.18.63ZM62.59,47.36v-.87h-.84v-.37h.84v-.87h.36v.87h.84v.37h-.84v.87h-.36ZM67.77,46.76l.41.11c-.09.35-.24.61-.46.79-.22.18-.49.27-.82.27s-.61-.07-.81-.21c-.21-.14-.37-.34-.48-.61-.11-.26-.16-.55-.16-.85,0-.33.06-.62.19-.87.12-.25.3-.44.52-.57.23-.13.48-.19.75-.19.31,0,.57.08.78.25.21.16.36.39.44.68l-.4.1c-.07-.23-.18-.4-.31-.5-.14-.11-.31-.16-.51-.16-.24,0-.44.06-.6.17-.16.12-.27.28-.33.48-.06.2-.1.4-.1.61,0,.27.04.51.12.71.07.2.19.36.35.45.16.1.34.15.52.15.23,0,.42-.07.58-.21.16-.14.26-.34.32-.61ZM68.64,47.88v-3.19h.38v1.15c.18-.21.4-.32.67-.32.16,0,.31.03.43.1.13.07.21.16.26.28.05.12.08.29.08.52v1.47h-.38v-1.46c0-.2-.04-.34-.12-.43-.08-.09-.2-.13-.35-.13-.11,0-.22.03-.32.09-.1.06-.17.14-.21.25-.04.1-.06.25-.06.43v1.26h-.38ZM70.9,46.72c0-.42.12-.74.35-.95.19-.17.43-.25.7-.25.31,0,.56.1.76.31.19.21.29.49.29.86,0,.3-.04.53-.13.7-.09.17-.21.3-.38.4-.17.1-.35.14-.54.14-.31,0-.57-.1-.76-.31-.19-.2-.29-.5-.29-.9ZM71.29,46.72c0,.29.06.52.19.66.13.15.28.22.47.22s.35-.08.48-.22c.13-.15.19-.37.19-.67,0-.29-.06-.5-.19-.65-.13-.15-.28-.22-.47-.22s-.35.07-.47.22c-.13.15-.19.37-.19.66ZM73.44,47.88v-2.31h.34v.33c.16-.25.4-.38.71-.38.13,0,.26.03.37.08s.2.12.26.2c.06.08.1.18.12.29.01.07.02.2.02.38v1.42h-.38v-1.4c0-.16-.01-.28-.04-.36-.03-.08-.08-.14-.16-.19-.08-.05-.16-.07-.27-.07-.16,0-.3.05-.42.16-.12.1-.18.3-.18.6v1.26h-.38ZM77.3,47.88v-.29c-.14.23-.35.34-.63.34-.18,0-.34-.05-.49-.15-.15-.1-.26-.25-.35-.42-.08-.18-.13-.39-.13-.63s.04-.44.11-.63c.07-.19.19-.33.34-.43.15-.1.32-.15.5-.15.13,0,.26.03.36.09.1.06.19.13.26.23v-1.15h.38v3.19h-.35ZM76.09,46.72c0,.29.06.52.18.66.12.15.26.22.43.22s.31-.07.42-.21c.12-.14.17-.35.17-.64,0-.31-.06-.54-.18-.69-.12-.15-.26-.22-.44-.22s-.31.07-.43.21c-.11.14-.17.37-.17.67ZM78.25,47.88v-2.31h.34v.35c.09-.16.17-.27.24-.32.07-.05.16-.08.25-.08.13,0,.26.04.39.12l-.13.36c-.1-.05-.19-.08-.28-.08-.08,0-.16.03-.22.08-.06.05-.11.12-.14.21-.04.14-.06.29-.06.46v1.21h-.38ZM79.55,46.72c0-.42.12-.74.35-.95.19-.17.43-.25.7-.25.31,0,.56.1.76.31.19.21.29.49.29.86,0,.3-.04.53-.13.7-.09.17-.21.3-.38.4-.17.1-.35.14-.54.14-.31,0-.57-.1-.76-.31-.19-.2-.29-.5-.29-.9ZM79.94,46.72c0,.29.06.52.19.66.13.15.28.22.47.22s.35-.08.48-.22c.13-.15.19-.37.19-.67,0-.29-.06-.5-.19-.65-.13-.15-.28-.22-.47-.22s-.35.07-.47.22c-.13.15-.19.37-.19.66ZM82.1,45.13v-.45h.38v.45h-.38ZM82.1,47.88v-2.31h.38v2.31h-.38ZM83.88,47.52l.05.35c-.11.02-.2.04-.29.04-.14,0-.25-.02-.32-.07-.08-.04-.13-.11-.16-.18-.03-.08-.05-.23-.05-.46v-1.33h-.28v-.3h.28v-.57l.38-.24v.81h.38v.3h-.38v1.35c0,.11,0,.18.02.21.01.04.03.06.06.08.03.02.07.03.13.03.04,0,.1,0,.16-.02ZM84.26,45.13v-.45h.38v.45h-.38ZM84.26,47.88v-2.31h.38v2.31h-.38ZM85.22,47.88v-2.31h.34v.33c.16-.25.4-.38.71-.38.13,0,.26.03.37.08s.2.12.26.2c.06.08.1.18.12.29.01.07.02.2.02.38v1.42h-.38v-1.4c0-.16-.01-.28-.04-.36-.03-.08-.08-.14-.16-.19-.08-.05-.16-.07-.27-.07-.16,0-.3.05-.42.16-.12.1-.18.3-.18.6v1.26h-.38ZM88.67,47.18l.38-.06c.02.16.08.27.18.36.1.08.23.12.41.12s.3-.04.39-.11c.08-.07.13-.16.13-.26,0-.08-.04-.16-.11-.2-.06-.04-.19-.08-.39-.13-.28-.07-.47-.13-.58-.19-.11-.05-.19-.13-.25-.22-.05-.09-.08-.2-.08-.31,0-.1.02-.2.07-.29s.11-.16.19-.22c.06-.04.14-.08.24-.12s.21-.04.33-.04c.17,0,.33.03.46.08.13.05.23.12.29.21.06.09.11.21.13.36l-.37.05c-.02-.12-.06-.21-.15-.28-.08-.07-.19-.1-.34-.1-.17,0-.3.03-.37.09-.07.06-.11.13-.11.21,0,.05.02.09.05.14.03.04.08.08.14.1.04.01.15.05.34.1.27.08.45.14.56.18.11.05.19.12.25.21.06.09.09.2.09.33s-.03.25-.11.37c-.07.12-.18.2-.32.27-.14.06-.29.09-.47.09-.29,0-.51-.06-.67-.19-.16-.12-.25-.31-.29-.55ZM92.45,47.88v-.34c-.17.26-.41.39-.71.39-.13,0-.26-.03-.37-.08-.11-.05-.2-.12-.26-.2-.05-.08-.09-.17-.12-.29-.01-.08-.02-.2-.02-.37v-1.43h.38v1.28c0,.2,0,.34.02.41.03.1.08.18.16.24.07.06.17.09.29.09s.22-.03.32-.09c.1-.06.17-.14.21-.25.04-.11.06-.25.06-.45v-1.23h.38v2.31h-.34ZM93.38,47.88v-3.19h.38v3.19h-.38ZM94.35,48.76v-3.2h.35v.3c.08-.12.17-.2.28-.26.1-.06.23-.09.37-.09.19,0,.36.05.51.15.14.1.26.25.33.43.07.19.11.39.11.61s-.04.45-.12.64c-.08.19-.2.33-.36.43-.16.1-.32.15-.5.15-.13,0-.24-.03-.34-.08-.1-.05-.18-.12-.25-.2v1.13h-.38ZM94.69,46.73c0,.29.06.51.17.66.12.14.26.21.42.21s.32-.08.43-.22c.12-.15.18-.37.18-.68s-.06-.51-.18-.66c-.12-.15-.26-.22-.42-.22s-.3.08-.43.23c-.13.16-.19.38-.19.68ZM96.75,47.88v-3.19h.38v1.15c.18-.21.4-.32.67-.32.16,0,.31.03.43.1.13.07.21.16.26.28.05.12.08.29.08.52v1.47h-.38v-1.46c0-.2-.04-.34-.12-.43-.08-.09-.2-.13-.35-.13-.11,0-.22.03-.32.09-.1.06-.17.14-.21.25-.04.1-.06.25-.06.43v1.26h-.38ZM100.62,47.59c-.14.12-.28.21-.41.26-.13.05-.27.08-.42.08-.25,0-.44-.06-.57-.19-.13-.12-.2-.28-.2-.47,0-.11.03-.22.07-.31.05-.09.12-.16.2-.22.08-.06.17-.1.27-.13.08-.02.19-.04.34-.06.31-.04.53-.08.68-.13v-.1c0-.16-.03-.27-.11-.33-.1-.09-.24-.13-.43-.13s-.31.03-.4.1c-.09.06-.15.18-.19.34l-.37-.05c.03-.16.09-.3.17-.4.08-.1.19-.18.34-.24.15-.05.32-.08.51-.08s.35.02.47.07c.12.04.21.1.26.17.06.07.1.16.12.27.01.07.02.19.02.36v.52c0,.37,0,.59.03.69.01.1.04.19.09.28h-.4c-.04-.08-.06-.18-.07-.29ZM100.59,46.72c-.14.06-.35.11-.62.15-.16.02-.27.05-.33.08-.06.03-.11.07-.15.13-.03.05-.05.12-.05.18,0,.11.04.19.12.26.08.07.19.1.34.1s.28-.03.39-.1c.12-.07.2-.16.25-.27.04-.08.06-.22.06-.39v-.14ZM102.38,47.52l.05.35c-.11.02-.2.04-.29.04-.14,0-.25-.02-.32-.07-.08-.04-.13-.11-.16-.18-.03-.08-.05-.23-.05-.46v-1.33h-.28v-.3h.28v-.57l.38-.24v.81h.38v.3h-.38v1.35c0,.11,0,.18.02.21.01.04.03.06.06.08.03.02.07.03.13.03.04,0,.1,0,.16-.02ZM104.29,47.13l.39.05c-.06.24-.18.42-.34.55-.17.13-.38.2-.64.2-.33,0-.59-.1-.78-.31-.19-.21-.29-.5-.29-.87s.1-.69.29-.9.45-.32.76-.32.54.1.73.32c.19.21.29.5.29.89v.1h-1.67c.01.25.08.45.21.58.13.13.28.2.47.2.14,0,.26-.04.35-.12.1-.08.18-.2.23-.36ZM103.05,46.5h1.25c-.02-.2-.06-.34-.14-.44-.12-.15-.28-.23-.47-.23-.17,0-.32.06-.44.18-.12.12-.19.29-.2.49ZM107.69,47.88h-.38v-2.5c-.09.09-.21.18-.36.27-.15.09-.29.16-.4.21v-.38c.21-.1.4-.23.56-.37.16-.15.27-.29.34-.43h.25v3.2ZM108.67,46.3c0-.38.04-.68.11-.91.08-.23.19-.41.34-.53.15-.12.33-.19.56-.19.16,0,.31.04.44.1.13.07.23.17.31.3.08.13.14.29.19.47.05.19.07.44.07.76,0,.37-.04.68-.11.9-.07.23-.19.41-.33.53-.15.12-.34.19-.56.19-.3,0-.53-.11-.7-.33-.2-.27-.31-.7-.31-1.3ZM109.05,46.3c0,.53.06.87.18,1.05.12.17.27.26.44.26s.32-.09.44-.26c.12-.17.18-.53.18-1.05s-.06-.87-.18-1.05c-.12-.17-.27-.26-.45-.26s-.32.08-.42.23c-.13.2-.19.55-.19,1.08ZM111.07,46.3c0-.38.04-.68.11-.91.08-.23.19-.41.34-.53.15-.12.33-.19.56-.19.16,0,.31.04.44.1.13.07.23.17.31.3.08.13.14.29.19.47.05.19.07.44.07.76,0,.37-.04.68-.11.9-.07.23-.19.41-.33.53-.15.12-.34.19-.56.19-.3,0-.53-.11-.7-.33-.2-.27-.31-.7-.31-1.3ZM111.46,46.3c0,.53.06.87.18,1.05.12.17.27.26.44.26s.32-.09.44-.26c.12-.17.18-.53.18-1.05s-.06-.87-.18-1.05c-.12-.17-.27-.26-.45-.26s-.32.08-.42.23c-.13.2-.19.55-.19,1.08ZM113.58,47.88v-2.31h.34v.33c.07-.11.16-.21.28-.27s.25-.1.4-.1c.16,0,.3.04.41.11.11.07.18.17.22.3.18-.27.41-.41.7-.41.22,0,.4.06.51.19.12.12.18.32.18.58v1.59h-.38v-1.46c0-.16-.01-.27-.04-.34-.02-.07-.07-.12-.13-.16-.06-.04-.14-.06-.23-.06-.16,0-.29.05-.39.16-.1.11-.16.28-.16.52v1.34h-.38v-1.5c0-.17-.03-.3-.09-.39-.06-.08-.16-.13-.31-.13-.1,0-.2.03-.29.08-.09.06-.16.14-.2.26-.04.11-.06.27-.06.48v1.2h-.38ZM117.11,48.07l.37.05c.01.12.06.2.13.26.1.07.22.11.38.11.18,0,.31-.04.41-.11.1-.07.16-.17.19-.3.02-.08.03-.25.03-.5-.17.2-.37.3-.62.3-.31,0-.54-.12-.71-.34-.17-.23-.26-.5-.26-.82,0-.22.04-.42.12-.61.08-.19.19-.33.34-.43.15-.1.32-.15.52-.15.26,0,.48.11.65.33v-.29h.35v2c0,.36-.03.62-.11.77-.07.15-.18.27-.34.36-.15.08-.34.13-.57.13-.27,0-.48-.06-.65-.19-.16-.12-.24-.31-.24-.56ZM117.42,46.68c0,.3.06.52.17.66.12.14.26.21.44.21s.32-.07.44-.21c.12-.14.18-.35.18-.65,0-.28-.06-.49-.18-.64-.13-.14-.27-.21-.44-.21s-.32.07-.43.21c-.12.14-.18.35-.18.63Z"/>
      <polygon points="121.55 47.88 121.55 45.06 120.53 45.06 120.53 44.68 122.99 44.68 122.99 45.06 121.97 45.06 121.97 47.88 121.55 47.88"/>
      <path d="M124.35,47.59c-.14.12-.28.21-.41.26-.13.05-.27.08-.42.08-.25,0-.44-.06-.57-.19-.13-.12-.2-.28-.2-.47,0-.11.03-.22.07-.31.05-.09.12-.16.2-.22.08-.06.17-.1.27-.13.08-.02.19-.04.34-.06.31-.04.53-.08.68-.13v-.1c0-.16-.03-.27-.11-.33-.1-.09-.24-.13-.43-.13s-.31.03-.4.1c-.09.06-.15.18-.19.34l-.37-.05c.03-.16.09-.3.17-.4.08-.1.19-.18.34-.24.15-.05.32-.08.51-.08s.35.02.47.07c.12.04.21.1.26.17.06.07.1.16.12.27.01.07.02.19.02.36v.52c0,.37,0,.59.03.69.01.1.04.19.09.28h-.4c-.04-.08-.06-.18-.07-.29ZM124.32,46.72c-.14.06-.35.11-.62.15-.16.02-.27.05-.33.08-.06.03-.11.07-.15.13-.03.05-.05.12-.05.18,0,.11.04.19.12.26.08.07.19.1.34.1s.28-.03.39-.1c.12-.07.2-.16.25-.27.04-.08.06-.22.06-.39v-.14ZM125.64,47.88h-.35v-3.19h.38v1.14c.16-.21.37-.31.61-.31.14,0,.27.03.39.08.12.06.22.14.3.24.08.11.14.23.19.37.05.15.07.3.07.47,0,.39-.1.7-.29.91-.19.22-.42.33-.68.33s-.47-.12-.62-.34v.29ZM125.63,46.7c0,.28.04.47.11.6.12.2.28.3.49.3.16,0,.31-.08.43-.22.12-.15.18-.37.18-.66s-.06-.53-.17-.67-.26-.21-.42-.21-.31.08-.43.22-.18.36-.18.65ZM127.68,47.88v-3.19h.38v3.19h-.38ZM130.18,47.13l.39.05c-.06.24-.18.42-.34.55-.17.13-.38.2-.64.2-.33,0-.59-.1-.78-.31-.19-.21-.29-.5-.29-.87s.1-.69.29-.9.45-.32.76-.32.54.1.73.32c.19.21.29.5.29.89v.1h-1.67c.01.25.08.45.21.58.13.13.28.2.47.2.14,0,.26-.04.35-.12.1-.08.18-.2.23-.36ZM128.93,46.5h1.25c-.02-.2-.06-.34-.14-.44-.12-.15-.28-.23-.47-.23-.17,0-.32.06-.44.18-.12.12-.19.29-.2.49ZM131.88,47.52l.05.35c-.11.02-.2.04-.29.04-.14,0-.25-.02-.32-.07-.08-.04-.13-.11-.16-.18-.03-.08-.05-.23-.05-.46v-1.33h-.28v-.3h.28v-.57l.38-.24v.81h.38v.3h-.38v1.35c0,.11,0,.18.02.21.01.04.03.06.06.08.03.02.07.03.13.03.04,0,.1,0,.16-.02ZM132.1,47.18l.38-.06c.02.16.08.27.18.36.1.08.23.12.41.12s.3-.04.39-.11c.08-.07.13-.16.13-.26,0-.08-.04-.16-.11-.2-.06-.04-.19-.08-.39-.13-.28-.07-.47-.13-.58-.19-.11-.05-.19-.13-.25-.22-.05-.09-.08-.2-.08-.31,0-.1.02-.2.07-.29.05-.09.11-.16.19-.22.06-.04.14-.08.24-.12s.21-.04.33-.04c.17,0,.33.03.46.08.13.05.23.12.29.21.06.09.11.21.13.36l-.37.05c-.02-.12-.06-.21-.15-.28-.08-.07-.19-.1-.34-.1-.17,0-.3.03-.37.09-.07.06-.11.13-.11.21,0,.05.02.09.05.14.03.04.08.08.14.1.04.01.15.05.34.1.27.08.45.14.56.18.11.05.19.12.25.21.06.09.09.2.09.33s-.03.25-.11.37c-.07.12-.18.2-.32.27-.14.06-.29.09-.47.09-.29,0-.51-.06-.67-.19-.16-.12-.25-.31-.29-.55Z"/>
    </g>
  </g>
</svg>