<?xml version="1.0" encoding="UTF-8"?>
<svg id="Layer_2" data-name="Layer 2" xmlns="http://www.w3.org/2000/svg" viewBox="0 0 155.6 48.41">
  <g id="Layer_1-2" data-name="Layer 1">
    <g>
      <path d="M1.84,5.22V0h2.31c.47,0,.82.04,1.06.14.24.09.44.26.58.5.15.24.22.5.22.79,0,.37-.12.69-.36.94-.24.25-.61.41-1.11.48.18.09.32.18.42.26.2.18.39.42.57.69l.9,1.42h-.86l-.69-1.09c-.2-.31-.36-.55-.5-.72s-.25-.28-.35-.35-.21-.11-.32-.14c-.07-.01-.2-.02-.38-.02h-.8v2.32h-.69ZM2.53,2.3h1.48c.32,0,.56-.04.74-.1.18-.06.31-.17.4-.31.09-.14.14-.3.14-.47,0-.25-.09-.45-.27-.61-.18-.16-.46-.24-.85-.24h-1.65v1.73Z"/>
      <path d="M4.41,8.99l2.02-2.71-1.78-2.51h.82l.96,1.33c.2.28.34.49.42.63.12-.18.26-.37.42-.58l1.04-1.39h.75l-1.81,2.48,1.95,2.74h-.85l-1.32-1.86c-.07-.11-.15-.21-.21-.32-.12.18-.2.3-.25.37l-1.33,1.81h-.83Z"/>
      <path d="M.72,32.28l.8-4.04h1.98l-.03.25c-.11.99-.19,1.51-.19,1.57,0,.44.36.85,1.07,1.21.71.36,1.54.55,2.44.55.96,0,1.79-.41,2.53-1.21.74-.8,1.1-1.73,1.1-2.77,0-1.18-.85-2.44-2.53-3.76l-.88-.69c-2.23-1.7-3.35-3.38-3.35-5,0-1.79.71-3.24,2.14-4.4,1.4-1.15,3.21-1.73,5.38-1.73,1.57,0,3.38.27,5.47.85l-.77,3.93h-1.98l.05-.25.19-1.62c0-.44-.27-.82-.88-1.13-.58-.3-1.32-.47-2.17-.47-1.02,0-1.84.33-2.5.99-.63.66-.96,1.51-.96,2.53s.74,2.09,2.23,3.27l1.24.93c1.43,1.18,2.42,2.14,2.94,2.91.49.74.74,1.62.74,2.58,0,1.87-.82,3.38-2.47,4.56-1.65,1.15-3.76,1.76-6.35,1.76-.63,0-1.37-.05-2.25-.19s-1.87-.36-2.99-.63ZM21.1,32.77c-.3-4.81-.82-8.54-1.62-11.29-.3-1.15-.55-1.81-.71-2.01-.16-.19-.63-.3-1.35-.36h-.25l.25-1.24,4.75.03c1.04,3.27,1.73,6.37,2.03,9.26,2.28-3.27,3.71-6.37,4.29-9.28h1.24c1.35,4.26,2.14,7.55,2.44,9.92l1.18-1.79c1.68-2.5,2.53-4.4,2.53-5.63,0-.55-.25-1.24-.74-2.03-.08-.11-.16-.27-.3-.47h4.45c.08.38.14.66.14.88,0,1.32-1.21,3.57-3.65,6.73-.96,1.24-1.54,2.01-1.7,2.25l-3.54,5.03h-1.32c0-2.99-.41-5.91-1.24-8.74-.66,1.24-2.12,3.54-4.45,6.89l-1.26,1.84h-1.15ZM39.95,32.61l2.17-10.85.27-1.73c0-.52-.55-.82-1.68-.91h-.22l.22-1.24h6.15l-2.17,10.82-.22,1.43-.05.33c0,.52.55.82,1.65.88l.25.03-.25,1.24h-6.13ZM43.38,15.41l.69-3.46h3.98l-.69,3.46h-3.98ZM58.4,19.2h-3.41l-1.68,8.43c-.19.91-.27,1.59-.27,2.03,0,.52.14.91.41,1.18.27.25.69.38,1.26.38.36,0,.82-.14,1.35-.38l-.3,1.54c-1.1.38-2.03.55-2.8.55-1.32,0-2.31-.25-2.94-.8-.66-.52-.99-1.29-.99-2.33,0-.44.05-.99.19-1.62l1.81-8.98h-2.14l.38-1.32h2.01l.49-2.5,4.12-.71-.63,3.21h3.49l-.36,1.32ZM70.3,31.51c-2.36.96-4.42,1.43-6.21,1.43-1.62,0-2.94-.47-3.96-1.37-.99-.91-1.48-2.09-1.48-3.6,0-2.77,1.02-5.22,2.99-7.31,2.01-2.06,4.37-3.1,7.03-3.1.63,0,1.24.05,1.9.19.63.11,1.32.3,1.98.55l-.8,4.07h-1.81l.03-.25c.16-1.1.22-1.7.22-1.84,0-.41-.22-.74-.69-1.04-.44-.3-.99-.44-1.62-.44-1.32,0-2.5.88-3.52,2.61-1.04,1.73-1.57,3.71-1.57,5.96,0,1.18.3,2.06.85,2.66.58.6,1.46.91,2.58.91,1.26,0,2.69-.33,4.31-.99l-.25,1.57ZM73.4,32.61l3.43-17.28.3-1.73c0-.55-.55-.85-1.68-.91l-.25-.03.25-1.24h6.13l-2.5,12.64c1.04-2.03,2.23-3.63,3.54-4.78,1.32-1.15,2.61-1.73,3.87-1.73.69,0,1.26.25,1.73.77.49.52.74,1.13.74,1.87,0,.44-.08,1.04-.25,1.84l-1.32,6.68c-.19,1.13-.3,1.7-.3,1.76,0,.52.58.82,1.68.88l.25.03-.25,1.24h-6.13l2.06-10.38c.11-.49.16-.85.16-1.07,0-.44-.16-.66-.52-.66-1.1,0-3.02,2.09-5.82,6.24l-1.15,5.88h-3.98ZM91.31,25.41l.58-2.47h6.02l-.58,2.47h-6.02ZM107.63,33.1c-2.36,0-4.23-.69-5.63-2.03-1.4-1.35-2.09-3.19-2.09-5.49,0-3.57,1.29-6.7,3.87-9.37,2.61-2.64,5.66-3.96,9.15-3.96,2.47,0,4.37.66,5.77,1.98,1.37,1.32,2.06,3.16,2.06,5.49,0,3.65-1.29,6.81-3.87,9.42-2.58,2.64-5.66,3.96-9.26,3.96ZM108.51,31.78c2.17,0,4.01-1.21,5.58-3.63,1.54-2.42,2.31-5.33,2.31-8.71,0-1.98-.33-3.43-1.02-4.42-.71-.96-1.73-1.46-3.13-1.46-2.2,0-4.07,1.21-5.6,3.63-1.54,2.42-2.31,5.36-2.31,8.79,0,1.95.36,3.38,1.04,4.34.69.96,1.73,1.46,3.13,1.46ZM121.23,37.91l3.71-18.71h-1.92l.27-1.32h1.92c.71-2.25,1.7-3.96,2.97-5.08,1.29-1.15,2.83-1.7,4.64-1.7.6,0,1.18.05,1.76.16.58.08,1.13.25,1.68.47l-.77,3.87h-1.65l.03-.25c.14-1.04.22-1.62.22-1.79,0-.44-.14-.74-.41-.96-.27-.19-.71-.3-1.26-.3-.85,0-1.46.3-1.84.88-.41.6-.8,1.81-1.18,3.65l-.19,1.04h4.23l-.25,1.32h-4.26l-3.74,18.71h-3.96ZM132.66,37.91l3.71-18.71h-1.92l.27-1.32h1.92c.71-2.25,1.7-3.96,2.97-5.08,1.29-1.15,2.83-1.7,4.64-1.7.6,0,1.18.05,1.76.16.58.08,1.13.25,1.68.47l-.77,3.87h-1.65l.03-.25c.14-1.04.22-1.62.22-1.79,0-.44-.14-.74-.41-.96-.27-.19-.71-.3-1.26-.3-.85,0-1.46.3-1.84.88-.41.6-.8,1.81-1.18,3.65l-.19,1.04h4.23l-.25,1.32h-4.26l-3.74,18.71h-3.96Z"/>
      <path d="M104.39,46.69l1.22-5.84h1.58c.43,0,.72,0,.84.02.24.02.46.07.65.15.19.08.36.18.51.32.16.13.29.29.41.48s.2.41.26.65c.06.24.09.51.09.81,0,.63-.12,1.18-.36,1.67-.24.49-.55.87-.91,1.17-.28.22-.64.38-1.08.49-.25.06-.64.09-1.16.09h-2.06ZM105.79,45.75h.61c.45,0,.77-.02.96-.08.2-.06.38-.16.55-.31.24-.21.44-.5.6-.86s.24-.78.24-1.27c0-.41-.07-.73-.2-.93-.13-.21-.3-.35-.5-.42-.14-.05-.38-.07-.74-.07h-.7l-.82,3.94ZM111.09,42.46h1.07l-.16.8c.39-.6.82-.91,1.28-.91.16,0,.33.04.52.12l-.44.94c-.11-.04-.21-.06-.33-.06-.2,0-.39.07-.6.22-.2.16-.37.35-.48.6-.11.24-.23.64-.33,1.18l-.28,1.33h-1.14l.89-4.23ZM113.8,42.46h1.14l.29,2.11c.07.54.11.92.12,1.13.15-.43.36-.89.62-1.36l1-1.88h1.21l-2.61,4.65c-.21.38-.38.65-.51.81s-.27.28-.44.37c-.18.09-.38.13-.63.13s-.51-.04-.82-.13l.1-.85c.14.04.27.06.4.06.35,0,.64-.27.86-.8l-.74-4.23ZM120.44,44.81l1.14-.06c.02.36.08.6.19.73.18.2.5.31.97.31.39,0,.68-.07.86-.21.17-.14.26-.31.26-.51,0-.17-.07-.32-.21-.44-.11-.08-.38-.23-.83-.42-.46-.2-.78-.36-1-.49-.2-.14-.37-.31-.49-.51-.12-.21-.18-.46-.18-.74,0-.49.18-.91.54-1.22.35-.33.86-.49,1.54-.49s1.22.16,1.59.48c.38.33.59.75.62,1.29l-1.15.05c-.02-.28-.13-.49-.3-.64-.17-.15-.42-.22-.77-.22s-.56.06-.71.17c-.14.12-.21.27-.21.45,0,.16.07.3.2.42.13.11.42.26.86.46.67.29,1.09.52,1.28.71.27.26.41.6.41,1.02,0,.52-.2.96-.61,1.33-.41.36-.97.55-1.71.55-.5,0-.93-.08-1.31-.25-.37-.17-.62-.4-.78-.7s-.22-.64-.21-1.04ZM126.05,42.46h1.14l.29,2.11c.07.54.11.92.12,1.13.15-.43.36-.89.62-1.36l1-1.88h1.21l-2.61,4.65c-.21.38-.38.65-.51.81s-.27.28-.44.37c-.18.09-.38.13-.63.13s-.51-.04-.82-.13l.1-.85c.14.04.27.06.4.06.35,0,.64-.27.86-.8l-.74-4.23ZM131.06,42.46h1.07l-.16.8c.39-.6.82-.91,1.28-.91.16,0,.33.04.52.12l-.44.94c-.11-.04-.21-.06-.33-.06-.2,0-.39.07-.6.22-.2.16-.37.35-.48.6-.11.24-.23.64-.33,1.18l-.28,1.33h-1.14l.89-4.23ZM134.34,42.46h1.14l-.57,2.51c-.07.3-.1.49-.1.56,0,.12.04.23.12.32s.19.13.31.13c.09,0,.18-.02.27-.06.09-.04.18-.11.28-.19.09-.08.18-.17.25-.28s.15-.24.21-.42c.04-.12.1-.31.16-.56l.46-2.02h1.14l-.96,4.23h-1.07l.11-.55c-.43.43-.9.65-1.4.65-.32,0-.57-.1-.76-.3-.18-.2-.28-.47-.28-.81,0-.15.05-.43.15-.87l.54-2.36ZM139.23,42.46h1.09l-.09.43c.24-.2.45-.33.65-.42s.42-.12.65-.12c.44,0,.8.16,1.07.46.28.31.41.77.41,1.37,0,.77-.24,1.41-.7,1.94-.4.45-.87.68-1.42.68s-1-.23-1.28-.68l-.45,2.19h-1.14l1.22-5.85ZM139.92,44.89c0,.33.08.59.24.78s.35.28.57.28c.2,0,.38-.07.55-.2.17-.14.32-.37.44-.69.11-.32.17-.61.17-.89,0-.32-.07-.56-.23-.73s-.35-.25-.58-.25-.42.07-.6.24c-.18.16-.32.38-.42.69-.1.3-.15.57-.15.8Z"/>
      <path d="M148.74,11.32v-3.91h-1.46v-.52h3.5v.52h-1.46v3.91h-.59ZM151.38,11.32v-4.42h.88l1.04,3.13c.1.29.17.51.22.66.05-.16.13-.4.23-.71l1.06-3.08h.78v4.42h-.56v-3.7l-1.29,3.7h-.53l-1.28-3.77v3.77h-.56Z"/>
      <path d="M2.75,39.39l.79.24c-.12.45-.32.78-.61,1-.28.22-.65.32-1.08.32-.54,0-.99-.19-1.33-.56s-.52-.87-.52-1.51c0-.68.18-1.2.52-1.58.35-.37.81-.56,1.38-.56.5,0,.9.15,1.21.44.18.17.32.42.41.75l-.81.19c-.05-.21-.15-.37-.3-.5-.15-.12-.34-.18-.56-.18-.3,0-.54.11-.73.32s-.28.57-.28,1.05c0,.51.09.88.28,1.1.19.22.43.33.72.33.22,0,.41-.07.56-.21.16-.14.27-.36.34-.65ZM5.94,39.96l.78.13c-.1.28-.26.5-.47.65-.22.15-.49.22-.81.22-.52,0-.89-.17-1.14-.51-.19-.27-.29-.61-.29-1.02,0-.49.13-.87.38-1.15.26-.28.58-.41.97-.41.44,0,.78.14,1.03.43.26.29.37.74.36,1.33h-1.95c0,.23.07.41.19.54s.27.19.45.19c.12,0,.22-.03.31-.1.09-.06.15-.17.19-.32ZM5.99,39.17c0-.23-.06-.4-.18-.52-.11-.12-.24-.18-.4-.18-.17,0-.31.06-.42.19-.11.12-.16.29-.16.51h1.16ZM7.07,37.95h.43v-.22c0-.25.03-.44.08-.56.05-.12.15-.22.3-.3.14-.07.32-.11.54-.11s.44.03.65.1l-.1.54c-.13-.03-.25-.05-.37-.05s-.2.03-.25.08c-.05.05-.07.15-.07.31v.21h.58v.61h-.58v2.33h-.78v-2.33h-.43v-.61ZM9.27,37.55v-.72h.78v.72h-.78ZM9.27,40.89v-2.95h.78v2.95h-.78ZM10.48,40.89l1.06-1.52-1.02-1.43h.95l.52.81.55-.81h.91l-1,1.4,1.09,1.55h-.95l-.6-.91-.61.91h-.91ZM14.01,37.55v-.72h.78v.72h-.78ZM14.01,40.89v-2.95h.78v2.95h-.78ZM15.53,37.95h.72v.4c.26-.31.56-.47.92-.47.19,0,.35.04.49.11.14.08.25.2.34.35.13-.15.27-.27.42-.35.15-.07.31-.11.48-.11.22,0,.4.05.55.13.15.09.26.22.33.39.05.12.08.33.08.61v1.88h-.78v-1.68c0-.3-.03-.48-.08-.57-.07-.11-.18-.16-.33-.16-.11,0-.21.03-.31.1-.1.07-.16.16-.21.3-.04.13-.06.33-.06.61v1.41h-.78v-1.61c0-.28-.01-.47-.04-.56-.03-.08-.07-.14-.13-.18-.06-.05-.14-.06-.24-.06-.12,0-.23.03-.32.1s-.16.16-.2.28c-.04.12-.06.32-.06.61v1.43h-.78v-2.95ZM22.33,39.96l.78.13c-.1.28-.26.5-.47.65-.22.15-.49.22-.81.22-.52,0-.89-.17-1.14-.51-.19-.27-.29-.61-.29-1.02,0-.49.13-.87.38-1.15.26-.28.58-.41.97-.41.44,0,.78.14,1.03.43.26.29.37.74.36,1.33h-1.95c0,.23.07.41.19.54s.27.19.45.19c.12,0,.22-.03.31-.1.09-.06.15-.17.19-.32ZM22.38,39.17c0-.23-.06-.4-.18-.52-.11-.12-.24-.18-.4-.18-.17,0-.31.06-.42.19-.11.12-.16.29-.16.51h1.16ZM25.2,39.85l.78-.08c.02.18.09.32.2.42s.23.15.37.15c.16,0,.3-.07.41-.2.11-.14.17-.33.17-.6s-.06-.44-.17-.57c-.11-.12-.26-.19-.44-.19-.22,0-.43.1-.6.3l-.63-.09.4-2.11h2.06v.73h-1.47l-.12.69c.17-.09.35-.13.53-.13.35,0,.64.12.88.38.24.25.36.58.36.98,0,.33-.1.63-.29.9-.27.36-.64.54-1.1.54-.37,0-.68-.1-.92-.3-.24-.2-.38-.48-.43-.82ZM29.67,36.81c.39,0,.7.14.92.42.27.33.4.89.4,1.66s-.13,1.32-.4,1.66c-.22.28-.53.42-.92.42s-.72-.15-.96-.46c-.24-.3-.36-.85-.36-1.63s.14-1.32.4-1.66c.22-.28.53-.41.92-.41ZM29.67,37.45c-.1,0-.18.03-.25.09-.07.06-.13.16-.17.32-.05.2-.08.54-.08,1.02s.02.81.07.98c.05.18.1.3.18.36.07.06.15.09.25.09.09,0,.18-.03.24-.09.07-.06.13-.17.17-.32.05-.2.08-.54.08-1.02s-.02-.81-.07-.99c-.05-.18-.11-.3-.18-.36-.07-.06-.15-.09-.24-.09ZM33.19,37.95h.72v.4c.26-.31.56-.47.92-.47.19,0,.35.04.49.11.14.08.25.2.34.35.13-.15.27-.27.42-.35.15-.07.31-.11.48-.11.22,0,.4.05.55.13.15.09.26.22.33.39.05.12.08.33.08.61v1.88h-.78v-1.68c0-.3-.03-.48-.08-.57-.07-.11-.18-.16-.33-.16-.11,0-.21.03-.31.1-.1.07-.16.16-.21.3-.04.13-.06.33-.06.61v1.41h-.78v-1.61c0-.28-.01-.47-.04-.56-.03-.08-.07-.14-.13-.18-.06-.05-.14-.06-.24-.06-.12,0-.23.03-.32.1s-.16.16-.2.28c-.04.12-.06.32-.06.61v1.43h-.78v-2.95ZM38.22,41.08l.89.11c.02.11.05.18.1.22.07.06.19.09.35.09.2,0,.35-.03.45-.09.07-.04.12-.11.16-.2.02-.06.03-.18.03-.36v-.43c-.23.32-.53.48-.88.48-.4,0-.71-.17-.94-.5-.18-.27-.27-.6-.27-.99,0-.49.12-.87.36-1.13s.53-.39.89-.39.66.16.9.48v-.41h.73v2.64c0,.35-.03.61-.09.78-.06.17-.14.31-.24.4-.1.1-.24.18-.41.23-.17.06-.39.09-.65.09-.5,0-.85-.09-1.06-.26-.21-.18-.31-.39-.31-.65v-.1ZM38.91,39.36c0,.31.06.54.18.69.12.14.27.22.45.22.19,0,.35-.07.48-.22.14-.15.2-.37.2-.66s-.06-.53-.19-.68-.28-.22-.48-.22-.34.07-.46.22c-.12.15-.18.37-.18.66ZM44.22,40.31v-1.06h-1.07v-.73h1.07v-1.06h.71v1.06h1.07v.73h-1.07v1.06h-.71ZM48.06,38.88c0-.41.06-.76.19-1.04.09-.2.22-.39.38-.56.16-.16.33-.29.52-.37.26-.11.54-.16.88-.16.6,0,1.08.19,1.44.56.36.37.54.89.54,1.55s-.18,1.17-.53,1.54c-.36.37-.83.56-1.43.56s-1.09-.19-1.45-.56c-.35-.37-.53-.87-.53-1.53ZM48.9,38.85c0,.47.11.81.32,1.05.22.24.49.36.81.36s.6-.12.81-.35c.21-.24.31-.59.31-1.07s-.1-.81-.31-1.04c-.2-.23-.48-.35-.82-.35s-.61.11-.82.35c-.21.23-.31.58-.31,1.05ZM52.31,37.95h.43v-.22c0-.25.03-.44.08-.56.05-.12.15-.22.3-.3.14-.07.32-.11.54-.11s.44.03.65.1l-.1.54c-.13-.03-.25-.05-.37-.05s-.2.03-.25.08c-.05.05-.07.15-.07.31v.21h.58v.61h-.58v2.33h-.78v-2.33h-.43v-.61ZM54.52,40.89v-4.06h.78v4.06h-.78ZM55.92,39.38c0-.26.06-.51.19-.75.12-.24.31-.43.54-.56.23-.13.49-.19.78-.19.45,0,.81.14,1.1.43.28.3.43.66.43,1.1s-.14.82-.43,1.11c-.28.3-.65.44-1.08.44-.27,0-.53-.06-.77-.18-.24-.12-.43-.3-.56-.54-.13-.24-.19-.52-.19-.86ZM56.72,39.42c0,.3.07.52.21.68.14.15.31.23.51.23s.37-.08.51-.23c.14-.16.2-.38.2-.68,0-.28-.07-.51-.2-.66s-.31-.23-.51-.23-.37.08-.51.23c-.14.15-.21.38-.21.67ZM59.19,40.89l1.06-1.52-1.02-1.43h.95l.52.81.55-.81h.91l-1,1.4,1.09,1.55h-.95l-.6-.91-.61.91h-.91ZM63.3,38.85l-.7-.12c.08-.29.22-.5.41-.64.2-.14.48-.2.87-.2.35,0,.61.04.78.12.16.08.29.18.36.31.07.12.1.36.1.7v.91c-.01.26,0,.45.03.57.02.12.07.26.14.4h-.77c-.02-.05-.05-.12-.07-.23-.01-.05-.02-.08-.03-.09-.13.13-.27.23-.43.3-.15.06-.31.1-.48.1-.3,0-.54-.09-.72-.25-.18-.16-.26-.37-.26-.62,0-.17.04-.32.12-.45s.19-.23.33-.3c.14-.07.35-.13.62-.18.36-.07.61-.14.75-.19v-.08c0-.15-.03-.26-.11-.32-.08-.06-.22-.1-.42-.1-.14,0-.25.03-.33.09-.07.05-.14.15-.19.29ZM64.35,39.48c-.1.03-.26.07-.47.12s-.36.09-.43.14c-.1.07-.15.16-.15.27s.04.2.12.28c.08.08.18.12.31.12.14,0,.28-.05.4-.14.1-.07.16-.16.19-.26.02-.07.03-.19.03-.38v-.15ZM68.44,38.82l-.77.14c-.02-.15-.09-.27-.18-.35-.09-.07-.21-.11-.36-.11-.19,0-.35.07-.46.2-.12.14-.18.36-.18.68,0,.35.06.6.18.74.12.14.27.22.47.22.15,0,.27-.05.36-.12.1-.09.16-.23.2-.44l.77.13c-.08.35-.23.62-.45.79-.23.18-.53.27-.91.27-.43,0-.77-.14-1.03-.41s-.39-.65-.39-1.13.13-.87.39-1.13c.26-.27.6-.41,1.04-.41.36,0,.65.08.86.23s.36.39.45.7ZM69.03,37.55v-.72h.78v.72h-.78ZM69.03,40.89v-2.95h.78v2.95h-.78ZM73.29,40.89h-.78v-1.5c0-.32-.02-.52-.05-.61-.03-.1-.09-.16-.16-.22-.07-.06-.16-.08-.27-.08-.14,0-.26.03-.36.11s-.18.18-.22.3c-.04.12-.06.35-.06.68v1.33h-.78v-2.95h.72v.43c.26-.33.58-.49.98-.49.17,0,.33.03.47.09.15.06.26.14.32.24.07.1.12.2.15.33.03.12.05.3.05.52v1.83ZM75.49,39.85l.78-.08c.02.18.09.32.2.42s.23.15.37.15c.16,0,.3-.07.41-.2.11-.14.17-.33.17-.6s-.06-.44-.17-.57c-.11-.12-.26-.19-.44-.19-.22,0-.43.1-.6.3l-.63-.09.4-2.11h2.06v.73h-1.47l-.12.69c.17-.09.35-.13.53-.13.35,0,.64.12.88.38.24.25.36.58.36.98,0,.33-.1.63-.29.9-.27.36-.64.54-1.1.54-.37,0-.68-.1-.92-.3-.24-.2-.38-.48-.43-.82ZM79.96,36.81c.39,0,.7.14.92.42.27.33.4.89.4,1.66s-.13,1.32-.4,1.66c-.22.28-.53.42-.92.42s-.72-.15-.96-.46c-.24-.3-.36-.85-.36-1.63s.14-1.32.4-1.66c.22-.28.53-.41.92-.41ZM79.96,37.45c-.1,0-.18.03-.25.09-.07.06-.13.16-.17.32-.05.2-.08.54-.08,1.02s.02.81.07.98c.05.18.1.3.18.36.07.06.15.09.25.09.09,0,.18-.03.24-.09.07-.06.13-.17.17-.32.05-.2.08-.54.08-1.02s-.02-.81-.07-.99c-.05-.18-.11-.3-.18-.36-.07-.06-.15-.09-.24-.09ZM83.48,37.95h.72v.4c.26-.31.56-.47.92-.47.19,0,.35.04.49.11.14.08.25.2.34.35.13-.15.27-.27.42-.35.15-.07.31-.11.48-.11.22,0,.4.05.55.13.15.09.26.22.33.39.05.12.08.33.08.61v1.88h-.78v-1.68c0-.3-.03-.48-.08-.57-.07-.11-.18-.16-.33-.16-.11,0-.21.03-.31.1-.1.07-.16.16-.21.3-.04.13-.06.33-.06.61v1.41h-.78v-1.61c0-.28-.01-.47-.04-.56-.03-.08-.07-.14-.13-.18-.06-.05-.14-.06-.24-.06-.12,0-.23.03-.32.1s-.16.16-.2.28c-.04.12-.06.32-.06.61v1.43h-.78v-2.95ZM88.51,41.08l.89.11c.02.11.05.18.1.22.07.06.19.09.35.09.2,0,.35-.03.45-.09.07-.04.12-.11.16-.2.02-.06.03-.18.03-.36v-.43c-.23.32-.53.48-.88.48-.4,0-.71-.17-.94-.5-.18-.27-.27-.6-.27-.99,0-.49.12-.87.36-1.13s.53-.39.89-.39.66.16.9.48v-.41h.73v2.64c0,.35-.03.61-.09.78-.06.17-.14.31-.24.4-.1.1-.24.18-.41.23-.17.06-.39.09-.65.09-.5,0-.85-.09-1.06-.26-.21-.18-.31-.39-.31-.65v-.1ZM89.2,39.36c0,.31.06.54.18.69.12.14.27.22.45.22.19,0,.35-.07.48-.22.14-.15.2-.37.2-.66s-.06-.53-.19-.68-.28-.22-.48-.22-.34.07-.46.22c-.12.15-.18.37-.18.66Z"/>
    </g>
  </g>
</svg>