<?xml version="1.0" encoding="UTF-8"?>
<svg id="Layer_1" data-name="Layer 1" xmlns="http://www.w3.org/2000/svg" viewBox="0 0 252.75 72.94">
  <defs>
    <style>
      .cls-1 {
        fill: #f58220;
      }

      .cls-2 {
        fill: #00a651;
      }

      .cls-3, .cls-4 {
        fill: #231f20;
      }

      .cls-4 {
        font-family: Arial-BoldMT, Arial;
        font-size: 6px;
        font-weight: 700;
      }

      .cls-5 {
        fill: #00aeef;
      }
    </style>
  </defs>
  <g>
    <path class="cls-1" d="M39.23,48.62h-7.55c.91-3.95,1.71-7.3,2.38-10.13.61-2.76,1.16-5,1.52-6.77.43-1.78.73-3.22.91-4.21.24-.99.37-1.64.43-2.04.06-.39.12-.53.12-.53-4.69,7.5-8.04,12.82-10.11,15.91-2.01,3.09-3.05,4.6-3.05,4.6h0c-1.4,0-2.68-.46-3.78-1.45-1.1-.92-1.83-2.17-2.19-3.75-.18-1.12-.43-2.17-.61-3.16-.18-.99-.3-1.91-.49-2.76-.18-.85-.3-1.64-.43-2.37-.12-.72-.24-1.38-.37-1.97-.12-.59-.18-1.18-.3-1.64-.06-.46-.18-.92-.24-1.32-.06-.39-.12-.72-.18-.99,0-.26-.06-.53-.12-.79,0-.2-.06-.39-.06-.53-.06-.2-.06-.33-.12-.39v-.2c-.06-.07-.06-.13-.06-.13h0c-.91,4.14-1.71,7.63-2.38,10.52-.61,2.89-1.16,5.26-1.52,7.1-.43,1.84-.73,3.29-.91,4.27-.18,1.05-.37,1.71-.43,2.1-.06.39-.12.59-.12.59H0c.61-2.7,1.16-5.26,1.71-7.63.49-2.37.97-4.54,1.4-6.51.43-2.04.79-3.88,1.16-5.52.37-1.71.73-3.22,1.04-4.6.3-1.38.55-2.7.85-3.81.24-1.12.43-2.1.61-2.96.18-.92.37-1.71.55-2.37.12-.66.24-1.25.37-1.78.12-.53.18-.92.3-1.25.06-.33.12-.66.12-.85.06-.26.12-.39.12-.53.06-.13.06-.2.06-.26s.06-.07.06-.07q0-.07-.06-.07c1.1-3.22,3.05-4.8,5.91-4.8h5.6c.3,1.32.55,2.56.73,3.81.24,1.18.49,2.3.67,3.35s.37,2.04.55,2.96.37,1.84.49,2.63c.18.79.3,1.51.43,2.24.12.66.24,1.32.37,1.91.12.59.18,1.12.3,1.58.06.46.18.92.24,1.32.06.39.12.79.18,1.05.06.33.12.66.12.85.06.26.12.53.12.66.06.2.06.39.12.53v.33c.06.07.06.13.06.2v.13c.06,0,.06.07.06.07h-.06c1.34-2.04,2.5-3.88,3.59-5.52,1.1-1.71,2.13-3.29,2.99-4.67.91-1.38,1.71-2.63,2.44-3.68.73-1.12,1.4-2.1,1.95-3.03.61-.85,1.1-1.64,1.52-2.3.43-.66.85-1.25,1.16-1.71.3-.46.55-.85.79-1.18.24-.33.43-.59.55-.79.18-.2.24-.33.3-.46.12-.13.12-.2.18-.2l.06-.07h10.84c-.67,2.83-1.22,5.52-1.77,8.02s-1.04,4.8-1.52,6.97-.91,4.14-1.28,5.98c-.43,1.84-.79,3.55-1.1,5.06-.37,1.58-.67,2.96-.97,4.21-.24,1.25-.49,2.43-.73,3.49-.24.99-.43,1.91-.61,2.76-.18.79-.37,1.51-.49,2.17-.12.59-.24,1.12-.3,1.58-.12.46-.18.85-.24,1.18-.12.26-.18.53-.18.72-.06.26-.12.39-.12.53s-.06.2-.06.2v.13h-1.95ZM53,22.18c3.84-4.08,8.53-6.25,14.01-6.51h7.25c2.56,0,4.63,1.05,6.15,3.03,1.46,2.04,1.95,4.34,1.4,6.91-.18.66-.3,1.25-.43,1.71-.12.46-.24.85-.3,1.18-.06.33-.12.59-.18.79-.06.2-.12.39-.12.53-.06.07-.06.2-.06.2l-.06.07v.07c-.49,2.04-1.46,3.68-2.99,4.93-1.52,1.18-3.23,1.84-5.24,1.84h-8.96c-1.34-.26-2.13-.99-2.5-2.24-.3-1.25-.12-2.56.61-3.81.73-1.32,2.07-2.17,4.02-2.56h5.67c.12-.46.24-.92.3-1.32.12-.39.18-.66.24-.92.06-.26.12-.53.18-.66,0-.2.06-.33.06-.39,0-.13.06-.2.06-.2v-.07h-6.09c-2.13,0-3.96.59-5.54,1.78-1.52,1.25-2.62,3.16-3.29,5.85-.3,1.91-.06,3.68.85,5.26.85,1.58,2.56,2.43,5.12,2.43h15.23c-.24.92-.43,1.78-.61,2.56-.18.72-.37,1.38-.55,1.97-.12.53-.24,1.05-.37,1.45-.06.46-.18.79-.24,1.12-.06.26-.12.53-.18.66-.06.2-.06.33-.12.46,0,.13-.06.2-.06.2v.13h-17.36c-4.14,0-7.13-1.05-8.89-3.22-1.83-2.1-2.74-4.67-2.8-7.63h0c0-6.31,1.95-11.51,5.79-15.59Z"/>
    <path class="cls-1" d="M113.73,36.98h-9.57l2.68-12.3h-5.97c-4.26-.07-7.07,2.5-8.47,7.56-.37,1.97-.06,3.75.79,5.33.91,1.58,2.56,2.37,4.93,2.43h14.93l-2.07,8.62h-16.94c-3.96-.07-6.82-1.18-8.65-3.29-1.77-2.1-2.74-4.67-2.86-7.63.12-6.38,2.07-11.57,5.79-15.65,3.66-4.08,8.22-6.25,13.59-6.58h7.13l2.44-9.86h9.57l-7.31,31.37Z"/>
    <path class="cls-5" d="M124.66,5.61h9.99l-7.43,31.83c-.06.53.06.99.37,1.45.3.39.73.66,1.28.66h5.42l-2.13,9.08h-6.76c-2.74,0-4.93-1.12-6.52-3.35-1.64-2.3-2.13-4.87-1.58-7.83h0l7.37-31.83ZM148.85,48.49c-5-.59-8.29-2.89-9.87-7.04-1.64-4.08-1.22-9.14,1.22-15.19,4.14-7.5,10.66-10.98,19.37-10.52h13.89l-.43,1.71h.06l-2.44,10.39-4.93,20.78h-9.69l-7.19-.13ZM160.92,27.84l.79-3.42h-4.69c-2.5,0-4.51.72-6.03,2.17-1.58,1.38-2.62,3.09-3.17,5-1.04,5.2.61,7.69,5,7.63h5.36l2.74-11.38ZM198.81,48.62h-9.87l4.93-21.77c.06-.53-.06-1.05-.3-1.45-.3-.46-.73-.66-1.28-.66h-7.37l-5.24,23.87h-9.93l7.31-32.88h12.06v-.07h6.76c2.68,0,4.81,1.12,6.4,3.35s2.07,4.87,1.52,7.83h0l-5,21.77ZM235.73,36.98h-9.56l2.68-12.3h-5.97c-4.26-.07-7.07,2.5-8.47,7.56-.37,1.97-.06,3.75.79,5.33.91,1.58,2.56,2.37,4.93,2.43h14.93l-2.07,8.62h-16.94c-3.96-.07-6.82-1.18-8.65-3.29-1.77-2.1-2.74-4.67-2.86-7.63.12-6.38,2.07-11.57,5.79-15.65,3.66-4.08,8.22-6.25,13.59-6.58h7.13l2.44-9.86h9.57l-7.31,31.37Z"/>
  </g>
  <path class="cls-2" d="M135.81,52.18h4.67c.67,0,1.2.27,1.61.78.42.53.55,1.14.42,1.85,0,0-.04.19-.12.56-.09.39-.23,1.06-.43,2.05-.12.48-.36.89-.74,1.2-.38.33-.8.48-1.29.48h-4.96v-.02h0s.01-.02.01-.02h0s-.01,0-.01.02,0,.03-.01.05c0,.03,0,.05-.01.09,0,.03-.01.06-.01.11-.01.05-.03.11-.04.17s-.03.13-.04.2c-.03.08-.04.17-.06.27-.03.11-.06.22-.07.34-.03.11-.06.25-.09.39-.03.16-.07.31-.1.48-.04.17-.09.36-.13.56-.04.2-.09.41-.13.64h-2.39v-.03s.01-.03.01-.05c.01-.03.01-.08.03-.13.01-.05.03-.11.04-.19.01-.08.04-.17.06-.28.03-.11.06-.25.09-.39.04-.16.09-.33.13-.53.04-.2.09-.42.14-.67s.12-.53.19-.84.14-.66.23-1.03.17-.78.28-1.24c.09-.44.2-.94.32-1.45.12-.53.25-1.09.38-1.7.38-1.13,1.06-1.69,2.04-1.69ZM135.5,56.73h3.98c.14,0,.25-.08.29-.22,0,0,.13-.55.38-1.64.01-.09-.01-.17-.07-.25-.04-.06-.12-.09-.22-.09h-3.68s-.1.02-.16.06-.1.11-.12.19c0,0-.14.64-.41,1.96ZM141.65,62.41h2.36l1.25-5.69h1.67c.13,0,.23.05.3.16.07.09.1.22.09.34l-1.17,5.19h2.36l1.17-5.19c.14-.7.01-1.33-.36-1.86-.38-.53-.9-.8-1.55-.8h-2.03l.54-2.38h-2.36l-2.26,10.23ZM154.27,62.41h2.3l1.17-4.94.58-2.47h-.01l.1-.41h-3.3c-2.07-.11-3.62.72-4.61,2.5-.58,1.44-.68,2.64-.29,3.61.38.99,1.16,1.53,2.35,1.67l1.71.03ZM154.77,60.17h-1.28c-1.04.02-1.43-.58-1.19-1.81.13-.45.38-.86.75-1.19.36-.34.84-.52,1.43-.52h1.12l-.19.81-.65,2.71ZM158.72,56.74h0l-1.28,5.66h2.32l1.14-5.02c.04-.17.12-.31.23-.41.13-.11.26-.17.41-.17h1.26l.46-2.24h-2.25c-1.2.19-1.96.91-2.3,2.17ZM173.61,57.23h0c.13-.7.01-1.33-.36-1.86-.38-.53-.88-.8-1.54-.8h-.81v.02h-.81l-.33,1.5c-.32-1-.96-1.52-1.87-1.52h-1.61v.02h-2.13l-1.74,7.82h2.36l1.25-5.68h1.01c.13,0,.23.05.3.16.07.09.1.22.09.34l-1.19,5.18h2.35l1.19-5.18c.04-.16.06-.33.07-.5h1.01c.13,0,.23.05.3.16.07.09.1.22.09.34l-1.19,5.18h2.35l1.2-5.18ZM178.07,62.41h2.3l1.17-4.94.58-2.47h-.01l.1-.41h-3.3c-2.07-.11-3.62.72-4.61,2.5-.58,1.44-.68,2.64-.29,3.61.38.99,1.16,1.53,2.35,1.67l1.71.03ZM178.58,60.17h-1.28c-1.04.02-1.43-.58-1.19-1.81.13-.45.38-.86.75-1.19.36-.34.84-.52,1.43-.52h1.12l-.19.81-.65,2.71ZM181.88,59.81h0c-.06.72.13,1.33.57,1.83.42.5,1.14.77,2.16.77h3.69l.49-2.03h-3.22c-.57-.02-.96-.22-1.17-.59-.2-.36-.26-.78-.17-1.25.32-1.2.99-1.81,1.99-1.8h3.35l.57-2.16h-3.98c-1.2.16-2.2.72-3,1.66-.81.95-1.23,2.16-1.26,3.58ZM189.91,59.83h0c.01.7.23,1.31.67,1.81.42.52,1.13.77,2.12.77h4.13v-.03s.01-.02.01-.05c.01-.03.01-.06.03-.11.01-.03.03-.09.04-.16.01-.08.04-.16.06-.27.03-.09.06-.22.09-.34.04-.14.09-.3.13-.47.04-.19.09-.39.14-.61h-3.62c-.61,0-1.01-.2-1.22-.58-.22-.38-.28-.8-.2-1.25.16-.64.42-1.09.78-1.39.38-.28.81-.42,1.32-.42h1.45v.02s-.01.02-.01.05c0,.02-.01.05-.01.09-.01.03-.03.09-.04.16s-.03.13-.06.22c-.01.09-.04.2-.07.31h-1.35c-.46.09-.78.3-.96.61-.17.3-.22.61-.14.91.09.3.28.47.59.53h2.13c.48,0,.88-.16,1.25-.44.36-.3.59-.69.71-1.17v-.03s.01-.03.03-.05c0-.03.01-.08.03-.13.01-.05.03-.11.04-.19.01-.08.04-.17.07-.28s.06-.25.1-.41c.13-.61.01-1.16-.33-1.64-.36-.47-.85-.72-1.46-.72h-1.72c-1.3.06-2.42.58-3.33,1.55s-1.38,2.21-1.38,3.71ZM198.31,59.75h0c-.13.7-.01,1.33.36,1.86s.88.8,1.52.8h2.29v-.02h2.13l1.7-7.82h-2.33l-1.25,5.68h-1.68c-.14,0-.25-.05-.3-.16-.07-.09-.1-.22-.09-.34l1.16-5.18h-2.33l-1.17,5.18ZM206.08,59.75h0c-.14.7-.03,1.31.35,1.86.36.53.87.8,1.51.8h1.59l.46-2.16h-1.2c-.14,0-.25-.06-.3-.16-.07-.11-.1-.22-.09-.34.04-.22.1-.42.13-.61.04-.19.09-.36.13-.52.03-.16.06-.3.09-.42.03-.14.06-.25.07-.36.03-.11.06-.2.07-.28.01-.09.03-.17.06-.23.01-.06.03-.13.03-.17.01-.05.01-.09.03-.13,0-.03.01-.06.01-.08,0-.03.01-.05.01-.06v-.03s.01-.02.01-.02h1.68l.46-2.27h-1.67c.04-.17.07-.33.12-.48.03-.16.07-.3.09-.42.03-.13.06-.23.09-.34.03-.11.06-.2.07-.3s.04-.17.06-.23c.01-.06.03-.13.04-.19.01-.06.01-.11.03-.16.01-.03.03-.08.03-.11.01-.03.01-.05.01-.08.01-.02.01-.03.01-.05v-.03h.01-2.32l-1.7,7.57ZM210.49,62.25h0s-.04.11-.09.16h2.41c.01-.06.03-.11.04-.16l1.7-7.71h-2.36l-1.7,7.71ZM212.33,53.87h2.36l.35-1.69h-2.36l-.35,1.69ZM214.27,59.81h0c-.06.72.13,1.33.57,1.83.42.5,1.14.77,2.16.77h3.69l.49-2.03h-3.22c-.57-.02-.96-.22-1.17-.59-.2-.36-.26-.78-.17-1.25.32-1.2.99-1.81,1.99-1.8h3.35l.57-2.16h-3.98c-1.2.16-2.2.72-3,1.66-.81.95-1.23,2.16-1.26,3.58ZM226.58,62.41h2.3l1.17-4.94.58-2.47h-.01l.1-.41h-3.3c-2.07-.11-3.62.72-4.61,2.5-.58,1.44-.68,2.64-.29,3.61.38.99,1.16,1.53,2.35,1.67l1.71.03ZM227.09,60.17h-1.28c-1.04.02-1.43-.58-1.19-1.81.13-.45.38-.86.75-1.19.36-.34.84-.52,1.43-.52h1.12l-.19.81-.65,2.71ZM230.5,59.75h0c-.13.7-.01,1.31.38,1.86.38.53.9.8,1.55.8h1.61l.51-2.16h-1.29c-.13,0-.23-.06-.3-.16-.07-.11-.1-.22-.09-.34l1.77-7.57h-2.38l-1.75,7.57ZM234.86,62.41h0l.41-2.13h3.74c.39.03.62-.09.71-.39,0-.33-.22-.48-.7-.45h-1.04c-.72-.02-1.28-.27-1.67-.75-.38-.5-.51-1.17-.35-2.03.42-1.49,1.48-2.17,3.17-2.06h3.91l-.42,2.03h-3.85c-.29-.02-.45.11-.49.34-.03.19.04.31.19.38s.33.09.58.08l.94-.03c.88.03,1.48.3,1.75.8.29.52.36,1.19.23,2.03-.29,1.52-1.26,2.25-2.91,2.19h-4.2Z"/>
  <path class="cls-3" d="M243.04,6.27V.74h-2.06v-.74h4.96v.74h-2.07v5.53h-.83ZM246.77,6.27V0h1.24l1.48,4.44c.14.41.24.72.31.93.07-.23.18-.57.33-1.01l1.51-4.36h1.11v6.27h-.8V1.02l-1.83,5.24h-.74l-1.81-5.34v5.34h-.8Z"/>
  <text class="cls-4" transform="translate(123.8 70.68)"><tspan x="0" y="0">(A GROUP OF MEDLAND CORPORATION)</tspan></text>
</svg>